G04 #@! TF.GenerationSoftware,KiCad,Pcbnew,(5.1.4-0-10_14)*
G04 #@! TF.CreationDate,2020-04-02T23:01:16+03:00*
G04 #@! TF.ProjectId,esp32-pico-d4-module,65737033-322d-4706-9963-6f2d64342d6d,rev?*
G04 #@! TF.SameCoordinates,Original*
G04 #@! TF.FileFunction,Soldermask,Top*
G04 #@! TF.FilePolarity,Negative*
%FSLAX46Y46*%
G04 Gerber Fmt 4.6, Leading zero omitted, Abs format (unit mm)*
G04 Created by KiCad (PCBNEW (5.1.4-0-10_14)) date 2020-04-02 23:01:16*
%MOMM*%
%LPD*%
G04 APERTURE LIST*
%ADD10C,0.100000*%
G04 APERTURE END LIST*
D10*
G36*
X109900443Y-113705519D02*
G01*
X109966627Y-113712037D01*
X110136466Y-113763557D01*
X110292991Y-113847222D01*
X110328729Y-113876552D01*
X110430186Y-113959814D01*
X110513448Y-114061271D01*
X110542778Y-114097009D01*
X110626443Y-114253534D01*
X110677963Y-114423373D01*
X110695359Y-114600000D01*
X110677963Y-114776627D01*
X110626443Y-114946466D01*
X110542778Y-115102991D01*
X110513448Y-115138729D01*
X110430186Y-115240186D01*
X110328729Y-115323448D01*
X110292991Y-115352778D01*
X110136466Y-115436443D01*
X109966627Y-115487963D01*
X109900443Y-115494481D01*
X109834260Y-115501000D01*
X109745740Y-115501000D01*
X109679557Y-115494481D01*
X109613373Y-115487963D01*
X109443534Y-115436443D01*
X109287009Y-115352778D01*
X109251271Y-115323448D01*
X109149814Y-115240186D01*
X109066552Y-115138729D01*
X109037222Y-115102991D01*
X108953557Y-114946466D01*
X108902037Y-114776627D01*
X108884641Y-114600000D01*
X108902037Y-114423373D01*
X108953557Y-114253534D01*
X109037222Y-114097009D01*
X109066552Y-114061271D01*
X109149814Y-113959814D01*
X109251271Y-113876552D01*
X109287009Y-113847222D01*
X109443534Y-113763557D01*
X109613373Y-113712037D01*
X109679557Y-113705519D01*
X109745740Y-113699000D01*
X109834260Y-113699000D01*
X109900443Y-113705519D01*
X109900443Y-113705519D01*
G37*
G36*
X125125025Y-113699000D02*
G01*
X125206627Y-113707037D01*
X125376466Y-113758557D01*
X125532991Y-113842222D01*
X125539082Y-113847221D01*
X125670186Y-113954814D01*
X125753448Y-114056271D01*
X125782778Y-114092009D01*
X125866443Y-114248534D01*
X125917963Y-114418373D01*
X125935359Y-114595000D01*
X125917963Y-114771627D01*
X125866443Y-114941466D01*
X125782778Y-115097991D01*
X125753448Y-115133729D01*
X125670186Y-115235186D01*
X125568729Y-115318448D01*
X125532991Y-115347778D01*
X125376466Y-115431443D01*
X125206627Y-115482963D01*
X125155860Y-115487963D01*
X125074260Y-115496000D01*
X124985740Y-115496000D01*
X124904140Y-115487963D01*
X124853373Y-115482963D01*
X124683534Y-115431443D01*
X124527009Y-115347778D01*
X124491271Y-115318448D01*
X124389814Y-115235186D01*
X124306552Y-115133729D01*
X124277222Y-115097991D01*
X124193557Y-114941466D01*
X124142037Y-114771627D01*
X124124641Y-114595000D01*
X124142037Y-114418373D01*
X124193557Y-114248534D01*
X124277222Y-114092009D01*
X124306552Y-114056271D01*
X124389814Y-113954814D01*
X124520918Y-113847221D01*
X124527009Y-113842222D01*
X124683534Y-113758557D01*
X124853373Y-113707037D01*
X124934975Y-113699000D01*
X124985740Y-113694000D01*
X125074260Y-113694000D01*
X125125025Y-113699000D01*
X125125025Y-113699000D01*
G37*
G36*
X122585025Y-113699000D02*
G01*
X122666627Y-113707037D01*
X122836466Y-113758557D01*
X122992991Y-113842222D01*
X122999082Y-113847221D01*
X123130186Y-113954814D01*
X123213448Y-114056271D01*
X123242778Y-114092009D01*
X123326443Y-114248534D01*
X123377963Y-114418373D01*
X123395359Y-114595000D01*
X123377963Y-114771627D01*
X123326443Y-114941466D01*
X123242778Y-115097991D01*
X123213448Y-115133729D01*
X123130186Y-115235186D01*
X123028729Y-115318448D01*
X122992991Y-115347778D01*
X122836466Y-115431443D01*
X122666627Y-115482963D01*
X122615860Y-115487963D01*
X122534260Y-115496000D01*
X122445740Y-115496000D01*
X122364140Y-115487963D01*
X122313373Y-115482963D01*
X122143534Y-115431443D01*
X121987009Y-115347778D01*
X121951271Y-115318448D01*
X121849814Y-115235186D01*
X121766552Y-115133729D01*
X121737222Y-115097991D01*
X121653557Y-114941466D01*
X121602037Y-114771627D01*
X121584641Y-114595000D01*
X121602037Y-114418373D01*
X121653557Y-114248534D01*
X121737222Y-114092009D01*
X121766552Y-114056271D01*
X121849814Y-113954814D01*
X121980918Y-113847221D01*
X121987009Y-113842222D01*
X122143534Y-113758557D01*
X122313373Y-113707037D01*
X122394975Y-113699000D01*
X122445740Y-113694000D01*
X122534260Y-113694000D01*
X122585025Y-113699000D01*
X122585025Y-113699000D01*
G37*
G36*
X120045025Y-113699000D02*
G01*
X120126627Y-113707037D01*
X120296466Y-113758557D01*
X120452991Y-113842222D01*
X120459082Y-113847221D01*
X120590186Y-113954814D01*
X120673448Y-114056271D01*
X120702778Y-114092009D01*
X120786443Y-114248534D01*
X120837963Y-114418373D01*
X120855359Y-114595000D01*
X120837963Y-114771627D01*
X120786443Y-114941466D01*
X120702778Y-115097991D01*
X120673448Y-115133729D01*
X120590186Y-115235186D01*
X120488729Y-115318448D01*
X120452991Y-115347778D01*
X120296466Y-115431443D01*
X120126627Y-115482963D01*
X120075860Y-115487963D01*
X119994260Y-115496000D01*
X119905740Y-115496000D01*
X119824140Y-115487963D01*
X119773373Y-115482963D01*
X119603534Y-115431443D01*
X119447009Y-115347778D01*
X119411271Y-115318448D01*
X119309814Y-115235186D01*
X119226552Y-115133729D01*
X119197222Y-115097991D01*
X119113557Y-114941466D01*
X119062037Y-114771627D01*
X119044641Y-114595000D01*
X119062037Y-114418373D01*
X119113557Y-114248534D01*
X119197222Y-114092009D01*
X119226552Y-114056271D01*
X119309814Y-113954814D01*
X119440918Y-113847221D01*
X119447009Y-113842222D01*
X119603534Y-113758557D01*
X119773373Y-113707037D01*
X119854975Y-113699000D01*
X119905740Y-113694000D01*
X119994260Y-113694000D01*
X120045025Y-113699000D01*
X120045025Y-113699000D01*
G37*
G36*
X117505025Y-113699000D02*
G01*
X117586627Y-113707037D01*
X117756466Y-113758557D01*
X117912991Y-113842222D01*
X117919082Y-113847221D01*
X118050186Y-113954814D01*
X118133448Y-114056271D01*
X118162778Y-114092009D01*
X118246443Y-114248534D01*
X118297963Y-114418373D01*
X118315359Y-114595000D01*
X118297963Y-114771627D01*
X118246443Y-114941466D01*
X118162778Y-115097991D01*
X118133448Y-115133729D01*
X118050186Y-115235186D01*
X117948729Y-115318448D01*
X117912991Y-115347778D01*
X117756466Y-115431443D01*
X117586627Y-115482963D01*
X117535860Y-115487963D01*
X117454260Y-115496000D01*
X117365740Y-115496000D01*
X117284140Y-115487963D01*
X117233373Y-115482963D01*
X117063534Y-115431443D01*
X116907009Y-115347778D01*
X116871271Y-115318448D01*
X116769814Y-115235186D01*
X116686552Y-115133729D01*
X116657222Y-115097991D01*
X116573557Y-114941466D01*
X116522037Y-114771627D01*
X116504641Y-114595000D01*
X116522037Y-114418373D01*
X116573557Y-114248534D01*
X116657222Y-114092009D01*
X116686552Y-114056271D01*
X116769814Y-113954814D01*
X116900918Y-113847221D01*
X116907009Y-113842222D01*
X117063534Y-113758557D01*
X117233373Y-113707037D01*
X117314975Y-113699000D01*
X117365740Y-113694000D01*
X117454260Y-113694000D01*
X117505025Y-113699000D01*
X117505025Y-113699000D01*
G37*
G36*
X114965025Y-113699000D02*
G01*
X115046627Y-113707037D01*
X115216466Y-113758557D01*
X115372991Y-113842222D01*
X115379082Y-113847221D01*
X115510186Y-113954814D01*
X115593448Y-114056271D01*
X115622778Y-114092009D01*
X115706443Y-114248534D01*
X115757963Y-114418373D01*
X115775359Y-114595000D01*
X115757963Y-114771627D01*
X115706443Y-114941466D01*
X115622778Y-115097991D01*
X115593448Y-115133729D01*
X115510186Y-115235186D01*
X115408729Y-115318448D01*
X115372991Y-115347778D01*
X115216466Y-115431443D01*
X115046627Y-115482963D01*
X114995860Y-115487963D01*
X114914260Y-115496000D01*
X114825740Y-115496000D01*
X114744140Y-115487963D01*
X114693373Y-115482963D01*
X114523534Y-115431443D01*
X114367009Y-115347778D01*
X114331271Y-115318448D01*
X114229814Y-115235186D01*
X114146552Y-115133729D01*
X114117222Y-115097991D01*
X114033557Y-114941466D01*
X113982037Y-114771627D01*
X113964641Y-114595000D01*
X113982037Y-114418373D01*
X114033557Y-114248534D01*
X114117222Y-114092009D01*
X114146552Y-114056271D01*
X114229814Y-113954814D01*
X114360918Y-113847221D01*
X114367009Y-113842222D01*
X114523534Y-113758557D01*
X114693373Y-113707037D01*
X114774975Y-113699000D01*
X114825740Y-113694000D01*
X114914260Y-113694000D01*
X114965025Y-113699000D01*
X114965025Y-113699000D01*
G37*
G36*
X112425025Y-113699000D02*
G01*
X112506627Y-113707037D01*
X112676466Y-113758557D01*
X112832991Y-113842222D01*
X112839082Y-113847221D01*
X112970186Y-113954814D01*
X113053448Y-114056271D01*
X113082778Y-114092009D01*
X113166443Y-114248534D01*
X113217963Y-114418373D01*
X113235359Y-114595000D01*
X113217963Y-114771627D01*
X113166443Y-114941466D01*
X113082778Y-115097991D01*
X113053448Y-115133729D01*
X112970186Y-115235186D01*
X112868729Y-115318448D01*
X112832991Y-115347778D01*
X112676466Y-115431443D01*
X112506627Y-115482963D01*
X112455860Y-115487963D01*
X112374260Y-115496000D01*
X112285740Y-115496000D01*
X112204140Y-115487963D01*
X112153373Y-115482963D01*
X111983534Y-115431443D01*
X111827009Y-115347778D01*
X111791271Y-115318448D01*
X111689814Y-115235186D01*
X111606552Y-115133729D01*
X111577222Y-115097991D01*
X111493557Y-114941466D01*
X111442037Y-114771627D01*
X111424641Y-114595000D01*
X111442037Y-114418373D01*
X111493557Y-114248534D01*
X111577222Y-114092009D01*
X111606552Y-114056271D01*
X111689814Y-113954814D01*
X111820918Y-113847221D01*
X111827009Y-113842222D01*
X111983534Y-113758557D01*
X112153373Y-113707037D01*
X112234975Y-113699000D01*
X112285740Y-113694000D01*
X112374260Y-113694000D01*
X112425025Y-113699000D01*
X112425025Y-113699000D01*
G37*
G36*
X127665025Y-113699000D02*
G01*
X127746627Y-113707037D01*
X127916466Y-113758557D01*
X128072991Y-113842222D01*
X128079082Y-113847221D01*
X128210186Y-113954814D01*
X128293448Y-114056271D01*
X128322778Y-114092009D01*
X128406443Y-114248534D01*
X128457963Y-114418373D01*
X128475359Y-114595000D01*
X128457963Y-114771627D01*
X128406443Y-114941466D01*
X128322778Y-115097991D01*
X128293448Y-115133729D01*
X128210186Y-115235186D01*
X128108729Y-115318448D01*
X128072991Y-115347778D01*
X127916466Y-115431443D01*
X127746627Y-115482963D01*
X127695860Y-115487963D01*
X127614260Y-115496000D01*
X127525740Y-115496000D01*
X127444140Y-115487963D01*
X127393373Y-115482963D01*
X127223534Y-115431443D01*
X127067009Y-115347778D01*
X127031271Y-115318448D01*
X126929814Y-115235186D01*
X126846552Y-115133729D01*
X126817222Y-115097991D01*
X126733557Y-114941466D01*
X126682037Y-114771627D01*
X126664641Y-114595000D01*
X126682037Y-114418373D01*
X126733557Y-114248534D01*
X126817222Y-114092009D01*
X126846552Y-114056271D01*
X126929814Y-113954814D01*
X127060918Y-113847221D01*
X127067009Y-113842222D01*
X127223534Y-113758557D01*
X127393373Y-113707037D01*
X127474975Y-113699000D01*
X127525740Y-113694000D01*
X127614260Y-113694000D01*
X127665025Y-113699000D01*
X127665025Y-113699000D01*
G37*
G36*
X128534468Y-111803565D02*
G01*
X128573138Y-111815296D01*
X128608777Y-111834346D01*
X128640017Y-111859983D01*
X128665654Y-111891223D01*
X128684704Y-111926862D01*
X128696435Y-111965532D01*
X128701000Y-112011888D01*
X128701000Y-113088112D01*
X128696435Y-113134468D01*
X128684704Y-113173138D01*
X128665654Y-113208777D01*
X128640017Y-113240017D01*
X128608777Y-113265654D01*
X128573138Y-113284704D01*
X128534468Y-113296435D01*
X128488112Y-113301000D01*
X127836888Y-113301000D01*
X127790532Y-113296435D01*
X127751862Y-113284704D01*
X127716223Y-113265654D01*
X127684983Y-113240017D01*
X127659346Y-113208777D01*
X127640296Y-113173138D01*
X127628565Y-113134468D01*
X127624000Y-113088112D01*
X127624000Y-112011888D01*
X127628565Y-111965532D01*
X127640296Y-111926862D01*
X127659346Y-111891223D01*
X127684983Y-111859983D01*
X127716223Y-111834346D01*
X127751862Y-111815296D01*
X127790532Y-111803565D01*
X127836888Y-111799000D01*
X128488112Y-111799000D01*
X128534468Y-111803565D01*
X128534468Y-111803565D01*
G37*
G36*
X126659468Y-111803565D02*
G01*
X126698138Y-111815296D01*
X126733777Y-111834346D01*
X126765017Y-111859983D01*
X126790654Y-111891223D01*
X126809704Y-111926862D01*
X126821435Y-111965532D01*
X126826000Y-112011888D01*
X126826000Y-113088112D01*
X126821435Y-113134468D01*
X126809704Y-113173138D01*
X126790654Y-113208777D01*
X126765017Y-113240017D01*
X126733777Y-113265654D01*
X126698138Y-113284704D01*
X126659468Y-113296435D01*
X126613112Y-113301000D01*
X125961888Y-113301000D01*
X125915532Y-113296435D01*
X125876862Y-113284704D01*
X125841223Y-113265654D01*
X125809983Y-113240017D01*
X125784346Y-113208777D01*
X125765296Y-113173138D01*
X125753565Y-113134468D01*
X125749000Y-113088112D01*
X125749000Y-112011888D01*
X125753565Y-111965532D01*
X125765296Y-111926862D01*
X125784346Y-111891223D01*
X125809983Y-111859983D01*
X125841223Y-111834346D01*
X125876862Y-111815296D01*
X125915532Y-111803565D01*
X125961888Y-111799000D01*
X126613112Y-111799000D01*
X126659468Y-111803565D01*
X126659468Y-111803565D01*
G37*
G36*
X114530355Y-104175083D02*
G01*
X114535029Y-104176501D01*
X114539330Y-104178800D01*
X114545702Y-104184029D01*
X114566076Y-104197643D01*
X114588715Y-104207020D01*
X114612749Y-104211800D01*
X114637253Y-104211800D01*
X114661286Y-104207019D01*
X114683925Y-104197642D01*
X114704298Y-104184029D01*
X114710670Y-104178800D01*
X114714971Y-104176501D01*
X114719645Y-104175083D01*
X114730641Y-104174000D01*
X115019359Y-104174000D01*
X115030355Y-104175083D01*
X115035029Y-104176501D01*
X115039330Y-104178800D01*
X115045702Y-104184029D01*
X115066076Y-104197643D01*
X115088715Y-104207020D01*
X115112749Y-104211800D01*
X115137253Y-104211800D01*
X115161286Y-104207019D01*
X115183925Y-104197642D01*
X115204298Y-104184029D01*
X115210670Y-104178800D01*
X115214971Y-104176501D01*
X115219645Y-104175083D01*
X115230641Y-104174000D01*
X115519359Y-104174000D01*
X115530355Y-104175083D01*
X115535029Y-104176501D01*
X115539330Y-104178800D01*
X115545702Y-104184029D01*
X115566076Y-104197643D01*
X115588715Y-104207020D01*
X115612749Y-104211800D01*
X115637253Y-104211800D01*
X115661286Y-104207019D01*
X115683925Y-104197642D01*
X115704298Y-104184029D01*
X115710670Y-104178800D01*
X115714971Y-104176501D01*
X115719645Y-104175083D01*
X115730641Y-104174000D01*
X116019359Y-104174000D01*
X116030355Y-104175083D01*
X116035029Y-104176501D01*
X116039330Y-104178800D01*
X116045702Y-104184029D01*
X116066076Y-104197643D01*
X116088715Y-104207020D01*
X116112749Y-104211800D01*
X116137253Y-104211800D01*
X116161286Y-104207019D01*
X116183925Y-104197642D01*
X116204298Y-104184029D01*
X116210670Y-104178800D01*
X116214971Y-104176501D01*
X116219645Y-104175083D01*
X116230641Y-104174000D01*
X116519359Y-104174000D01*
X116530355Y-104175083D01*
X116535029Y-104176501D01*
X116539330Y-104178800D01*
X116545702Y-104184029D01*
X116566076Y-104197643D01*
X116588715Y-104207020D01*
X116612749Y-104211800D01*
X116637253Y-104211800D01*
X116661286Y-104207019D01*
X116683925Y-104197642D01*
X116704298Y-104184029D01*
X116710670Y-104178800D01*
X116714971Y-104176501D01*
X116719645Y-104175083D01*
X116730641Y-104174000D01*
X117019359Y-104174000D01*
X117030355Y-104175083D01*
X117035029Y-104176501D01*
X117039330Y-104178800D01*
X117045702Y-104184029D01*
X117066076Y-104197643D01*
X117088715Y-104207020D01*
X117112749Y-104211800D01*
X117137253Y-104211800D01*
X117161286Y-104207019D01*
X117183925Y-104197642D01*
X117204298Y-104184029D01*
X117210670Y-104178800D01*
X117214971Y-104176501D01*
X117219645Y-104175083D01*
X117230641Y-104174000D01*
X117519359Y-104174000D01*
X117530355Y-104175083D01*
X117535029Y-104176501D01*
X117539330Y-104178800D01*
X117545702Y-104184029D01*
X117566076Y-104197643D01*
X117588715Y-104207020D01*
X117612749Y-104211800D01*
X117637253Y-104211800D01*
X117661286Y-104207019D01*
X117683925Y-104197642D01*
X117704298Y-104184029D01*
X117710670Y-104178800D01*
X117714971Y-104176501D01*
X117719645Y-104175083D01*
X117730641Y-104174000D01*
X118019359Y-104174000D01*
X118030355Y-104175083D01*
X118035029Y-104176501D01*
X118039330Y-104178800D01*
X118045702Y-104184029D01*
X118066076Y-104197643D01*
X118088715Y-104207020D01*
X118112749Y-104211800D01*
X118137253Y-104211800D01*
X118161286Y-104207019D01*
X118183925Y-104197642D01*
X118204298Y-104184029D01*
X118210670Y-104178800D01*
X118214971Y-104176501D01*
X118219645Y-104175083D01*
X118230641Y-104174000D01*
X118519359Y-104174000D01*
X118530355Y-104175083D01*
X118535029Y-104176501D01*
X118539330Y-104178800D01*
X118545702Y-104184029D01*
X118566076Y-104197643D01*
X118588715Y-104207020D01*
X118612749Y-104211800D01*
X118637253Y-104211800D01*
X118661286Y-104207019D01*
X118683925Y-104197642D01*
X118704298Y-104184029D01*
X118710670Y-104178800D01*
X118714971Y-104176501D01*
X118719645Y-104175083D01*
X118730641Y-104174000D01*
X119019359Y-104174000D01*
X119030355Y-104175083D01*
X119035029Y-104176501D01*
X119039330Y-104178800D01*
X119045702Y-104184029D01*
X119066076Y-104197643D01*
X119088715Y-104207020D01*
X119112749Y-104211800D01*
X119137253Y-104211800D01*
X119161286Y-104207019D01*
X119183925Y-104197642D01*
X119204298Y-104184029D01*
X119210670Y-104178800D01*
X119214971Y-104176501D01*
X119219645Y-104175083D01*
X119230641Y-104174000D01*
X119519359Y-104174000D01*
X119530355Y-104175083D01*
X119535029Y-104176501D01*
X119539330Y-104178800D01*
X119545702Y-104184029D01*
X119566076Y-104197643D01*
X119588715Y-104207020D01*
X119612749Y-104211800D01*
X119637253Y-104211800D01*
X119661286Y-104207019D01*
X119683925Y-104197642D01*
X119704298Y-104184029D01*
X119710670Y-104178800D01*
X119714971Y-104176501D01*
X119719645Y-104175083D01*
X119730641Y-104174000D01*
X120019359Y-104174000D01*
X120030355Y-104175083D01*
X120035029Y-104176501D01*
X120039331Y-104178800D01*
X120043104Y-104181896D01*
X120046200Y-104185669D01*
X120048499Y-104189971D01*
X120049917Y-104194645D01*
X120051000Y-104205641D01*
X120051000Y-105049001D01*
X120053402Y-105073387D01*
X120060515Y-105096836D01*
X120072066Y-105118447D01*
X120087611Y-105137389D01*
X120106553Y-105152934D01*
X120128164Y-105164485D01*
X120151613Y-105171598D01*
X120175999Y-105174000D01*
X121019359Y-105174000D01*
X121030355Y-105175083D01*
X121035029Y-105176501D01*
X121039331Y-105178800D01*
X121043104Y-105181896D01*
X121046200Y-105185669D01*
X121048499Y-105189971D01*
X121049917Y-105194645D01*
X121051000Y-105205641D01*
X121051000Y-105494359D01*
X121049917Y-105505355D01*
X121048499Y-105510029D01*
X121046200Y-105514330D01*
X121040971Y-105520702D01*
X121027357Y-105541076D01*
X121017980Y-105563715D01*
X121013200Y-105587749D01*
X121013200Y-105612253D01*
X121017981Y-105636286D01*
X121027358Y-105658925D01*
X121040971Y-105679298D01*
X121046200Y-105685670D01*
X121048499Y-105689971D01*
X121049917Y-105694645D01*
X121051000Y-105705641D01*
X121051000Y-105994359D01*
X121049917Y-106005355D01*
X121048499Y-106010029D01*
X121046200Y-106014330D01*
X121040971Y-106020702D01*
X121027357Y-106041076D01*
X121017980Y-106063715D01*
X121013200Y-106087749D01*
X121013200Y-106112253D01*
X121017981Y-106136286D01*
X121027358Y-106158925D01*
X121040971Y-106179298D01*
X121046200Y-106185670D01*
X121048499Y-106189971D01*
X121049917Y-106194645D01*
X121051000Y-106205641D01*
X121051000Y-106494359D01*
X121049917Y-106505355D01*
X121048499Y-106510029D01*
X121046200Y-106514330D01*
X121040971Y-106520702D01*
X121027357Y-106541076D01*
X121017980Y-106563715D01*
X121013200Y-106587749D01*
X121013200Y-106612253D01*
X121017981Y-106636286D01*
X121027358Y-106658925D01*
X121040971Y-106679298D01*
X121046200Y-106685670D01*
X121048499Y-106689971D01*
X121049917Y-106694645D01*
X121051000Y-106705641D01*
X121051000Y-106994359D01*
X121049917Y-107005355D01*
X121048499Y-107010029D01*
X121046200Y-107014330D01*
X121040971Y-107020702D01*
X121027357Y-107041076D01*
X121017980Y-107063715D01*
X121013200Y-107087749D01*
X121013200Y-107112253D01*
X121017981Y-107136286D01*
X121027358Y-107158925D01*
X121040971Y-107179298D01*
X121046200Y-107185670D01*
X121048499Y-107189971D01*
X121049917Y-107194645D01*
X121051000Y-107205641D01*
X121051000Y-107494359D01*
X121049917Y-107505355D01*
X121048499Y-107510029D01*
X121046200Y-107514330D01*
X121040971Y-107520702D01*
X121027357Y-107541076D01*
X121017980Y-107563715D01*
X121013200Y-107587749D01*
X121013200Y-107612253D01*
X121017981Y-107636286D01*
X121027358Y-107658925D01*
X121040971Y-107679298D01*
X121046200Y-107685670D01*
X121048499Y-107689971D01*
X121049917Y-107694645D01*
X121051000Y-107705641D01*
X121051000Y-107994359D01*
X121049917Y-108005355D01*
X121048499Y-108010029D01*
X121046200Y-108014330D01*
X121040971Y-108020702D01*
X121027357Y-108041076D01*
X121017980Y-108063715D01*
X121013200Y-108087749D01*
X121013200Y-108112253D01*
X121017981Y-108136286D01*
X121027358Y-108158925D01*
X121040971Y-108179298D01*
X121046200Y-108185670D01*
X121048499Y-108189971D01*
X121049917Y-108194645D01*
X121051000Y-108205641D01*
X121051000Y-108494359D01*
X121049917Y-108505355D01*
X121048499Y-108510029D01*
X121046200Y-108514330D01*
X121040971Y-108520702D01*
X121027357Y-108541076D01*
X121017980Y-108563715D01*
X121013200Y-108587749D01*
X121013200Y-108612253D01*
X121017981Y-108636286D01*
X121027358Y-108658925D01*
X121040971Y-108679298D01*
X121046200Y-108685670D01*
X121048499Y-108689971D01*
X121049917Y-108694645D01*
X121051000Y-108705641D01*
X121051000Y-108994359D01*
X121049917Y-109005355D01*
X121048499Y-109010029D01*
X121046200Y-109014330D01*
X121040971Y-109020702D01*
X121027357Y-109041076D01*
X121017980Y-109063715D01*
X121013200Y-109087749D01*
X121013200Y-109112253D01*
X121017981Y-109136286D01*
X121027358Y-109158925D01*
X121040971Y-109179298D01*
X121046200Y-109185670D01*
X121048499Y-109189971D01*
X121049917Y-109194645D01*
X121051000Y-109205641D01*
X121051000Y-109494359D01*
X121049917Y-109505355D01*
X121048499Y-109510029D01*
X121046200Y-109514330D01*
X121040971Y-109520702D01*
X121027357Y-109541076D01*
X121017980Y-109563715D01*
X121013200Y-109587749D01*
X121013200Y-109612253D01*
X121017981Y-109636286D01*
X121027358Y-109658925D01*
X121040971Y-109679298D01*
X121046200Y-109685670D01*
X121048499Y-109689971D01*
X121049917Y-109694645D01*
X121051000Y-109705641D01*
X121051000Y-109994359D01*
X121049917Y-110005355D01*
X121048499Y-110010029D01*
X121046200Y-110014330D01*
X121040971Y-110020702D01*
X121027357Y-110041076D01*
X121017980Y-110063715D01*
X121013200Y-110087749D01*
X121013200Y-110112253D01*
X121017981Y-110136286D01*
X121027358Y-110158925D01*
X121040971Y-110179298D01*
X121046200Y-110185670D01*
X121048499Y-110189971D01*
X121049917Y-110194645D01*
X121051000Y-110205641D01*
X121051000Y-110494359D01*
X121049917Y-110505355D01*
X121048499Y-110510029D01*
X121046200Y-110514330D01*
X121040971Y-110520702D01*
X121027357Y-110541076D01*
X121017980Y-110563715D01*
X121013200Y-110587749D01*
X121013200Y-110612253D01*
X121017981Y-110636286D01*
X121027358Y-110658925D01*
X121040971Y-110679298D01*
X121046200Y-110685670D01*
X121048499Y-110689971D01*
X121049917Y-110694645D01*
X121051000Y-110705641D01*
X121051000Y-110994359D01*
X121049917Y-111005355D01*
X121048499Y-111010029D01*
X121046200Y-111014331D01*
X121043104Y-111018104D01*
X121039331Y-111021200D01*
X121035029Y-111023499D01*
X121030355Y-111024917D01*
X121019359Y-111026000D01*
X120175999Y-111026000D01*
X120151613Y-111028402D01*
X120128164Y-111035515D01*
X120106553Y-111047066D01*
X120087611Y-111062611D01*
X120072066Y-111081553D01*
X120060515Y-111103164D01*
X120053402Y-111126613D01*
X120051000Y-111150999D01*
X120051000Y-111994359D01*
X120049917Y-112005355D01*
X120048499Y-112010029D01*
X120046200Y-112014331D01*
X120043104Y-112018104D01*
X120039331Y-112021200D01*
X120035029Y-112023499D01*
X120030355Y-112024917D01*
X120019359Y-112026000D01*
X119730641Y-112026000D01*
X119719645Y-112024917D01*
X119714971Y-112023499D01*
X119710670Y-112021200D01*
X119704298Y-112015971D01*
X119683924Y-112002357D01*
X119661285Y-111992980D01*
X119637251Y-111988200D01*
X119612747Y-111988200D01*
X119588714Y-111992981D01*
X119566075Y-112002358D01*
X119545702Y-112015971D01*
X119539330Y-112021200D01*
X119535029Y-112023499D01*
X119530355Y-112024917D01*
X119519359Y-112026000D01*
X119230641Y-112026000D01*
X119219645Y-112024917D01*
X119214971Y-112023499D01*
X119210670Y-112021200D01*
X119204298Y-112015971D01*
X119183924Y-112002357D01*
X119161285Y-111992980D01*
X119137251Y-111988200D01*
X119112747Y-111988200D01*
X119088714Y-111992981D01*
X119066075Y-112002358D01*
X119045702Y-112015971D01*
X119039330Y-112021200D01*
X119035029Y-112023499D01*
X119030355Y-112024917D01*
X119019359Y-112026000D01*
X118730641Y-112026000D01*
X118719645Y-112024917D01*
X118714971Y-112023499D01*
X118710670Y-112021200D01*
X118704298Y-112015971D01*
X118683924Y-112002357D01*
X118661285Y-111992980D01*
X118637251Y-111988200D01*
X118612747Y-111988200D01*
X118588714Y-111992981D01*
X118566075Y-112002358D01*
X118545702Y-112015971D01*
X118539330Y-112021200D01*
X118535029Y-112023499D01*
X118530355Y-112024917D01*
X118519359Y-112026000D01*
X118230641Y-112026000D01*
X118219645Y-112024917D01*
X118214971Y-112023499D01*
X118210670Y-112021200D01*
X118204298Y-112015971D01*
X118183924Y-112002357D01*
X118161285Y-111992980D01*
X118137251Y-111988200D01*
X118112747Y-111988200D01*
X118088714Y-111992981D01*
X118066075Y-112002358D01*
X118045702Y-112015971D01*
X118039330Y-112021200D01*
X118035029Y-112023499D01*
X118030355Y-112024917D01*
X118019359Y-112026000D01*
X117730641Y-112026000D01*
X117719645Y-112024917D01*
X117714971Y-112023499D01*
X117710670Y-112021200D01*
X117704298Y-112015971D01*
X117683924Y-112002357D01*
X117661285Y-111992980D01*
X117637251Y-111988200D01*
X117612747Y-111988200D01*
X117588714Y-111992981D01*
X117566075Y-112002358D01*
X117545702Y-112015971D01*
X117539330Y-112021200D01*
X117535029Y-112023499D01*
X117530355Y-112024917D01*
X117519359Y-112026000D01*
X117230641Y-112026000D01*
X117219645Y-112024917D01*
X117214971Y-112023499D01*
X117210670Y-112021200D01*
X117204298Y-112015971D01*
X117183924Y-112002357D01*
X117161285Y-111992980D01*
X117137251Y-111988200D01*
X117112747Y-111988200D01*
X117088714Y-111992981D01*
X117066075Y-112002358D01*
X117045702Y-112015971D01*
X117039330Y-112021200D01*
X117035029Y-112023499D01*
X117030355Y-112024917D01*
X117019359Y-112026000D01*
X116730641Y-112026000D01*
X116719645Y-112024917D01*
X116714971Y-112023499D01*
X116710670Y-112021200D01*
X116704298Y-112015971D01*
X116683924Y-112002357D01*
X116661285Y-111992980D01*
X116637251Y-111988200D01*
X116612747Y-111988200D01*
X116588714Y-111992981D01*
X116566075Y-112002358D01*
X116545702Y-112015971D01*
X116539330Y-112021200D01*
X116535029Y-112023499D01*
X116530355Y-112024917D01*
X116519359Y-112026000D01*
X116230641Y-112026000D01*
X116219645Y-112024917D01*
X116214971Y-112023499D01*
X116210670Y-112021200D01*
X116204298Y-112015971D01*
X116183924Y-112002357D01*
X116161285Y-111992980D01*
X116137251Y-111988200D01*
X116112747Y-111988200D01*
X116088714Y-111992981D01*
X116066075Y-112002358D01*
X116045702Y-112015971D01*
X116039330Y-112021200D01*
X116035029Y-112023499D01*
X116030355Y-112024917D01*
X116019359Y-112026000D01*
X115730641Y-112026000D01*
X115719645Y-112024917D01*
X115714971Y-112023499D01*
X115710670Y-112021200D01*
X115704298Y-112015971D01*
X115683924Y-112002357D01*
X115661285Y-111992980D01*
X115637251Y-111988200D01*
X115612747Y-111988200D01*
X115588714Y-111992981D01*
X115566075Y-112002358D01*
X115545702Y-112015971D01*
X115539330Y-112021200D01*
X115535029Y-112023499D01*
X115530355Y-112024917D01*
X115519359Y-112026000D01*
X115230641Y-112026000D01*
X115219645Y-112024917D01*
X115214971Y-112023499D01*
X115210670Y-112021200D01*
X115204298Y-112015971D01*
X115183924Y-112002357D01*
X115161285Y-111992980D01*
X115137251Y-111988200D01*
X115112747Y-111988200D01*
X115088714Y-111992981D01*
X115066075Y-112002358D01*
X115045702Y-112015971D01*
X115039330Y-112021200D01*
X115035029Y-112023499D01*
X115030355Y-112024917D01*
X115019359Y-112026000D01*
X114730641Y-112026000D01*
X114719645Y-112024917D01*
X114714971Y-112023499D01*
X114710670Y-112021200D01*
X114704298Y-112015971D01*
X114683924Y-112002357D01*
X114661285Y-111992980D01*
X114637251Y-111988200D01*
X114612747Y-111988200D01*
X114588714Y-111992981D01*
X114566075Y-112002358D01*
X114545702Y-112015971D01*
X114539330Y-112021200D01*
X114535029Y-112023499D01*
X114530355Y-112024917D01*
X114519359Y-112026000D01*
X114230641Y-112026000D01*
X114219645Y-112024917D01*
X114214971Y-112023499D01*
X114210669Y-112021200D01*
X114206896Y-112018104D01*
X114203800Y-112014331D01*
X114201501Y-112010029D01*
X114200083Y-112005355D01*
X114199000Y-111994359D01*
X114199000Y-111150999D01*
X114196598Y-111126613D01*
X114189485Y-111103164D01*
X114177934Y-111081553D01*
X114162389Y-111062611D01*
X114143447Y-111047066D01*
X114121836Y-111035515D01*
X114098387Y-111028402D01*
X114074001Y-111026000D01*
X113230641Y-111026000D01*
X113219645Y-111024917D01*
X113214971Y-111023499D01*
X113210669Y-111021200D01*
X113206896Y-111018104D01*
X113203800Y-111014331D01*
X113201501Y-111010029D01*
X113200083Y-111005355D01*
X113199000Y-110994359D01*
X113199000Y-110891419D01*
X114151000Y-110891419D01*
X114151000Y-110949001D01*
X114153402Y-110973387D01*
X114160515Y-110996836D01*
X114172066Y-111018447D01*
X114187611Y-111037389D01*
X114206553Y-111052934D01*
X114228164Y-111064485D01*
X114251613Y-111071598D01*
X114275999Y-111074000D01*
X114333581Y-111074000D01*
X114357967Y-111071598D01*
X114381416Y-111064485D01*
X114403027Y-111052934D01*
X114421969Y-111037389D01*
X114437514Y-111018447D01*
X114449065Y-110996836D01*
X114456178Y-110973387D01*
X114458580Y-110949001D01*
X114457374Y-110936748D01*
X119792022Y-110936748D01*
X119792022Y-110961252D01*
X119796802Y-110985285D01*
X119806179Y-111007924D01*
X119819793Y-111028298D01*
X119837119Y-111045626D01*
X119857494Y-111059240D01*
X119880132Y-111068617D01*
X119904166Y-111073398D01*
X119916419Y-111074000D01*
X119974001Y-111074000D01*
X119998387Y-111071598D01*
X120021836Y-111064485D01*
X120043447Y-111052934D01*
X120062389Y-111037389D01*
X120077934Y-111018447D01*
X120089485Y-110996836D01*
X120096598Y-110973387D01*
X120099000Y-110949001D01*
X120099000Y-110891419D01*
X120096598Y-110867033D01*
X120089485Y-110843584D01*
X120077934Y-110821973D01*
X120062389Y-110803031D01*
X120043447Y-110787486D01*
X120021836Y-110775935D01*
X119998387Y-110768822D01*
X119974001Y-110766420D01*
X119949615Y-110768822D01*
X119926166Y-110775935D01*
X119904555Y-110787486D01*
X119885613Y-110803031D01*
X119877375Y-110812122D01*
X119859231Y-110834231D01*
X119837122Y-110852375D01*
X119819794Y-110869701D01*
X119806180Y-110890076D01*
X119796803Y-110912714D01*
X119792022Y-110936748D01*
X114457374Y-110936748D01*
X114456178Y-110924615D01*
X114449065Y-110901166D01*
X114437514Y-110879555D01*
X114421969Y-110860613D01*
X114412878Y-110852375D01*
X114390769Y-110834231D01*
X114372625Y-110812122D01*
X114355299Y-110794794D01*
X114334924Y-110781180D01*
X114312286Y-110771803D01*
X114288252Y-110767022D01*
X114263748Y-110767022D01*
X114239715Y-110771802D01*
X114217076Y-110781179D01*
X114196702Y-110794793D01*
X114179374Y-110812119D01*
X114165760Y-110832494D01*
X114156383Y-110855132D01*
X114151602Y-110879166D01*
X114151000Y-110891419D01*
X113199000Y-110891419D01*
X113199000Y-110705641D01*
X113200083Y-110694645D01*
X113201501Y-110689971D01*
X113203800Y-110685670D01*
X113209029Y-110679298D01*
X113222643Y-110658924D01*
X113232020Y-110636285D01*
X113236800Y-110612251D01*
X113236800Y-110587747D01*
X113232019Y-110563714D01*
X113222642Y-110541075D01*
X113209029Y-110520702D01*
X113203800Y-110514330D01*
X113201501Y-110510029D01*
X113200083Y-110505355D01*
X113199000Y-110494359D01*
X113199000Y-110205641D01*
X113200083Y-110194645D01*
X113201501Y-110189971D01*
X113203800Y-110185670D01*
X113209029Y-110179298D01*
X113222643Y-110158924D01*
X113232020Y-110136285D01*
X113236800Y-110112251D01*
X113236800Y-110087747D01*
X113232019Y-110063714D01*
X113222642Y-110041075D01*
X113209029Y-110020702D01*
X113203800Y-110014330D01*
X113201501Y-110010029D01*
X113200083Y-110005355D01*
X113199000Y-109994359D01*
X113199000Y-109705641D01*
X113200083Y-109694645D01*
X113201501Y-109689971D01*
X113203800Y-109685670D01*
X113209029Y-109679298D01*
X113222643Y-109658924D01*
X113232020Y-109636285D01*
X113236800Y-109612251D01*
X113236800Y-109587747D01*
X113232019Y-109563714D01*
X113222642Y-109541075D01*
X113209029Y-109520702D01*
X113203800Y-109514330D01*
X113201501Y-109510029D01*
X113200083Y-109505355D01*
X113199000Y-109494359D01*
X113199000Y-109205641D01*
X113200083Y-109194645D01*
X113201501Y-109189971D01*
X113203800Y-109185670D01*
X113209029Y-109179298D01*
X113222643Y-109158924D01*
X113232020Y-109136285D01*
X113236800Y-109112251D01*
X113236800Y-109087747D01*
X113232019Y-109063714D01*
X113222642Y-109041075D01*
X113209029Y-109020702D01*
X113203800Y-109014330D01*
X113201501Y-109010029D01*
X113200083Y-109005355D01*
X113199000Y-108994359D01*
X113199000Y-108705641D01*
X113200083Y-108694645D01*
X113201501Y-108689971D01*
X113203800Y-108685670D01*
X113209029Y-108679298D01*
X113222643Y-108658924D01*
X113232020Y-108636285D01*
X113236800Y-108612251D01*
X113236800Y-108587747D01*
X113232019Y-108563714D01*
X113222642Y-108541075D01*
X113209029Y-108520702D01*
X113203800Y-108514330D01*
X113201501Y-108510029D01*
X113200083Y-108505355D01*
X113199000Y-108494359D01*
X113199000Y-108205641D01*
X113200083Y-108194645D01*
X113201501Y-108189971D01*
X113203800Y-108185670D01*
X113209029Y-108179298D01*
X113222643Y-108158924D01*
X113232020Y-108136285D01*
X113236800Y-108112251D01*
X113236800Y-108087747D01*
X113232019Y-108063714D01*
X113222642Y-108041075D01*
X113209029Y-108020702D01*
X113203800Y-108014330D01*
X113201501Y-108010029D01*
X113200083Y-108005355D01*
X113199000Y-107994359D01*
X113199000Y-107705641D01*
X113200083Y-107694645D01*
X113201501Y-107689971D01*
X113203800Y-107685670D01*
X113209029Y-107679298D01*
X113222643Y-107658924D01*
X113232020Y-107636285D01*
X113236800Y-107612251D01*
X113236800Y-107587747D01*
X113232019Y-107563714D01*
X113222642Y-107541075D01*
X113209029Y-107520702D01*
X113203800Y-107514330D01*
X113201501Y-107510029D01*
X113200083Y-107505355D01*
X113199000Y-107494359D01*
X113199000Y-107205641D01*
X113200083Y-107194645D01*
X113201501Y-107189971D01*
X113203800Y-107185670D01*
X113209029Y-107179298D01*
X113222643Y-107158924D01*
X113232020Y-107136285D01*
X113236800Y-107112251D01*
X113236800Y-107087747D01*
X113232019Y-107063714D01*
X113222642Y-107041075D01*
X113209029Y-107020702D01*
X113203800Y-107014330D01*
X113201501Y-107010029D01*
X113200083Y-107005355D01*
X113199000Y-106994359D01*
X113199000Y-106705641D01*
X113200083Y-106694645D01*
X113201501Y-106689971D01*
X113203800Y-106685670D01*
X113209029Y-106679298D01*
X113222643Y-106658924D01*
X113232020Y-106636285D01*
X113236800Y-106612251D01*
X113236800Y-106587747D01*
X113232019Y-106563714D01*
X113222642Y-106541075D01*
X113209029Y-106520702D01*
X113203800Y-106514330D01*
X113201501Y-106510029D01*
X113200083Y-106505355D01*
X113199000Y-106494359D01*
X113199000Y-106205641D01*
X113200083Y-106194645D01*
X113201501Y-106189971D01*
X113203800Y-106185670D01*
X113209029Y-106179298D01*
X113222643Y-106158924D01*
X113232020Y-106136285D01*
X113236800Y-106112251D01*
X113236800Y-106087747D01*
X113232019Y-106063714D01*
X113222642Y-106041075D01*
X113209029Y-106020702D01*
X113203800Y-106014330D01*
X113201501Y-106010029D01*
X113200083Y-106005355D01*
X113199000Y-105994359D01*
X113199000Y-105705641D01*
X113200083Y-105694645D01*
X113201501Y-105689971D01*
X113203800Y-105685670D01*
X113209029Y-105679298D01*
X113222643Y-105658924D01*
X113232020Y-105636285D01*
X113236800Y-105612251D01*
X113236800Y-105587747D01*
X113232019Y-105563714D01*
X113222642Y-105541075D01*
X113209029Y-105520702D01*
X113203800Y-105514330D01*
X113201501Y-105510029D01*
X113200083Y-105505355D01*
X113199000Y-105494359D01*
X113199000Y-105250999D01*
X114151000Y-105250999D01*
X114151000Y-105308581D01*
X114153402Y-105332967D01*
X114160515Y-105356416D01*
X114172066Y-105378027D01*
X114187611Y-105396969D01*
X114206553Y-105412514D01*
X114228164Y-105424065D01*
X114251613Y-105431178D01*
X114275999Y-105433580D01*
X114300385Y-105431178D01*
X114323834Y-105424065D01*
X114345445Y-105412514D01*
X114364387Y-105396969D01*
X114372625Y-105387878D01*
X114390769Y-105365769D01*
X114412878Y-105347625D01*
X114430206Y-105330299D01*
X114443820Y-105309924D01*
X114453197Y-105287286D01*
X114457978Y-105263252D01*
X114457978Y-105250999D01*
X119791420Y-105250999D01*
X119793822Y-105275385D01*
X119800935Y-105298834D01*
X119812486Y-105320445D01*
X119828031Y-105339387D01*
X119837122Y-105347625D01*
X119859231Y-105365769D01*
X119877375Y-105387878D01*
X119894701Y-105405206D01*
X119915076Y-105418820D01*
X119937714Y-105428197D01*
X119961748Y-105432978D01*
X119986252Y-105432978D01*
X120010285Y-105428198D01*
X120032924Y-105418821D01*
X120053298Y-105405207D01*
X120070626Y-105387881D01*
X120084240Y-105367506D01*
X120093617Y-105344868D01*
X120098398Y-105320834D01*
X120099000Y-105308581D01*
X120099000Y-105250999D01*
X120096598Y-105226613D01*
X120089485Y-105203164D01*
X120077934Y-105181553D01*
X120062389Y-105162611D01*
X120043447Y-105147066D01*
X120021836Y-105135515D01*
X119998387Y-105128402D01*
X119974001Y-105126000D01*
X119916419Y-105126000D01*
X119892033Y-105128402D01*
X119868584Y-105135515D01*
X119846973Y-105147066D01*
X119828031Y-105162611D01*
X119812486Y-105181553D01*
X119800935Y-105203164D01*
X119793822Y-105226613D01*
X119791420Y-105250999D01*
X114457978Y-105250999D01*
X114457978Y-105238748D01*
X114453198Y-105214715D01*
X114443821Y-105192076D01*
X114430207Y-105171702D01*
X114412881Y-105154374D01*
X114392506Y-105140760D01*
X114369868Y-105131383D01*
X114345834Y-105126602D01*
X114333581Y-105126000D01*
X114275999Y-105126000D01*
X114251613Y-105128402D01*
X114228164Y-105135515D01*
X114206553Y-105147066D01*
X114187611Y-105162611D01*
X114172066Y-105181553D01*
X114160515Y-105203164D01*
X114153402Y-105226613D01*
X114151000Y-105250999D01*
X113199000Y-105250999D01*
X113199000Y-105205641D01*
X113200083Y-105194645D01*
X113201501Y-105189971D01*
X113203800Y-105185669D01*
X113206896Y-105181896D01*
X113210669Y-105178800D01*
X113214971Y-105176501D01*
X113219645Y-105175083D01*
X113230641Y-105174000D01*
X114074001Y-105174000D01*
X114098387Y-105171598D01*
X114121836Y-105164485D01*
X114143447Y-105152934D01*
X114162389Y-105137389D01*
X114177934Y-105118447D01*
X114189485Y-105096836D01*
X114196598Y-105073387D01*
X114199000Y-105049001D01*
X114199000Y-104205641D01*
X114200083Y-104194645D01*
X114201501Y-104189971D01*
X114203800Y-104185669D01*
X114206896Y-104181896D01*
X114210669Y-104178800D01*
X114214971Y-104176501D01*
X114219645Y-104175083D01*
X114230641Y-104174000D01*
X114519359Y-104174000D01*
X114530355Y-104175083D01*
X114530355Y-104175083D01*
G37*
G36*
X111559468Y-110478565D02*
G01*
X111598138Y-110490296D01*
X111633777Y-110509346D01*
X111665017Y-110534983D01*
X111690654Y-110566223D01*
X111709704Y-110601862D01*
X111721435Y-110640532D01*
X111726000Y-110686888D01*
X111726000Y-111763112D01*
X111721435Y-111809468D01*
X111709704Y-111848138D01*
X111690654Y-111883777D01*
X111665017Y-111915017D01*
X111633777Y-111940654D01*
X111598138Y-111959704D01*
X111559468Y-111971435D01*
X111513112Y-111976000D01*
X110861888Y-111976000D01*
X110815532Y-111971435D01*
X110776862Y-111959704D01*
X110741223Y-111940654D01*
X110709983Y-111915017D01*
X110684346Y-111883777D01*
X110665296Y-111848138D01*
X110653565Y-111809468D01*
X110649000Y-111763112D01*
X110649000Y-110686888D01*
X110653565Y-110640532D01*
X110665296Y-110601862D01*
X110684346Y-110566223D01*
X110709983Y-110534983D01*
X110741223Y-110509346D01*
X110776862Y-110490296D01*
X110815532Y-110478565D01*
X110861888Y-110474000D01*
X111513112Y-110474000D01*
X111559468Y-110478565D01*
X111559468Y-110478565D01*
G37*
G36*
X109684468Y-110478565D02*
G01*
X109723138Y-110490296D01*
X109758777Y-110509346D01*
X109790017Y-110534983D01*
X109815654Y-110566223D01*
X109834704Y-110601862D01*
X109846435Y-110640532D01*
X109851000Y-110686888D01*
X109851000Y-111763112D01*
X109846435Y-111809468D01*
X109834704Y-111848138D01*
X109815654Y-111883777D01*
X109790017Y-111915017D01*
X109758777Y-111940654D01*
X109723138Y-111959704D01*
X109684468Y-111971435D01*
X109638112Y-111976000D01*
X108986888Y-111976000D01*
X108940532Y-111971435D01*
X108901862Y-111959704D01*
X108866223Y-111940654D01*
X108834983Y-111915017D01*
X108809346Y-111883777D01*
X108790296Y-111848138D01*
X108778565Y-111809468D01*
X108774000Y-111763112D01*
X108774000Y-110686888D01*
X108778565Y-110640532D01*
X108790296Y-110601862D01*
X108809346Y-110566223D01*
X108834983Y-110534983D01*
X108866223Y-110509346D01*
X108901862Y-110490296D01*
X108940532Y-110478565D01*
X108986888Y-110474000D01*
X109638112Y-110474000D01*
X109684468Y-110478565D01*
X109684468Y-110478565D01*
G37*
G36*
X111559468Y-108503565D02*
G01*
X111598138Y-108515296D01*
X111633777Y-108534346D01*
X111665017Y-108559983D01*
X111690654Y-108591223D01*
X111709704Y-108626862D01*
X111721435Y-108665532D01*
X111726000Y-108711888D01*
X111726000Y-109788112D01*
X111721435Y-109834468D01*
X111709704Y-109873138D01*
X111690654Y-109908777D01*
X111665017Y-109940017D01*
X111633777Y-109965654D01*
X111598138Y-109984704D01*
X111559468Y-109996435D01*
X111513112Y-110001000D01*
X110861888Y-110001000D01*
X110815532Y-109996435D01*
X110776862Y-109984704D01*
X110741223Y-109965654D01*
X110709983Y-109940017D01*
X110684346Y-109908777D01*
X110665296Y-109873138D01*
X110653565Y-109834468D01*
X110649000Y-109788112D01*
X110649000Y-108711888D01*
X110653565Y-108665532D01*
X110665296Y-108626862D01*
X110684346Y-108591223D01*
X110709983Y-108559983D01*
X110741223Y-108534346D01*
X110776862Y-108515296D01*
X110815532Y-108503565D01*
X110861888Y-108499000D01*
X111513112Y-108499000D01*
X111559468Y-108503565D01*
X111559468Y-108503565D01*
G37*
G36*
X109684468Y-108503565D02*
G01*
X109723138Y-108515296D01*
X109758777Y-108534346D01*
X109790017Y-108559983D01*
X109815654Y-108591223D01*
X109834704Y-108626862D01*
X109846435Y-108665532D01*
X109851000Y-108711888D01*
X109851000Y-109788112D01*
X109846435Y-109834468D01*
X109834704Y-109873138D01*
X109815654Y-109908777D01*
X109790017Y-109940017D01*
X109758777Y-109965654D01*
X109723138Y-109984704D01*
X109684468Y-109996435D01*
X109638112Y-110001000D01*
X108986888Y-110001000D01*
X108940532Y-109996435D01*
X108901862Y-109984704D01*
X108866223Y-109965654D01*
X108834983Y-109940017D01*
X108809346Y-109908777D01*
X108790296Y-109873138D01*
X108778565Y-109834468D01*
X108774000Y-109788112D01*
X108774000Y-108711888D01*
X108778565Y-108665532D01*
X108790296Y-108626862D01*
X108809346Y-108591223D01*
X108834983Y-108559983D01*
X108866223Y-108534346D01*
X108901862Y-108515296D01*
X108940532Y-108503565D01*
X108986888Y-108499000D01*
X109638112Y-108499000D01*
X109684468Y-108503565D01*
X109684468Y-108503565D01*
G37*
G36*
X111559468Y-106428565D02*
G01*
X111598138Y-106440296D01*
X111633777Y-106459346D01*
X111665017Y-106484983D01*
X111690654Y-106516223D01*
X111709704Y-106551862D01*
X111721435Y-106590532D01*
X111726000Y-106636888D01*
X111726000Y-107713112D01*
X111721435Y-107759468D01*
X111709704Y-107798138D01*
X111690654Y-107833777D01*
X111665017Y-107865017D01*
X111633777Y-107890654D01*
X111598138Y-107909704D01*
X111559468Y-107921435D01*
X111513112Y-107926000D01*
X110861888Y-107926000D01*
X110815532Y-107921435D01*
X110776862Y-107909704D01*
X110741223Y-107890654D01*
X110709983Y-107865017D01*
X110684346Y-107833777D01*
X110665296Y-107798138D01*
X110653565Y-107759468D01*
X110649000Y-107713112D01*
X110649000Y-106636888D01*
X110653565Y-106590532D01*
X110665296Y-106551862D01*
X110684346Y-106516223D01*
X110709983Y-106484983D01*
X110741223Y-106459346D01*
X110776862Y-106440296D01*
X110815532Y-106428565D01*
X110861888Y-106424000D01*
X111513112Y-106424000D01*
X111559468Y-106428565D01*
X111559468Y-106428565D01*
G37*
G36*
X109684468Y-106428565D02*
G01*
X109723138Y-106440296D01*
X109758777Y-106459346D01*
X109790017Y-106484983D01*
X109815654Y-106516223D01*
X109834704Y-106551862D01*
X109846435Y-106590532D01*
X109851000Y-106636888D01*
X109851000Y-107713112D01*
X109846435Y-107759468D01*
X109834704Y-107798138D01*
X109815654Y-107833777D01*
X109790017Y-107865017D01*
X109758777Y-107890654D01*
X109723138Y-107909704D01*
X109684468Y-107921435D01*
X109638112Y-107926000D01*
X108986888Y-107926000D01*
X108940532Y-107921435D01*
X108901862Y-107909704D01*
X108866223Y-107890654D01*
X108834983Y-107865017D01*
X108809346Y-107833777D01*
X108790296Y-107798138D01*
X108778565Y-107759468D01*
X108774000Y-107713112D01*
X108774000Y-106636888D01*
X108778565Y-106590532D01*
X108790296Y-106551862D01*
X108809346Y-106516223D01*
X108834983Y-106484983D01*
X108866223Y-106459346D01*
X108901862Y-106440296D01*
X108940532Y-106428565D01*
X108986888Y-106424000D01*
X109638112Y-106424000D01*
X109684468Y-106428565D01*
X109684468Y-106428565D01*
G37*
G36*
X123134468Y-105878565D02*
G01*
X123173138Y-105890296D01*
X123208777Y-105909346D01*
X123240017Y-105934983D01*
X123265654Y-105966223D01*
X123284704Y-106001862D01*
X123296435Y-106040532D01*
X123301000Y-106086888D01*
X123301000Y-106738112D01*
X123296435Y-106784468D01*
X123284704Y-106823138D01*
X123265654Y-106858777D01*
X123240017Y-106890017D01*
X123208777Y-106915654D01*
X123173138Y-106934704D01*
X123134468Y-106946435D01*
X123088112Y-106951000D01*
X122011888Y-106951000D01*
X121965532Y-106946435D01*
X121926862Y-106934704D01*
X121891223Y-106915654D01*
X121859983Y-106890017D01*
X121834346Y-106858777D01*
X121815296Y-106823138D01*
X121803565Y-106784468D01*
X121799000Y-106738112D01*
X121799000Y-106086888D01*
X121803565Y-106040532D01*
X121815296Y-106001862D01*
X121834346Y-105966223D01*
X121859983Y-105934983D01*
X121891223Y-105909346D01*
X121926862Y-105890296D01*
X121965532Y-105878565D01*
X122011888Y-105874000D01*
X123088112Y-105874000D01*
X123134468Y-105878565D01*
X123134468Y-105878565D01*
G37*
G36*
X109684468Y-104453565D02*
G01*
X109723138Y-104465296D01*
X109758777Y-104484346D01*
X109790017Y-104509983D01*
X109815654Y-104541223D01*
X109834704Y-104576862D01*
X109846435Y-104615532D01*
X109851000Y-104661888D01*
X109851000Y-105738112D01*
X109846435Y-105784468D01*
X109834704Y-105823138D01*
X109815654Y-105858777D01*
X109790017Y-105890017D01*
X109758777Y-105915654D01*
X109723138Y-105934704D01*
X109684468Y-105946435D01*
X109638112Y-105951000D01*
X108986888Y-105951000D01*
X108940532Y-105946435D01*
X108901862Y-105934704D01*
X108866223Y-105915654D01*
X108834983Y-105890017D01*
X108809346Y-105858777D01*
X108790296Y-105823138D01*
X108778565Y-105784468D01*
X108774000Y-105738112D01*
X108774000Y-104661888D01*
X108778565Y-104615532D01*
X108790296Y-104576862D01*
X108809346Y-104541223D01*
X108834983Y-104509983D01*
X108866223Y-104484346D01*
X108901862Y-104465296D01*
X108940532Y-104453565D01*
X108986888Y-104449000D01*
X109638112Y-104449000D01*
X109684468Y-104453565D01*
X109684468Y-104453565D01*
G37*
G36*
X111559468Y-104453565D02*
G01*
X111598138Y-104465296D01*
X111633777Y-104484346D01*
X111665017Y-104509983D01*
X111690654Y-104541223D01*
X111709704Y-104576862D01*
X111721435Y-104615532D01*
X111726000Y-104661888D01*
X111726000Y-105738112D01*
X111721435Y-105784468D01*
X111709704Y-105823138D01*
X111690654Y-105858777D01*
X111665017Y-105890017D01*
X111633777Y-105915654D01*
X111598138Y-105934704D01*
X111559468Y-105946435D01*
X111513112Y-105951000D01*
X110861888Y-105951000D01*
X110815532Y-105946435D01*
X110776862Y-105934704D01*
X110741223Y-105915654D01*
X110709983Y-105890017D01*
X110684346Y-105858777D01*
X110665296Y-105823138D01*
X110653565Y-105784468D01*
X110649000Y-105738112D01*
X110649000Y-104661888D01*
X110653565Y-104615532D01*
X110665296Y-104576862D01*
X110684346Y-104541223D01*
X110709983Y-104509983D01*
X110741223Y-104484346D01*
X110776862Y-104465296D01*
X110815532Y-104453565D01*
X110861888Y-104449000D01*
X111513112Y-104449000D01*
X111559468Y-104453565D01*
X111559468Y-104453565D01*
G37*
G36*
X123134468Y-104003565D02*
G01*
X123173138Y-104015296D01*
X123208777Y-104034346D01*
X123240017Y-104059983D01*
X123265654Y-104091223D01*
X123284704Y-104126862D01*
X123296435Y-104165532D01*
X123301000Y-104211888D01*
X123301000Y-104863112D01*
X123296435Y-104909468D01*
X123284704Y-104948138D01*
X123265654Y-104983777D01*
X123240017Y-105015017D01*
X123208777Y-105040654D01*
X123173138Y-105059704D01*
X123134468Y-105071435D01*
X123088112Y-105076000D01*
X122011888Y-105076000D01*
X121965532Y-105071435D01*
X121926862Y-105059704D01*
X121891223Y-105040654D01*
X121859983Y-105015017D01*
X121834346Y-104983777D01*
X121815296Y-104948138D01*
X121803565Y-104909468D01*
X121799000Y-104863112D01*
X121799000Y-104211888D01*
X121803565Y-104165532D01*
X121815296Y-104126862D01*
X121834346Y-104091223D01*
X121859983Y-104059983D01*
X121891223Y-104034346D01*
X121926862Y-104015296D01*
X121965532Y-104003565D01*
X122011888Y-103999000D01*
X123088112Y-103999000D01*
X123134468Y-104003565D01*
X123134468Y-104003565D01*
G37*
G36*
X128551000Y-105051000D02*
G01*
X127899000Y-105051000D01*
X127899000Y-104149000D01*
X128551000Y-104149000D01*
X128551000Y-105051000D01*
X128551000Y-105051000D01*
G37*
G36*
X126901000Y-105051000D02*
G01*
X126249000Y-105051000D01*
X126249000Y-104149000D01*
X126901000Y-104149000D01*
X126901000Y-105051000D01*
X126901000Y-105051000D01*
G37*
G36*
X109900442Y-100905518D02*
G01*
X109966627Y-100912037D01*
X110136466Y-100963557D01*
X110292991Y-101047222D01*
X110328729Y-101076552D01*
X110430186Y-101159814D01*
X110513448Y-101261271D01*
X110542778Y-101297009D01*
X110626443Y-101453534D01*
X110677963Y-101623373D01*
X110695359Y-101800000D01*
X110677963Y-101976627D01*
X110626443Y-102146466D01*
X110542778Y-102302991D01*
X110513448Y-102338729D01*
X110430186Y-102440186D01*
X110328729Y-102523448D01*
X110292991Y-102552778D01*
X110136466Y-102636443D01*
X109966627Y-102687963D01*
X109900443Y-102694481D01*
X109834260Y-102701000D01*
X109745740Y-102701000D01*
X109679557Y-102694481D01*
X109613373Y-102687963D01*
X109443534Y-102636443D01*
X109287009Y-102552778D01*
X109251271Y-102523448D01*
X109149814Y-102440186D01*
X109066552Y-102338729D01*
X109037222Y-102302991D01*
X108953557Y-102146466D01*
X108902037Y-101976627D01*
X108884641Y-101800000D01*
X108902037Y-101623373D01*
X108953557Y-101453534D01*
X109037222Y-101297009D01*
X109066552Y-101261271D01*
X109149814Y-101159814D01*
X109251271Y-101076552D01*
X109287009Y-101047222D01*
X109443534Y-100963557D01*
X109613373Y-100912037D01*
X109679557Y-100905519D01*
X109745740Y-100899000D01*
X109834260Y-100899000D01*
X109900442Y-100905518D01*
X109900442Y-100905518D01*
G37*
G36*
X127665025Y-100899000D02*
G01*
X127746627Y-100907037D01*
X127916466Y-100958557D01*
X128072991Y-101042222D01*
X128079082Y-101047221D01*
X128210186Y-101154814D01*
X128293448Y-101256271D01*
X128322778Y-101292009D01*
X128406443Y-101448534D01*
X128457963Y-101618373D01*
X128475359Y-101795000D01*
X128457963Y-101971627D01*
X128406443Y-102141466D01*
X128322778Y-102297991D01*
X128293448Y-102333729D01*
X128210186Y-102435186D01*
X128108729Y-102518448D01*
X128072991Y-102547778D01*
X127916466Y-102631443D01*
X127746627Y-102682963D01*
X127695860Y-102687963D01*
X127614260Y-102696000D01*
X127525740Y-102696000D01*
X127444140Y-102687963D01*
X127393373Y-102682963D01*
X127223534Y-102631443D01*
X127067009Y-102547778D01*
X127031271Y-102518448D01*
X126929814Y-102435186D01*
X126846552Y-102333729D01*
X126817222Y-102297991D01*
X126733557Y-102141466D01*
X126682037Y-101971627D01*
X126664641Y-101795000D01*
X126682037Y-101618373D01*
X126733557Y-101448534D01*
X126817222Y-101292009D01*
X126846552Y-101256271D01*
X126929814Y-101154814D01*
X127060918Y-101047221D01*
X127067009Y-101042222D01*
X127223534Y-100958557D01*
X127393373Y-100907037D01*
X127474975Y-100899000D01*
X127525740Y-100894000D01*
X127614260Y-100894000D01*
X127665025Y-100899000D01*
X127665025Y-100899000D01*
G37*
G36*
X125125025Y-100899000D02*
G01*
X125206627Y-100907037D01*
X125376466Y-100958557D01*
X125532991Y-101042222D01*
X125539082Y-101047221D01*
X125670186Y-101154814D01*
X125753448Y-101256271D01*
X125782778Y-101292009D01*
X125866443Y-101448534D01*
X125917963Y-101618373D01*
X125935359Y-101795000D01*
X125917963Y-101971627D01*
X125866443Y-102141466D01*
X125782778Y-102297991D01*
X125753448Y-102333729D01*
X125670186Y-102435186D01*
X125568729Y-102518448D01*
X125532991Y-102547778D01*
X125376466Y-102631443D01*
X125206627Y-102682963D01*
X125155860Y-102687963D01*
X125074260Y-102696000D01*
X124985740Y-102696000D01*
X124904140Y-102687963D01*
X124853373Y-102682963D01*
X124683534Y-102631443D01*
X124527009Y-102547778D01*
X124491271Y-102518448D01*
X124389814Y-102435186D01*
X124306552Y-102333729D01*
X124277222Y-102297991D01*
X124193557Y-102141466D01*
X124142037Y-101971627D01*
X124124641Y-101795000D01*
X124142037Y-101618373D01*
X124193557Y-101448534D01*
X124277222Y-101292009D01*
X124306552Y-101256271D01*
X124389814Y-101154814D01*
X124520918Y-101047221D01*
X124527009Y-101042222D01*
X124683534Y-100958557D01*
X124853373Y-100907037D01*
X124934975Y-100899000D01*
X124985740Y-100894000D01*
X125074260Y-100894000D01*
X125125025Y-100899000D01*
X125125025Y-100899000D01*
G37*
G36*
X122585025Y-100899000D02*
G01*
X122666627Y-100907037D01*
X122836466Y-100958557D01*
X122992991Y-101042222D01*
X122999082Y-101047221D01*
X123130186Y-101154814D01*
X123213448Y-101256271D01*
X123242778Y-101292009D01*
X123326443Y-101448534D01*
X123377963Y-101618373D01*
X123395359Y-101795000D01*
X123377963Y-101971627D01*
X123326443Y-102141466D01*
X123242778Y-102297991D01*
X123213448Y-102333729D01*
X123130186Y-102435186D01*
X123028729Y-102518448D01*
X122992991Y-102547778D01*
X122836466Y-102631443D01*
X122666627Y-102682963D01*
X122615860Y-102687963D01*
X122534260Y-102696000D01*
X122445740Y-102696000D01*
X122364140Y-102687963D01*
X122313373Y-102682963D01*
X122143534Y-102631443D01*
X121987009Y-102547778D01*
X121951271Y-102518448D01*
X121849814Y-102435186D01*
X121766552Y-102333729D01*
X121737222Y-102297991D01*
X121653557Y-102141466D01*
X121602037Y-101971627D01*
X121584641Y-101795000D01*
X121602037Y-101618373D01*
X121653557Y-101448534D01*
X121737222Y-101292009D01*
X121766552Y-101256271D01*
X121849814Y-101154814D01*
X121980918Y-101047221D01*
X121987009Y-101042222D01*
X122143534Y-100958557D01*
X122313373Y-100907037D01*
X122394975Y-100899000D01*
X122445740Y-100894000D01*
X122534260Y-100894000D01*
X122585025Y-100899000D01*
X122585025Y-100899000D01*
G37*
G36*
X112425025Y-100899000D02*
G01*
X112506627Y-100907037D01*
X112676466Y-100958557D01*
X112832991Y-101042222D01*
X112839082Y-101047221D01*
X112970186Y-101154814D01*
X113053448Y-101256271D01*
X113082778Y-101292009D01*
X113166443Y-101448534D01*
X113217963Y-101618373D01*
X113235359Y-101795000D01*
X113217963Y-101971627D01*
X113166443Y-102141466D01*
X113082778Y-102297991D01*
X113053448Y-102333729D01*
X112970186Y-102435186D01*
X112868729Y-102518448D01*
X112832991Y-102547778D01*
X112676466Y-102631443D01*
X112506627Y-102682963D01*
X112455860Y-102687963D01*
X112374260Y-102696000D01*
X112285740Y-102696000D01*
X112204140Y-102687963D01*
X112153373Y-102682963D01*
X111983534Y-102631443D01*
X111827009Y-102547778D01*
X111791271Y-102518448D01*
X111689814Y-102435186D01*
X111606552Y-102333729D01*
X111577222Y-102297991D01*
X111493557Y-102141466D01*
X111442037Y-101971627D01*
X111424641Y-101795000D01*
X111442037Y-101618373D01*
X111493557Y-101448534D01*
X111577222Y-101292009D01*
X111606552Y-101256271D01*
X111689814Y-101154814D01*
X111820918Y-101047221D01*
X111827009Y-101042222D01*
X111983534Y-100958557D01*
X112153373Y-100907037D01*
X112234975Y-100899000D01*
X112285740Y-100894000D01*
X112374260Y-100894000D01*
X112425025Y-100899000D01*
X112425025Y-100899000D01*
G37*
G36*
X120045025Y-100899000D02*
G01*
X120126627Y-100907037D01*
X120296466Y-100958557D01*
X120452991Y-101042222D01*
X120459082Y-101047221D01*
X120590186Y-101154814D01*
X120673448Y-101256271D01*
X120702778Y-101292009D01*
X120786443Y-101448534D01*
X120837963Y-101618373D01*
X120855359Y-101795000D01*
X120837963Y-101971627D01*
X120786443Y-102141466D01*
X120702778Y-102297991D01*
X120673448Y-102333729D01*
X120590186Y-102435186D01*
X120488729Y-102518448D01*
X120452991Y-102547778D01*
X120296466Y-102631443D01*
X120126627Y-102682963D01*
X120075860Y-102687963D01*
X119994260Y-102696000D01*
X119905740Y-102696000D01*
X119824140Y-102687963D01*
X119773373Y-102682963D01*
X119603534Y-102631443D01*
X119447009Y-102547778D01*
X119411271Y-102518448D01*
X119309814Y-102435186D01*
X119226552Y-102333729D01*
X119197222Y-102297991D01*
X119113557Y-102141466D01*
X119062037Y-101971627D01*
X119044641Y-101795000D01*
X119062037Y-101618373D01*
X119113557Y-101448534D01*
X119197222Y-101292009D01*
X119226552Y-101256271D01*
X119309814Y-101154814D01*
X119440918Y-101047221D01*
X119447009Y-101042222D01*
X119603534Y-100958557D01*
X119773373Y-100907037D01*
X119854975Y-100899000D01*
X119905740Y-100894000D01*
X119994260Y-100894000D01*
X120045025Y-100899000D01*
X120045025Y-100899000D01*
G37*
G36*
X117505025Y-100899000D02*
G01*
X117586627Y-100907037D01*
X117756466Y-100958557D01*
X117912991Y-101042222D01*
X117919082Y-101047221D01*
X118050186Y-101154814D01*
X118133448Y-101256271D01*
X118162778Y-101292009D01*
X118246443Y-101448534D01*
X118297963Y-101618373D01*
X118315359Y-101795000D01*
X118297963Y-101971627D01*
X118246443Y-102141466D01*
X118162778Y-102297991D01*
X118133448Y-102333729D01*
X118050186Y-102435186D01*
X117948729Y-102518448D01*
X117912991Y-102547778D01*
X117756466Y-102631443D01*
X117586627Y-102682963D01*
X117535860Y-102687963D01*
X117454260Y-102696000D01*
X117365740Y-102696000D01*
X117284140Y-102687963D01*
X117233373Y-102682963D01*
X117063534Y-102631443D01*
X116907009Y-102547778D01*
X116871271Y-102518448D01*
X116769814Y-102435186D01*
X116686552Y-102333729D01*
X116657222Y-102297991D01*
X116573557Y-102141466D01*
X116522037Y-101971627D01*
X116504641Y-101795000D01*
X116522037Y-101618373D01*
X116573557Y-101448534D01*
X116657222Y-101292009D01*
X116686552Y-101256271D01*
X116769814Y-101154814D01*
X116900918Y-101047221D01*
X116907009Y-101042222D01*
X117063534Y-100958557D01*
X117233373Y-100907037D01*
X117314975Y-100899000D01*
X117365740Y-100894000D01*
X117454260Y-100894000D01*
X117505025Y-100899000D01*
X117505025Y-100899000D01*
G37*
G36*
X114965025Y-100899000D02*
G01*
X115046627Y-100907037D01*
X115216466Y-100958557D01*
X115372991Y-101042222D01*
X115379082Y-101047221D01*
X115510186Y-101154814D01*
X115593448Y-101256271D01*
X115622778Y-101292009D01*
X115706443Y-101448534D01*
X115757963Y-101618373D01*
X115775359Y-101795000D01*
X115757963Y-101971627D01*
X115706443Y-102141466D01*
X115622778Y-102297991D01*
X115593448Y-102333729D01*
X115510186Y-102435186D01*
X115408729Y-102518448D01*
X115372991Y-102547778D01*
X115216466Y-102631443D01*
X115046627Y-102682963D01*
X114995860Y-102687963D01*
X114914260Y-102696000D01*
X114825740Y-102696000D01*
X114744140Y-102687963D01*
X114693373Y-102682963D01*
X114523534Y-102631443D01*
X114367009Y-102547778D01*
X114331271Y-102518448D01*
X114229814Y-102435186D01*
X114146552Y-102333729D01*
X114117222Y-102297991D01*
X114033557Y-102141466D01*
X113982037Y-101971627D01*
X113964641Y-101795000D01*
X113982037Y-101618373D01*
X114033557Y-101448534D01*
X114117222Y-101292009D01*
X114146552Y-101256271D01*
X114229814Y-101154814D01*
X114360918Y-101047221D01*
X114367009Y-101042222D01*
X114523534Y-100958557D01*
X114693373Y-100907037D01*
X114774975Y-100899000D01*
X114825740Y-100894000D01*
X114914260Y-100894000D01*
X114965025Y-100899000D01*
X114965025Y-100899000D01*
G37*
M02*
