G04 #@! TF.GenerationSoftware,KiCad,Pcbnew,(5.1.4-0-10_14)*
G04 #@! TF.CreationDate,2020-03-29T23:46:54+03:00*
G04 #@! TF.ProjectId,esp32-pico-d4-module,65737033-322d-4706-9963-6f2d64342d6d,rev?*
G04 #@! TF.SameCoordinates,Original*
G04 #@! TF.FileFunction,Copper,L1,Top*
G04 #@! TF.FilePolarity,Positive*
%FSLAX46Y46*%
G04 Gerber Fmt 4.6, Leading zero omitted, Abs format (unit mm)*
G04 Created by KiCad (PCBNEW (5.1.4-0-10_14)) date 2020-03-29 23:46:54*
%MOMM*%
%LPD*%
G04 APERTURE LIST*
%ADD10C,0.100000*%
%ADD11C,0.975000*%
%ADD12C,0.500000*%
%ADD13C,5.450000*%
%ADD14C,0.250000*%
%ADD15R,0.550000X0.800000*%
%ADD16R,0.500000X0.500000*%
%ADD17O,1.700000X1.700000*%
%ADD18C,0.600000*%
%ADD19C,0.250000*%
%ADD20C,0.254000*%
G04 APERTURE END LIST*
D10*
G36*
X126555142Y-111851174D02*
G01*
X126578803Y-111854684D01*
X126602007Y-111860496D01*
X126624529Y-111868554D01*
X126646153Y-111878782D01*
X126666670Y-111891079D01*
X126685883Y-111905329D01*
X126703607Y-111921393D01*
X126719671Y-111939117D01*
X126733921Y-111958330D01*
X126746218Y-111978847D01*
X126756446Y-112000471D01*
X126764504Y-112022993D01*
X126770316Y-112046197D01*
X126773826Y-112069858D01*
X126775000Y-112093750D01*
X126775000Y-113006250D01*
X126773826Y-113030142D01*
X126770316Y-113053803D01*
X126764504Y-113077007D01*
X126756446Y-113099529D01*
X126746218Y-113121153D01*
X126733921Y-113141670D01*
X126719671Y-113160883D01*
X126703607Y-113178607D01*
X126685883Y-113194671D01*
X126666670Y-113208921D01*
X126646153Y-113221218D01*
X126624529Y-113231446D01*
X126602007Y-113239504D01*
X126578803Y-113245316D01*
X126555142Y-113248826D01*
X126531250Y-113250000D01*
X126043750Y-113250000D01*
X126019858Y-113248826D01*
X125996197Y-113245316D01*
X125972993Y-113239504D01*
X125950471Y-113231446D01*
X125928847Y-113221218D01*
X125908330Y-113208921D01*
X125889117Y-113194671D01*
X125871393Y-113178607D01*
X125855329Y-113160883D01*
X125841079Y-113141670D01*
X125828782Y-113121153D01*
X125818554Y-113099529D01*
X125810496Y-113077007D01*
X125804684Y-113053803D01*
X125801174Y-113030142D01*
X125800000Y-113006250D01*
X125800000Y-112093750D01*
X125801174Y-112069858D01*
X125804684Y-112046197D01*
X125810496Y-112022993D01*
X125818554Y-112000471D01*
X125828782Y-111978847D01*
X125841079Y-111958330D01*
X125855329Y-111939117D01*
X125871393Y-111921393D01*
X125889117Y-111905329D01*
X125908330Y-111891079D01*
X125928847Y-111878782D01*
X125950471Y-111868554D01*
X125972993Y-111860496D01*
X125996197Y-111854684D01*
X126019858Y-111851174D01*
X126043750Y-111850000D01*
X126531250Y-111850000D01*
X126555142Y-111851174D01*
X126555142Y-111851174D01*
G37*
D11*
X126287500Y-112550000D03*
D10*
G36*
X128430142Y-111851174D02*
G01*
X128453803Y-111854684D01*
X128477007Y-111860496D01*
X128499529Y-111868554D01*
X128521153Y-111878782D01*
X128541670Y-111891079D01*
X128560883Y-111905329D01*
X128578607Y-111921393D01*
X128594671Y-111939117D01*
X128608921Y-111958330D01*
X128621218Y-111978847D01*
X128631446Y-112000471D01*
X128639504Y-112022993D01*
X128645316Y-112046197D01*
X128648826Y-112069858D01*
X128650000Y-112093750D01*
X128650000Y-113006250D01*
X128648826Y-113030142D01*
X128645316Y-113053803D01*
X128639504Y-113077007D01*
X128631446Y-113099529D01*
X128621218Y-113121153D01*
X128608921Y-113141670D01*
X128594671Y-113160883D01*
X128578607Y-113178607D01*
X128560883Y-113194671D01*
X128541670Y-113208921D01*
X128521153Y-113221218D01*
X128499529Y-113231446D01*
X128477007Y-113239504D01*
X128453803Y-113245316D01*
X128430142Y-113248826D01*
X128406250Y-113250000D01*
X127918750Y-113250000D01*
X127894858Y-113248826D01*
X127871197Y-113245316D01*
X127847993Y-113239504D01*
X127825471Y-113231446D01*
X127803847Y-113221218D01*
X127783330Y-113208921D01*
X127764117Y-113194671D01*
X127746393Y-113178607D01*
X127730329Y-113160883D01*
X127716079Y-113141670D01*
X127703782Y-113121153D01*
X127693554Y-113099529D01*
X127685496Y-113077007D01*
X127679684Y-113053803D01*
X127676174Y-113030142D01*
X127675000Y-113006250D01*
X127675000Y-112093750D01*
X127676174Y-112069858D01*
X127679684Y-112046197D01*
X127685496Y-112022993D01*
X127693554Y-112000471D01*
X127703782Y-111978847D01*
X127716079Y-111958330D01*
X127730329Y-111939117D01*
X127746393Y-111921393D01*
X127764117Y-111905329D01*
X127783330Y-111891079D01*
X127803847Y-111878782D01*
X127825471Y-111868554D01*
X127847993Y-111860496D01*
X127871197Y-111854684D01*
X127894858Y-111851174D01*
X127918750Y-111850000D01*
X128406250Y-111850000D01*
X128430142Y-111851174D01*
X128430142Y-111851174D01*
G37*
D11*
X128162500Y-112550000D03*
D10*
G36*
X111455142Y-110526174D02*
G01*
X111478803Y-110529684D01*
X111502007Y-110535496D01*
X111524529Y-110543554D01*
X111546153Y-110553782D01*
X111566670Y-110566079D01*
X111585883Y-110580329D01*
X111603607Y-110596393D01*
X111619671Y-110614117D01*
X111633921Y-110633330D01*
X111646218Y-110653847D01*
X111656446Y-110675471D01*
X111664504Y-110697993D01*
X111670316Y-110721197D01*
X111673826Y-110744858D01*
X111675000Y-110768750D01*
X111675000Y-111681250D01*
X111673826Y-111705142D01*
X111670316Y-111728803D01*
X111664504Y-111752007D01*
X111656446Y-111774529D01*
X111646218Y-111796153D01*
X111633921Y-111816670D01*
X111619671Y-111835883D01*
X111603607Y-111853607D01*
X111585883Y-111869671D01*
X111566670Y-111883921D01*
X111546153Y-111896218D01*
X111524529Y-111906446D01*
X111502007Y-111914504D01*
X111478803Y-111920316D01*
X111455142Y-111923826D01*
X111431250Y-111925000D01*
X110943750Y-111925000D01*
X110919858Y-111923826D01*
X110896197Y-111920316D01*
X110872993Y-111914504D01*
X110850471Y-111906446D01*
X110828847Y-111896218D01*
X110808330Y-111883921D01*
X110789117Y-111869671D01*
X110771393Y-111853607D01*
X110755329Y-111835883D01*
X110741079Y-111816670D01*
X110728782Y-111796153D01*
X110718554Y-111774529D01*
X110710496Y-111752007D01*
X110704684Y-111728803D01*
X110701174Y-111705142D01*
X110700000Y-111681250D01*
X110700000Y-110768750D01*
X110701174Y-110744858D01*
X110704684Y-110721197D01*
X110710496Y-110697993D01*
X110718554Y-110675471D01*
X110728782Y-110653847D01*
X110741079Y-110633330D01*
X110755329Y-110614117D01*
X110771393Y-110596393D01*
X110789117Y-110580329D01*
X110808330Y-110566079D01*
X110828847Y-110553782D01*
X110850471Y-110543554D01*
X110872993Y-110535496D01*
X110896197Y-110529684D01*
X110919858Y-110526174D01*
X110943750Y-110525000D01*
X111431250Y-110525000D01*
X111455142Y-110526174D01*
X111455142Y-110526174D01*
G37*
D11*
X111187500Y-111225000D03*
D10*
G36*
X109580142Y-110526174D02*
G01*
X109603803Y-110529684D01*
X109627007Y-110535496D01*
X109649529Y-110543554D01*
X109671153Y-110553782D01*
X109691670Y-110566079D01*
X109710883Y-110580329D01*
X109728607Y-110596393D01*
X109744671Y-110614117D01*
X109758921Y-110633330D01*
X109771218Y-110653847D01*
X109781446Y-110675471D01*
X109789504Y-110697993D01*
X109795316Y-110721197D01*
X109798826Y-110744858D01*
X109800000Y-110768750D01*
X109800000Y-111681250D01*
X109798826Y-111705142D01*
X109795316Y-111728803D01*
X109789504Y-111752007D01*
X109781446Y-111774529D01*
X109771218Y-111796153D01*
X109758921Y-111816670D01*
X109744671Y-111835883D01*
X109728607Y-111853607D01*
X109710883Y-111869671D01*
X109691670Y-111883921D01*
X109671153Y-111896218D01*
X109649529Y-111906446D01*
X109627007Y-111914504D01*
X109603803Y-111920316D01*
X109580142Y-111923826D01*
X109556250Y-111925000D01*
X109068750Y-111925000D01*
X109044858Y-111923826D01*
X109021197Y-111920316D01*
X108997993Y-111914504D01*
X108975471Y-111906446D01*
X108953847Y-111896218D01*
X108933330Y-111883921D01*
X108914117Y-111869671D01*
X108896393Y-111853607D01*
X108880329Y-111835883D01*
X108866079Y-111816670D01*
X108853782Y-111796153D01*
X108843554Y-111774529D01*
X108835496Y-111752007D01*
X108829684Y-111728803D01*
X108826174Y-111705142D01*
X108825000Y-111681250D01*
X108825000Y-110768750D01*
X108826174Y-110744858D01*
X108829684Y-110721197D01*
X108835496Y-110697993D01*
X108843554Y-110675471D01*
X108853782Y-110653847D01*
X108866079Y-110633330D01*
X108880329Y-110614117D01*
X108896393Y-110596393D01*
X108914117Y-110580329D01*
X108933330Y-110566079D01*
X108953847Y-110553782D01*
X108975471Y-110543554D01*
X108997993Y-110535496D01*
X109021197Y-110529684D01*
X109044858Y-110526174D01*
X109068750Y-110525000D01*
X109556250Y-110525000D01*
X109580142Y-110526174D01*
X109580142Y-110526174D01*
G37*
D11*
X109312500Y-111225000D03*
D10*
G36*
X109580142Y-108551174D02*
G01*
X109603803Y-108554684D01*
X109627007Y-108560496D01*
X109649529Y-108568554D01*
X109671153Y-108578782D01*
X109691670Y-108591079D01*
X109710883Y-108605329D01*
X109728607Y-108621393D01*
X109744671Y-108639117D01*
X109758921Y-108658330D01*
X109771218Y-108678847D01*
X109781446Y-108700471D01*
X109789504Y-108722993D01*
X109795316Y-108746197D01*
X109798826Y-108769858D01*
X109800000Y-108793750D01*
X109800000Y-109706250D01*
X109798826Y-109730142D01*
X109795316Y-109753803D01*
X109789504Y-109777007D01*
X109781446Y-109799529D01*
X109771218Y-109821153D01*
X109758921Y-109841670D01*
X109744671Y-109860883D01*
X109728607Y-109878607D01*
X109710883Y-109894671D01*
X109691670Y-109908921D01*
X109671153Y-109921218D01*
X109649529Y-109931446D01*
X109627007Y-109939504D01*
X109603803Y-109945316D01*
X109580142Y-109948826D01*
X109556250Y-109950000D01*
X109068750Y-109950000D01*
X109044858Y-109948826D01*
X109021197Y-109945316D01*
X108997993Y-109939504D01*
X108975471Y-109931446D01*
X108953847Y-109921218D01*
X108933330Y-109908921D01*
X108914117Y-109894671D01*
X108896393Y-109878607D01*
X108880329Y-109860883D01*
X108866079Y-109841670D01*
X108853782Y-109821153D01*
X108843554Y-109799529D01*
X108835496Y-109777007D01*
X108829684Y-109753803D01*
X108826174Y-109730142D01*
X108825000Y-109706250D01*
X108825000Y-108793750D01*
X108826174Y-108769858D01*
X108829684Y-108746197D01*
X108835496Y-108722993D01*
X108843554Y-108700471D01*
X108853782Y-108678847D01*
X108866079Y-108658330D01*
X108880329Y-108639117D01*
X108896393Y-108621393D01*
X108914117Y-108605329D01*
X108933330Y-108591079D01*
X108953847Y-108578782D01*
X108975471Y-108568554D01*
X108997993Y-108560496D01*
X109021197Y-108554684D01*
X109044858Y-108551174D01*
X109068750Y-108550000D01*
X109556250Y-108550000D01*
X109580142Y-108551174D01*
X109580142Y-108551174D01*
G37*
D11*
X109312500Y-109250000D03*
D10*
G36*
X111455142Y-108551174D02*
G01*
X111478803Y-108554684D01*
X111502007Y-108560496D01*
X111524529Y-108568554D01*
X111546153Y-108578782D01*
X111566670Y-108591079D01*
X111585883Y-108605329D01*
X111603607Y-108621393D01*
X111619671Y-108639117D01*
X111633921Y-108658330D01*
X111646218Y-108678847D01*
X111656446Y-108700471D01*
X111664504Y-108722993D01*
X111670316Y-108746197D01*
X111673826Y-108769858D01*
X111675000Y-108793750D01*
X111675000Y-109706250D01*
X111673826Y-109730142D01*
X111670316Y-109753803D01*
X111664504Y-109777007D01*
X111656446Y-109799529D01*
X111646218Y-109821153D01*
X111633921Y-109841670D01*
X111619671Y-109860883D01*
X111603607Y-109878607D01*
X111585883Y-109894671D01*
X111566670Y-109908921D01*
X111546153Y-109921218D01*
X111524529Y-109931446D01*
X111502007Y-109939504D01*
X111478803Y-109945316D01*
X111455142Y-109948826D01*
X111431250Y-109950000D01*
X110943750Y-109950000D01*
X110919858Y-109948826D01*
X110896197Y-109945316D01*
X110872993Y-109939504D01*
X110850471Y-109931446D01*
X110828847Y-109921218D01*
X110808330Y-109908921D01*
X110789117Y-109894671D01*
X110771393Y-109878607D01*
X110755329Y-109860883D01*
X110741079Y-109841670D01*
X110728782Y-109821153D01*
X110718554Y-109799529D01*
X110710496Y-109777007D01*
X110704684Y-109753803D01*
X110701174Y-109730142D01*
X110700000Y-109706250D01*
X110700000Y-108793750D01*
X110701174Y-108769858D01*
X110704684Y-108746197D01*
X110710496Y-108722993D01*
X110718554Y-108700471D01*
X110728782Y-108678847D01*
X110741079Y-108658330D01*
X110755329Y-108639117D01*
X110771393Y-108621393D01*
X110789117Y-108605329D01*
X110808330Y-108591079D01*
X110828847Y-108578782D01*
X110850471Y-108568554D01*
X110872993Y-108560496D01*
X110896197Y-108554684D01*
X110919858Y-108551174D01*
X110943750Y-108550000D01*
X111431250Y-108550000D01*
X111455142Y-108551174D01*
X111455142Y-108551174D01*
G37*
D11*
X111187500Y-109250000D03*
D10*
G36*
X109580142Y-104501174D02*
G01*
X109603803Y-104504684D01*
X109627007Y-104510496D01*
X109649529Y-104518554D01*
X109671153Y-104528782D01*
X109691670Y-104541079D01*
X109710883Y-104555329D01*
X109728607Y-104571393D01*
X109744671Y-104589117D01*
X109758921Y-104608330D01*
X109771218Y-104628847D01*
X109781446Y-104650471D01*
X109789504Y-104672993D01*
X109795316Y-104696197D01*
X109798826Y-104719858D01*
X109800000Y-104743750D01*
X109800000Y-105656250D01*
X109798826Y-105680142D01*
X109795316Y-105703803D01*
X109789504Y-105727007D01*
X109781446Y-105749529D01*
X109771218Y-105771153D01*
X109758921Y-105791670D01*
X109744671Y-105810883D01*
X109728607Y-105828607D01*
X109710883Y-105844671D01*
X109691670Y-105858921D01*
X109671153Y-105871218D01*
X109649529Y-105881446D01*
X109627007Y-105889504D01*
X109603803Y-105895316D01*
X109580142Y-105898826D01*
X109556250Y-105900000D01*
X109068750Y-105900000D01*
X109044858Y-105898826D01*
X109021197Y-105895316D01*
X108997993Y-105889504D01*
X108975471Y-105881446D01*
X108953847Y-105871218D01*
X108933330Y-105858921D01*
X108914117Y-105844671D01*
X108896393Y-105828607D01*
X108880329Y-105810883D01*
X108866079Y-105791670D01*
X108853782Y-105771153D01*
X108843554Y-105749529D01*
X108835496Y-105727007D01*
X108829684Y-105703803D01*
X108826174Y-105680142D01*
X108825000Y-105656250D01*
X108825000Y-104743750D01*
X108826174Y-104719858D01*
X108829684Y-104696197D01*
X108835496Y-104672993D01*
X108843554Y-104650471D01*
X108853782Y-104628847D01*
X108866079Y-104608330D01*
X108880329Y-104589117D01*
X108896393Y-104571393D01*
X108914117Y-104555329D01*
X108933330Y-104541079D01*
X108953847Y-104528782D01*
X108975471Y-104518554D01*
X108997993Y-104510496D01*
X109021197Y-104504684D01*
X109044858Y-104501174D01*
X109068750Y-104500000D01*
X109556250Y-104500000D01*
X109580142Y-104501174D01*
X109580142Y-104501174D01*
G37*
D11*
X109312500Y-105200000D03*
D10*
G36*
X111455142Y-104501174D02*
G01*
X111478803Y-104504684D01*
X111502007Y-104510496D01*
X111524529Y-104518554D01*
X111546153Y-104528782D01*
X111566670Y-104541079D01*
X111585883Y-104555329D01*
X111603607Y-104571393D01*
X111619671Y-104589117D01*
X111633921Y-104608330D01*
X111646218Y-104628847D01*
X111656446Y-104650471D01*
X111664504Y-104672993D01*
X111670316Y-104696197D01*
X111673826Y-104719858D01*
X111675000Y-104743750D01*
X111675000Y-105656250D01*
X111673826Y-105680142D01*
X111670316Y-105703803D01*
X111664504Y-105727007D01*
X111656446Y-105749529D01*
X111646218Y-105771153D01*
X111633921Y-105791670D01*
X111619671Y-105810883D01*
X111603607Y-105828607D01*
X111585883Y-105844671D01*
X111566670Y-105858921D01*
X111546153Y-105871218D01*
X111524529Y-105881446D01*
X111502007Y-105889504D01*
X111478803Y-105895316D01*
X111455142Y-105898826D01*
X111431250Y-105900000D01*
X110943750Y-105900000D01*
X110919858Y-105898826D01*
X110896197Y-105895316D01*
X110872993Y-105889504D01*
X110850471Y-105881446D01*
X110828847Y-105871218D01*
X110808330Y-105858921D01*
X110789117Y-105844671D01*
X110771393Y-105828607D01*
X110755329Y-105810883D01*
X110741079Y-105791670D01*
X110728782Y-105771153D01*
X110718554Y-105749529D01*
X110710496Y-105727007D01*
X110704684Y-105703803D01*
X110701174Y-105680142D01*
X110700000Y-105656250D01*
X110700000Y-104743750D01*
X110701174Y-104719858D01*
X110704684Y-104696197D01*
X110710496Y-104672993D01*
X110718554Y-104650471D01*
X110728782Y-104628847D01*
X110741079Y-104608330D01*
X110755329Y-104589117D01*
X110771393Y-104571393D01*
X110789117Y-104555329D01*
X110808330Y-104541079D01*
X110828847Y-104528782D01*
X110850471Y-104518554D01*
X110872993Y-104510496D01*
X110896197Y-104504684D01*
X110919858Y-104501174D01*
X110943750Y-104500000D01*
X111431250Y-104500000D01*
X111455142Y-104501174D01*
X111455142Y-104501174D01*
G37*
D11*
X111187500Y-105200000D03*
D10*
G36*
X109580142Y-106476174D02*
G01*
X109603803Y-106479684D01*
X109627007Y-106485496D01*
X109649529Y-106493554D01*
X109671153Y-106503782D01*
X109691670Y-106516079D01*
X109710883Y-106530329D01*
X109728607Y-106546393D01*
X109744671Y-106564117D01*
X109758921Y-106583330D01*
X109771218Y-106603847D01*
X109781446Y-106625471D01*
X109789504Y-106647993D01*
X109795316Y-106671197D01*
X109798826Y-106694858D01*
X109800000Y-106718750D01*
X109800000Y-107631250D01*
X109798826Y-107655142D01*
X109795316Y-107678803D01*
X109789504Y-107702007D01*
X109781446Y-107724529D01*
X109771218Y-107746153D01*
X109758921Y-107766670D01*
X109744671Y-107785883D01*
X109728607Y-107803607D01*
X109710883Y-107819671D01*
X109691670Y-107833921D01*
X109671153Y-107846218D01*
X109649529Y-107856446D01*
X109627007Y-107864504D01*
X109603803Y-107870316D01*
X109580142Y-107873826D01*
X109556250Y-107875000D01*
X109068750Y-107875000D01*
X109044858Y-107873826D01*
X109021197Y-107870316D01*
X108997993Y-107864504D01*
X108975471Y-107856446D01*
X108953847Y-107846218D01*
X108933330Y-107833921D01*
X108914117Y-107819671D01*
X108896393Y-107803607D01*
X108880329Y-107785883D01*
X108866079Y-107766670D01*
X108853782Y-107746153D01*
X108843554Y-107724529D01*
X108835496Y-107702007D01*
X108829684Y-107678803D01*
X108826174Y-107655142D01*
X108825000Y-107631250D01*
X108825000Y-106718750D01*
X108826174Y-106694858D01*
X108829684Y-106671197D01*
X108835496Y-106647993D01*
X108843554Y-106625471D01*
X108853782Y-106603847D01*
X108866079Y-106583330D01*
X108880329Y-106564117D01*
X108896393Y-106546393D01*
X108914117Y-106530329D01*
X108933330Y-106516079D01*
X108953847Y-106503782D01*
X108975471Y-106493554D01*
X108997993Y-106485496D01*
X109021197Y-106479684D01*
X109044858Y-106476174D01*
X109068750Y-106475000D01*
X109556250Y-106475000D01*
X109580142Y-106476174D01*
X109580142Y-106476174D01*
G37*
D11*
X109312500Y-107175000D03*
D10*
G36*
X111455142Y-106476174D02*
G01*
X111478803Y-106479684D01*
X111502007Y-106485496D01*
X111524529Y-106493554D01*
X111546153Y-106503782D01*
X111566670Y-106516079D01*
X111585883Y-106530329D01*
X111603607Y-106546393D01*
X111619671Y-106564117D01*
X111633921Y-106583330D01*
X111646218Y-106603847D01*
X111656446Y-106625471D01*
X111664504Y-106647993D01*
X111670316Y-106671197D01*
X111673826Y-106694858D01*
X111675000Y-106718750D01*
X111675000Y-107631250D01*
X111673826Y-107655142D01*
X111670316Y-107678803D01*
X111664504Y-107702007D01*
X111656446Y-107724529D01*
X111646218Y-107746153D01*
X111633921Y-107766670D01*
X111619671Y-107785883D01*
X111603607Y-107803607D01*
X111585883Y-107819671D01*
X111566670Y-107833921D01*
X111546153Y-107846218D01*
X111524529Y-107856446D01*
X111502007Y-107864504D01*
X111478803Y-107870316D01*
X111455142Y-107873826D01*
X111431250Y-107875000D01*
X110943750Y-107875000D01*
X110919858Y-107873826D01*
X110896197Y-107870316D01*
X110872993Y-107864504D01*
X110850471Y-107856446D01*
X110828847Y-107846218D01*
X110808330Y-107833921D01*
X110789117Y-107819671D01*
X110771393Y-107803607D01*
X110755329Y-107785883D01*
X110741079Y-107766670D01*
X110728782Y-107746153D01*
X110718554Y-107724529D01*
X110710496Y-107702007D01*
X110704684Y-107678803D01*
X110701174Y-107655142D01*
X110700000Y-107631250D01*
X110700000Y-106718750D01*
X110701174Y-106694858D01*
X110704684Y-106671197D01*
X110710496Y-106647993D01*
X110718554Y-106625471D01*
X110728782Y-106603847D01*
X110741079Y-106583330D01*
X110755329Y-106564117D01*
X110771393Y-106546393D01*
X110789117Y-106530329D01*
X110808330Y-106516079D01*
X110828847Y-106503782D01*
X110850471Y-106493554D01*
X110872993Y-106485496D01*
X110896197Y-106479684D01*
X110919858Y-106476174D01*
X110943750Y-106475000D01*
X111431250Y-106475000D01*
X111455142Y-106476174D01*
X111455142Y-106476174D01*
G37*
D11*
X111187500Y-107175000D03*
D12*
X117125000Y-108100000D03*
X114650000Y-108100000D03*
D10*
G36*
X119624502Y-105376204D02*
G01*
X119648771Y-105379804D01*
X119672570Y-105385765D01*
X119695670Y-105394030D01*
X119717848Y-105404520D01*
X119738892Y-105417133D01*
X119758598Y-105431748D01*
X119776776Y-105448224D01*
X119793252Y-105466402D01*
X119807867Y-105486108D01*
X119820480Y-105507152D01*
X119830970Y-105529330D01*
X119839235Y-105552430D01*
X119845196Y-105576229D01*
X119848796Y-105600498D01*
X119850000Y-105625002D01*
X119850000Y-110574998D01*
X119848796Y-110599502D01*
X119845196Y-110623771D01*
X119839235Y-110647570D01*
X119830970Y-110670670D01*
X119820480Y-110692848D01*
X119807867Y-110713892D01*
X119793252Y-110733598D01*
X119776776Y-110751776D01*
X119758598Y-110768252D01*
X119738892Y-110782867D01*
X119717848Y-110795480D01*
X119695670Y-110805970D01*
X119672570Y-110814235D01*
X119648771Y-110820196D01*
X119624502Y-110823796D01*
X119599998Y-110825000D01*
X114650002Y-110825000D01*
X114625498Y-110823796D01*
X114601229Y-110820196D01*
X114577430Y-110814235D01*
X114554330Y-110805970D01*
X114532152Y-110795480D01*
X114511108Y-110782867D01*
X114491402Y-110768252D01*
X114473224Y-110751776D01*
X114456748Y-110733598D01*
X114442133Y-110713892D01*
X114429520Y-110692848D01*
X114419030Y-110670670D01*
X114410765Y-110647570D01*
X114404804Y-110623771D01*
X114401204Y-110599502D01*
X114400000Y-110574998D01*
X114400000Y-105625002D01*
X114401204Y-105600498D01*
X114404804Y-105576229D01*
X114410765Y-105552430D01*
X114419030Y-105529330D01*
X114429520Y-105507152D01*
X114442133Y-105486108D01*
X114456748Y-105466402D01*
X114473224Y-105448224D01*
X114491402Y-105431748D01*
X114511108Y-105417133D01*
X114532152Y-105404520D01*
X114554330Y-105394030D01*
X114577430Y-105385765D01*
X114601229Y-105379804D01*
X114625498Y-105376204D01*
X114650002Y-105375000D01*
X119599998Y-105375000D01*
X119624502Y-105376204D01*
X119624502Y-105376204D01*
G37*
D13*
X117125000Y-108100000D03*
D10*
G36*
X119943626Y-104225301D02*
G01*
X119949693Y-104226201D01*
X119955643Y-104227691D01*
X119961418Y-104229758D01*
X119966962Y-104232380D01*
X119972223Y-104235533D01*
X119977150Y-104239187D01*
X119981694Y-104243306D01*
X119985813Y-104247850D01*
X119989467Y-104252777D01*
X119992620Y-104258038D01*
X119995242Y-104263582D01*
X119997309Y-104269357D01*
X119998799Y-104275307D01*
X119999699Y-104281374D01*
X120000000Y-104287500D01*
X120000000Y-105012500D01*
X119999699Y-105018626D01*
X119998799Y-105024693D01*
X119997309Y-105030643D01*
X119995242Y-105036418D01*
X119992620Y-105041962D01*
X119989467Y-105047223D01*
X119985813Y-105052150D01*
X119981694Y-105056694D01*
X119977150Y-105060813D01*
X119972223Y-105064467D01*
X119966962Y-105067620D01*
X119961418Y-105070242D01*
X119955643Y-105072309D01*
X119949693Y-105073799D01*
X119943626Y-105074699D01*
X119937500Y-105075000D01*
X119812500Y-105075000D01*
X119806374Y-105074699D01*
X119800307Y-105073799D01*
X119794357Y-105072309D01*
X119788582Y-105070242D01*
X119783038Y-105067620D01*
X119777777Y-105064467D01*
X119772850Y-105060813D01*
X119768306Y-105056694D01*
X119764187Y-105052150D01*
X119760533Y-105047223D01*
X119757380Y-105041962D01*
X119754758Y-105036418D01*
X119752691Y-105030643D01*
X119751201Y-105024693D01*
X119750301Y-105018626D01*
X119750000Y-105012500D01*
X119750000Y-104287500D01*
X119750301Y-104281374D01*
X119751201Y-104275307D01*
X119752691Y-104269357D01*
X119754758Y-104263582D01*
X119757380Y-104258038D01*
X119760533Y-104252777D01*
X119764187Y-104247850D01*
X119768306Y-104243306D01*
X119772850Y-104239187D01*
X119777777Y-104235533D01*
X119783038Y-104232380D01*
X119788582Y-104229758D01*
X119794357Y-104227691D01*
X119800307Y-104226201D01*
X119806374Y-104225301D01*
X119812500Y-104225000D01*
X119937500Y-104225000D01*
X119943626Y-104225301D01*
X119943626Y-104225301D01*
G37*
D14*
X119875000Y-104650000D03*
D10*
G36*
X119443626Y-104225301D02*
G01*
X119449693Y-104226201D01*
X119455643Y-104227691D01*
X119461418Y-104229758D01*
X119466962Y-104232380D01*
X119472223Y-104235533D01*
X119477150Y-104239187D01*
X119481694Y-104243306D01*
X119485813Y-104247850D01*
X119489467Y-104252777D01*
X119492620Y-104258038D01*
X119495242Y-104263582D01*
X119497309Y-104269357D01*
X119498799Y-104275307D01*
X119499699Y-104281374D01*
X119500000Y-104287500D01*
X119500000Y-105012500D01*
X119499699Y-105018626D01*
X119498799Y-105024693D01*
X119497309Y-105030643D01*
X119495242Y-105036418D01*
X119492620Y-105041962D01*
X119489467Y-105047223D01*
X119485813Y-105052150D01*
X119481694Y-105056694D01*
X119477150Y-105060813D01*
X119472223Y-105064467D01*
X119466962Y-105067620D01*
X119461418Y-105070242D01*
X119455643Y-105072309D01*
X119449693Y-105073799D01*
X119443626Y-105074699D01*
X119437500Y-105075000D01*
X119312500Y-105075000D01*
X119306374Y-105074699D01*
X119300307Y-105073799D01*
X119294357Y-105072309D01*
X119288582Y-105070242D01*
X119283038Y-105067620D01*
X119277777Y-105064467D01*
X119272850Y-105060813D01*
X119268306Y-105056694D01*
X119264187Y-105052150D01*
X119260533Y-105047223D01*
X119257380Y-105041962D01*
X119254758Y-105036418D01*
X119252691Y-105030643D01*
X119251201Y-105024693D01*
X119250301Y-105018626D01*
X119250000Y-105012500D01*
X119250000Y-104287500D01*
X119250301Y-104281374D01*
X119251201Y-104275307D01*
X119252691Y-104269357D01*
X119254758Y-104263582D01*
X119257380Y-104258038D01*
X119260533Y-104252777D01*
X119264187Y-104247850D01*
X119268306Y-104243306D01*
X119272850Y-104239187D01*
X119277777Y-104235533D01*
X119283038Y-104232380D01*
X119288582Y-104229758D01*
X119294357Y-104227691D01*
X119300307Y-104226201D01*
X119306374Y-104225301D01*
X119312500Y-104225000D01*
X119437500Y-104225000D01*
X119443626Y-104225301D01*
X119443626Y-104225301D01*
G37*
D14*
X119375000Y-104650000D03*
D10*
G36*
X118943626Y-104225301D02*
G01*
X118949693Y-104226201D01*
X118955643Y-104227691D01*
X118961418Y-104229758D01*
X118966962Y-104232380D01*
X118972223Y-104235533D01*
X118977150Y-104239187D01*
X118981694Y-104243306D01*
X118985813Y-104247850D01*
X118989467Y-104252777D01*
X118992620Y-104258038D01*
X118995242Y-104263582D01*
X118997309Y-104269357D01*
X118998799Y-104275307D01*
X118999699Y-104281374D01*
X119000000Y-104287500D01*
X119000000Y-105012500D01*
X118999699Y-105018626D01*
X118998799Y-105024693D01*
X118997309Y-105030643D01*
X118995242Y-105036418D01*
X118992620Y-105041962D01*
X118989467Y-105047223D01*
X118985813Y-105052150D01*
X118981694Y-105056694D01*
X118977150Y-105060813D01*
X118972223Y-105064467D01*
X118966962Y-105067620D01*
X118961418Y-105070242D01*
X118955643Y-105072309D01*
X118949693Y-105073799D01*
X118943626Y-105074699D01*
X118937500Y-105075000D01*
X118812500Y-105075000D01*
X118806374Y-105074699D01*
X118800307Y-105073799D01*
X118794357Y-105072309D01*
X118788582Y-105070242D01*
X118783038Y-105067620D01*
X118777777Y-105064467D01*
X118772850Y-105060813D01*
X118768306Y-105056694D01*
X118764187Y-105052150D01*
X118760533Y-105047223D01*
X118757380Y-105041962D01*
X118754758Y-105036418D01*
X118752691Y-105030643D01*
X118751201Y-105024693D01*
X118750301Y-105018626D01*
X118750000Y-105012500D01*
X118750000Y-104287500D01*
X118750301Y-104281374D01*
X118751201Y-104275307D01*
X118752691Y-104269357D01*
X118754758Y-104263582D01*
X118757380Y-104258038D01*
X118760533Y-104252777D01*
X118764187Y-104247850D01*
X118768306Y-104243306D01*
X118772850Y-104239187D01*
X118777777Y-104235533D01*
X118783038Y-104232380D01*
X118788582Y-104229758D01*
X118794357Y-104227691D01*
X118800307Y-104226201D01*
X118806374Y-104225301D01*
X118812500Y-104225000D01*
X118937500Y-104225000D01*
X118943626Y-104225301D01*
X118943626Y-104225301D01*
G37*
D14*
X118875000Y-104650000D03*
D10*
G36*
X118443626Y-104225301D02*
G01*
X118449693Y-104226201D01*
X118455643Y-104227691D01*
X118461418Y-104229758D01*
X118466962Y-104232380D01*
X118472223Y-104235533D01*
X118477150Y-104239187D01*
X118481694Y-104243306D01*
X118485813Y-104247850D01*
X118489467Y-104252777D01*
X118492620Y-104258038D01*
X118495242Y-104263582D01*
X118497309Y-104269357D01*
X118498799Y-104275307D01*
X118499699Y-104281374D01*
X118500000Y-104287500D01*
X118500000Y-105012500D01*
X118499699Y-105018626D01*
X118498799Y-105024693D01*
X118497309Y-105030643D01*
X118495242Y-105036418D01*
X118492620Y-105041962D01*
X118489467Y-105047223D01*
X118485813Y-105052150D01*
X118481694Y-105056694D01*
X118477150Y-105060813D01*
X118472223Y-105064467D01*
X118466962Y-105067620D01*
X118461418Y-105070242D01*
X118455643Y-105072309D01*
X118449693Y-105073799D01*
X118443626Y-105074699D01*
X118437500Y-105075000D01*
X118312500Y-105075000D01*
X118306374Y-105074699D01*
X118300307Y-105073799D01*
X118294357Y-105072309D01*
X118288582Y-105070242D01*
X118283038Y-105067620D01*
X118277777Y-105064467D01*
X118272850Y-105060813D01*
X118268306Y-105056694D01*
X118264187Y-105052150D01*
X118260533Y-105047223D01*
X118257380Y-105041962D01*
X118254758Y-105036418D01*
X118252691Y-105030643D01*
X118251201Y-105024693D01*
X118250301Y-105018626D01*
X118250000Y-105012500D01*
X118250000Y-104287500D01*
X118250301Y-104281374D01*
X118251201Y-104275307D01*
X118252691Y-104269357D01*
X118254758Y-104263582D01*
X118257380Y-104258038D01*
X118260533Y-104252777D01*
X118264187Y-104247850D01*
X118268306Y-104243306D01*
X118272850Y-104239187D01*
X118277777Y-104235533D01*
X118283038Y-104232380D01*
X118288582Y-104229758D01*
X118294357Y-104227691D01*
X118300307Y-104226201D01*
X118306374Y-104225301D01*
X118312500Y-104225000D01*
X118437500Y-104225000D01*
X118443626Y-104225301D01*
X118443626Y-104225301D01*
G37*
D14*
X118375000Y-104650000D03*
D10*
G36*
X117943626Y-104225301D02*
G01*
X117949693Y-104226201D01*
X117955643Y-104227691D01*
X117961418Y-104229758D01*
X117966962Y-104232380D01*
X117972223Y-104235533D01*
X117977150Y-104239187D01*
X117981694Y-104243306D01*
X117985813Y-104247850D01*
X117989467Y-104252777D01*
X117992620Y-104258038D01*
X117995242Y-104263582D01*
X117997309Y-104269357D01*
X117998799Y-104275307D01*
X117999699Y-104281374D01*
X118000000Y-104287500D01*
X118000000Y-105012500D01*
X117999699Y-105018626D01*
X117998799Y-105024693D01*
X117997309Y-105030643D01*
X117995242Y-105036418D01*
X117992620Y-105041962D01*
X117989467Y-105047223D01*
X117985813Y-105052150D01*
X117981694Y-105056694D01*
X117977150Y-105060813D01*
X117972223Y-105064467D01*
X117966962Y-105067620D01*
X117961418Y-105070242D01*
X117955643Y-105072309D01*
X117949693Y-105073799D01*
X117943626Y-105074699D01*
X117937500Y-105075000D01*
X117812500Y-105075000D01*
X117806374Y-105074699D01*
X117800307Y-105073799D01*
X117794357Y-105072309D01*
X117788582Y-105070242D01*
X117783038Y-105067620D01*
X117777777Y-105064467D01*
X117772850Y-105060813D01*
X117768306Y-105056694D01*
X117764187Y-105052150D01*
X117760533Y-105047223D01*
X117757380Y-105041962D01*
X117754758Y-105036418D01*
X117752691Y-105030643D01*
X117751201Y-105024693D01*
X117750301Y-105018626D01*
X117750000Y-105012500D01*
X117750000Y-104287500D01*
X117750301Y-104281374D01*
X117751201Y-104275307D01*
X117752691Y-104269357D01*
X117754758Y-104263582D01*
X117757380Y-104258038D01*
X117760533Y-104252777D01*
X117764187Y-104247850D01*
X117768306Y-104243306D01*
X117772850Y-104239187D01*
X117777777Y-104235533D01*
X117783038Y-104232380D01*
X117788582Y-104229758D01*
X117794357Y-104227691D01*
X117800307Y-104226201D01*
X117806374Y-104225301D01*
X117812500Y-104225000D01*
X117937500Y-104225000D01*
X117943626Y-104225301D01*
X117943626Y-104225301D01*
G37*
D14*
X117875000Y-104650000D03*
D10*
G36*
X117443626Y-104225301D02*
G01*
X117449693Y-104226201D01*
X117455643Y-104227691D01*
X117461418Y-104229758D01*
X117466962Y-104232380D01*
X117472223Y-104235533D01*
X117477150Y-104239187D01*
X117481694Y-104243306D01*
X117485813Y-104247850D01*
X117489467Y-104252777D01*
X117492620Y-104258038D01*
X117495242Y-104263582D01*
X117497309Y-104269357D01*
X117498799Y-104275307D01*
X117499699Y-104281374D01*
X117500000Y-104287500D01*
X117500000Y-105012500D01*
X117499699Y-105018626D01*
X117498799Y-105024693D01*
X117497309Y-105030643D01*
X117495242Y-105036418D01*
X117492620Y-105041962D01*
X117489467Y-105047223D01*
X117485813Y-105052150D01*
X117481694Y-105056694D01*
X117477150Y-105060813D01*
X117472223Y-105064467D01*
X117466962Y-105067620D01*
X117461418Y-105070242D01*
X117455643Y-105072309D01*
X117449693Y-105073799D01*
X117443626Y-105074699D01*
X117437500Y-105075000D01*
X117312500Y-105075000D01*
X117306374Y-105074699D01*
X117300307Y-105073799D01*
X117294357Y-105072309D01*
X117288582Y-105070242D01*
X117283038Y-105067620D01*
X117277777Y-105064467D01*
X117272850Y-105060813D01*
X117268306Y-105056694D01*
X117264187Y-105052150D01*
X117260533Y-105047223D01*
X117257380Y-105041962D01*
X117254758Y-105036418D01*
X117252691Y-105030643D01*
X117251201Y-105024693D01*
X117250301Y-105018626D01*
X117250000Y-105012500D01*
X117250000Y-104287500D01*
X117250301Y-104281374D01*
X117251201Y-104275307D01*
X117252691Y-104269357D01*
X117254758Y-104263582D01*
X117257380Y-104258038D01*
X117260533Y-104252777D01*
X117264187Y-104247850D01*
X117268306Y-104243306D01*
X117272850Y-104239187D01*
X117277777Y-104235533D01*
X117283038Y-104232380D01*
X117288582Y-104229758D01*
X117294357Y-104227691D01*
X117300307Y-104226201D01*
X117306374Y-104225301D01*
X117312500Y-104225000D01*
X117437500Y-104225000D01*
X117443626Y-104225301D01*
X117443626Y-104225301D01*
G37*
D14*
X117375000Y-104650000D03*
D10*
G36*
X116943626Y-104225301D02*
G01*
X116949693Y-104226201D01*
X116955643Y-104227691D01*
X116961418Y-104229758D01*
X116966962Y-104232380D01*
X116972223Y-104235533D01*
X116977150Y-104239187D01*
X116981694Y-104243306D01*
X116985813Y-104247850D01*
X116989467Y-104252777D01*
X116992620Y-104258038D01*
X116995242Y-104263582D01*
X116997309Y-104269357D01*
X116998799Y-104275307D01*
X116999699Y-104281374D01*
X117000000Y-104287500D01*
X117000000Y-105012500D01*
X116999699Y-105018626D01*
X116998799Y-105024693D01*
X116997309Y-105030643D01*
X116995242Y-105036418D01*
X116992620Y-105041962D01*
X116989467Y-105047223D01*
X116985813Y-105052150D01*
X116981694Y-105056694D01*
X116977150Y-105060813D01*
X116972223Y-105064467D01*
X116966962Y-105067620D01*
X116961418Y-105070242D01*
X116955643Y-105072309D01*
X116949693Y-105073799D01*
X116943626Y-105074699D01*
X116937500Y-105075000D01*
X116812500Y-105075000D01*
X116806374Y-105074699D01*
X116800307Y-105073799D01*
X116794357Y-105072309D01*
X116788582Y-105070242D01*
X116783038Y-105067620D01*
X116777777Y-105064467D01*
X116772850Y-105060813D01*
X116768306Y-105056694D01*
X116764187Y-105052150D01*
X116760533Y-105047223D01*
X116757380Y-105041962D01*
X116754758Y-105036418D01*
X116752691Y-105030643D01*
X116751201Y-105024693D01*
X116750301Y-105018626D01*
X116750000Y-105012500D01*
X116750000Y-104287500D01*
X116750301Y-104281374D01*
X116751201Y-104275307D01*
X116752691Y-104269357D01*
X116754758Y-104263582D01*
X116757380Y-104258038D01*
X116760533Y-104252777D01*
X116764187Y-104247850D01*
X116768306Y-104243306D01*
X116772850Y-104239187D01*
X116777777Y-104235533D01*
X116783038Y-104232380D01*
X116788582Y-104229758D01*
X116794357Y-104227691D01*
X116800307Y-104226201D01*
X116806374Y-104225301D01*
X116812500Y-104225000D01*
X116937500Y-104225000D01*
X116943626Y-104225301D01*
X116943626Y-104225301D01*
G37*
D14*
X116875000Y-104650000D03*
D10*
G36*
X116443626Y-104225301D02*
G01*
X116449693Y-104226201D01*
X116455643Y-104227691D01*
X116461418Y-104229758D01*
X116466962Y-104232380D01*
X116472223Y-104235533D01*
X116477150Y-104239187D01*
X116481694Y-104243306D01*
X116485813Y-104247850D01*
X116489467Y-104252777D01*
X116492620Y-104258038D01*
X116495242Y-104263582D01*
X116497309Y-104269357D01*
X116498799Y-104275307D01*
X116499699Y-104281374D01*
X116500000Y-104287500D01*
X116500000Y-105012500D01*
X116499699Y-105018626D01*
X116498799Y-105024693D01*
X116497309Y-105030643D01*
X116495242Y-105036418D01*
X116492620Y-105041962D01*
X116489467Y-105047223D01*
X116485813Y-105052150D01*
X116481694Y-105056694D01*
X116477150Y-105060813D01*
X116472223Y-105064467D01*
X116466962Y-105067620D01*
X116461418Y-105070242D01*
X116455643Y-105072309D01*
X116449693Y-105073799D01*
X116443626Y-105074699D01*
X116437500Y-105075000D01*
X116312500Y-105075000D01*
X116306374Y-105074699D01*
X116300307Y-105073799D01*
X116294357Y-105072309D01*
X116288582Y-105070242D01*
X116283038Y-105067620D01*
X116277777Y-105064467D01*
X116272850Y-105060813D01*
X116268306Y-105056694D01*
X116264187Y-105052150D01*
X116260533Y-105047223D01*
X116257380Y-105041962D01*
X116254758Y-105036418D01*
X116252691Y-105030643D01*
X116251201Y-105024693D01*
X116250301Y-105018626D01*
X116250000Y-105012500D01*
X116250000Y-104287500D01*
X116250301Y-104281374D01*
X116251201Y-104275307D01*
X116252691Y-104269357D01*
X116254758Y-104263582D01*
X116257380Y-104258038D01*
X116260533Y-104252777D01*
X116264187Y-104247850D01*
X116268306Y-104243306D01*
X116272850Y-104239187D01*
X116277777Y-104235533D01*
X116283038Y-104232380D01*
X116288582Y-104229758D01*
X116294357Y-104227691D01*
X116300307Y-104226201D01*
X116306374Y-104225301D01*
X116312500Y-104225000D01*
X116437500Y-104225000D01*
X116443626Y-104225301D01*
X116443626Y-104225301D01*
G37*
D14*
X116375000Y-104650000D03*
D10*
G36*
X115943626Y-104225301D02*
G01*
X115949693Y-104226201D01*
X115955643Y-104227691D01*
X115961418Y-104229758D01*
X115966962Y-104232380D01*
X115972223Y-104235533D01*
X115977150Y-104239187D01*
X115981694Y-104243306D01*
X115985813Y-104247850D01*
X115989467Y-104252777D01*
X115992620Y-104258038D01*
X115995242Y-104263582D01*
X115997309Y-104269357D01*
X115998799Y-104275307D01*
X115999699Y-104281374D01*
X116000000Y-104287500D01*
X116000000Y-105012500D01*
X115999699Y-105018626D01*
X115998799Y-105024693D01*
X115997309Y-105030643D01*
X115995242Y-105036418D01*
X115992620Y-105041962D01*
X115989467Y-105047223D01*
X115985813Y-105052150D01*
X115981694Y-105056694D01*
X115977150Y-105060813D01*
X115972223Y-105064467D01*
X115966962Y-105067620D01*
X115961418Y-105070242D01*
X115955643Y-105072309D01*
X115949693Y-105073799D01*
X115943626Y-105074699D01*
X115937500Y-105075000D01*
X115812500Y-105075000D01*
X115806374Y-105074699D01*
X115800307Y-105073799D01*
X115794357Y-105072309D01*
X115788582Y-105070242D01*
X115783038Y-105067620D01*
X115777777Y-105064467D01*
X115772850Y-105060813D01*
X115768306Y-105056694D01*
X115764187Y-105052150D01*
X115760533Y-105047223D01*
X115757380Y-105041962D01*
X115754758Y-105036418D01*
X115752691Y-105030643D01*
X115751201Y-105024693D01*
X115750301Y-105018626D01*
X115750000Y-105012500D01*
X115750000Y-104287500D01*
X115750301Y-104281374D01*
X115751201Y-104275307D01*
X115752691Y-104269357D01*
X115754758Y-104263582D01*
X115757380Y-104258038D01*
X115760533Y-104252777D01*
X115764187Y-104247850D01*
X115768306Y-104243306D01*
X115772850Y-104239187D01*
X115777777Y-104235533D01*
X115783038Y-104232380D01*
X115788582Y-104229758D01*
X115794357Y-104227691D01*
X115800307Y-104226201D01*
X115806374Y-104225301D01*
X115812500Y-104225000D01*
X115937500Y-104225000D01*
X115943626Y-104225301D01*
X115943626Y-104225301D01*
G37*
D14*
X115875000Y-104650000D03*
D10*
G36*
X115443626Y-104225301D02*
G01*
X115449693Y-104226201D01*
X115455643Y-104227691D01*
X115461418Y-104229758D01*
X115466962Y-104232380D01*
X115472223Y-104235533D01*
X115477150Y-104239187D01*
X115481694Y-104243306D01*
X115485813Y-104247850D01*
X115489467Y-104252777D01*
X115492620Y-104258038D01*
X115495242Y-104263582D01*
X115497309Y-104269357D01*
X115498799Y-104275307D01*
X115499699Y-104281374D01*
X115500000Y-104287500D01*
X115500000Y-105012500D01*
X115499699Y-105018626D01*
X115498799Y-105024693D01*
X115497309Y-105030643D01*
X115495242Y-105036418D01*
X115492620Y-105041962D01*
X115489467Y-105047223D01*
X115485813Y-105052150D01*
X115481694Y-105056694D01*
X115477150Y-105060813D01*
X115472223Y-105064467D01*
X115466962Y-105067620D01*
X115461418Y-105070242D01*
X115455643Y-105072309D01*
X115449693Y-105073799D01*
X115443626Y-105074699D01*
X115437500Y-105075000D01*
X115312500Y-105075000D01*
X115306374Y-105074699D01*
X115300307Y-105073799D01*
X115294357Y-105072309D01*
X115288582Y-105070242D01*
X115283038Y-105067620D01*
X115277777Y-105064467D01*
X115272850Y-105060813D01*
X115268306Y-105056694D01*
X115264187Y-105052150D01*
X115260533Y-105047223D01*
X115257380Y-105041962D01*
X115254758Y-105036418D01*
X115252691Y-105030643D01*
X115251201Y-105024693D01*
X115250301Y-105018626D01*
X115250000Y-105012500D01*
X115250000Y-104287500D01*
X115250301Y-104281374D01*
X115251201Y-104275307D01*
X115252691Y-104269357D01*
X115254758Y-104263582D01*
X115257380Y-104258038D01*
X115260533Y-104252777D01*
X115264187Y-104247850D01*
X115268306Y-104243306D01*
X115272850Y-104239187D01*
X115277777Y-104235533D01*
X115283038Y-104232380D01*
X115288582Y-104229758D01*
X115294357Y-104227691D01*
X115300307Y-104226201D01*
X115306374Y-104225301D01*
X115312500Y-104225000D01*
X115437500Y-104225000D01*
X115443626Y-104225301D01*
X115443626Y-104225301D01*
G37*
D14*
X115375000Y-104650000D03*
D10*
G36*
X114943626Y-104225301D02*
G01*
X114949693Y-104226201D01*
X114955643Y-104227691D01*
X114961418Y-104229758D01*
X114966962Y-104232380D01*
X114972223Y-104235533D01*
X114977150Y-104239187D01*
X114981694Y-104243306D01*
X114985813Y-104247850D01*
X114989467Y-104252777D01*
X114992620Y-104258038D01*
X114995242Y-104263582D01*
X114997309Y-104269357D01*
X114998799Y-104275307D01*
X114999699Y-104281374D01*
X115000000Y-104287500D01*
X115000000Y-105012500D01*
X114999699Y-105018626D01*
X114998799Y-105024693D01*
X114997309Y-105030643D01*
X114995242Y-105036418D01*
X114992620Y-105041962D01*
X114989467Y-105047223D01*
X114985813Y-105052150D01*
X114981694Y-105056694D01*
X114977150Y-105060813D01*
X114972223Y-105064467D01*
X114966962Y-105067620D01*
X114961418Y-105070242D01*
X114955643Y-105072309D01*
X114949693Y-105073799D01*
X114943626Y-105074699D01*
X114937500Y-105075000D01*
X114812500Y-105075000D01*
X114806374Y-105074699D01*
X114800307Y-105073799D01*
X114794357Y-105072309D01*
X114788582Y-105070242D01*
X114783038Y-105067620D01*
X114777777Y-105064467D01*
X114772850Y-105060813D01*
X114768306Y-105056694D01*
X114764187Y-105052150D01*
X114760533Y-105047223D01*
X114757380Y-105041962D01*
X114754758Y-105036418D01*
X114752691Y-105030643D01*
X114751201Y-105024693D01*
X114750301Y-105018626D01*
X114750000Y-105012500D01*
X114750000Y-104287500D01*
X114750301Y-104281374D01*
X114751201Y-104275307D01*
X114752691Y-104269357D01*
X114754758Y-104263582D01*
X114757380Y-104258038D01*
X114760533Y-104252777D01*
X114764187Y-104247850D01*
X114768306Y-104243306D01*
X114772850Y-104239187D01*
X114777777Y-104235533D01*
X114783038Y-104232380D01*
X114788582Y-104229758D01*
X114794357Y-104227691D01*
X114800307Y-104226201D01*
X114806374Y-104225301D01*
X114812500Y-104225000D01*
X114937500Y-104225000D01*
X114943626Y-104225301D01*
X114943626Y-104225301D01*
G37*
D14*
X114875000Y-104650000D03*
D10*
G36*
X114443626Y-104225301D02*
G01*
X114449693Y-104226201D01*
X114455643Y-104227691D01*
X114461418Y-104229758D01*
X114466962Y-104232380D01*
X114472223Y-104235533D01*
X114477150Y-104239187D01*
X114481694Y-104243306D01*
X114485813Y-104247850D01*
X114489467Y-104252777D01*
X114492620Y-104258038D01*
X114495242Y-104263582D01*
X114497309Y-104269357D01*
X114498799Y-104275307D01*
X114499699Y-104281374D01*
X114500000Y-104287500D01*
X114500000Y-105012500D01*
X114499699Y-105018626D01*
X114498799Y-105024693D01*
X114497309Y-105030643D01*
X114495242Y-105036418D01*
X114492620Y-105041962D01*
X114489467Y-105047223D01*
X114485813Y-105052150D01*
X114481694Y-105056694D01*
X114477150Y-105060813D01*
X114472223Y-105064467D01*
X114466962Y-105067620D01*
X114461418Y-105070242D01*
X114455643Y-105072309D01*
X114449693Y-105073799D01*
X114443626Y-105074699D01*
X114437500Y-105075000D01*
X114312500Y-105075000D01*
X114306374Y-105074699D01*
X114300307Y-105073799D01*
X114294357Y-105072309D01*
X114288582Y-105070242D01*
X114283038Y-105067620D01*
X114277777Y-105064467D01*
X114272850Y-105060813D01*
X114268306Y-105056694D01*
X114264187Y-105052150D01*
X114260533Y-105047223D01*
X114257380Y-105041962D01*
X114254758Y-105036418D01*
X114252691Y-105030643D01*
X114251201Y-105024693D01*
X114250301Y-105018626D01*
X114250000Y-105012500D01*
X114250000Y-104287500D01*
X114250301Y-104281374D01*
X114251201Y-104275307D01*
X114252691Y-104269357D01*
X114254758Y-104263582D01*
X114257380Y-104258038D01*
X114260533Y-104252777D01*
X114264187Y-104247850D01*
X114268306Y-104243306D01*
X114272850Y-104239187D01*
X114277777Y-104235533D01*
X114283038Y-104232380D01*
X114288582Y-104229758D01*
X114294357Y-104227691D01*
X114300307Y-104226201D01*
X114306374Y-104225301D01*
X114312500Y-104225000D01*
X114437500Y-104225000D01*
X114443626Y-104225301D01*
X114443626Y-104225301D01*
G37*
D14*
X114375000Y-104650000D03*
D10*
G36*
X114043626Y-105225301D02*
G01*
X114049693Y-105226201D01*
X114055643Y-105227691D01*
X114061418Y-105229758D01*
X114066962Y-105232380D01*
X114072223Y-105235533D01*
X114077150Y-105239187D01*
X114081694Y-105243306D01*
X114085813Y-105247850D01*
X114089467Y-105252777D01*
X114092620Y-105258038D01*
X114095242Y-105263582D01*
X114097309Y-105269357D01*
X114098799Y-105275307D01*
X114099699Y-105281374D01*
X114100000Y-105287500D01*
X114100000Y-105412500D01*
X114099699Y-105418626D01*
X114098799Y-105424693D01*
X114097309Y-105430643D01*
X114095242Y-105436418D01*
X114092620Y-105441962D01*
X114089467Y-105447223D01*
X114085813Y-105452150D01*
X114081694Y-105456694D01*
X114077150Y-105460813D01*
X114072223Y-105464467D01*
X114066962Y-105467620D01*
X114061418Y-105470242D01*
X114055643Y-105472309D01*
X114049693Y-105473799D01*
X114043626Y-105474699D01*
X114037500Y-105475000D01*
X113312500Y-105475000D01*
X113306374Y-105474699D01*
X113300307Y-105473799D01*
X113294357Y-105472309D01*
X113288582Y-105470242D01*
X113283038Y-105467620D01*
X113277777Y-105464467D01*
X113272850Y-105460813D01*
X113268306Y-105456694D01*
X113264187Y-105452150D01*
X113260533Y-105447223D01*
X113257380Y-105441962D01*
X113254758Y-105436418D01*
X113252691Y-105430643D01*
X113251201Y-105424693D01*
X113250301Y-105418626D01*
X113250000Y-105412500D01*
X113250000Y-105287500D01*
X113250301Y-105281374D01*
X113251201Y-105275307D01*
X113252691Y-105269357D01*
X113254758Y-105263582D01*
X113257380Y-105258038D01*
X113260533Y-105252777D01*
X113264187Y-105247850D01*
X113268306Y-105243306D01*
X113272850Y-105239187D01*
X113277777Y-105235533D01*
X113283038Y-105232380D01*
X113288582Y-105229758D01*
X113294357Y-105227691D01*
X113300307Y-105226201D01*
X113306374Y-105225301D01*
X113312500Y-105225000D01*
X114037500Y-105225000D01*
X114043626Y-105225301D01*
X114043626Y-105225301D01*
G37*
D14*
X113675000Y-105350000D03*
D10*
G36*
X114043626Y-105725301D02*
G01*
X114049693Y-105726201D01*
X114055643Y-105727691D01*
X114061418Y-105729758D01*
X114066962Y-105732380D01*
X114072223Y-105735533D01*
X114077150Y-105739187D01*
X114081694Y-105743306D01*
X114085813Y-105747850D01*
X114089467Y-105752777D01*
X114092620Y-105758038D01*
X114095242Y-105763582D01*
X114097309Y-105769357D01*
X114098799Y-105775307D01*
X114099699Y-105781374D01*
X114100000Y-105787500D01*
X114100000Y-105912500D01*
X114099699Y-105918626D01*
X114098799Y-105924693D01*
X114097309Y-105930643D01*
X114095242Y-105936418D01*
X114092620Y-105941962D01*
X114089467Y-105947223D01*
X114085813Y-105952150D01*
X114081694Y-105956694D01*
X114077150Y-105960813D01*
X114072223Y-105964467D01*
X114066962Y-105967620D01*
X114061418Y-105970242D01*
X114055643Y-105972309D01*
X114049693Y-105973799D01*
X114043626Y-105974699D01*
X114037500Y-105975000D01*
X113312500Y-105975000D01*
X113306374Y-105974699D01*
X113300307Y-105973799D01*
X113294357Y-105972309D01*
X113288582Y-105970242D01*
X113283038Y-105967620D01*
X113277777Y-105964467D01*
X113272850Y-105960813D01*
X113268306Y-105956694D01*
X113264187Y-105952150D01*
X113260533Y-105947223D01*
X113257380Y-105941962D01*
X113254758Y-105936418D01*
X113252691Y-105930643D01*
X113251201Y-105924693D01*
X113250301Y-105918626D01*
X113250000Y-105912500D01*
X113250000Y-105787500D01*
X113250301Y-105781374D01*
X113251201Y-105775307D01*
X113252691Y-105769357D01*
X113254758Y-105763582D01*
X113257380Y-105758038D01*
X113260533Y-105752777D01*
X113264187Y-105747850D01*
X113268306Y-105743306D01*
X113272850Y-105739187D01*
X113277777Y-105735533D01*
X113283038Y-105732380D01*
X113288582Y-105729758D01*
X113294357Y-105727691D01*
X113300307Y-105726201D01*
X113306374Y-105725301D01*
X113312500Y-105725000D01*
X114037500Y-105725000D01*
X114043626Y-105725301D01*
X114043626Y-105725301D01*
G37*
D14*
X113675000Y-105850000D03*
D10*
G36*
X114043626Y-106225301D02*
G01*
X114049693Y-106226201D01*
X114055643Y-106227691D01*
X114061418Y-106229758D01*
X114066962Y-106232380D01*
X114072223Y-106235533D01*
X114077150Y-106239187D01*
X114081694Y-106243306D01*
X114085813Y-106247850D01*
X114089467Y-106252777D01*
X114092620Y-106258038D01*
X114095242Y-106263582D01*
X114097309Y-106269357D01*
X114098799Y-106275307D01*
X114099699Y-106281374D01*
X114100000Y-106287500D01*
X114100000Y-106412500D01*
X114099699Y-106418626D01*
X114098799Y-106424693D01*
X114097309Y-106430643D01*
X114095242Y-106436418D01*
X114092620Y-106441962D01*
X114089467Y-106447223D01*
X114085813Y-106452150D01*
X114081694Y-106456694D01*
X114077150Y-106460813D01*
X114072223Y-106464467D01*
X114066962Y-106467620D01*
X114061418Y-106470242D01*
X114055643Y-106472309D01*
X114049693Y-106473799D01*
X114043626Y-106474699D01*
X114037500Y-106475000D01*
X113312500Y-106475000D01*
X113306374Y-106474699D01*
X113300307Y-106473799D01*
X113294357Y-106472309D01*
X113288582Y-106470242D01*
X113283038Y-106467620D01*
X113277777Y-106464467D01*
X113272850Y-106460813D01*
X113268306Y-106456694D01*
X113264187Y-106452150D01*
X113260533Y-106447223D01*
X113257380Y-106441962D01*
X113254758Y-106436418D01*
X113252691Y-106430643D01*
X113251201Y-106424693D01*
X113250301Y-106418626D01*
X113250000Y-106412500D01*
X113250000Y-106287500D01*
X113250301Y-106281374D01*
X113251201Y-106275307D01*
X113252691Y-106269357D01*
X113254758Y-106263582D01*
X113257380Y-106258038D01*
X113260533Y-106252777D01*
X113264187Y-106247850D01*
X113268306Y-106243306D01*
X113272850Y-106239187D01*
X113277777Y-106235533D01*
X113283038Y-106232380D01*
X113288582Y-106229758D01*
X113294357Y-106227691D01*
X113300307Y-106226201D01*
X113306374Y-106225301D01*
X113312500Y-106225000D01*
X114037500Y-106225000D01*
X114043626Y-106225301D01*
X114043626Y-106225301D01*
G37*
D14*
X113675000Y-106350000D03*
D10*
G36*
X114043626Y-106725301D02*
G01*
X114049693Y-106726201D01*
X114055643Y-106727691D01*
X114061418Y-106729758D01*
X114066962Y-106732380D01*
X114072223Y-106735533D01*
X114077150Y-106739187D01*
X114081694Y-106743306D01*
X114085813Y-106747850D01*
X114089467Y-106752777D01*
X114092620Y-106758038D01*
X114095242Y-106763582D01*
X114097309Y-106769357D01*
X114098799Y-106775307D01*
X114099699Y-106781374D01*
X114100000Y-106787500D01*
X114100000Y-106912500D01*
X114099699Y-106918626D01*
X114098799Y-106924693D01*
X114097309Y-106930643D01*
X114095242Y-106936418D01*
X114092620Y-106941962D01*
X114089467Y-106947223D01*
X114085813Y-106952150D01*
X114081694Y-106956694D01*
X114077150Y-106960813D01*
X114072223Y-106964467D01*
X114066962Y-106967620D01*
X114061418Y-106970242D01*
X114055643Y-106972309D01*
X114049693Y-106973799D01*
X114043626Y-106974699D01*
X114037500Y-106975000D01*
X113312500Y-106975000D01*
X113306374Y-106974699D01*
X113300307Y-106973799D01*
X113294357Y-106972309D01*
X113288582Y-106970242D01*
X113283038Y-106967620D01*
X113277777Y-106964467D01*
X113272850Y-106960813D01*
X113268306Y-106956694D01*
X113264187Y-106952150D01*
X113260533Y-106947223D01*
X113257380Y-106941962D01*
X113254758Y-106936418D01*
X113252691Y-106930643D01*
X113251201Y-106924693D01*
X113250301Y-106918626D01*
X113250000Y-106912500D01*
X113250000Y-106787500D01*
X113250301Y-106781374D01*
X113251201Y-106775307D01*
X113252691Y-106769357D01*
X113254758Y-106763582D01*
X113257380Y-106758038D01*
X113260533Y-106752777D01*
X113264187Y-106747850D01*
X113268306Y-106743306D01*
X113272850Y-106739187D01*
X113277777Y-106735533D01*
X113283038Y-106732380D01*
X113288582Y-106729758D01*
X113294357Y-106727691D01*
X113300307Y-106726201D01*
X113306374Y-106725301D01*
X113312500Y-106725000D01*
X114037500Y-106725000D01*
X114043626Y-106725301D01*
X114043626Y-106725301D01*
G37*
D14*
X113675000Y-106850000D03*
D10*
G36*
X114043626Y-107225301D02*
G01*
X114049693Y-107226201D01*
X114055643Y-107227691D01*
X114061418Y-107229758D01*
X114066962Y-107232380D01*
X114072223Y-107235533D01*
X114077150Y-107239187D01*
X114081694Y-107243306D01*
X114085813Y-107247850D01*
X114089467Y-107252777D01*
X114092620Y-107258038D01*
X114095242Y-107263582D01*
X114097309Y-107269357D01*
X114098799Y-107275307D01*
X114099699Y-107281374D01*
X114100000Y-107287500D01*
X114100000Y-107412500D01*
X114099699Y-107418626D01*
X114098799Y-107424693D01*
X114097309Y-107430643D01*
X114095242Y-107436418D01*
X114092620Y-107441962D01*
X114089467Y-107447223D01*
X114085813Y-107452150D01*
X114081694Y-107456694D01*
X114077150Y-107460813D01*
X114072223Y-107464467D01*
X114066962Y-107467620D01*
X114061418Y-107470242D01*
X114055643Y-107472309D01*
X114049693Y-107473799D01*
X114043626Y-107474699D01*
X114037500Y-107475000D01*
X113312500Y-107475000D01*
X113306374Y-107474699D01*
X113300307Y-107473799D01*
X113294357Y-107472309D01*
X113288582Y-107470242D01*
X113283038Y-107467620D01*
X113277777Y-107464467D01*
X113272850Y-107460813D01*
X113268306Y-107456694D01*
X113264187Y-107452150D01*
X113260533Y-107447223D01*
X113257380Y-107441962D01*
X113254758Y-107436418D01*
X113252691Y-107430643D01*
X113251201Y-107424693D01*
X113250301Y-107418626D01*
X113250000Y-107412500D01*
X113250000Y-107287500D01*
X113250301Y-107281374D01*
X113251201Y-107275307D01*
X113252691Y-107269357D01*
X113254758Y-107263582D01*
X113257380Y-107258038D01*
X113260533Y-107252777D01*
X113264187Y-107247850D01*
X113268306Y-107243306D01*
X113272850Y-107239187D01*
X113277777Y-107235533D01*
X113283038Y-107232380D01*
X113288582Y-107229758D01*
X113294357Y-107227691D01*
X113300307Y-107226201D01*
X113306374Y-107225301D01*
X113312500Y-107225000D01*
X114037500Y-107225000D01*
X114043626Y-107225301D01*
X114043626Y-107225301D01*
G37*
D14*
X113675000Y-107350000D03*
D10*
G36*
X114043626Y-107725301D02*
G01*
X114049693Y-107726201D01*
X114055643Y-107727691D01*
X114061418Y-107729758D01*
X114066962Y-107732380D01*
X114072223Y-107735533D01*
X114077150Y-107739187D01*
X114081694Y-107743306D01*
X114085813Y-107747850D01*
X114089467Y-107752777D01*
X114092620Y-107758038D01*
X114095242Y-107763582D01*
X114097309Y-107769357D01*
X114098799Y-107775307D01*
X114099699Y-107781374D01*
X114100000Y-107787500D01*
X114100000Y-107912500D01*
X114099699Y-107918626D01*
X114098799Y-107924693D01*
X114097309Y-107930643D01*
X114095242Y-107936418D01*
X114092620Y-107941962D01*
X114089467Y-107947223D01*
X114085813Y-107952150D01*
X114081694Y-107956694D01*
X114077150Y-107960813D01*
X114072223Y-107964467D01*
X114066962Y-107967620D01*
X114061418Y-107970242D01*
X114055643Y-107972309D01*
X114049693Y-107973799D01*
X114043626Y-107974699D01*
X114037500Y-107975000D01*
X113312500Y-107975000D01*
X113306374Y-107974699D01*
X113300307Y-107973799D01*
X113294357Y-107972309D01*
X113288582Y-107970242D01*
X113283038Y-107967620D01*
X113277777Y-107964467D01*
X113272850Y-107960813D01*
X113268306Y-107956694D01*
X113264187Y-107952150D01*
X113260533Y-107947223D01*
X113257380Y-107941962D01*
X113254758Y-107936418D01*
X113252691Y-107930643D01*
X113251201Y-107924693D01*
X113250301Y-107918626D01*
X113250000Y-107912500D01*
X113250000Y-107787500D01*
X113250301Y-107781374D01*
X113251201Y-107775307D01*
X113252691Y-107769357D01*
X113254758Y-107763582D01*
X113257380Y-107758038D01*
X113260533Y-107752777D01*
X113264187Y-107747850D01*
X113268306Y-107743306D01*
X113272850Y-107739187D01*
X113277777Y-107735533D01*
X113283038Y-107732380D01*
X113288582Y-107729758D01*
X113294357Y-107727691D01*
X113300307Y-107726201D01*
X113306374Y-107725301D01*
X113312500Y-107725000D01*
X114037500Y-107725000D01*
X114043626Y-107725301D01*
X114043626Y-107725301D01*
G37*
D14*
X113675000Y-107850000D03*
D10*
G36*
X114043626Y-108225301D02*
G01*
X114049693Y-108226201D01*
X114055643Y-108227691D01*
X114061418Y-108229758D01*
X114066962Y-108232380D01*
X114072223Y-108235533D01*
X114077150Y-108239187D01*
X114081694Y-108243306D01*
X114085813Y-108247850D01*
X114089467Y-108252777D01*
X114092620Y-108258038D01*
X114095242Y-108263582D01*
X114097309Y-108269357D01*
X114098799Y-108275307D01*
X114099699Y-108281374D01*
X114100000Y-108287500D01*
X114100000Y-108412500D01*
X114099699Y-108418626D01*
X114098799Y-108424693D01*
X114097309Y-108430643D01*
X114095242Y-108436418D01*
X114092620Y-108441962D01*
X114089467Y-108447223D01*
X114085813Y-108452150D01*
X114081694Y-108456694D01*
X114077150Y-108460813D01*
X114072223Y-108464467D01*
X114066962Y-108467620D01*
X114061418Y-108470242D01*
X114055643Y-108472309D01*
X114049693Y-108473799D01*
X114043626Y-108474699D01*
X114037500Y-108475000D01*
X113312500Y-108475000D01*
X113306374Y-108474699D01*
X113300307Y-108473799D01*
X113294357Y-108472309D01*
X113288582Y-108470242D01*
X113283038Y-108467620D01*
X113277777Y-108464467D01*
X113272850Y-108460813D01*
X113268306Y-108456694D01*
X113264187Y-108452150D01*
X113260533Y-108447223D01*
X113257380Y-108441962D01*
X113254758Y-108436418D01*
X113252691Y-108430643D01*
X113251201Y-108424693D01*
X113250301Y-108418626D01*
X113250000Y-108412500D01*
X113250000Y-108287500D01*
X113250301Y-108281374D01*
X113251201Y-108275307D01*
X113252691Y-108269357D01*
X113254758Y-108263582D01*
X113257380Y-108258038D01*
X113260533Y-108252777D01*
X113264187Y-108247850D01*
X113268306Y-108243306D01*
X113272850Y-108239187D01*
X113277777Y-108235533D01*
X113283038Y-108232380D01*
X113288582Y-108229758D01*
X113294357Y-108227691D01*
X113300307Y-108226201D01*
X113306374Y-108225301D01*
X113312500Y-108225000D01*
X114037500Y-108225000D01*
X114043626Y-108225301D01*
X114043626Y-108225301D01*
G37*
D14*
X113675000Y-108350000D03*
D10*
G36*
X114043626Y-108725301D02*
G01*
X114049693Y-108726201D01*
X114055643Y-108727691D01*
X114061418Y-108729758D01*
X114066962Y-108732380D01*
X114072223Y-108735533D01*
X114077150Y-108739187D01*
X114081694Y-108743306D01*
X114085813Y-108747850D01*
X114089467Y-108752777D01*
X114092620Y-108758038D01*
X114095242Y-108763582D01*
X114097309Y-108769357D01*
X114098799Y-108775307D01*
X114099699Y-108781374D01*
X114100000Y-108787500D01*
X114100000Y-108912500D01*
X114099699Y-108918626D01*
X114098799Y-108924693D01*
X114097309Y-108930643D01*
X114095242Y-108936418D01*
X114092620Y-108941962D01*
X114089467Y-108947223D01*
X114085813Y-108952150D01*
X114081694Y-108956694D01*
X114077150Y-108960813D01*
X114072223Y-108964467D01*
X114066962Y-108967620D01*
X114061418Y-108970242D01*
X114055643Y-108972309D01*
X114049693Y-108973799D01*
X114043626Y-108974699D01*
X114037500Y-108975000D01*
X113312500Y-108975000D01*
X113306374Y-108974699D01*
X113300307Y-108973799D01*
X113294357Y-108972309D01*
X113288582Y-108970242D01*
X113283038Y-108967620D01*
X113277777Y-108964467D01*
X113272850Y-108960813D01*
X113268306Y-108956694D01*
X113264187Y-108952150D01*
X113260533Y-108947223D01*
X113257380Y-108941962D01*
X113254758Y-108936418D01*
X113252691Y-108930643D01*
X113251201Y-108924693D01*
X113250301Y-108918626D01*
X113250000Y-108912500D01*
X113250000Y-108787500D01*
X113250301Y-108781374D01*
X113251201Y-108775307D01*
X113252691Y-108769357D01*
X113254758Y-108763582D01*
X113257380Y-108758038D01*
X113260533Y-108752777D01*
X113264187Y-108747850D01*
X113268306Y-108743306D01*
X113272850Y-108739187D01*
X113277777Y-108735533D01*
X113283038Y-108732380D01*
X113288582Y-108729758D01*
X113294357Y-108727691D01*
X113300307Y-108726201D01*
X113306374Y-108725301D01*
X113312500Y-108725000D01*
X114037500Y-108725000D01*
X114043626Y-108725301D01*
X114043626Y-108725301D01*
G37*
D14*
X113675000Y-108850000D03*
D10*
G36*
X114043626Y-109225301D02*
G01*
X114049693Y-109226201D01*
X114055643Y-109227691D01*
X114061418Y-109229758D01*
X114066962Y-109232380D01*
X114072223Y-109235533D01*
X114077150Y-109239187D01*
X114081694Y-109243306D01*
X114085813Y-109247850D01*
X114089467Y-109252777D01*
X114092620Y-109258038D01*
X114095242Y-109263582D01*
X114097309Y-109269357D01*
X114098799Y-109275307D01*
X114099699Y-109281374D01*
X114100000Y-109287500D01*
X114100000Y-109412500D01*
X114099699Y-109418626D01*
X114098799Y-109424693D01*
X114097309Y-109430643D01*
X114095242Y-109436418D01*
X114092620Y-109441962D01*
X114089467Y-109447223D01*
X114085813Y-109452150D01*
X114081694Y-109456694D01*
X114077150Y-109460813D01*
X114072223Y-109464467D01*
X114066962Y-109467620D01*
X114061418Y-109470242D01*
X114055643Y-109472309D01*
X114049693Y-109473799D01*
X114043626Y-109474699D01*
X114037500Y-109475000D01*
X113312500Y-109475000D01*
X113306374Y-109474699D01*
X113300307Y-109473799D01*
X113294357Y-109472309D01*
X113288582Y-109470242D01*
X113283038Y-109467620D01*
X113277777Y-109464467D01*
X113272850Y-109460813D01*
X113268306Y-109456694D01*
X113264187Y-109452150D01*
X113260533Y-109447223D01*
X113257380Y-109441962D01*
X113254758Y-109436418D01*
X113252691Y-109430643D01*
X113251201Y-109424693D01*
X113250301Y-109418626D01*
X113250000Y-109412500D01*
X113250000Y-109287500D01*
X113250301Y-109281374D01*
X113251201Y-109275307D01*
X113252691Y-109269357D01*
X113254758Y-109263582D01*
X113257380Y-109258038D01*
X113260533Y-109252777D01*
X113264187Y-109247850D01*
X113268306Y-109243306D01*
X113272850Y-109239187D01*
X113277777Y-109235533D01*
X113283038Y-109232380D01*
X113288582Y-109229758D01*
X113294357Y-109227691D01*
X113300307Y-109226201D01*
X113306374Y-109225301D01*
X113312500Y-109225000D01*
X114037500Y-109225000D01*
X114043626Y-109225301D01*
X114043626Y-109225301D01*
G37*
D14*
X113675000Y-109350000D03*
D10*
G36*
X114043626Y-109725301D02*
G01*
X114049693Y-109726201D01*
X114055643Y-109727691D01*
X114061418Y-109729758D01*
X114066962Y-109732380D01*
X114072223Y-109735533D01*
X114077150Y-109739187D01*
X114081694Y-109743306D01*
X114085813Y-109747850D01*
X114089467Y-109752777D01*
X114092620Y-109758038D01*
X114095242Y-109763582D01*
X114097309Y-109769357D01*
X114098799Y-109775307D01*
X114099699Y-109781374D01*
X114100000Y-109787500D01*
X114100000Y-109912500D01*
X114099699Y-109918626D01*
X114098799Y-109924693D01*
X114097309Y-109930643D01*
X114095242Y-109936418D01*
X114092620Y-109941962D01*
X114089467Y-109947223D01*
X114085813Y-109952150D01*
X114081694Y-109956694D01*
X114077150Y-109960813D01*
X114072223Y-109964467D01*
X114066962Y-109967620D01*
X114061418Y-109970242D01*
X114055643Y-109972309D01*
X114049693Y-109973799D01*
X114043626Y-109974699D01*
X114037500Y-109975000D01*
X113312500Y-109975000D01*
X113306374Y-109974699D01*
X113300307Y-109973799D01*
X113294357Y-109972309D01*
X113288582Y-109970242D01*
X113283038Y-109967620D01*
X113277777Y-109964467D01*
X113272850Y-109960813D01*
X113268306Y-109956694D01*
X113264187Y-109952150D01*
X113260533Y-109947223D01*
X113257380Y-109941962D01*
X113254758Y-109936418D01*
X113252691Y-109930643D01*
X113251201Y-109924693D01*
X113250301Y-109918626D01*
X113250000Y-109912500D01*
X113250000Y-109787500D01*
X113250301Y-109781374D01*
X113251201Y-109775307D01*
X113252691Y-109769357D01*
X113254758Y-109763582D01*
X113257380Y-109758038D01*
X113260533Y-109752777D01*
X113264187Y-109747850D01*
X113268306Y-109743306D01*
X113272850Y-109739187D01*
X113277777Y-109735533D01*
X113283038Y-109732380D01*
X113288582Y-109729758D01*
X113294357Y-109727691D01*
X113300307Y-109726201D01*
X113306374Y-109725301D01*
X113312500Y-109725000D01*
X114037500Y-109725000D01*
X114043626Y-109725301D01*
X114043626Y-109725301D01*
G37*
D14*
X113675000Y-109850000D03*
D10*
G36*
X114043626Y-110225301D02*
G01*
X114049693Y-110226201D01*
X114055643Y-110227691D01*
X114061418Y-110229758D01*
X114066962Y-110232380D01*
X114072223Y-110235533D01*
X114077150Y-110239187D01*
X114081694Y-110243306D01*
X114085813Y-110247850D01*
X114089467Y-110252777D01*
X114092620Y-110258038D01*
X114095242Y-110263582D01*
X114097309Y-110269357D01*
X114098799Y-110275307D01*
X114099699Y-110281374D01*
X114100000Y-110287500D01*
X114100000Y-110412500D01*
X114099699Y-110418626D01*
X114098799Y-110424693D01*
X114097309Y-110430643D01*
X114095242Y-110436418D01*
X114092620Y-110441962D01*
X114089467Y-110447223D01*
X114085813Y-110452150D01*
X114081694Y-110456694D01*
X114077150Y-110460813D01*
X114072223Y-110464467D01*
X114066962Y-110467620D01*
X114061418Y-110470242D01*
X114055643Y-110472309D01*
X114049693Y-110473799D01*
X114043626Y-110474699D01*
X114037500Y-110475000D01*
X113312500Y-110475000D01*
X113306374Y-110474699D01*
X113300307Y-110473799D01*
X113294357Y-110472309D01*
X113288582Y-110470242D01*
X113283038Y-110467620D01*
X113277777Y-110464467D01*
X113272850Y-110460813D01*
X113268306Y-110456694D01*
X113264187Y-110452150D01*
X113260533Y-110447223D01*
X113257380Y-110441962D01*
X113254758Y-110436418D01*
X113252691Y-110430643D01*
X113251201Y-110424693D01*
X113250301Y-110418626D01*
X113250000Y-110412500D01*
X113250000Y-110287500D01*
X113250301Y-110281374D01*
X113251201Y-110275307D01*
X113252691Y-110269357D01*
X113254758Y-110263582D01*
X113257380Y-110258038D01*
X113260533Y-110252777D01*
X113264187Y-110247850D01*
X113268306Y-110243306D01*
X113272850Y-110239187D01*
X113277777Y-110235533D01*
X113283038Y-110232380D01*
X113288582Y-110229758D01*
X113294357Y-110227691D01*
X113300307Y-110226201D01*
X113306374Y-110225301D01*
X113312500Y-110225000D01*
X114037500Y-110225000D01*
X114043626Y-110225301D01*
X114043626Y-110225301D01*
G37*
D14*
X113675000Y-110350000D03*
D10*
G36*
X114043626Y-110725301D02*
G01*
X114049693Y-110726201D01*
X114055643Y-110727691D01*
X114061418Y-110729758D01*
X114066962Y-110732380D01*
X114072223Y-110735533D01*
X114077150Y-110739187D01*
X114081694Y-110743306D01*
X114085813Y-110747850D01*
X114089467Y-110752777D01*
X114092620Y-110758038D01*
X114095242Y-110763582D01*
X114097309Y-110769357D01*
X114098799Y-110775307D01*
X114099699Y-110781374D01*
X114100000Y-110787500D01*
X114100000Y-110912500D01*
X114099699Y-110918626D01*
X114098799Y-110924693D01*
X114097309Y-110930643D01*
X114095242Y-110936418D01*
X114092620Y-110941962D01*
X114089467Y-110947223D01*
X114085813Y-110952150D01*
X114081694Y-110956694D01*
X114077150Y-110960813D01*
X114072223Y-110964467D01*
X114066962Y-110967620D01*
X114061418Y-110970242D01*
X114055643Y-110972309D01*
X114049693Y-110973799D01*
X114043626Y-110974699D01*
X114037500Y-110975000D01*
X113312500Y-110975000D01*
X113306374Y-110974699D01*
X113300307Y-110973799D01*
X113294357Y-110972309D01*
X113288582Y-110970242D01*
X113283038Y-110967620D01*
X113277777Y-110964467D01*
X113272850Y-110960813D01*
X113268306Y-110956694D01*
X113264187Y-110952150D01*
X113260533Y-110947223D01*
X113257380Y-110941962D01*
X113254758Y-110936418D01*
X113252691Y-110930643D01*
X113251201Y-110924693D01*
X113250301Y-110918626D01*
X113250000Y-110912500D01*
X113250000Y-110787500D01*
X113250301Y-110781374D01*
X113251201Y-110775307D01*
X113252691Y-110769357D01*
X113254758Y-110763582D01*
X113257380Y-110758038D01*
X113260533Y-110752777D01*
X113264187Y-110747850D01*
X113268306Y-110743306D01*
X113272850Y-110739187D01*
X113277777Y-110735533D01*
X113283038Y-110732380D01*
X113288582Y-110729758D01*
X113294357Y-110727691D01*
X113300307Y-110726201D01*
X113306374Y-110725301D01*
X113312500Y-110725000D01*
X114037500Y-110725000D01*
X114043626Y-110725301D01*
X114043626Y-110725301D01*
G37*
D14*
X113675000Y-110850000D03*
D10*
G36*
X114443626Y-111125301D02*
G01*
X114449693Y-111126201D01*
X114455643Y-111127691D01*
X114461418Y-111129758D01*
X114466962Y-111132380D01*
X114472223Y-111135533D01*
X114477150Y-111139187D01*
X114481694Y-111143306D01*
X114485813Y-111147850D01*
X114489467Y-111152777D01*
X114492620Y-111158038D01*
X114495242Y-111163582D01*
X114497309Y-111169357D01*
X114498799Y-111175307D01*
X114499699Y-111181374D01*
X114500000Y-111187500D01*
X114500000Y-111912500D01*
X114499699Y-111918626D01*
X114498799Y-111924693D01*
X114497309Y-111930643D01*
X114495242Y-111936418D01*
X114492620Y-111941962D01*
X114489467Y-111947223D01*
X114485813Y-111952150D01*
X114481694Y-111956694D01*
X114477150Y-111960813D01*
X114472223Y-111964467D01*
X114466962Y-111967620D01*
X114461418Y-111970242D01*
X114455643Y-111972309D01*
X114449693Y-111973799D01*
X114443626Y-111974699D01*
X114437500Y-111975000D01*
X114312500Y-111975000D01*
X114306374Y-111974699D01*
X114300307Y-111973799D01*
X114294357Y-111972309D01*
X114288582Y-111970242D01*
X114283038Y-111967620D01*
X114277777Y-111964467D01*
X114272850Y-111960813D01*
X114268306Y-111956694D01*
X114264187Y-111952150D01*
X114260533Y-111947223D01*
X114257380Y-111941962D01*
X114254758Y-111936418D01*
X114252691Y-111930643D01*
X114251201Y-111924693D01*
X114250301Y-111918626D01*
X114250000Y-111912500D01*
X114250000Y-111187500D01*
X114250301Y-111181374D01*
X114251201Y-111175307D01*
X114252691Y-111169357D01*
X114254758Y-111163582D01*
X114257380Y-111158038D01*
X114260533Y-111152777D01*
X114264187Y-111147850D01*
X114268306Y-111143306D01*
X114272850Y-111139187D01*
X114277777Y-111135533D01*
X114283038Y-111132380D01*
X114288582Y-111129758D01*
X114294357Y-111127691D01*
X114300307Y-111126201D01*
X114306374Y-111125301D01*
X114312500Y-111125000D01*
X114437500Y-111125000D01*
X114443626Y-111125301D01*
X114443626Y-111125301D01*
G37*
D14*
X114375000Y-111550000D03*
D10*
G36*
X114943626Y-111125301D02*
G01*
X114949693Y-111126201D01*
X114955643Y-111127691D01*
X114961418Y-111129758D01*
X114966962Y-111132380D01*
X114972223Y-111135533D01*
X114977150Y-111139187D01*
X114981694Y-111143306D01*
X114985813Y-111147850D01*
X114989467Y-111152777D01*
X114992620Y-111158038D01*
X114995242Y-111163582D01*
X114997309Y-111169357D01*
X114998799Y-111175307D01*
X114999699Y-111181374D01*
X115000000Y-111187500D01*
X115000000Y-111912500D01*
X114999699Y-111918626D01*
X114998799Y-111924693D01*
X114997309Y-111930643D01*
X114995242Y-111936418D01*
X114992620Y-111941962D01*
X114989467Y-111947223D01*
X114985813Y-111952150D01*
X114981694Y-111956694D01*
X114977150Y-111960813D01*
X114972223Y-111964467D01*
X114966962Y-111967620D01*
X114961418Y-111970242D01*
X114955643Y-111972309D01*
X114949693Y-111973799D01*
X114943626Y-111974699D01*
X114937500Y-111975000D01*
X114812500Y-111975000D01*
X114806374Y-111974699D01*
X114800307Y-111973799D01*
X114794357Y-111972309D01*
X114788582Y-111970242D01*
X114783038Y-111967620D01*
X114777777Y-111964467D01*
X114772850Y-111960813D01*
X114768306Y-111956694D01*
X114764187Y-111952150D01*
X114760533Y-111947223D01*
X114757380Y-111941962D01*
X114754758Y-111936418D01*
X114752691Y-111930643D01*
X114751201Y-111924693D01*
X114750301Y-111918626D01*
X114750000Y-111912500D01*
X114750000Y-111187500D01*
X114750301Y-111181374D01*
X114751201Y-111175307D01*
X114752691Y-111169357D01*
X114754758Y-111163582D01*
X114757380Y-111158038D01*
X114760533Y-111152777D01*
X114764187Y-111147850D01*
X114768306Y-111143306D01*
X114772850Y-111139187D01*
X114777777Y-111135533D01*
X114783038Y-111132380D01*
X114788582Y-111129758D01*
X114794357Y-111127691D01*
X114800307Y-111126201D01*
X114806374Y-111125301D01*
X114812500Y-111125000D01*
X114937500Y-111125000D01*
X114943626Y-111125301D01*
X114943626Y-111125301D01*
G37*
D14*
X114875000Y-111550000D03*
D10*
G36*
X115443626Y-111125301D02*
G01*
X115449693Y-111126201D01*
X115455643Y-111127691D01*
X115461418Y-111129758D01*
X115466962Y-111132380D01*
X115472223Y-111135533D01*
X115477150Y-111139187D01*
X115481694Y-111143306D01*
X115485813Y-111147850D01*
X115489467Y-111152777D01*
X115492620Y-111158038D01*
X115495242Y-111163582D01*
X115497309Y-111169357D01*
X115498799Y-111175307D01*
X115499699Y-111181374D01*
X115500000Y-111187500D01*
X115500000Y-111912500D01*
X115499699Y-111918626D01*
X115498799Y-111924693D01*
X115497309Y-111930643D01*
X115495242Y-111936418D01*
X115492620Y-111941962D01*
X115489467Y-111947223D01*
X115485813Y-111952150D01*
X115481694Y-111956694D01*
X115477150Y-111960813D01*
X115472223Y-111964467D01*
X115466962Y-111967620D01*
X115461418Y-111970242D01*
X115455643Y-111972309D01*
X115449693Y-111973799D01*
X115443626Y-111974699D01*
X115437500Y-111975000D01*
X115312500Y-111975000D01*
X115306374Y-111974699D01*
X115300307Y-111973799D01*
X115294357Y-111972309D01*
X115288582Y-111970242D01*
X115283038Y-111967620D01*
X115277777Y-111964467D01*
X115272850Y-111960813D01*
X115268306Y-111956694D01*
X115264187Y-111952150D01*
X115260533Y-111947223D01*
X115257380Y-111941962D01*
X115254758Y-111936418D01*
X115252691Y-111930643D01*
X115251201Y-111924693D01*
X115250301Y-111918626D01*
X115250000Y-111912500D01*
X115250000Y-111187500D01*
X115250301Y-111181374D01*
X115251201Y-111175307D01*
X115252691Y-111169357D01*
X115254758Y-111163582D01*
X115257380Y-111158038D01*
X115260533Y-111152777D01*
X115264187Y-111147850D01*
X115268306Y-111143306D01*
X115272850Y-111139187D01*
X115277777Y-111135533D01*
X115283038Y-111132380D01*
X115288582Y-111129758D01*
X115294357Y-111127691D01*
X115300307Y-111126201D01*
X115306374Y-111125301D01*
X115312500Y-111125000D01*
X115437500Y-111125000D01*
X115443626Y-111125301D01*
X115443626Y-111125301D01*
G37*
D14*
X115375000Y-111550000D03*
D10*
G36*
X115943626Y-111125301D02*
G01*
X115949693Y-111126201D01*
X115955643Y-111127691D01*
X115961418Y-111129758D01*
X115966962Y-111132380D01*
X115972223Y-111135533D01*
X115977150Y-111139187D01*
X115981694Y-111143306D01*
X115985813Y-111147850D01*
X115989467Y-111152777D01*
X115992620Y-111158038D01*
X115995242Y-111163582D01*
X115997309Y-111169357D01*
X115998799Y-111175307D01*
X115999699Y-111181374D01*
X116000000Y-111187500D01*
X116000000Y-111912500D01*
X115999699Y-111918626D01*
X115998799Y-111924693D01*
X115997309Y-111930643D01*
X115995242Y-111936418D01*
X115992620Y-111941962D01*
X115989467Y-111947223D01*
X115985813Y-111952150D01*
X115981694Y-111956694D01*
X115977150Y-111960813D01*
X115972223Y-111964467D01*
X115966962Y-111967620D01*
X115961418Y-111970242D01*
X115955643Y-111972309D01*
X115949693Y-111973799D01*
X115943626Y-111974699D01*
X115937500Y-111975000D01*
X115812500Y-111975000D01*
X115806374Y-111974699D01*
X115800307Y-111973799D01*
X115794357Y-111972309D01*
X115788582Y-111970242D01*
X115783038Y-111967620D01*
X115777777Y-111964467D01*
X115772850Y-111960813D01*
X115768306Y-111956694D01*
X115764187Y-111952150D01*
X115760533Y-111947223D01*
X115757380Y-111941962D01*
X115754758Y-111936418D01*
X115752691Y-111930643D01*
X115751201Y-111924693D01*
X115750301Y-111918626D01*
X115750000Y-111912500D01*
X115750000Y-111187500D01*
X115750301Y-111181374D01*
X115751201Y-111175307D01*
X115752691Y-111169357D01*
X115754758Y-111163582D01*
X115757380Y-111158038D01*
X115760533Y-111152777D01*
X115764187Y-111147850D01*
X115768306Y-111143306D01*
X115772850Y-111139187D01*
X115777777Y-111135533D01*
X115783038Y-111132380D01*
X115788582Y-111129758D01*
X115794357Y-111127691D01*
X115800307Y-111126201D01*
X115806374Y-111125301D01*
X115812500Y-111125000D01*
X115937500Y-111125000D01*
X115943626Y-111125301D01*
X115943626Y-111125301D01*
G37*
D14*
X115875000Y-111550000D03*
D10*
G36*
X116443626Y-111125301D02*
G01*
X116449693Y-111126201D01*
X116455643Y-111127691D01*
X116461418Y-111129758D01*
X116466962Y-111132380D01*
X116472223Y-111135533D01*
X116477150Y-111139187D01*
X116481694Y-111143306D01*
X116485813Y-111147850D01*
X116489467Y-111152777D01*
X116492620Y-111158038D01*
X116495242Y-111163582D01*
X116497309Y-111169357D01*
X116498799Y-111175307D01*
X116499699Y-111181374D01*
X116500000Y-111187500D01*
X116500000Y-111912500D01*
X116499699Y-111918626D01*
X116498799Y-111924693D01*
X116497309Y-111930643D01*
X116495242Y-111936418D01*
X116492620Y-111941962D01*
X116489467Y-111947223D01*
X116485813Y-111952150D01*
X116481694Y-111956694D01*
X116477150Y-111960813D01*
X116472223Y-111964467D01*
X116466962Y-111967620D01*
X116461418Y-111970242D01*
X116455643Y-111972309D01*
X116449693Y-111973799D01*
X116443626Y-111974699D01*
X116437500Y-111975000D01*
X116312500Y-111975000D01*
X116306374Y-111974699D01*
X116300307Y-111973799D01*
X116294357Y-111972309D01*
X116288582Y-111970242D01*
X116283038Y-111967620D01*
X116277777Y-111964467D01*
X116272850Y-111960813D01*
X116268306Y-111956694D01*
X116264187Y-111952150D01*
X116260533Y-111947223D01*
X116257380Y-111941962D01*
X116254758Y-111936418D01*
X116252691Y-111930643D01*
X116251201Y-111924693D01*
X116250301Y-111918626D01*
X116250000Y-111912500D01*
X116250000Y-111187500D01*
X116250301Y-111181374D01*
X116251201Y-111175307D01*
X116252691Y-111169357D01*
X116254758Y-111163582D01*
X116257380Y-111158038D01*
X116260533Y-111152777D01*
X116264187Y-111147850D01*
X116268306Y-111143306D01*
X116272850Y-111139187D01*
X116277777Y-111135533D01*
X116283038Y-111132380D01*
X116288582Y-111129758D01*
X116294357Y-111127691D01*
X116300307Y-111126201D01*
X116306374Y-111125301D01*
X116312500Y-111125000D01*
X116437500Y-111125000D01*
X116443626Y-111125301D01*
X116443626Y-111125301D01*
G37*
D14*
X116375000Y-111550000D03*
D10*
G36*
X116943626Y-111125301D02*
G01*
X116949693Y-111126201D01*
X116955643Y-111127691D01*
X116961418Y-111129758D01*
X116966962Y-111132380D01*
X116972223Y-111135533D01*
X116977150Y-111139187D01*
X116981694Y-111143306D01*
X116985813Y-111147850D01*
X116989467Y-111152777D01*
X116992620Y-111158038D01*
X116995242Y-111163582D01*
X116997309Y-111169357D01*
X116998799Y-111175307D01*
X116999699Y-111181374D01*
X117000000Y-111187500D01*
X117000000Y-111912500D01*
X116999699Y-111918626D01*
X116998799Y-111924693D01*
X116997309Y-111930643D01*
X116995242Y-111936418D01*
X116992620Y-111941962D01*
X116989467Y-111947223D01*
X116985813Y-111952150D01*
X116981694Y-111956694D01*
X116977150Y-111960813D01*
X116972223Y-111964467D01*
X116966962Y-111967620D01*
X116961418Y-111970242D01*
X116955643Y-111972309D01*
X116949693Y-111973799D01*
X116943626Y-111974699D01*
X116937500Y-111975000D01*
X116812500Y-111975000D01*
X116806374Y-111974699D01*
X116800307Y-111973799D01*
X116794357Y-111972309D01*
X116788582Y-111970242D01*
X116783038Y-111967620D01*
X116777777Y-111964467D01*
X116772850Y-111960813D01*
X116768306Y-111956694D01*
X116764187Y-111952150D01*
X116760533Y-111947223D01*
X116757380Y-111941962D01*
X116754758Y-111936418D01*
X116752691Y-111930643D01*
X116751201Y-111924693D01*
X116750301Y-111918626D01*
X116750000Y-111912500D01*
X116750000Y-111187500D01*
X116750301Y-111181374D01*
X116751201Y-111175307D01*
X116752691Y-111169357D01*
X116754758Y-111163582D01*
X116757380Y-111158038D01*
X116760533Y-111152777D01*
X116764187Y-111147850D01*
X116768306Y-111143306D01*
X116772850Y-111139187D01*
X116777777Y-111135533D01*
X116783038Y-111132380D01*
X116788582Y-111129758D01*
X116794357Y-111127691D01*
X116800307Y-111126201D01*
X116806374Y-111125301D01*
X116812500Y-111125000D01*
X116937500Y-111125000D01*
X116943626Y-111125301D01*
X116943626Y-111125301D01*
G37*
D14*
X116875000Y-111550000D03*
D10*
G36*
X117443626Y-111125301D02*
G01*
X117449693Y-111126201D01*
X117455643Y-111127691D01*
X117461418Y-111129758D01*
X117466962Y-111132380D01*
X117472223Y-111135533D01*
X117477150Y-111139187D01*
X117481694Y-111143306D01*
X117485813Y-111147850D01*
X117489467Y-111152777D01*
X117492620Y-111158038D01*
X117495242Y-111163582D01*
X117497309Y-111169357D01*
X117498799Y-111175307D01*
X117499699Y-111181374D01*
X117500000Y-111187500D01*
X117500000Y-111912500D01*
X117499699Y-111918626D01*
X117498799Y-111924693D01*
X117497309Y-111930643D01*
X117495242Y-111936418D01*
X117492620Y-111941962D01*
X117489467Y-111947223D01*
X117485813Y-111952150D01*
X117481694Y-111956694D01*
X117477150Y-111960813D01*
X117472223Y-111964467D01*
X117466962Y-111967620D01*
X117461418Y-111970242D01*
X117455643Y-111972309D01*
X117449693Y-111973799D01*
X117443626Y-111974699D01*
X117437500Y-111975000D01*
X117312500Y-111975000D01*
X117306374Y-111974699D01*
X117300307Y-111973799D01*
X117294357Y-111972309D01*
X117288582Y-111970242D01*
X117283038Y-111967620D01*
X117277777Y-111964467D01*
X117272850Y-111960813D01*
X117268306Y-111956694D01*
X117264187Y-111952150D01*
X117260533Y-111947223D01*
X117257380Y-111941962D01*
X117254758Y-111936418D01*
X117252691Y-111930643D01*
X117251201Y-111924693D01*
X117250301Y-111918626D01*
X117250000Y-111912500D01*
X117250000Y-111187500D01*
X117250301Y-111181374D01*
X117251201Y-111175307D01*
X117252691Y-111169357D01*
X117254758Y-111163582D01*
X117257380Y-111158038D01*
X117260533Y-111152777D01*
X117264187Y-111147850D01*
X117268306Y-111143306D01*
X117272850Y-111139187D01*
X117277777Y-111135533D01*
X117283038Y-111132380D01*
X117288582Y-111129758D01*
X117294357Y-111127691D01*
X117300307Y-111126201D01*
X117306374Y-111125301D01*
X117312500Y-111125000D01*
X117437500Y-111125000D01*
X117443626Y-111125301D01*
X117443626Y-111125301D01*
G37*
D14*
X117375000Y-111550000D03*
D10*
G36*
X117943626Y-111125301D02*
G01*
X117949693Y-111126201D01*
X117955643Y-111127691D01*
X117961418Y-111129758D01*
X117966962Y-111132380D01*
X117972223Y-111135533D01*
X117977150Y-111139187D01*
X117981694Y-111143306D01*
X117985813Y-111147850D01*
X117989467Y-111152777D01*
X117992620Y-111158038D01*
X117995242Y-111163582D01*
X117997309Y-111169357D01*
X117998799Y-111175307D01*
X117999699Y-111181374D01*
X118000000Y-111187500D01*
X118000000Y-111912500D01*
X117999699Y-111918626D01*
X117998799Y-111924693D01*
X117997309Y-111930643D01*
X117995242Y-111936418D01*
X117992620Y-111941962D01*
X117989467Y-111947223D01*
X117985813Y-111952150D01*
X117981694Y-111956694D01*
X117977150Y-111960813D01*
X117972223Y-111964467D01*
X117966962Y-111967620D01*
X117961418Y-111970242D01*
X117955643Y-111972309D01*
X117949693Y-111973799D01*
X117943626Y-111974699D01*
X117937500Y-111975000D01*
X117812500Y-111975000D01*
X117806374Y-111974699D01*
X117800307Y-111973799D01*
X117794357Y-111972309D01*
X117788582Y-111970242D01*
X117783038Y-111967620D01*
X117777777Y-111964467D01*
X117772850Y-111960813D01*
X117768306Y-111956694D01*
X117764187Y-111952150D01*
X117760533Y-111947223D01*
X117757380Y-111941962D01*
X117754758Y-111936418D01*
X117752691Y-111930643D01*
X117751201Y-111924693D01*
X117750301Y-111918626D01*
X117750000Y-111912500D01*
X117750000Y-111187500D01*
X117750301Y-111181374D01*
X117751201Y-111175307D01*
X117752691Y-111169357D01*
X117754758Y-111163582D01*
X117757380Y-111158038D01*
X117760533Y-111152777D01*
X117764187Y-111147850D01*
X117768306Y-111143306D01*
X117772850Y-111139187D01*
X117777777Y-111135533D01*
X117783038Y-111132380D01*
X117788582Y-111129758D01*
X117794357Y-111127691D01*
X117800307Y-111126201D01*
X117806374Y-111125301D01*
X117812500Y-111125000D01*
X117937500Y-111125000D01*
X117943626Y-111125301D01*
X117943626Y-111125301D01*
G37*
D14*
X117875000Y-111550000D03*
D10*
G36*
X118443626Y-111125301D02*
G01*
X118449693Y-111126201D01*
X118455643Y-111127691D01*
X118461418Y-111129758D01*
X118466962Y-111132380D01*
X118472223Y-111135533D01*
X118477150Y-111139187D01*
X118481694Y-111143306D01*
X118485813Y-111147850D01*
X118489467Y-111152777D01*
X118492620Y-111158038D01*
X118495242Y-111163582D01*
X118497309Y-111169357D01*
X118498799Y-111175307D01*
X118499699Y-111181374D01*
X118500000Y-111187500D01*
X118500000Y-111912500D01*
X118499699Y-111918626D01*
X118498799Y-111924693D01*
X118497309Y-111930643D01*
X118495242Y-111936418D01*
X118492620Y-111941962D01*
X118489467Y-111947223D01*
X118485813Y-111952150D01*
X118481694Y-111956694D01*
X118477150Y-111960813D01*
X118472223Y-111964467D01*
X118466962Y-111967620D01*
X118461418Y-111970242D01*
X118455643Y-111972309D01*
X118449693Y-111973799D01*
X118443626Y-111974699D01*
X118437500Y-111975000D01*
X118312500Y-111975000D01*
X118306374Y-111974699D01*
X118300307Y-111973799D01*
X118294357Y-111972309D01*
X118288582Y-111970242D01*
X118283038Y-111967620D01*
X118277777Y-111964467D01*
X118272850Y-111960813D01*
X118268306Y-111956694D01*
X118264187Y-111952150D01*
X118260533Y-111947223D01*
X118257380Y-111941962D01*
X118254758Y-111936418D01*
X118252691Y-111930643D01*
X118251201Y-111924693D01*
X118250301Y-111918626D01*
X118250000Y-111912500D01*
X118250000Y-111187500D01*
X118250301Y-111181374D01*
X118251201Y-111175307D01*
X118252691Y-111169357D01*
X118254758Y-111163582D01*
X118257380Y-111158038D01*
X118260533Y-111152777D01*
X118264187Y-111147850D01*
X118268306Y-111143306D01*
X118272850Y-111139187D01*
X118277777Y-111135533D01*
X118283038Y-111132380D01*
X118288582Y-111129758D01*
X118294357Y-111127691D01*
X118300307Y-111126201D01*
X118306374Y-111125301D01*
X118312500Y-111125000D01*
X118437500Y-111125000D01*
X118443626Y-111125301D01*
X118443626Y-111125301D01*
G37*
D14*
X118375000Y-111550000D03*
D10*
G36*
X118943626Y-111125301D02*
G01*
X118949693Y-111126201D01*
X118955643Y-111127691D01*
X118961418Y-111129758D01*
X118966962Y-111132380D01*
X118972223Y-111135533D01*
X118977150Y-111139187D01*
X118981694Y-111143306D01*
X118985813Y-111147850D01*
X118989467Y-111152777D01*
X118992620Y-111158038D01*
X118995242Y-111163582D01*
X118997309Y-111169357D01*
X118998799Y-111175307D01*
X118999699Y-111181374D01*
X119000000Y-111187500D01*
X119000000Y-111912500D01*
X118999699Y-111918626D01*
X118998799Y-111924693D01*
X118997309Y-111930643D01*
X118995242Y-111936418D01*
X118992620Y-111941962D01*
X118989467Y-111947223D01*
X118985813Y-111952150D01*
X118981694Y-111956694D01*
X118977150Y-111960813D01*
X118972223Y-111964467D01*
X118966962Y-111967620D01*
X118961418Y-111970242D01*
X118955643Y-111972309D01*
X118949693Y-111973799D01*
X118943626Y-111974699D01*
X118937500Y-111975000D01*
X118812500Y-111975000D01*
X118806374Y-111974699D01*
X118800307Y-111973799D01*
X118794357Y-111972309D01*
X118788582Y-111970242D01*
X118783038Y-111967620D01*
X118777777Y-111964467D01*
X118772850Y-111960813D01*
X118768306Y-111956694D01*
X118764187Y-111952150D01*
X118760533Y-111947223D01*
X118757380Y-111941962D01*
X118754758Y-111936418D01*
X118752691Y-111930643D01*
X118751201Y-111924693D01*
X118750301Y-111918626D01*
X118750000Y-111912500D01*
X118750000Y-111187500D01*
X118750301Y-111181374D01*
X118751201Y-111175307D01*
X118752691Y-111169357D01*
X118754758Y-111163582D01*
X118757380Y-111158038D01*
X118760533Y-111152777D01*
X118764187Y-111147850D01*
X118768306Y-111143306D01*
X118772850Y-111139187D01*
X118777777Y-111135533D01*
X118783038Y-111132380D01*
X118788582Y-111129758D01*
X118794357Y-111127691D01*
X118800307Y-111126201D01*
X118806374Y-111125301D01*
X118812500Y-111125000D01*
X118937500Y-111125000D01*
X118943626Y-111125301D01*
X118943626Y-111125301D01*
G37*
D14*
X118875000Y-111550000D03*
D10*
G36*
X119443626Y-111125301D02*
G01*
X119449693Y-111126201D01*
X119455643Y-111127691D01*
X119461418Y-111129758D01*
X119466962Y-111132380D01*
X119472223Y-111135533D01*
X119477150Y-111139187D01*
X119481694Y-111143306D01*
X119485813Y-111147850D01*
X119489467Y-111152777D01*
X119492620Y-111158038D01*
X119495242Y-111163582D01*
X119497309Y-111169357D01*
X119498799Y-111175307D01*
X119499699Y-111181374D01*
X119500000Y-111187500D01*
X119500000Y-111912500D01*
X119499699Y-111918626D01*
X119498799Y-111924693D01*
X119497309Y-111930643D01*
X119495242Y-111936418D01*
X119492620Y-111941962D01*
X119489467Y-111947223D01*
X119485813Y-111952150D01*
X119481694Y-111956694D01*
X119477150Y-111960813D01*
X119472223Y-111964467D01*
X119466962Y-111967620D01*
X119461418Y-111970242D01*
X119455643Y-111972309D01*
X119449693Y-111973799D01*
X119443626Y-111974699D01*
X119437500Y-111975000D01*
X119312500Y-111975000D01*
X119306374Y-111974699D01*
X119300307Y-111973799D01*
X119294357Y-111972309D01*
X119288582Y-111970242D01*
X119283038Y-111967620D01*
X119277777Y-111964467D01*
X119272850Y-111960813D01*
X119268306Y-111956694D01*
X119264187Y-111952150D01*
X119260533Y-111947223D01*
X119257380Y-111941962D01*
X119254758Y-111936418D01*
X119252691Y-111930643D01*
X119251201Y-111924693D01*
X119250301Y-111918626D01*
X119250000Y-111912500D01*
X119250000Y-111187500D01*
X119250301Y-111181374D01*
X119251201Y-111175307D01*
X119252691Y-111169357D01*
X119254758Y-111163582D01*
X119257380Y-111158038D01*
X119260533Y-111152777D01*
X119264187Y-111147850D01*
X119268306Y-111143306D01*
X119272850Y-111139187D01*
X119277777Y-111135533D01*
X119283038Y-111132380D01*
X119288582Y-111129758D01*
X119294357Y-111127691D01*
X119300307Y-111126201D01*
X119306374Y-111125301D01*
X119312500Y-111125000D01*
X119437500Y-111125000D01*
X119443626Y-111125301D01*
X119443626Y-111125301D01*
G37*
D14*
X119375000Y-111550000D03*
D10*
G36*
X119943626Y-111125301D02*
G01*
X119949693Y-111126201D01*
X119955643Y-111127691D01*
X119961418Y-111129758D01*
X119966962Y-111132380D01*
X119972223Y-111135533D01*
X119977150Y-111139187D01*
X119981694Y-111143306D01*
X119985813Y-111147850D01*
X119989467Y-111152777D01*
X119992620Y-111158038D01*
X119995242Y-111163582D01*
X119997309Y-111169357D01*
X119998799Y-111175307D01*
X119999699Y-111181374D01*
X120000000Y-111187500D01*
X120000000Y-111912500D01*
X119999699Y-111918626D01*
X119998799Y-111924693D01*
X119997309Y-111930643D01*
X119995242Y-111936418D01*
X119992620Y-111941962D01*
X119989467Y-111947223D01*
X119985813Y-111952150D01*
X119981694Y-111956694D01*
X119977150Y-111960813D01*
X119972223Y-111964467D01*
X119966962Y-111967620D01*
X119961418Y-111970242D01*
X119955643Y-111972309D01*
X119949693Y-111973799D01*
X119943626Y-111974699D01*
X119937500Y-111975000D01*
X119812500Y-111975000D01*
X119806374Y-111974699D01*
X119800307Y-111973799D01*
X119794357Y-111972309D01*
X119788582Y-111970242D01*
X119783038Y-111967620D01*
X119777777Y-111964467D01*
X119772850Y-111960813D01*
X119768306Y-111956694D01*
X119764187Y-111952150D01*
X119760533Y-111947223D01*
X119757380Y-111941962D01*
X119754758Y-111936418D01*
X119752691Y-111930643D01*
X119751201Y-111924693D01*
X119750301Y-111918626D01*
X119750000Y-111912500D01*
X119750000Y-111187500D01*
X119750301Y-111181374D01*
X119751201Y-111175307D01*
X119752691Y-111169357D01*
X119754758Y-111163582D01*
X119757380Y-111158038D01*
X119760533Y-111152777D01*
X119764187Y-111147850D01*
X119768306Y-111143306D01*
X119772850Y-111139187D01*
X119777777Y-111135533D01*
X119783038Y-111132380D01*
X119788582Y-111129758D01*
X119794357Y-111127691D01*
X119800307Y-111126201D01*
X119806374Y-111125301D01*
X119812500Y-111125000D01*
X119937500Y-111125000D01*
X119943626Y-111125301D01*
X119943626Y-111125301D01*
G37*
D14*
X119875000Y-111550000D03*
D10*
G36*
X120943626Y-110725301D02*
G01*
X120949693Y-110726201D01*
X120955643Y-110727691D01*
X120961418Y-110729758D01*
X120966962Y-110732380D01*
X120972223Y-110735533D01*
X120977150Y-110739187D01*
X120981694Y-110743306D01*
X120985813Y-110747850D01*
X120989467Y-110752777D01*
X120992620Y-110758038D01*
X120995242Y-110763582D01*
X120997309Y-110769357D01*
X120998799Y-110775307D01*
X120999699Y-110781374D01*
X121000000Y-110787500D01*
X121000000Y-110912500D01*
X120999699Y-110918626D01*
X120998799Y-110924693D01*
X120997309Y-110930643D01*
X120995242Y-110936418D01*
X120992620Y-110941962D01*
X120989467Y-110947223D01*
X120985813Y-110952150D01*
X120981694Y-110956694D01*
X120977150Y-110960813D01*
X120972223Y-110964467D01*
X120966962Y-110967620D01*
X120961418Y-110970242D01*
X120955643Y-110972309D01*
X120949693Y-110973799D01*
X120943626Y-110974699D01*
X120937500Y-110975000D01*
X120212500Y-110975000D01*
X120206374Y-110974699D01*
X120200307Y-110973799D01*
X120194357Y-110972309D01*
X120188582Y-110970242D01*
X120183038Y-110967620D01*
X120177777Y-110964467D01*
X120172850Y-110960813D01*
X120168306Y-110956694D01*
X120164187Y-110952150D01*
X120160533Y-110947223D01*
X120157380Y-110941962D01*
X120154758Y-110936418D01*
X120152691Y-110930643D01*
X120151201Y-110924693D01*
X120150301Y-110918626D01*
X120150000Y-110912500D01*
X120150000Y-110787500D01*
X120150301Y-110781374D01*
X120151201Y-110775307D01*
X120152691Y-110769357D01*
X120154758Y-110763582D01*
X120157380Y-110758038D01*
X120160533Y-110752777D01*
X120164187Y-110747850D01*
X120168306Y-110743306D01*
X120172850Y-110739187D01*
X120177777Y-110735533D01*
X120183038Y-110732380D01*
X120188582Y-110729758D01*
X120194357Y-110727691D01*
X120200307Y-110726201D01*
X120206374Y-110725301D01*
X120212500Y-110725000D01*
X120937500Y-110725000D01*
X120943626Y-110725301D01*
X120943626Y-110725301D01*
G37*
D14*
X120575000Y-110850000D03*
D10*
G36*
X120943626Y-110225301D02*
G01*
X120949693Y-110226201D01*
X120955643Y-110227691D01*
X120961418Y-110229758D01*
X120966962Y-110232380D01*
X120972223Y-110235533D01*
X120977150Y-110239187D01*
X120981694Y-110243306D01*
X120985813Y-110247850D01*
X120989467Y-110252777D01*
X120992620Y-110258038D01*
X120995242Y-110263582D01*
X120997309Y-110269357D01*
X120998799Y-110275307D01*
X120999699Y-110281374D01*
X121000000Y-110287500D01*
X121000000Y-110412500D01*
X120999699Y-110418626D01*
X120998799Y-110424693D01*
X120997309Y-110430643D01*
X120995242Y-110436418D01*
X120992620Y-110441962D01*
X120989467Y-110447223D01*
X120985813Y-110452150D01*
X120981694Y-110456694D01*
X120977150Y-110460813D01*
X120972223Y-110464467D01*
X120966962Y-110467620D01*
X120961418Y-110470242D01*
X120955643Y-110472309D01*
X120949693Y-110473799D01*
X120943626Y-110474699D01*
X120937500Y-110475000D01*
X120212500Y-110475000D01*
X120206374Y-110474699D01*
X120200307Y-110473799D01*
X120194357Y-110472309D01*
X120188582Y-110470242D01*
X120183038Y-110467620D01*
X120177777Y-110464467D01*
X120172850Y-110460813D01*
X120168306Y-110456694D01*
X120164187Y-110452150D01*
X120160533Y-110447223D01*
X120157380Y-110441962D01*
X120154758Y-110436418D01*
X120152691Y-110430643D01*
X120151201Y-110424693D01*
X120150301Y-110418626D01*
X120150000Y-110412500D01*
X120150000Y-110287500D01*
X120150301Y-110281374D01*
X120151201Y-110275307D01*
X120152691Y-110269357D01*
X120154758Y-110263582D01*
X120157380Y-110258038D01*
X120160533Y-110252777D01*
X120164187Y-110247850D01*
X120168306Y-110243306D01*
X120172850Y-110239187D01*
X120177777Y-110235533D01*
X120183038Y-110232380D01*
X120188582Y-110229758D01*
X120194357Y-110227691D01*
X120200307Y-110226201D01*
X120206374Y-110225301D01*
X120212500Y-110225000D01*
X120937500Y-110225000D01*
X120943626Y-110225301D01*
X120943626Y-110225301D01*
G37*
D14*
X120575000Y-110350000D03*
D10*
G36*
X120943626Y-109725301D02*
G01*
X120949693Y-109726201D01*
X120955643Y-109727691D01*
X120961418Y-109729758D01*
X120966962Y-109732380D01*
X120972223Y-109735533D01*
X120977150Y-109739187D01*
X120981694Y-109743306D01*
X120985813Y-109747850D01*
X120989467Y-109752777D01*
X120992620Y-109758038D01*
X120995242Y-109763582D01*
X120997309Y-109769357D01*
X120998799Y-109775307D01*
X120999699Y-109781374D01*
X121000000Y-109787500D01*
X121000000Y-109912500D01*
X120999699Y-109918626D01*
X120998799Y-109924693D01*
X120997309Y-109930643D01*
X120995242Y-109936418D01*
X120992620Y-109941962D01*
X120989467Y-109947223D01*
X120985813Y-109952150D01*
X120981694Y-109956694D01*
X120977150Y-109960813D01*
X120972223Y-109964467D01*
X120966962Y-109967620D01*
X120961418Y-109970242D01*
X120955643Y-109972309D01*
X120949693Y-109973799D01*
X120943626Y-109974699D01*
X120937500Y-109975000D01*
X120212500Y-109975000D01*
X120206374Y-109974699D01*
X120200307Y-109973799D01*
X120194357Y-109972309D01*
X120188582Y-109970242D01*
X120183038Y-109967620D01*
X120177777Y-109964467D01*
X120172850Y-109960813D01*
X120168306Y-109956694D01*
X120164187Y-109952150D01*
X120160533Y-109947223D01*
X120157380Y-109941962D01*
X120154758Y-109936418D01*
X120152691Y-109930643D01*
X120151201Y-109924693D01*
X120150301Y-109918626D01*
X120150000Y-109912500D01*
X120150000Y-109787500D01*
X120150301Y-109781374D01*
X120151201Y-109775307D01*
X120152691Y-109769357D01*
X120154758Y-109763582D01*
X120157380Y-109758038D01*
X120160533Y-109752777D01*
X120164187Y-109747850D01*
X120168306Y-109743306D01*
X120172850Y-109739187D01*
X120177777Y-109735533D01*
X120183038Y-109732380D01*
X120188582Y-109729758D01*
X120194357Y-109727691D01*
X120200307Y-109726201D01*
X120206374Y-109725301D01*
X120212500Y-109725000D01*
X120937500Y-109725000D01*
X120943626Y-109725301D01*
X120943626Y-109725301D01*
G37*
D14*
X120575000Y-109850000D03*
D10*
G36*
X120943626Y-109225301D02*
G01*
X120949693Y-109226201D01*
X120955643Y-109227691D01*
X120961418Y-109229758D01*
X120966962Y-109232380D01*
X120972223Y-109235533D01*
X120977150Y-109239187D01*
X120981694Y-109243306D01*
X120985813Y-109247850D01*
X120989467Y-109252777D01*
X120992620Y-109258038D01*
X120995242Y-109263582D01*
X120997309Y-109269357D01*
X120998799Y-109275307D01*
X120999699Y-109281374D01*
X121000000Y-109287500D01*
X121000000Y-109412500D01*
X120999699Y-109418626D01*
X120998799Y-109424693D01*
X120997309Y-109430643D01*
X120995242Y-109436418D01*
X120992620Y-109441962D01*
X120989467Y-109447223D01*
X120985813Y-109452150D01*
X120981694Y-109456694D01*
X120977150Y-109460813D01*
X120972223Y-109464467D01*
X120966962Y-109467620D01*
X120961418Y-109470242D01*
X120955643Y-109472309D01*
X120949693Y-109473799D01*
X120943626Y-109474699D01*
X120937500Y-109475000D01*
X120212500Y-109475000D01*
X120206374Y-109474699D01*
X120200307Y-109473799D01*
X120194357Y-109472309D01*
X120188582Y-109470242D01*
X120183038Y-109467620D01*
X120177777Y-109464467D01*
X120172850Y-109460813D01*
X120168306Y-109456694D01*
X120164187Y-109452150D01*
X120160533Y-109447223D01*
X120157380Y-109441962D01*
X120154758Y-109436418D01*
X120152691Y-109430643D01*
X120151201Y-109424693D01*
X120150301Y-109418626D01*
X120150000Y-109412500D01*
X120150000Y-109287500D01*
X120150301Y-109281374D01*
X120151201Y-109275307D01*
X120152691Y-109269357D01*
X120154758Y-109263582D01*
X120157380Y-109258038D01*
X120160533Y-109252777D01*
X120164187Y-109247850D01*
X120168306Y-109243306D01*
X120172850Y-109239187D01*
X120177777Y-109235533D01*
X120183038Y-109232380D01*
X120188582Y-109229758D01*
X120194357Y-109227691D01*
X120200307Y-109226201D01*
X120206374Y-109225301D01*
X120212500Y-109225000D01*
X120937500Y-109225000D01*
X120943626Y-109225301D01*
X120943626Y-109225301D01*
G37*
D14*
X120575000Y-109350000D03*
D10*
G36*
X120943626Y-108725301D02*
G01*
X120949693Y-108726201D01*
X120955643Y-108727691D01*
X120961418Y-108729758D01*
X120966962Y-108732380D01*
X120972223Y-108735533D01*
X120977150Y-108739187D01*
X120981694Y-108743306D01*
X120985813Y-108747850D01*
X120989467Y-108752777D01*
X120992620Y-108758038D01*
X120995242Y-108763582D01*
X120997309Y-108769357D01*
X120998799Y-108775307D01*
X120999699Y-108781374D01*
X121000000Y-108787500D01*
X121000000Y-108912500D01*
X120999699Y-108918626D01*
X120998799Y-108924693D01*
X120997309Y-108930643D01*
X120995242Y-108936418D01*
X120992620Y-108941962D01*
X120989467Y-108947223D01*
X120985813Y-108952150D01*
X120981694Y-108956694D01*
X120977150Y-108960813D01*
X120972223Y-108964467D01*
X120966962Y-108967620D01*
X120961418Y-108970242D01*
X120955643Y-108972309D01*
X120949693Y-108973799D01*
X120943626Y-108974699D01*
X120937500Y-108975000D01*
X120212500Y-108975000D01*
X120206374Y-108974699D01*
X120200307Y-108973799D01*
X120194357Y-108972309D01*
X120188582Y-108970242D01*
X120183038Y-108967620D01*
X120177777Y-108964467D01*
X120172850Y-108960813D01*
X120168306Y-108956694D01*
X120164187Y-108952150D01*
X120160533Y-108947223D01*
X120157380Y-108941962D01*
X120154758Y-108936418D01*
X120152691Y-108930643D01*
X120151201Y-108924693D01*
X120150301Y-108918626D01*
X120150000Y-108912500D01*
X120150000Y-108787500D01*
X120150301Y-108781374D01*
X120151201Y-108775307D01*
X120152691Y-108769357D01*
X120154758Y-108763582D01*
X120157380Y-108758038D01*
X120160533Y-108752777D01*
X120164187Y-108747850D01*
X120168306Y-108743306D01*
X120172850Y-108739187D01*
X120177777Y-108735533D01*
X120183038Y-108732380D01*
X120188582Y-108729758D01*
X120194357Y-108727691D01*
X120200307Y-108726201D01*
X120206374Y-108725301D01*
X120212500Y-108725000D01*
X120937500Y-108725000D01*
X120943626Y-108725301D01*
X120943626Y-108725301D01*
G37*
D14*
X120575000Y-108850000D03*
D10*
G36*
X120943626Y-108225301D02*
G01*
X120949693Y-108226201D01*
X120955643Y-108227691D01*
X120961418Y-108229758D01*
X120966962Y-108232380D01*
X120972223Y-108235533D01*
X120977150Y-108239187D01*
X120981694Y-108243306D01*
X120985813Y-108247850D01*
X120989467Y-108252777D01*
X120992620Y-108258038D01*
X120995242Y-108263582D01*
X120997309Y-108269357D01*
X120998799Y-108275307D01*
X120999699Y-108281374D01*
X121000000Y-108287500D01*
X121000000Y-108412500D01*
X120999699Y-108418626D01*
X120998799Y-108424693D01*
X120997309Y-108430643D01*
X120995242Y-108436418D01*
X120992620Y-108441962D01*
X120989467Y-108447223D01*
X120985813Y-108452150D01*
X120981694Y-108456694D01*
X120977150Y-108460813D01*
X120972223Y-108464467D01*
X120966962Y-108467620D01*
X120961418Y-108470242D01*
X120955643Y-108472309D01*
X120949693Y-108473799D01*
X120943626Y-108474699D01*
X120937500Y-108475000D01*
X120212500Y-108475000D01*
X120206374Y-108474699D01*
X120200307Y-108473799D01*
X120194357Y-108472309D01*
X120188582Y-108470242D01*
X120183038Y-108467620D01*
X120177777Y-108464467D01*
X120172850Y-108460813D01*
X120168306Y-108456694D01*
X120164187Y-108452150D01*
X120160533Y-108447223D01*
X120157380Y-108441962D01*
X120154758Y-108436418D01*
X120152691Y-108430643D01*
X120151201Y-108424693D01*
X120150301Y-108418626D01*
X120150000Y-108412500D01*
X120150000Y-108287500D01*
X120150301Y-108281374D01*
X120151201Y-108275307D01*
X120152691Y-108269357D01*
X120154758Y-108263582D01*
X120157380Y-108258038D01*
X120160533Y-108252777D01*
X120164187Y-108247850D01*
X120168306Y-108243306D01*
X120172850Y-108239187D01*
X120177777Y-108235533D01*
X120183038Y-108232380D01*
X120188582Y-108229758D01*
X120194357Y-108227691D01*
X120200307Y-108226201D01*
X120206374Y-108225301D01*
X120212500Y-108225000D01*
X120937500Y-108225000D01*
X120943626Y-108225301D01*
X120943626Y-108225301D01*
G37*
D14*
X120575000Y-108350000D03*
D10*
G36*
X120943626Y-107725301D02*
G01*
X120949693Y-107726201D01*
X120955643Y-107727691D01*
X120961418Y-107729758D01*
X120966962Y-107732380D01*
X120972223Y-107735533D01*
X120977150Y-107739187D01*
X120981694Y-107743306D01*
X120985813Y-107747850D01*
X120989467Y-107752777D01*
X120992620Y-107758038D01*
X120995242Y-107763582D01*
X120997309Y-107769357D01*
X120998799Y-107775307D01*
X120999699Y-107781374D01*
X121000000Y-107787500D01*
X121000000Y-107912500D01*
X120999699Y-107918626D01*
X120998799Y-107924693D01*
X120997309Y-107930643D01*
X120995242Y-107936418D01*
X120992620Y-107941962D01*
X120989467Y-107947223D01*
X120985813Y-107952150D01*
X120981694Y-107956694D01*
X120977150Y-107960813D01*
X120972223Y-107964467D01*
X120966962Y-107967620D01*
X120961418Y-107970242D01*
X120955643Y-107972309D01*
X120949693Y-107973799D01*
X120943626Y-107974699D01*
X120937500Y-107975000D01*
X120212500Y-107975000D01*
X120206374Y-107974699D01*
X120200307Y-107973799D01*
X120194357Y-107972309D01*
X120188582Y-107970242D01*
X120183038Y-107967620D01*
X120177777Y-107964467D01*
X120172850Y-107960813D01*
X120168306Y-107956694D01*
X120164187Y-107952150D01*
X120160533Y-107947223D01*
X120157380Y-107941962D01*
X120154758Y-107936418D01*
X120152691Y-107930643D01*
X120151201Y-107924693D01*
X120150301Y-107918626D01*
X120150000Y-107912500D01*
X120150000Y-107787500D01*
X120150301Y-107781374D01*
X120151201Y-107775307D01*
X120152691Y-107769357D01*
X120154758Y-107763582D01*
X120157380Y-107758038D01*
X120160533Y-107752777D01*
X120164187Y-107747850D01*
X120168306Y-107743306D01*
X120172850Y-107739187D01*
X120177777Y-107735533D01*
X120183038Y-107732380D01*
X120188582Y-107729758D01*
X120194357Y-107727691D01*
X120200307Y-107726201D01*
X120206374Y-107725301D01*
X120212500Y-107725000D01*
X120937500Y-107725000D01*
X120943626Y-107725301D01*
X120943626Y-107725301D01*
G37*
D14*
X120575000Y-107850000D03*
D10*
G36*
X120943626Y-107225301D02*
G01*
X120949693Y-107226201D01*
X120955643Y-107227691D01*
X120961418Y-107229758D01*
X120966962Y-107232380D01*
X120972223Y-107235533D01*
X120977150Y-107239187D01*
X120981694Y-107243306D01*
X120985813Y-107247850D01*
X120989467Y-107252777D01*
X120992620Y-107258038D01*
X120995242Y-107263582D01*
X120997309Y-107269357D01*
X120998799Y-107275307D01*
X120999699Y-107281374D01*
X121000000Y-107287500D01*
X121000000Y-107412500D01*
X120999699Y-107418626D01*
X120998799Y-107424693D01*
X120997309Y-107430643D01*
X120995242Y-107436418D01*
X120992620Y-107441962D01*
X120989467Y-107447223D01*
X120985813Y-107452150D01*
X120981694Y-107456694D01*
X120977150Y-107460813D01*
X120972223Y-107464467D01*
X120966962Y-107467620D01*
X120961418Y-107470242D01*
X120955643Y-107472309D01*
X120949693Y-107473799D01*
X120943626Y-107474699D01*
X120937500Y-107475000D01*
X120212500Y-107475000D01*
X120206374Y-107474699D01*
X120200307Y-107473799D01*
X120194357Y-107472309D01*
X120188582Y-107470242D01*
X120183038Y-107467620D01*
X120177777Y-107464467D01*
X120172850Y-107460813D01*
X120168306Y-107456694D01*
X120164187Y-107452150D01*
X120160533Y-107447223D01*
X120157380Y-107441962D01*
X120154758Y-107436418D01*
X120152691Y-107430643D01*
X120151201Y-107424693D01*
X120150301Y-107418626D01*
X120150000Y-107412500D01*
X120150000Y-107287500D01*
X120150301Y-107281374D01*
X120151201Y-107275307D01*
X120152691Y-107269357D01*
X120154758Y-107263582D01*
X120157380Y-107258038D01*
X120160533Y-107252777D01*
X120164187Y-107247850D01*
X120168306Y-107243306D01*
X120172850Y-107239187D01*
X120177777Y-107235533D01*
X120183038Y-107232380D01*
X120188582Y-107229758D01*
X120194357Y-107227691D01*
X120200307Y-107226201D01*
X120206374Y-107225301D01*
X120212500Y-107225000D01*
X120937500Y-107225000D01*
X120943626Y-107225301D01*
X120943626Y-107225301D01*
G37*
D14*
X120575000Y-107350000D03*
D10*
G36*
X120943626Y-106725301D02*
G01*
X120949693Y-106726201D01*
X120955643Y-106727691D01*
X120961418Y-106729758D01*
X120966962Y-106732380D01*
X120972223Y-106735533D01*
X120977150Y-106739187D01*
X120981694Y-106743306D01*
X120985813Y-106747850D01*
X120989467Y-106752777D01*
X120992620Y-106758038D01*
X120995242Y-106763582D01*
X120997309Y-106769357D01*
X120998799Y-106775307D01*
X120999699Y-106781374D01*
X121000000Y-106787500D01*
X121000000Y-106912500D01*
X120999699Y-106918626D01*
X120998799Y-106924693D01*
X120997309Y-106930643D01*
X120995242Y-106936418D01*
X120992620Y-106941962D01*
X120989467Y-106947223D01*
X120985813Y-106952150D01*
X120981694Y-106956694D01*
X120977150Y-106960813D01*
X120972223Y-106964467D01*
X120966962Y-106967620D01*
X120961418Y-106970242D01*
X120955643Y-106972309D01*
X120949693Y-106973799D01*
X120943626Y-106974699D01*
X120937500Y-106975000D01*
X120212500Y-106975000D01*
X120206374Y-106974699D01*
X120200307Y-106973799D01*
X120194357Y-106972309D01*
X120188582Y-106970242D01*
X120183038Y-106967620D01*
X120177777Y-106964467D01*
X120172850Y-106960813D01*
X120168306Y-106956694D01*
X120164187Y-106952150D01*
X120160533Y-106947223D01*
X120157380Y-106941962D01*
X120154758Y-106936418D01*
X120152691Y-106930643D01*
X120151201Y-106924693D01*
X120150301Y-106918626D01*
X120150000Y-106912500D01*
X120150000Y-106787500D01*
X120150301Y-106781374D01*
X120151201Y-106775307D01*
X120152691Y-106769357D01*
X120154758Y-106763582D01*
X120157380Y-106758038D01*
X120160533Y-106752777D01*
X120164187Y-106747850D01*
X120168306Y-106743306D01*
X120172850Y-106739187D01*
X120177777Y-106735533D01*
X120183038Y-106732380D01*
X120188582Y-106729758D01*
X120194357Y-106727691D01*
X120200307Y-106726201D01*
X120206374Y-106725301D01*
X120212500Y-106725000D01*
X120937500Y-106725000D01*
X120943626Y-106725301D01*
X120943626Y-106725301D01*
G37*
D14*
X120575000Y-106850000D03*
D10*
G36*
X120943626Y-106225301D02*
G01*
X120949693Y-106226201D01*
X120955643Y-106227691D01*
X120961418Y-106229758D01*
X120966962Y-106232380D01*
X120972223Y-106235533D01*
X120977150Y-106239187D01*
X120981694Y-106243306D01*
X120985813Y-106247850D01*
X120989467Y-106252777D01*
X120992620Y-106258038D01*
X120995242Y-106263582D01*
X120997309Y-106269357D01*
X120998799Y-106275307D01*
X120999699Y-106281374D01*
X121000000Y-106287500D01*
X121000000Y-106412500D01*
X120999699Y-106418626D01*
X120998799Y-106424693D01*
X120997309Y-106430643D01*
X120995242Y-106436418D01*
X120992620Y-106441962D01*
X120989467Y-106447223D01*
X120985813Y-106452150D01*
X120981694Y-106456694D01*
X120977150Y-106460813D01*
X120972223Y-106464467D01*
X120966962Y-106467620D01*
X120961418Y-106470242D01*
X120955643Y-106472309D01*
X120949693Y-106473799D01*
X120943626Y-106474699D01*
X120937500Y-106475000D01*
X120212500Y-106475000D01*
X120206374Y-106474699D01*
X120200307Y-106473799D01*
X120194357Y-106472309D01*
X120188582Y-106470242D01*
X120183038Y-106467620D01*
X120177777Y-106464467D01*
X120172850Y-106460813D01*
X120168306Y-106456694D01*
X120164187Y-106452150D01*
X120160533Y-106447223D01*
X120157380Y-106441962D01*
X120154758Y-106436418D01*
X120152691Y-106430643D01*
X120151201Y-106424693D01*
X120150301Y-106418626D01*
X120150000Y-106412500D01*
X120150000Y-106287500D01*
X120150301Y-106281374D01*
X120151201Y-106275307D01*
X120152691Y-106269357D01*
X120154758Y-106263582D01*
X120157380Y-106258038D01*
X120160533Y-106252777D01*
X120164187Y-106247850D01*
X120168306Y-106243306D01*
X120172850Y-106239187D01*
X120177777Y-106235533D01*
X120183038Y-106232380D01*
X120188582Y-106229758D01*
X120194357Y-106227691D01*
X120200307Y-106226201D01*
X120206374Y-106225301D01*
X120212500Y-106225000D01*
X120937500Y-106225000D01*
X120943626Y-106225301D01*
X120943626Y-106225301D01*
G37*
D14*
X120575000Y-106350000D03*
D10*
G36*
X120943626Y-105725301D02*
G01*
X120949693Y-105726201D01*
X120955643Y-105727691D01*
X120961418Y-105729758D01*
X120966962Y-105732380D01*
X120972223Y-105735533D01*
X120977150Y-105739187D01*
X120981694Y-105743306D01*
X120985813Y-105747850D01*
X120989467Y-105752777D01*
X120992620Y-105758038D01*
X120995242Y-105763582D01*
X120997309Y-105769357D01*
X120998799Y-105775307D01*
X120999699Y-105781374D01*
X121000000Y-105787500D01*
X121000000Y-105912500D01*
X120999699Y-105918626D01*
X120998799Y-105924693D01*
X120997309Y-105930643D01*
X120995242Y-105936418D01*
X120992620Y-105941962D01*
X120989467Y-105947223D01*
X120985813Y-105952150D01*
X120981694Y-105956694D01*
X120977150Y-105960813D01*
X120972223Y-105964467D01*
X120966962Y-105967620D01*
X120961418Y-105970242D01*
X120955643Y-105972309D01*
X120949693Y-105973799D01*
X120943626Y-105974699D01*
X120937500Y-105975000D01*
X120212500Y-105975000D01*
X120206374Y-105974699D01*
X120200307Y-105973799D01*
X120194357Y-105972309D01*
X120188582Y-105970242D01*
X120183038Y-105967620D01*
X120177777Y-105964467D01*
X120172850Y-105960813D01*
X120168306Y-105956694D01*
X120164187Y-105952150D01*
X120160533Y-105947223D01*
X120157380Y-105941962D01*
X120154758Y-105936418D01*
X120152691Y-105930643D01*
X120151201Y-105924693D01*
X120150301Y-105918626D01*
X120150000Y-105912500D01*
X120150000Y-105787500D01*
X120150301Y-105781374D01*
X120151201Y-105775307D01*
X120152691Y-105769357D01*
X120154758Y-105763582D01*
X120157380Y-105758038D01*
X120160533Y-105752777D01*
X120164187Y-105747850D01*
X120168306Y-105743306D01*
X120172850Y-105739187D01*
X120177777Y-105735533D01*
X120183038Y-105732380D01*
X120188582Y-105729758D01*
X120194357Y-105727691D01*
X120200307Y-105726201D01*
X120206374Y-105725301D01*
X120212500Y-105725000D01*
X120937500Y-105725000D01*
X120943626Y-105725301D01*
X120943626Y-105725301D01*
G37*
D14*
X120575000Y-105850000D03*
D10*
G36*
X120943626Y-105225301D02*
G01*
X120949693Y-105226201D01*
X120955643Y-105227691D01*
X120961418Y-105229758D01*
X120966962Y-105232380D01*
X120972223Y-105235533D01*
X120977150Y-105239187D01*
X120981694Y-105243306D01*
X120985813Y-105247850D01*
X120989467Y-105252777D01*
X120992620Y-105258038D01*
X120995242Y-105263582D01*
X120997309Y-105269357D01*
X120998799Y-105275307D01*
X120999699Y-105281374D01*
X121000000Y-105287500D01*
X121000000Y-105412500D01*
X120999699Y-105418626D01*
X120998799Y-105424693D01*
X120997309Y-105430643D01*
X120995242Y-105436418D01*
X120992620Y-105441962D01*
X120989467Y-105447223D01*
X120985813Y-105452150D01*
X120981694Y-105456694D01*
X120977150Y-105460813D01*
X120972223Y-105464467D01*
X120966962Y-105467620D01*
X120961418Y-105470242D01*
X120955643Y-105472309D01*
X120949693Y-105473799D01*
X120943626Y-105474699D01*
X120937500Y-105475000D01*
X120212500Y-105475000D01*
X120206374Y-105474699D01*
X120200307Y-105473799D01*
X120194357Y-105472309D01*
X120188582Y-105470242D01*
X120183038Y-105467620D01*
X120177777Y-105464467D01*
X120172850Y-105460813D01*
X120168306Y-105456694D01*
X120164187Y-105452150D01*
X120160533Y-105447223D01*
X120157380Y-105441962D01*
X120154758Y-105436418D01*
X120152691Y-105430643D01*
X120151201Y-105424693D01*
X120150301Y-105418626D01*
X120150000Y-105412500D01*
X120150000Y-105287500D01*
X120150301Y-105281374D01*
X120151201Y-105275307D01*
X120152691Y-105269357D01*
X120154758Y-105263582D01*
X120157380Y-105258038D01*
X120160533Y-105252777D01*
X120164187Y-105247850D01*
X120168306Y-105243306D01*
X120172850Y-105239187D01*
X120177777Y-105235533D01*
X120183038Y-105232380D01*
X120188582Y-105229758D01*
X120194357Y-105227691D01*
X120200307Y-105226201D01*
X120206374Y-105225301D01*
X120212500Y-105225000D01*
X120937500Y-105225000D01*
X120943626Y-105225301D01*
X120943626Y-105225301D01*
G37*
D14*
X120575000Y-105350000D03*
D12*
X119600000Y-108100000D03*
X117125000Y-110575000D03*
X117125000Y-105625000D03*
D10*
G36*
X123030142Y-104051174D02*
G01*
X123053803Y-104054684D01*
X123077007Y-104060496D01*
X123099529Y-104068554D01*
X123121153Y-104078782D01*
X123141670Y-104091079D01*
X123160883Y-104105329D01*
X123178607Y-104121393D01*
X123194671Y-104139117D01*
X123208921Y-104158330D01*
X123221218Y-104178847D01*
X123231446Y-104200471D01*
X123239504Y-104222993D01*
X123245316Y-104246197D01*
X123248826Y-104269858D01*
X123250000Y-104293750D01*
X123250000Y-104781250D01*
X123248826Y-104805142D01*
X123245316Y-104828803D01*
X123239504Y-104852007D01*
X123231446Y-104874529D01*
X123221218Y-104896153D01*
X123208921Y-104916670D01*
X123194671Y-104935883D01*
X123178607Y-104953607D01*
X123160883Y-104969671D01*
X123141670Y-104983921D01*
X123121153Y-104996218D01*
X123099529Y-105006446D01*
X123077007Y-105014504D01*
X123053803Y-105020316D01*
X123030142Y-105023826D01*
X123006250Y-105025000D01*
X122093750Y-105025000D01*
X122069858Y-105023826D01*
X122046197Y-105020316D01*
X122022993Y-105014504D01*
X122000471Y-105006446D01*
X121978847Y-104996218D01*
X121958330Y-104983921D01*
X121939117Y-104969671D01*
X121921393Y-104953607D01*
X121905329Y-104935883D01*
X121891079Y-104916670D01*
X121878782Y-104896153D01*
X121868554Y-104874529D01*
X121860496Y-104852007D01*
X121854684Y-104828803D01*
X121851174Y-104805142D01*
X121850000Y-104781250D01*
X121850000Y-104293750D01*
X121851174Y-104269858D01*
X121854684Y-104246197D01*
X121860496Y-104222993D01*
X121868554Y-104200471D01*
X121878782Y-104178847D01*
X121891079Y-104158330D01*
X121905329Y-104139117D01*
X121921393Y-104121393D01*
X121939117Y-104105329D01*
X121958330Y-104091079D01*
X121978847Y-104078782D01*
X122000471Y-104068554D01*
X122022993Y-104060496D01*
X122046197Y-104054684D01*
X122069858Y-104051174D01*
X122093750Y-104050000D01*
X123006250Y-104050000D01*
X123030142Y-104051174D01*
X123030142Y-104051174D01*
G37*
D11*
X122550000Y-104537500D03*
D10*
G36*
X123030142Y-105926174D02*
G01*
X123053803Y-105929684D01*
X123077007Y-105935496D01*
X123099529Y-105943554D01*
X123121153Y-105953782D01*
X123141670Y-105966079D01*
X123160883Y-105980329D01*
X123178607Y-105996393D01*
X123194671Y-106014117D01*
X123208921Y-106033330D01*
X123221218Y-106053847D01*
X123231446Y-106075471D01*
X123239504Y-106097993D01*
X123245316Y-106121197D01*
X123248826Y-106144858D01*
X123250000Y-106168750D01*
X123250000Y-106656250D01*
X123248826Y-106680142D01*
X123245316Y-106703803D01*
X123239504Y-106727007D01*
X123231446Y-106749529D01*
X123221218Y-106771153D01*
X123208921Y-106791670D01*
X123194671Y-106810883D01*
X123178607Y-106828607D01*
X123160883Y-106844671D01*
X123141670Y-106858921D01*
X123121153Y-106871218D01*
X123099529Y-106881446D01*
X123077007Y-106889504D01*
X123053803Y-106895316D01*
X123030142Y-106898826D01*
X123006250Y-106900000D01*
X122093750Y-106900000D01*
X122069858Y-106898826D01*
X122046197Y-106895316D01*
X122022993Y-106889504D01*
X122000471Y-106881446D01*
X121978847Y-106871218D01*
X121958330Y-106858921D01*
X121939117Y-106844671D01*
X121921393Y-106828607D01*
X121905329Y-106810883D01*
X121891079Y-106791670D01*
X121878782Y-106771153D01*
X121868554Y-106749529D01*
X121860496Y-106727007D01*
X121854684Y-106703803D01*
X121851174Y-106680142D01*
X121850000Y-106656250D01*
X121850000Y-106168750D01*
X121851174Y-106144858D01*
X121854684Y-106121197D01*
X121860496Y-106097993D01*
X121868554Y-106075471D01*
X121878782Y-106053847D01*
X121891079Y-106033330D01*
X121905329Y-106014117D01*
X121921393Y-105996393D01*
X121939117Y-105980329D01*
X121958330Y-105966079D01*
X121978847Y-105953782D01*
X122000471Y-105943554D01*
X122022993Y-105935496D01*
X122046197Y-105929684D01*
X122069858Y-105926174D01*
X122093750Y-105925000D01*
X123006250Y-105925000D01*
X123030142Y-105926174D01*
X123030142Y-105926174D01*
G37*
D11*
X122550000Y-106412500D03*
D15*
X128225000Y-104600000D03*
X126575000Y-104600000D03*
D16*
X126850000Y-110550000D03*
D17*
X117410000Y-101795000D03*
X125030000Y-101795000D03*
X122490000Y-101795000D03*
X127570000Y-101795000D03*
X114870000Y-101795000D03*
X119950000Y-101795000D03*
X112330000Y-101795000D03*
X109790000Y-101800000D03*
X109790000Y-114600000D03*
X112330000Y-114595000D03*
X119950000Y-114595000D03*
X114870000Y-114595000D03*
X127570000Y-114595000D03*
X122490000Y-114595000D03*
X125030000Y-114595000D03*
X117410000Y-114595000D03*
D18*
X112350000Y-112825000D03*
X112300000Y-107125000D03*
X127350000Y-112550000D03*
X118587500Y-103787500D03*
X112675000Y-108350000D03*
X121000000Y-104450000D03*
X120800000Y-111900000D03*
X122550000Y-103625000D03*
X123975000Y-112250000D03*
X115924990Y-103700010D03*
X109750000Y-112825000D03*
X113475000Y-112800000D03*
X113012500Y-111562500D03*
X122050000Y-109550000D03*
X122125000Y-108625000D03*
X112825000Y-105150000D03*
X114100000Y-103675000D03*
D19*
X123350000Y-106412500D02*
X123462500Y-106300000D01*
X122550000Y-106412500D02*
X123350000Y-106412500D01*
X123462500Y-106300000D02*
X123900000Y-106300000D01*
X123900000Y-106300000D02*
X123900000Y-106100000D01*
X123900000Y-106100000D02*
X123300000Y-106100000D01*
X123300000Y-106100000D02*
X123300000Y-106300000D01*
X127350000Y-112550000D02*
X128162500Y-112550000D01*
X110100000Y-102100000D02*
X109800000Y-101800000D01*
X110300000Y-101800000D02*
X109800000Y-101800000D01*
X109750000Y-101850000D02*
X109800000Y-101800000D01*
X109800000Y-102900000D02*
X109312500Y-103387500D01*
X109800000Y-101800000D02*
X109800000Y-102900000D01*
X121325010Y-106575010D02*
X121100000Y-106350000D01*
X121100000Y-107850000D02*
X121325010Y-107624990D01*
X121325010Y-107624990D02*
X121325010Y-106575010D01*
X120575000Y-107850000D02*
X121100000Y-107850000D01*
X118375000Y-104650000D02*
X118875000Y-104650000D01*
X121100000Y-106350000D02*
X120575000Y-106350000D01*
X121325010Y-106124990D02*
X121100000Y-106350000D01*
X121325010Y-106124990D02*
X121325010Y-106575010D01*
X118375000Y-104000000D02*
X118587500Y-103787500D01*
X118375000Y-104650000D02*
X118375000Y-104000000D01*
X109868737Y-107731237D02*
X109312500Y-107175000D01*
X111641860Y-108200010D02*
X110337510Y-108200010D01*
X111791850Y-108350000D02*
X111641860Y-108200010D01*
X110337510Y-108200010D02*
X109868737Y-107731237D01*
X113675000Y-108350000D02*
X112675000Y-108350000D01*
X109312500Y-103387500D02*
X109312500Y-105200000D01*
X109312500Y-105200000D02*
X109312500Y-107175000D01*
X109312500Y-109250000D02*
X109312500Y-107175000D01*
X112675000Y-108350000D02*
X111791850Y-108350000D01*
X121325010Y-104775010D02*
X121000000Y-104450000D01*
X121325010Y-106124990D02*
X121325010Y-104775010D01*
X120125000Y-104400000D02*
X120950000Y-104400000D01*
X119875000Y-104650000D02*
X120125000Y-104400000D01*
X120950000Y-104400000D02*
X121000000Y-104450000D01*
X120800000Y-111900000D02*
X120800000Y-111900000D01*
X120800000Y-111900000D02*
X120800000Y-112000000D01*
X120575000Y-111675000D02*
X120800000Y-111900000D01*
X120575000Y-110850000D02*
X120575000Y-111675000D01*
X122550000Y-103625000D02*
X122550000Y-103575000D01*
X122550000Y-103725000D02*
X122550000Y-103625000D01*
X122550000Y-104537500D02*
X122550000Y-103625000D01*
X124275000Y-112550000D02*
X123975000Y-112250000D01*
X126287500Y-112550000D02*
X124275000Y-112550000D01*
X119375000Y-103925000D02*
X119375000Y-104650000D01*
X119675000Y-103625000D02*
X119375000Y-103925000D01*
X122550000Y-103625000D02*
X119675000Y-103625000D01*
X116570001Y-102649999D02*
X117420000Y-101800000D01*
X115924990Y-103295010D02*
X116570001Y-102649999D01*
X115924990Y-103700010D02*
X115924990Y-103295010D01*
X111187500Y-109350000D02*
X111187500Y-109250000D01*
X109312500Y-111225000D02*
X111187500Y-109350000D01*
X109312500Y-112387500D02*
X109750000Y-112825000D01*
X109312500Y-111225000D02*
X109312500Y-112387500D01*
X115875000Y-103750000D02*
X115924990Y-103700010D01*
X115875000Y-104650000D02*
X115875000Y-103750000D01*
X112100000Y-111600000D02*
X113300000Y-112800000D01*
X113300000Y-112800000D02*
X113475000Y-112800000D01*
X112650000Y-109350000D02*
X112100000Y-109900000D01*
X112100000Y-109900000D02*
X112100000Y-111600000D01*
X113675000Y-109350000D02*
X112650000Y-109350000D01*
X112650000Y-111200000D02*
X113012500Y-111562500D01*
X112975000Y-110350000D02*
X112650000Y-110675000D01*
X112650000Y-110675000D02*
X112650000Y-111200000D01*
X113675000Y-110350000D02*
X112975000Y-110350000D01*
X120575000Y-109350000D02*
X121850000Y-109350000D01*
X121850000Y-109350000D02*
X122050000Y-109550000D01*
X121900000Y-108850000D02*
X122125000Y-108625000D01*
X120575000Y-108850000D02*
X121900000Y-108850000D01*
X121474998Y-108350000D02*
X120575000Y-108350000D01*
X121824999Y-107999999D02*
X121474998Y-108350000D01*
X122425001Y-107999999D02*
X121824999Y-107999999D01*
X122750001Y-108324999D02*
X122425001Y-107999999D01*
X127580000Y-114600000D02*
X126730001Y-113750001D01*
X126730001Y-113750001D02*
X125929003Y-113750001D01*
X125929003Y-113750001D02*
X125478993Y-113299991D01*
X125478993Y-113299991D02*
X123849991Y-113299991D01*
X123849991Y-113299991D02*
X122750001Y-112200001D01*
X122750001Y-112200001D02*
X122750001Y-108324999D01*
X124190001Y-113750001D02*
X125040000Y-114600000D01*
X123600001Y-113750001D02*
X124190001Y-113750001D01*
X122200000Y-110638590D02*
X122200000Y-112350000D01*
X121411410Y-109850000D02*
X122200000Y-110638590D01*
X122200000Y-112350000D02*
X123600001Y-113750001D01*
X120575000Y-109850000D02*
X121411410Y-109850000D01*
X119875000Y-114515000D02*
X119960000Y-114600000D01*
X119875000Y-111550000D02*
X119875000Y-114515000D01*
X121600000Y-113700000D02*
X122500000Y-114600000D01*
X121600000Y-110675000D02*
X121600000Y-113700000D01*
X121275000Y-110350000D02*
X121600000Y-110675000D01*
X120575000Y-110350000D02*
X121275000Y-110350000D01*
X119375000Y-112645000D02*
X117420000Y-114600000D01*
X119375000Y-111550000D02*
X119375000Y-112645000D01*
X116430000Y-113050000D02*
X114880000Y-114600000D01*
X118175000Y-113050000D02*
X116430000Y-113050000D01*
X118875000Y-112350000D02*
X118175000Y-113050000D01*
X118875000Y-111550000D02*
X118875000Y-112350000D01*
X113675000Y-105350000D02*
X113075000Y-105350000D01*
X113075000Y-105350000D02*
X113025000Y-105350000D01*
X113025000Y-105350000D02*
X112825000Y-105150000D01*
X114375000Y-104650000D02*
X114375000Y-103950000D01*
X114375000Y-103950000D02*
X114100000Y-103675000D01*
X123864999Y-102975001D02*
X124190001Y-102649999D01*
X118349999Y-102975001D02*
X123864999Y-102975001D01*
X117375000Y-103950000D02*
X118349999Y-102975001D01*
X124190001Y-102649999D02*
X125040000Y-101800000D01*
X117375000Y-104650000D02*
X117375000Y-103950000D01*
D20*
G36*
X128473000Y-110673000D02*
G01*
X126727000Y-110673000D01*
X126727000Y-110427000D01*
X128100000Y-110427000D01*
X128124776Y-110424560D01*
X128148601Y-110417333D01*
X128170557Y-110405597D01*
X128189803Y-110389803D01*
X128205597Y-110370557D01*
X128217333Y-110348601D01*
X128224560Y-110324776D01*
X128227000Y-110300000D01*
X128227000Y-104327000D01*
X128473000Y-104327000D01*
X128473000Y-110673000D01*
X128473000Y-110673000D01*
G37*
X128473000Y-110673000D02*
X126727000Y-110673000D01*
X126727000Y-110427000D01*
X128100000Y-110427000D01*
X128124776Y-110424560D01*
X128148601Y-110417333D01*
X128170557Y-110405597D01*
X128189803Y-110389803D01*
X128205597Y-110370557D01*
X128217333Y-110348601D01*
X128224560Y-110324776D01*
X128227000Y-110300000D01*
X128227000Y-104327000D01*
X128473000Y-104327000D01*
X128473000Y-110673000D01*
G36*
X126723000Y-106303000D02*
G01*
X123727000Y-106303000D01*
X123727000Y-105757000D01*
X126000000Y-105757000D01*
X126024776Y-105754560D01*
X126048601Y-105747333D01*
X126070557Y-105735597D01*
X126089803Y-105719803D01*
X126105597Y-105700557D01*
X126117333Y-105678601D01*
X126124560Y-105654776D01*
X126127000Y-105630000D01*
X126127000Y-104327000D01*
X126723000Y-104327000D01*
X126723000Y-106303000D01*
X126723000Y-106303000D01*
G37*
X126723000Y-106303000D02*
X123727000Y-106303000D01*
X123727000Y-105757000D01*
X126000000Y-105757000D01*
X126024776Y-105754560D01*
X126048601Y-105747333D01*
X126070557Y-105735597D01*
X126089803Y-105719803D01*
X126105597Y-105700557D01*
X126117333Y-105678601D01*
X126124560Y-105654776D01*
X126127000Y-105630000D01*
X126127000Y-104327000D01*
X126723000Y-104327000D01*
X126723000Y-106303000D01*
G36*
X111314500Y-111098000D02*
G01*
X111334500Y-111098000D01*
X111334500Y-111352000D01*
X111314500Y-111352000D01*
X111314500Y-112401250D01*
X111473250Y-112560000D01*
X111675000Y-112563072D01*
X111799482Y-112550812D01*
X111919180Y-112514502D01*
X112029494Y-112455537D01*
X112070516Y-112421871D01*
X112765034Y-113116391D01*
X112786431Y-113168048D01*
X112871464Y-113295309D01*
X112979691Y-113403536D01*
X113106952Y-113488569D01*
X113248357Y-113547141D01*
X113398472Y-113577000D01*
X113551528Y-113577000D01*
X113701643Y-113547141D01*
X113843048Y-113488569D01*
X113970309Y-113403536D01*
X114078536Y-113295309D01*
X114163569Y-113168048D01*
X114222141Y-113026643D01*
X114252000Y-112876528D01*
X114252000Y-112723472D01*
X114222141Y-112573357D01*
X114163569Y-112431952D01*
X114162589Y-112430485D01*
X114206799Y-112443896D01*
X114312500Y-112454307D01*
X114437500Y-112454307D01*
X114543201Y-112443896D01*
X114625000Y-112419083D01*
X114706799Y-112443896D01*
X114812500Y-112454307D01*
X114937500Y-112454307D01*
X115043201Y-112443896D01*
X115125000Y-112419083D01*
X115206799Y-112443896D01*
X115312500Y-112454307D01*
X115437500Y-112454307D01*
X115543201Y-112443896D01*
X115625000Y-112419083D01*
X115706799Y-112443896D01*
X115812500Y-112454307D01*
X115937500Y-112454307D01*
X116043201Y-112443896D01*
X116125000Y-112419083D01*
X116206799Y-112443896D01*
X116312500Y-112454307D01*
X116336397Y-112454307D01*
X116311988Y-112456711D01*
X116198510Y-112491134D01*
X116093929Y-112547034D01*
X116002263Y-112622263D01*
X115983416Y-112645228D01*
X115292263Y-113336382D01*
X115130137Y-113287201D01*
X114935184Y-113268000D01*
X114804816Y-113268000D01*
X114609863Y-113287201D01*
X114359722Y-113363081D01*
X114129192Y-113486302D01*
X113927130Y-113652130D01*
X113761302Y-113854192D01*
X113638081Y-114084722D01*
X113600000Y-114210257D01*
X113561919Y-114084722D01*
X113438698Y-113854192D01*
X113272870Y-113652130D01*
X113070808Y-113486302D01*
X112840278Y-113363081D01*
X112590137Y-113287201D01*
X112395184Y-113268000D01*
X112264816Y-113268000D01*
X112069863Y-113287201D01*
X111819722Y-113363081D01*
X111589192Y-113486302D01*
X111387130Y-113652130D01*
X111221302Y-113854192D01*
X111098081Y-114084722D01*
X111059242Y-114212757D01*
X111021919Y-114089722D01*
X110898698Y-113859192D01*
X110732870Y-113657130D01*
X110530808Y-113491302D01*
X110303853Y-113369992D01*
X110353536Y-113320309D01*
X110438569Y-113193048D01*
X110497141Y-113051643D01*
X110527000Y-112901528D01*
X110527000Y-112748472D01*
X110497141Y-112598357D01*
X110463354Y-112516787D01*
X110575518Y-112550812D01*
X110700000Y-112563072D01*
X110901750Y-112560000D01*
X111060500Y-112401250D01*
X111060500Y-111352000D01*
X111040500Y-111352000D01*
X111040500Y-111098000D01*
X111060500Y-111098000D01*
X111060500Y-111078000D01*
X111314500Y-111078000D01*
X111314500Y-111098000D01*
X111314500Y-111098000D01*
G37*
X111314500Y-111098000D02*
X111334500Y-111098000D01*
X111334500Y-111352000D01*
X111314500Y-111352000D01*
X111314500Y-112401250D01*
X111473250Y-112560000D01*
X111675000Y-112563072D01*
X111799482Y-112550812D01*
X111919180Y-112514502D01*
X112029494Y-112455537D01*
X112070516Y-112421871D01*
X112765034Y-113116391D01*
X112786431Y-113168048D01*
X112871464Y-113295309D01*
X112979691Y-113403536D01*
X113106952Y-113488569D01*
X113248357Y-113547141D01*
X113398472Y-113577000D01*
X113551528Y-113577000D01*
X113701643Y-113547141D01*
X113843048Y-113488569D01*
X113970309Y-113403536D01*
X114078536Y-113295309D01*
X114163569Y-113168048D01*
X114222141Y-113026643D01*
X114252000Y-112876528D01*
X114252000Y-112723472D01*
X114222141Y-112573357D01*
X114163569Y-112431952D01*
X114162589Y-112430485D01*
X114206799Y-112443896D01*
X114312500Y-112454307D01*
X114437500Y-112454307D01*
X114543201Y-112443896D01*
X114625000Y-112419083D01*
X114706799Y-112443896D01*
X114812500Y-112454307D01*
X114937500Y-112454307D01*
X115043201Y-112443896D01*
X115125000Y-112419083D01*
X115206799Y-112443896D01*
X115312500Y-112454307D01*
X115437500Y-112454307D01*
X115543201Y-112443896D01*
X115625000Y-112419083D01*
X115706799Y-112443896D01*
X115812500Y-112454307D01*
X115937500Y-112454307D01*
X116043201Y-112443896D01*
X116125000Y-112419083D01*
X116206799Y-112443896D01*
X116312500Y-112454307D01*
X116336397Y-112454307D01*
X116311988Y-112456711D01*
X116198510Y-112491134D01*
X116093929Y-112547034D01*
X116002263Y-112622263D01*
X115983416Y-112645228D01*
X115292263Y-113336382D01*
X115130137Y-113287201D01*
X114935184Y-113268000D01*
X114804816Y-113268000D01*
X114609863Y-113287201D01*
X114359722Y-113363081D01*
X114129192Y-113486302D01*
X113927130Y-113652130D01*
X113761302Y-113854192D01*
X113638081Y-114084722D01*
X113600000Y-114210257D01*
X113561919Y-114084722D01*
X113438698Y-113854192D01*
X113272870Y-113652130D01*
X113070808Y-113486302D01*
X112840278Y-113363081D01*
X112590137Y-113287201D01*
X112395184Y-113268000D01*
X112264816Y-113268000D01*
X112069863Y-113287201D01*
X111819722Y-113363081D01*
X111589192Y-113486302D01*
X111387130Y-113652130D01*
X111221302Y-113854192D01*
X111098081Y-114084722D01*
X111059242Y-114212757D01*
X111021919Y-114089722D01*
X110898698Y-113859192D01*
X110732870Y-113657130D01*
X110530808Y-113491302D01*
X110303853Y-113369992D01*
X110353536Y-113320309D01*
X110438569Y-113193048D01*
X110497141Y-113051643D01*
X110527000Y-112901528D01*
X110527000Y-112748472D01*
X110497141Y-112598357D01*
X110463354Y-112516787D01*
X110575518Y-112550812D01*
X110700000Y-112563072D01*
X110901750Y-112560000D01*
X111060500Y-112401250D01*
X111060500Y-111352000D01*
X111040500Y-111352000D01*
X111040500Y-111098000D01*
X111060500Y-111098000D01*
X111060500Y-111078000D01*
X111314500Y-111078000D01*
X111314500Y-111098000D01*
G36*
X128289500Y-112423000D02*
G01*
X128309500Y-112423000D01*
X128309500Y-112677000D01*
X128289500Y-112677000D01*
X128289500Y-112697000D01*
X128035500Y-112697000D01*
X128035500Y-112677000D01*
X128015500Y-112677000D01*
X128015500Y-112423000D01*
X128035500Y-112423000D01*
X128035500Y-112403000D01*
X128289500Y-112403000D01*
X128289500Y-112423000D01*
X128289500Y-112423000D01*
G37*
X128289500Y-112423000D02*
X128309500Y-112423000D01*
X128309500Y-112677000D01*
X128289500Y-112677000D01*
X128289500Y-112697000D01*
X128035500Y-112697000D01*
X128035500Y-112677000D01*
X128015500Y-112677000D01*
X128015500Y-112423000D01*
X128035500Y-112423000D01*
X128035500Y-112403000D01*
X128289500Y-112403000D01*
X128289500Y-112423000D01*
G36*
X117272000Y-108039110D02*
G01*
X117272000Y-108160890D01*
X117185890Y-108247000D01*
X117064110Y-108247000D01*
X116978000Y-108160890D01*
X116978000Y-108039110D01*
X117064110Y-107953000D01*
X117185890Y-107953000D01*
X117272000Y-108039110D01*
X117272000Y-108039110D01*
G37*
X117272000Y-108039110D02*
X117272000Y-108160890D01*
X117185890Y-108247000D01*
X117064110Y-108247000D01*
X116978000Y-108160890D01*
X116978000Y-108039110D01*
X117064110Y-107953000D01*
X117185890Y-107953000D01*
X117272000Y-108039110D01*
G36*
X112457000Y-101668000D02*
G01*
X112477000Y-101668000D01*
X112477000Y-101922000D01*
X112457000Y-101922000D01*
X112457000Y-103115155D01*
X112686890Y-103236476D01*
X112834099Y-103191825D01*
X113096920Y-103066641D01*
X113330269Y-102892588D01*
X113525178Y-102676355D01*
X113674157Y-102426252D01*
X113685560Y-102394105D01*
X113761302Y-102535808D01*
X113927130Y-102737870D01*
X114122249Y-102898000D01*
X114023472Y-102898000D01*
X113873357Y-102927859D01*
X113731952Y-102986431D01*
X113604691Y-103071464D01*
X113496464Y-103179691D01*
X113411431Y-103306952D01*
X113352859Y-103448357D01*
X113323000Y-103598472D01*
X113323000Y-103751528D01*
X113352859Y-103901643D01*
X113411431Y-104043048D01*
X113496464Y-104170309D01*
X113604691Y-104278536D01*
X113731952Y-104363569D01*
X113770693Y-104379616D01*
X113770693Y-104745693D01*
X113489342Y-104745693D01*
X113428536Y-104654691D01*
X113320309Y-104546464D01*
X113193048Y-104461431D01*
X113051643Y-104402859D01*
X112901528Y-104373000D01*
X112748472Y-104373000D01*
X112598357Y-104402859D01*
X112456952Y-104461431D01*
X112329691Y-104546464D01*
X112312601Y-104563554D01*
X112313072Y-104500000D01*
X112300812Y-104375518D01*
X112264502Y-104255820D01*
X112205537Y-104145506D01*
X112126185Y-104048815D01*
X112029494Y-103969463D01*
X111919180Y-103910498D01*
X111799482Y-103874188D01*
X111675000Y-103861928D01*
X111473250Y-103865000D01*
X111314500Y-104023750D01*
X111314500Y-105073000D01*
X111334500Y-105073000D01*
X111334500Y-105327000D01*
X111314500Y-105327000D01*
X111314500Y-107048000D01*
X112151250Y-107048000D01*
X112310000Y-106889250D01*
X112313072Y-106475000D01*
X112300812Y-106350518D01*
X112264502Y-106230820D01*
X112241347Y-106187500D01*
X112264502Y-106144180D01*
X112300812Y-106024482D01*
X112313072Y-105900000D01*
X112311854Y-105735699D01*
X112329691Y-105753536D01*
X112456952Y-105838569D01*
X112598357Y-105897141D01*
X112748472Y-105927000D01*
X112772121Y-105927000D01*
X112781104Y-106018201D01*
X112805917Y-106100000D01*
X112781104Y-106181799D01*
X112770693Y-106287500D01*
X112770693Y-106412500D01*
X112781104Y-106518201D01*
X112805917Y-106600000D01*
X112781104Y-106681799D01*
X112770693Y-106787500D01*
X112770693Y-106912500D01*
X112781104Y-107018201D01*
X112805917Y-107100000D01*
X112781104Y-107181799D01*
X112770693Y-107287500D01*
X112770693Y-107412500D01*
X112781104Y-107518201D01*
X112800694Y-107582779D01*
X112751528Y-107573000D01*
X112598472Y-107573000D01*
X112448357Y-107602859D01*
X112311474Y-107659558D01*
X112310000Y-107460750D01*
X112151250Y-107302000D01*
X111314500Y-107302000D01*
X111314500Y-107322000D01*
X111060500Y-107322000D01*
X111060500Y-107302000D01*
X111040500Y-107302000D01*
X111040500Y-107048000D01*
X111060500Y-107048000D01*
X111060500Y-105327000D01*
X111040500Y-105327000D01*
X111040500Y-105073000D01*
X111060500Y-105073000D01*
X111060500Y-104023750D01*
X110901750Y-103865000D01*
X110700000Y-103861928D01*
X110575518Y-103874188D01*
X110455820Y-103910498D01*
X110345506Y-103969463D01*
X110248815Y-104048815D01*
X110169463Y-104145506D01*
X110110498Y-104255820D01*
X110104073Y-104277000D01*
X110067529Y-104232471D01*
X109957959Y-104142550D01*
X109914500Y-104119321D01*
X109914500Y-103636856D01*
X110204776Y-103346580D01*
X110227737Y-103327737D01*
X110246580Y-103304777D01*
X110246584Y-103304773D01*
X110300620Y-103238929D01*
X110302966Y-103236071D01*
X110358866Y-103131490D01*
X110393289Y-103018012D01*
X110397012Y-102980214D01*
X110530808Y-102908698D01*
X110732870Y-102742870D01*
X110898698Y-102540808D01*
X110975506Y-102397111D01*
X110985843Y-102426252D01*
X111134822Y-102676355D01*
X111329731Y-102892588D01*
X111563080Y-103066641D01*
X111825901Y-103191825D01*
X111973110Y-103236476D01*
X112203000Y-103115155D01*
X112203000Y-101922000D01*
X112183000Y-101922000D01*
X112183000Y-101668000D01*
X112203000Y-101668000D01*
X112203000Y-101648000D01*
X112457000Y-101648000D01*
X112457000Y-101668000D01*
X112457000Y-101668000D01*
G37*
X112457000Y-101668000D02*
X112477000Y-101668000D01*
X112477000Y-101922000D01*
X112457000Y-101922000D01*
X112457000Y-103115155D01*
X112686890Y-103236476D01*
X112834099Y-103191825D01*
X113096920Y-103066641D01*
X113330269Y-102892588D01*
X113525178Y-102676355D01*
X113674157Y-102426252D01*
X113685560Y-102394105D01*
X113761302Y-102535808D01*
X113927130Y-102737870D01*
X114122249Y-102898000D01*
X114023472Y-102898000D01*
X113873357Y-102927859D01*
X113731952Y-102986431D01*
X113604691Y-103071464D01*
X113496464Y-103179691D01*
X113411431Y-103306952D01*
X113352859Y-103448357D01*
X113323000Y-103598472D01*
X113323000Y-103751528D01*
X113352859Y-103901643D01*
X113411431Y-104043048D01*
X113496464Y-104170309D01*
X113604691Y-104278536D01*
X113731952Y-104363569D01*
X113770693Y-104379616D01*
X113770693Y-104745693D01*
X113489342Y-104745693D01*
X113428536Y-104654691D01*
X113320309Y-104546464D01*
X113193048Y-104461431D01*
X113051643Y-104402859D01*
X112901528Y-104373000D01*
X112748472Y-104373000D01*
X112598357Y-104402859D01*
X112456952Y-104461431D01*
X112329691Y-104546464D01*
X112312601Y-104563554D01*
X112313072Y-104500000D01*
X112300812Y-104375518D01*
X112264502Y-104255820D01*
X112205537Y-104145506D01*
X112126185Y-104048815D01*
X112029494Y-103969463D01*
X111919180Y-103910498D01*
X111799482Y-103874188D01*
X111675000Y-103861928D01*
X111473250Y-103865000D01*
X111314500Y-104023750D01*
X111314500Y-105073000D01*
X111334500Y-105073000D01*
X111334500Y-105327000D01*
X111314500Y-105327000D01*
X111314500Y-107048000D01*
X112151250Y-107048000D01*
X112310000Y-106889250D01*
X112313072Y-106475000D01*
X112300812Y-106350518D01*
X112264502Y-106230820D01*
X112241347Y-106187500D01*
X112264502Y-106144180D01*
X112300812Y-106024482D01*
X112313072Y-105900000D01*
X112311854Y-105735699D01*
X112329691Y-105753536D01*
X112456952Y-105838569D01*
X112598357Y-105897141D01*
X112748472Y-105927000D01*
X112772121Y-105927000D01*
X112781104Y-106018201D01*
X112805917Y-106100000D01*
X112781104Y-106181799D01*
X112770693Y-106287500D01*
X112770693Y-106412500D01*
X112781104Y-106518201D01*
X112805917Y-106600000D01*
X112781104Y-106681799D01*
X112770693Y-106787500D01*
X112770693Y-106912500D01*
X112781104Y-107018201D01*
X112805917Y-107100000D01*
X112781104Y-107181799D01*
X112770693Y-107287500D01*
X112770693Y-107412500D01*
X112781104Y-107518201D01*
X112800694Y-107582779D01*
X112751528Y-107573000D01*
X112598472Y-107573000D01*
X112448357Y-107602859D01*
X112311474Y-107659558D01*
X112310000Y-107460750D01*
X112151250Y-107302000D01*
X111314500Y-107302000D01*
X111314500Y-107322000D01*
X111060500Y-107322000D01*
X111060500Y-107302000D01*
X111040500Y-107302000D01*
X111040500Y-107048000D01*
X111060500Y-107048000D01*
X111060500Y-105327000D01*
X111040500Y-105327000D01*
X111040500Y-105073000D01*
X111060500Y-105073000D01*
X111060500Y-104023750D01*
X110901750Y-103865000D01*
X110700000Y-103861928D01*
X110575518Y-103874188D01*
X110455820Y-103910498D01*
X110345506Y-103969463D01*
X110248815Y-104048815D01*
X110169463Y-104145506D01*
X110110498Y-104255820D01*
X110104073Y-104277000D01*
X110067529Y-104232471D01*
X109957959Y-104142550D01*
X109914500Y-104119321D01*
X109914500Y-103636856D01*
X110204776Y-103346580D01*
X110227737Y-103327737D01*
X110246580Y-103304777D01*
X110246584Y-103304773D01*
X110300620Y-103238929D01*
X110302966Y-103236071D01*
X110358866Y-103131490D01*
X110393289Y-103018012D01*
X110397012Y-102980214D01*
X110530808Y-102908698D01*
X110732870Y-102742870D01*
X110898698Y-102540808D01*
X110975506Y-102397111D01*
X110985843Y-102426252D01*
X111134822Y-102676355D01*
X111329731Y-102892588D01*
X111563080Y-103066641D01*
X111825901Y-103191825D01*
X111973110Y-103236476D01*
X112203000Y-103115155D01*
X112203000Y-101922000D01*
X112183000Y-101922000D01*
X112183000Y-101668000D01*
X112203000Y-101668000D01*
X112203000Y-101648000D01*
X112457000Y-101648000D01*
X112457000Y-101668000D01*
M02*
