M48
; DRILL file {KiCad (5.1.4-0-10_14)} date 2020 December 23, Wednesday 13:56:40
; FORMAT={-:-/ absolute / metric / decimal}
; #@! TF.CreationDate,2020-12-23T13:56:40+02:00
; #@! TF.GenerationSoftware,Kicad,Pcbnew,(5.1.4-0-10_14)
FMAT,2
METRIC
T1C0.200
T2C0.300
T3C1.000
%
G90
G05
T1
X114.65Y-108.28
X117.125Y-105.805
X117.125Y-108.28
X117.125Y-110.755
X119.6Y-108.28
T2
X110.044Y-110.494
X110.05Y-112.9
X112.297Y-105.631
X112.309Y-106.521
X112.32Y-107.4
X112.5Y-108.8
X112.5Y-109.8
X113.7Y-104.2
X116.15Y-103.81
X118.625Y-104.05
X120.95Y-111.8
X121.0Y-104.825
X121.65Y-110.55
X122.1Y-108.7
X124.41Y-112.44
T3
X109.79Y-101.8
X112.33Y-101.795
X114.87Y-101.795
X117.41Y-101.795
X119.95Y-101.795
X122.49Y-101.795
X125.03Y-101.795
X127.57Y-101.795
X109.79Y-114.6
X112.33Y-114.595
X114.87Y-114.595
X117.41Y-114.595
X119.95Y-114.595
X122.49Y-114.595
X125.03Y-114.595
X127.57Y-114.595
T0
M30
