G04 #@! TF.GenerationSoftware,KiCad,Pcbnew,(5.1.4-0-10_14)*
G04 #@! TF.CreationDate,2020-07-29T13:34:46+03:00*
G04 #@! TF.ProjectId,esp32-pico-module,65737033-322d-4706-9963-6f2d6d6f6475,rev?*
G04 #@! TF.SameCoordinates,Original*
G04 #@! TF.FileFunction,Legend,Top*
G04 #@! TF.FilePolarity,Positive*
%FSLAX46Y46*%
G04 Gerber Fmt 4.6, Leading zero omitted, Abs format (unit mm)*
G04 Created by KiCad (PCBNEW (5.1.4-0-10_14)) date 2020-07-29 13:34:46*
%MOMM*%
%LPD*%
G04 APERTURE LIST*
%ADD10C,0.120000*%
G04 APERTURE END LIST*
D10*
X127790476Y-112661904D02*
X127409523Y-112661904D01*
X127371428Y-113042857D01*
X127409523Y-113004761D01*
X127485714Y-112966666D01*
X127676190Y-112966666D01*
X127752380Y-113004761D01*
X127790476Y-113042857D01*
X127828571Y-113119047D01*
X127828571Y-113309523D01*
X127790476Y-113385714D01*
X127752380Y-113423809D01*
X127676190Y-113461904D01*
X127485714Y-113461904D01*
X127409523Y-113423809D01*
X127371428Y-113385714D01*
X123944666Y-107261666D02*
X124344666Y-107261666D01*
X124144666Y-107961666D02*
X124144666Y-107261666D01*
X124578000Y-107961666D02*
X124578000Y-107261666D01*
X124878000Y-107961666D02*
X124878000Y-107595000D01*
X124844666Y-107528333D01*
X124778000Y-107495000D01*
X124678000Y-107495000D01*
X124611333Y-107528333D01*
X124578000Y-107561666D01*
X125211333Y-107961666D02*
X125211333Y-107495000D01*
X125211333Y-107261666D02*
X125178000Y-107295000D01*
X125211333Y-107328333D01*
X125244666Y-107295000D01*
X125211333Y-107261666D01*
X125211333Y-107328333D01*
X125544666Y-107495000D02*
X125544666Y-107961666D01*
X125544666Y-107561666D02*
X125578000Y-107528333D01*
X125644666Y-107495000D01*
X125744666Y-107495000D01*
X125811333Y-107528333D01*
X125844666Y-107595000D01*
X125844666Y-107961666D01*
X126478000Y-107495000D02*
X126478000Y-108061666D01*
X126444666Y-108128333D01*
X126411333Y-108161666D01*
X126344666Y-108195000D01*
X126244666Y-108195000D01*
X126178000Y-108161666D01*
X126478000Y-107928333D02*
X126411333Y-107961666D01*
X126278000Y-107961666D01*
X126211333Y-107928333D01*
X126178000Y-107895000D01*
X126144666Y-107828333D01*
X126144666Y-107628333D01*
X126178000Y-107561666D01*
X126211333Y-107528333D01*
X126278000Y-107495000D01*
X126411333Y-107495000D01*
X126478000Y-107528333D01*
X126911333Y-107961666D02*
X126844666Y-107928333D01*
X126811333Y-107861666D01*
X126811333Y-107261666D01*
X127444666Y-107928333D02*
X127378000Y-107961666D01*
X127244666Y-107961666D01*
X127178000Y-107928333D01*
X127144666Y-107861666D01*
X127144666Y-107595000D01*
X127178000Y-107528333D01*
X127244666Y-107495000D01*
X127378000Y-107495000D01*
X127444666Y-107528333D01*
X127478000Y-107595000D01*
X127478000Y-107661666D01*
X127144666Y-107728333D01*
X127778000Y-107961666D02*
X127778000Y-107495000D01*
X127778000Y-107628333D02*
X127811333Y-107561666D01*
X127844666Y-107528333D01*
X127911333Y-107495000D01*
X127978000Y-107495000D01*
X124044666Y-108765000D02*
X124278000Y-108765000D01*
X124378000Y-109131666D02*
X124044666Y-109131666D01*
X124044666Y-108431666D01*
X124378000Y-108431666D01*
X124644666Y-109098333D02*
X124744666Y-109131666D01*
X124911333Y-109131666D01*
X124978000Y-109098333D01*
X125011333Y-109065000D01*
X125044666Y-108998333D01*
X125044666Y-108931666D01*
X125011333Y-108865000D01*
X124978000Y-108831666D01*
X124911333Y-108798333D01*
X124778000Y-108765000D01*
X124711333Y-108731666D01*
X124678000Y-108698333D01*
X124644666Y-108631666D01*
X124644666Y-108565000D01*
X124678000Y-108498333D01*
X124711333Y-108465000D01*
X124778000Y-108431666D01*
X124944666Y-108431666D01*
X125044666Y-108465000D01*
X125344666Y-109131666D02*
X125344666Y-108431666D01*
X125611333Y-108431666D01*
X125678000Y-108465000D01*
X125711333Y-108498333D01*
X125744666Y-108565000D01*
X125744666Y-108665000D01*
X125711333Y-108731666D01*
X125678000Y-108765000D01*
X125611333Y-108798333D01*
X125344666Y-108798333D01*
X125978000Y-108431666D02*
X126411333Y-108431666D01*
X126178000Y-108698333D01*
X126278000Y-108698333D01*
X126344666Y-108731666D01*
X126378000Y-108765000D01*
X126411333Y-108831666D01*
X126411333Y-108998333D01*
X126378000Y-109065000D01*
X126344666Y-109098333D01*
X126278000Y-109131666D01*
X126078000Y-109131666D01*
X126011333Y-109098333D01*
X125978000Y-109065000D01*
X126678000Y-108498333D02*
X126711333Y-108465000D01*
X126778000Y-108431666D01*
X126944666Y-108431666D01*
X127011333Y-108465000D01*
X127044666Y-108498333D01*
X127078000Y-108565000D01*
X127078000Y-108631666D01*
X127044666Y-108731666D01*
X126644666Y-109131666D01*
X127078000Y-109131666D01*
X124044666Y-110301666D02*
X124044666Y-109601666D01*
X124278000Y-110101666D01*
X124511333Y-109601666D01*
X124511333Y-110301666D01*
X124944666Y-110301666D02*
X124878000Y-110268333D01*
X124844666Y-110235000D01*
X124811333Y-110168333D01*
X124811333Y-109968333D01*
X124844666Y-109901666D01*
X124878000Y-109868333D01*
X124944666Y-109835000D01*
X125044666Y-109835000D01*
X125111333Y-109868333D01*
X125144666Y-109901666D01*
X125178000Y-109968333D01*
X125178000Y-110168333D01*
X125144666Y-110235000D01*
X125111333Y-110268333D01*
X125044666Y-110301666D01*
X124944666Y-110301666D01*
X125778000Y-110301666D02*
X125778000Y-109601666D01*
X125778000Y-110268333D02*
X125711333Y-110301666D01*
X125578000Y-110301666D01*
X125511333Y-110268333D01*
X125478000Y-110235000D01*
X125444666Y-110168333D01*
X125444666Y-109968333D01*
X125478000Y-109901666D01*
X125511333Y-109868333D01*
X125578000Y-109835000D01*
X125711333Y-109835000D01*
X125778000Y-109868333D01*
X126411333Y-109835000D02*
X126411333Y-110301666D01*
X126111333Y-109835000D02*
X126111333Y-110201666D01*
X126144666Y-110268333D01*
X126211333Y-110301666D01*
X126311333Y-110301666D01*
X126378000Y-110268333D01*
X126411333Y-110235000D01*
X126844666Y-110301666D02*
X126778000Y-110268333D01*
X126744666Y-110201666D01*
X126744666Y-109601666D01*
X127378000Y-110268333D02*
X127311333Y-110301666D01*
X127178000Y-110301666D01*
X127111333Y-110268333D01*
X127078000Y-110201666D01*
X127078000Y-109935000D01*
X127111333Y-109868333D01*
X127178000Y-109835000D01*
X127311333Y-109835000D01*
X127378000Y-109868333D01*
X127411333Y-109935000D01*
X127411333Y-110001666D01*
X127078000Y-110068333D01*
X123944666Y-110771666D02*
X124178000Y-111471666D01*
X124411333Y-110771666D01*
X124611333Y-110838333D02*
X124644666Y-110805000D01*
X124711333Y-110771666D01*
X124878000Y-110771666D01*
X124944666Y-110805000D01*
X124978000Y-110838333D01*
X125011333Y-110905000D01*
X125011333Y-110971666D01*
X124978000Y-111071666D01*
X124578000Y-111471666D01*
X125011333Y-111471666D01*
X125311333Y-111405000D02*
X125344666Y-111438333D01*
X125311333Y-111471666D01*
X125278000Y-111438333D01*
X125311333Y-111405000D01*
X125311333Y-111471666D01*
X125778000Y-110771666D02*
X125844666Y-110771666D01*
X125911333Y-110805000D01*
X125944666Y-110838333D01*
X125978000Y-110905000D01*
X126011333Y-111038333D01*
X126011333Y-111205000D01*
X125978000Y-111338333D01*
X125944666Y-111405000D01*
X125911333Y-111438333D01*
X125844666Y-111471666D01*
X125778000Y-111471666D01*
X125711333Y-111438333D01*
X125678000Y-111405000D01*
X125644666Y-111338333D01*
X125611333Y-111205000D01*
X125611333Y-111038333D01*
X125644666Y-110905000D01*
X125678000Y-110838333D01*
X125711333Y-110805000D01*
X125778000Y-110771666D01*
X124973809Y-113004761D02*
X124897619Y-112966666D01*
X124859523Y-112928571D01*
X124821428Y-112852380D01*
X124821428Y-112814285D01*
X124859523Y-112738095D01*
X124897619Y-112700000D01*
X124973809Y-112661904D01*
X125126190Y-112661904D01*
X125202380Y-112700000D01*
X125240476Y-112738095D01*
X125278571Y-112814285D01*
X125278571Y-112852380D01*
X125240476Y-112928571D01*
X125202380Y-112966666D01*
X125126190Y-113004761D01*
X124973809Y-113004761D01*
X124897619Y-113042857D01*
X124859523Y-113080952D01*
X124821428Y-113157142D01*
X124821428Y-113309523D01*
X124859523Y-113385714D01*
X124897619Y-113423809D01*
X124973809Y-113461904D01*
X125126190Y-113461904D01*
X125202380Y-113423809D01*
X125240476Y-113385714D01*
X125278571Y-113309523D01*
X125278571Y-113157142D01*
X125240476Y-113080952D01*
X125202380Y-113042857D01*
X125126190Y-113004761D01*
X126952380Y-102911904D02*
X127447619Y-102911904D01*
X127180952Y-103216666D01*
X127295238Y-103216666D01*
X127371428Y-103254761D01*
X127409523Y-103292857D01*
X127447619Y-103369047D01*
X127447619Y-103559523D01*
X127409523Y-103635714D01*
X127371428Y-103673809D01*
X127295238Y-103711904D01*
X127066666Y-103711904D01*
X126990476Y-103673809D01*
X126952380Y-103635714D01*
X127752380Y-102988095D02*
X127790476Y-102950000D01*
X127866666Y-102911904D01*
X128057142Y-102911904D01*
X128133333Y-102950000D01*
X128171428Y-102988095D01*
X128209523Y-103064285D01*
X128209523Y-103140476D01*
X128171428Y-103254761D01*
X127714285Y-103711904D01*
X128209523Y-103711904D01*
X124402380Y-102911904D02*
X124897619Y-102911904D01*
X124630952Y-103216666D01*
X124745238Y-103216666D01*
X124821428Y-103254761D01*
X124859523Y-103292857D01*
X124897619Y-103369047D01*
X124897619Y-103559523D01*
X124859523Y-103635714D01*
X124821428Y-103673809D01*
X124745238Y-103711904D01*
X124516666Y-103711904D01*
X124440476Y-103673809D01*
X124402380Y-103635714D01*
X125164285Y-102911904D02*
X125659523Y-102911904D01*
X125392857Y-103216666D01*
X125507142Y-103216666D01*
X125583333Y-103254761D01*
X125621428Y-103292857D01*
X125659523Y-103369047D01*
X125659523Y-103559523D01*
X125621428Y-103635714D01*
X125583333Y-103673809D01*
X125507142Y-103711904D01*
X125278571Y-103711904D01*
X125202380Y-103673809D01*
X125164285Y-103635714D01*
X121609523Y-102911904D02*
X122066666Y-102911904D01*
X121838095Y-103711904D02*
X121838095Y-102911904D01*
X122257142Y-102911904D02*
X122790476Y-103711904D01*
X122790476Y-102911904D02*
X122257142Y-103711904D01*
X123247619Y-102911904D02*
X123323809Y-102911904D01*
X123400000Y-102950000D01*
X123438095Y-102988095D01*
X123476190Y-103064285D01*
X123514285Y-103216666D01*
X123514285Y-103407142D01*
X123476190Y-103559523D01*
X123438095Y-103635714D01*
X123400000Y-103673809D01*
X123323809Y-103711904D01*
X123247619Y-103711904D01*
X123171428Y-103673809D01*
X123133333Y-103635714D01*
X123095238Y-103559523D01*
X123057142Y-103407142D01*
X123057142Y-103216666D01*
X123095238Y-103064285D01*
X123133333Y-102988095D01*
X123171428Y-102950000D01*
X123247619Y-102911904D01*
X119435714Y-103711904D02*
X119169047Y-103330952D01*
X118978571Y-103711904D02*
X118978571Y-102911904D01*
X119283333Y-102911904D01*
X119359523Y-102950000D01*
X119397619Y-102988095D01*
X119435714Y-103064285D01*
X119435714Y-103178571D01*
X119397619Y-103254761D01*
X119359523Y-103292857D01*
X119283333Y-103330952D01*
X118978571Y-103330952D01*
X119702380Y-102911904D02*
X120235714Y-103711904D01*
X120235714Y-102911904D02*
X119702380Y-103711904D01*
X120692857Y-102911904D02*
X120769047Y-102911904D01*
X120845238Y-102950000D01*
X120883333Y-102988095D01*
X120921428Y-103064285D01*
X120959523Y-103216666D01*
X120959523Y-103407142D01*
X120921428Y-103559523D01*
X120883333Y-103635714D01*
X120845238Y-103673809D01*
X120769047Y-103711904D01*
X120692857Y-103711904D01*
X120616666Y-103673809D01*
X120578571Y-103635714D01*
X120540476Y-103559523D01*
X120502380Y-103407142D01*
X120502380Y-103216666D01*
X120540476Y-103064285D01*
X120578571Y-102988095D01*
X120616666Y-102950000D01*
X120692857Y-102911904D01*
X116859523Y-103292857D02*
X117126190Y-103292857D01*
X117240476Y-103711904D02*
X116859523Y-103711904D01*
X116859523Y-102911904D01*
X117240476Y-102911904D01*
X117583333Y-103711904D02*
X117583333Y-102911904D01*
X118040476Y-103711904D01*
X118040476Y-102911904D01*
X114861904Y-102911904D02*
X114938095Y-102911904D01*
X115014285Y-102950000D01*
X115052380Y-102988095D01*
X115090476Y-103064285D01*
X115128571Y-103216666D01*
X115128571Y-103407142D01*
X115090476Y-103559523D01*
X115052380Y-103635714D01*
X115014285Y-103673809D01*
X114938095Y-103711904D01*
X114861904Y-103711904D01*
X114785714Y-103673809D01*
X114747619Y-103635714D01*
X114709523Y-103559523D01*
X114671428Y-103407142D01*
X114671428Y-103216666D01*
X114709523Y-103064285D01*
X114747619Y-102988095D01*
X114785714Y-102950000D01*
X114861904Y-102911904D01*
X111740476Y-102950000D02*
X111664285Y-102911904D01*
X111550000Y-102911904D01*
X111435714Y-102950000D01*
X111359523Y-103026190D01*
X111321428Y-103102380D01*
X111283333Y-103254761D01*
X111283333Y-103369047D01*
X111321428Y-103521428D01*
X111359523Y-103597619D01*
X111435714Y-103673809D01*
X111550000Y-103711904D01*
X111626190Y-103711904D01*
X111740476Y-103673809D01*
X111778571Y-103635714D01*
X111778571Y-103369047D01*
X111626190Y-103369047D01*
X112121428Y-103711904D02*
X112121428Y-102911904D01*
X112578571Y-103711904D01*
X112578571Y-102911904D01*
X112959523Y-103711904D02*
X112959523Y-102911904D01*
X113150000Y-102911904D01*
X113264285Y-102950000D01*
X113340476Y-103026190D01*
X113378571Y-103102380D01*
X113416666Y-103254761D01*
X113416666Y-103369047D01*
X113378571Y-103521428D01*
X113340476Y-103597619D01*
X113264285Y-103673809D01*
X113150000Y-103711904D01*
X112959523Y-103711904D01*
X108809523Y-102911904D02*
X109304761Y-102911904D01*
X109038095Y-103216666D01*
X109152380Y-103216666D01*
X109228571Y-103254761D01*
X109266666Y-103292857D01*
X109304761Y-103369047D01*
X109304761Y-103559523D01*
X109266666Y-103635714D01*
X109228571Y-103673809D01*
X109152380Y-103711904D01*
X108923809Y-103711904D01*
X108847619Y-103673809D01*
X108809523Y-103635714D01*
X109533333Y-102911904D02*
X109800000Y-103711904D01*
X110066666Y-102911904D01*
X110257142Y-102911904D02*
X110752380Y-102911904D01*
X110485714Y-103216666D01*
X110600000Y-103216666D01*
X110676190Y-103254761D01*
X110714285Y-103292857D01*
X110752380Y-103369047D01*
X110752380Y-103559523D01*
X110714285Y-103635714D01*
X110676190Y-103673809D01*
X110600000Y-103711904D01*
X110371428Y-103711904D01*
X110295238Y-103673809D01*
X110257142Y-103635714D01*
X122233333Y-112661904D02*
X122766666Y-112661904D01*
X122423809Y-113461904D01*
X119797619Y-113461904D02*
X119340476Y-113461904D01*
X119569047Y-113461904D02*
X119569047Y-112661904D01*
X119492857Y-112776190D01*
X119416666Y-112852380D01*
X119340476Y-112890476D01*
X120292857Y-112661904D02*
X120369047Y-112661904D01*
X120445238Y-112700000D01*
X120483333Y-112738095D01*
X120521428Y-112814285D01*
X120559523Y-112966666D01*
X120559523Y-113157142D01*
X120521428Y-113309523D01*
X120483333Y-113385714D01*
X120445238Y-113423809D01*
X120369047Y-113461904D01*
X120292857Y-113461904D01*
X120216666Y-113423809D01*
X120178571Y-113385714D01*
X120140476Y-113309523D01*
X120102380Y-113157142D01*
X120102380Y-112966666D01*
X120140476Y-112814285D01*
X120178571Y-112738095D01*
X120216666Y-112700000D01*
X120292857Y-112661904D01*
X116840476Y-112738095D02*
X116878571Y-112700000D01*
X116954761Y-112661904D01*
X117145238Y-112661904D01*
X117221428Y-112700000D01*
X117259523Y-112738095D01*
X117297619Y-112814285D01*
X117297619Y-112890476D01*
X117259523Y-113004761D01*
X116802380Y-113461904D01*
X117297619Y-113461904D01*
X117792857Y-112661904D02*
X117869047Y-112661904D01*
X117945238Y-112700000D01*
X117983333Y-112738095D01*
X118021428Y-112814285D01*
X118059523Y-112966666D01*
X118059523Y-113157142D01*
X118021428Y-113309523D01*
X117983333Y-113385714D01*
X117945238Y-113423809D01*
X117869047Y-113461904D01*
X117792857Y-113461904D01*
X117716666Y-113423809D01*
X117678571Y-113385714D01*
X117640476Y-113309523D01*
X117602380Y-113157142D01*
X117602380Y-112966666D01*
X117640476Y-112814285D01*
X117678571Y-112738095D01*
X117716666Y-112700000D01*
X117792857Y-112661904D01*
X114252380Y-112661904D02*
X114747619Y-112661904D01*
X114480952Y-112966666D01*
X114595238Y-112966666D01*
X114671428Y-113004761D01*
X114709523Y-113042857D01*
X114747619Y-113119047D01*
X114747619Y-113309523D01*
X114709523Y-113385714D01*
X114671428Y-113423809D01*
X114595238Y-113461904D01*
X114366666Y-113461904D01*
X114290476Y-113423809D01*
X114252380Y-113385714D01*
X115014285Y-112661904D02*
X115547619Y-112661904D01*
X115204761Y-113461904D01*
X111740476Y-112738095D02*
X111778571Y-112700000D01*
X111854761Y-112661904D01*
X112045238Y-112661904D01*
X112121428Y-112700000D01*
X112159523Y-112738095D01*
X112197619Y-112814285D01*
X112197619Y-112890476D01*
X112159523Y-113004761D01*
X111702380Y-113461904D01*
X112197619Y-113461904D01*
X112883333Y-112661904D02*
X112730952Y-112661904D01*
X112654761Y-112700000D01*
X112616666Y-112738095D01*
X112540476Y-112852380D01*
X112502380Y-113004761D01*
X112502380Y-113309523D01*
X112540476Y-113385714D01*
X112578571Y-113423809D01*
X112654761Y-113461904D01*
X112807142Y-113461904D01*
X112883333Y-113423809D01*
X112921428Y-113385714D01*
X112959523Y-113309523D01*
X112959523Y-113119047D01*
X112921428Y-113042857D01*
X112883333Y-113004761D01*
X112807142Y-112966666D01*
X112654761Y-112966666D01*
X112578571Y-113004761D01*
X112540476Y-113042857D01*
X112502380Y-113119047D01*
X109190476Y-112738095D02*
X109228571Y-112700000D01*
X109304761Y-112661904D01*
X109495238Y-112661904D01*
X109571428Y-112700000D01*
X109609523Y-112738095D01*
X109647619Y-112814285D01*
X109647619Y-112890476D01*
X109609523Y-113004761D01*
X109152380Y-113461904D01*
X109647619Y-113461904D01*
X110371428Y-112661904D02*
X109990476Y-112661904D01*
X109952380Y-113042857D01*
X109990476Y-113004761D01*
X110066666Y-112966666D01*
X110257142Y-112966666D01*
X110333333Y-113004761D01*
X110371428Y-113042857D01*
X110409523Y-113119047D01*
X110409523Y-113309523D01*
X110371428Y-113385714D01*
X110333333Y-113423809D01*
X110257142Y-113461904D01*
X110066666Y-113461904D01*
X109990476Y-113423809D01*
X109952380Y-113385714D01*
X120735000Y-105145000D02*
X120735000Y-104670000D01*
X113515000Y-111890000D02*
X113990000Y-111890000D01*
X113515000Y-111415000D02*
X113515000Y-111890000D01*
X113515000Y-104670000D02*
X113990000Y-104670000D01*
X113515000Y-105145000D02*
X113515000Y-104670000D01*
X120735000Y-111415000D02*
X120735000Y-111890000D01*
X120735000Y-111890000D02*
X120260000Y-111890000D01*
X123560000Y-105578922D02*
X123560000Y-106096078D01*
X122140000Y-105578922D02*
X122140000Y-106096078D01*
X123560000Y-110461422D02*
X123560000Y-110978578D01*
X122140000Y-110461422D02*
X122140000Y-110978578D01*
X109991422Y-111935000D02*
X110508578Y-111935000D01*
X109991422Y-110515000D02*
X110508578Y-110515000D01*
X109991422Y-108540000D02*
X110508578Y-108540000D01*
X109991422Y-109960000D02*
X110508578Y-109960000D01*
X109991422Y-104490000D02*
X110508578Y-104490000D01*
X109991422Y-105910000D02*
X110508578Y-105910000D01*
X109991422Y-106465000D02*
X110508578Y-106465000D01*
X109991422Y-107885000D02*
X110508578Y-107885000D01*
X126850000Y-104425000D02*
X127950000Y-104425000D01*
X127950000Y-105875000D02*
X126850000Y-105875000D01*
M02*
