M48
; DRILL file {KiCad (5.1.4-0-10_14)} date 2020 March 29, Sunday 23:47:01
; FORMAT={-:-/ absolute / metric / decimal}
; #@! TF.CreationDate,2020-03-29T23:47:01+03:00
; #@! TF.GenerationSoftware,Kicad,Pcbnew,(5.1.4-0-10_14)
FMAT,2
METRIC
T1C0.200
T2C0.300
T3C1.000
%
G90
G05
T1
X114.65Y-108.1
X117.125Y-105.625
X117.125Y-108.1
X117.125Y-110.575
X119.6Y-108.1
T2
X109.75Y-112.825
X112.3Y-107.125
X112.35Y-112.825
X112.675Y-108.35
X112.825Y-105.15
X113.012Y-111.562
X113.475Y-112.8
X114.1Y-103.675
X115.925Y-103.7
X118.587Y-103.787
X120.8Y-111.9
X121.0Y-104.45
X122.05Y-109.55
X122.125Y-108.625
X122.55Y-103.625
X123.975Y-112.25
X127.35Y-112.55
T3
X109.79Y-114.6
X112.33Y-114.595
X114.87Y-114.595
X117.41Y-114.595
X119.95Y-114.595
X122.49Y-114.595
X125.03Y-114.595
X127.57Y-114.595
X109.79Y-101.8
X112.33Y-101.795
X114.87Y-101.795
X117.41Y-101.795
X119.95Y-101.795
X122.49Y-101.795
X125.03Y-101.795
X127.57Y-101.795
T0
M30
