G04 #@! TF.GenerationSoftware,KiCad,Pcbnew,(5.1.4-0-10_14)*
G04 #@! TF.CreationDate,2020-04-02T23:01:16+03:00*
G04 #@! TF.ProjectId,esp32-pico-d4-module,65737033-322d-4706-9963-6f2d64342d6d,rev?*
G04 #@! TF.SameCoordinates,Original*
G04 #@! TF.FileFunction,Legend,Top*
G04 #@! TF.FilePolarity,Positive*
%FSLAX46Y46*%
G04 Gerber Fmt 4.6, Leading zero omitted, Abs format (unit mm)*
G04 Created by KiCad (PCBNEW (5.1.4-0-10_14)) date 2020-04-02 23:01:16*
%MOMM*%
%LPD*%
G04 APERTURE LIST*
%ADD10C,0.120000*%
G04 APERTURE END LIST*
D10*
X122644666Y-107261666D02*
X123044666Y-107261666D01*
X122844666Y-107961666D02*
X122844666Y-107261666D01*
X123278000Y-107961666D02*
X123278000Y-107261666D01*
X123578000Y-107961666D02*
X123578000Y-107595000D01*
X123544666Y-107528333D01*
X123478000Y-107495000D01*
X123378000Y-107495000D01*
X123311333Y-107528333D01*
X123278000Y-107561666D01*
X123911333Y-107961666D02*
X123911333Y-107495000D01*
X123911333Y-107261666D02*
X123878000Y-107295000D01*
X123911333Y-107328333D01*
X123944666Y-107295000D01*
X123911333Y-107261666D01*
X123911333Y-107328333D01*
X124244666Y-107495000D02*
X124244666Y-107961666D01*
X124244666Y-107561666D02*
X124278000Y-107528333D01*
X124344666Y-107495000D01*
X124444666Y-107495000D01*
X124511333Y-107528333D01*
X124544666Y-107595000D01*
X124544666Y-107961666D01*
X125178000Y-107495000D02*
X125178000Y-108061666D01*
X125144666Y-108128333D01*
X125111333Y-108161666D01*
X125044666Y-108195000D01*
X124944666Y-108195000D01*
X124878000Y-108161666D01*
X125178000Y-107928333D02*
X125111333Y-107961666D01*
X124978000Y-107961666D01*
X124911333Y-107928333D01*
X124878000Y-107895000D01*
X124844666Y-107828333D01*
X124844666Y-107628333D01*
X124878000Y-107561666D01*
X124911333Y-107528333D01*
X124978000Y-107495000D01*
X125111333Y-107495000D01*
X125178000Y-107528333D01*
X125611333Y-107961666D02*
X125544666Y-107928333D01*
X125511333Y-107861666D01*
X125511333Y-107261666D01*
X126144666Y-107928333D02*
X126078000Y-107961666D01*
X125944666Y-107961666D01*
X125878000Y-107928333D01*
X125844666Y-107861666D01*
X125844666Y-107595000D01*
X125878000Y-107528333D01*
X125944666Y-107495000D01*
X126078000Y-107495000D01*
X126144666Y-107528333D01*
X126178000Y-107595000D01*
X126178000Y-107661666D01*
X125844666Y-107728333D01*
X126478000Y-107961666D02*
X126478000Y-107495000D01*
X126478000Y-107628333D02*
X126511333Y-107561666D01*
X126544666Y-107528333D01*
X126611333Y-107495000D01*
X126678000Y-107495000D01*
X122744666Y-108765000D02*
X122978000Y-108765000D01*
X123078000Y-109131666D02*
X122744666Y-109131666D01*
X122744666Y-108431666D01*
X123078000Y-108431666D01*
X123344666Y-109098333D02*
X123444666Y-109131666D01*
X123611333Y-109131666D01*
X123678000Y-109098333D01*
X123711333Y-109065000D01*
X123744666Y-108998333D01*
X123744666Y-108931666D01*
X123711333Y-108865000D01*
X123678000Y-108831666D01*
X123611333Y-108798333D01*
X123478000Y-108765000D01*
X123411333Y-108731666D01*
X123378000Y-108698333D01*
X123344666Y-108631666D01*
X123344666Y-108565000D01*
X123378000Y-108498333D01*
X123411333Y-108465000D01*
X123478000Y-108431666D01*
X123644666Y-108431666D01*
X123744666Y-108465000D01*
X124044666Y-109131666D02*
X124044666Y-108431666D01*
X124311333Y-108431666D01*
X124378000Y-108465000D01*
X124411333Y-108498333D01*
X124444666Y-108565000D01*
X124444666Y-108665000D01*
X124411333Y-108731666D01*
X124378000Y-108765000D01*
X124311333Y-108798333D01*
X124044666Y-108798333D01*
X124678000Y-108431666D02*
X125111333Y-108431666D01*
X124878000Y-108698333D01*
X124978000Y-108698333D01*
X125044666Y-108731666D01*
X125078000Y-108765000D01*
X125111333Y-108831666D01*
X125111333Y-108998333D01*
X125078000Y-109065000D01*
X125044666Y-109098333D01*
X124978000Y-109131666D01*
X124778000Y-109131666D01*
X124711333Y-109098333D01*
X124678000Y-109065000D01*
X125378000Y-108498333D02*
X125411333Y-108465000D01*
X125478000Y-108431666D01*
X125644666Y-108431666D01*
X125711333Y-108465000D01*
X125744666Y-108498333D01*
X125778000Y-108565000D01*
X125778000Y-108631666D01*
X125744666Y-108731666D01*
X125344666Y-109131666D01*
X125778000Y-109131666D01*
X122744666Y-110301666D02*
X122744666Y-109601666D01*
X122978000Y-110101666D01*
X123211333Y-109601666D01*
X123211333Y-110301666D01*
X123644666Y-110301666D02*
X123578000Y-110268333D01*
X123544666Y-110235000D01*
X123511333Y-110168333D01*
X123511333Y-109968333D01*
X123544666Y-109901666D01*
X123578000Y-109868333D01*
X123644666Y-109835000D01*
X123744666Y-109835000D01*
X123811333Y-109868333D01*
X123844666Y-109901666D01*
X123878000Y-109968333D01*
X123878000Y-110168333D01*
X123844666Y-110235000D01*
X123811333Y-110268333D01*
X123744666Y-110301666D01*
X123644666Y-110301666D01*
X124478000Y-110301666D02*
X124478000Y-109601666D01*
X124478000Y-110268333D02*
X124411333Y-110301666D01*
X124278000Y-110301666D01*
X124211333Y-110268333D01*
X124178000Y-110235000D01*
X124144666Y-110168333D01*
X124144666Y-109968333D01*
X124178000Y-109901666D01*
X124211333Y-109868333D01*
X124278000Y-109835000D01*
X124411333Y-109835000D01*
X124478000Y-109868333D01*
X125111333Y-109835000D02*
X125111333Y-110301666D01*
X124811333Y-109835000D02*
X124811333Y-110201666D01*
X124844666Y-110268333D01*
X124911333Y-110301666D01*
X125011333Y-110301666D01*
X125078000Y-110268333D01*
X125111333Y-110235000D01*
X125544666Y-110301666D02*
X125478000Y-110268333D01*
X125444666Y-110201666D01*
X125444666Y-109601666D01*
X126078000Y-110268333D02*
X126011333Y-110301666D01*
X125878000Y-110301666D01*
X125811333Y-110268333D01*
X125778000Y-110201666D01*
X125778000Y-109935000D01*
X125811333Y-109868333D01*
X125878000Y-109835000D01*
X126011333Y-109835000D01*
X126078000Y-109868333D01*
X126111333Y-109935000D01*
X126111333Y-110001666D01*
X125778000Y-110068333D01*
X122644666Y-110771666D02*
X122878000Y-111471666D01*
X123111333Y-110771666D01*
X123711333Y-111471666D02*
X123311333Y-111471666D01*
X123511333Y-111471666D02*
X123511333Y-110771666D01*
X123444666Y-110871666D01*
X123378000Y-110938333D01*
X123311333Y-110971666D01*
X124011333Y-111405000D02*
X124044666Y-111438333D01*
X124011333Y-111471666D01*
X123978000Y-111438333D01*
X124011333Y-111405000D01*
X124011333Y-111471666D01*
X124478000Y-110771666D02*
X124544666Y-110771666D01*
X124611333Y-110805000D01*
X124644666Y-110838333D01*
X124678000Y-110905000D01*
X124711333Y-111038333D01*
X124711333Y-111205000D01*
X124678000Y-111338333D01*
X124644666Y-111405000D01*
X124611333Y-111438333D01*
X124544666Y-111471666D01*
X124478000Y-111471666D01*
X124411333Y-111438333D01*
X124378000Y-111405000D01*
X124344666Y-111338333D01*
X124311333Y-111205000D01*
X124311333Y-111038333D01*
X124344666Y-110905000D01*
X124378000Y-110838333D01*
X124411333Y-110805000D01*
X124478000Y-110771666D01*
X124140476Y-112738095D02*
X124178571Y-112700000D01*
X124254761Y-112661904D01*
X124445238Y-112661904D01*
X124521428Y-112700000D01*
X124559523Y-112738095D01*
X124597619Y-112814285D01*
X124597619Y-112890476D01*
X124559523Y-113004761D01*
X124102380Y-113461904D01*
X124597619Y-113461904D01*
X124902380Y-112738095D02*
X124940476Y-112700000D01*
X125016666Y-112661904D01*
X125207142Y-112661904D01*
X125283333Y-112700000D01*
X125321428Y-112738095D01*
X125359523Y-112814285D01*
X125359523Y-112890476D01*
X125321428Y-113004761D01*
X124864285Y-113461904D01*
X125359523Y-113461904D01*
X127447619Y-103711904D02*
X126990476Y-103711904D01*
X127219047Y-103711904D02*
X127219047Y-102911904D01*
X127142857Y-103026190D01*
X127066666Y-103102380D01*
X126990476Y-103140476D01*
X128171428Y-102911904D02*
X127790476Y-102911904D01*
X127752380Y-103292857D01*
X127790476Y-103254761D01*
X127866666Y-103216666D01*
X128057142Y-103216666D01*
X128133333Y-103254761D01*
X128171428Y-103292857D01*
X128209523Y-103369047D01*
X128209523Y-103559523D01*
X128171428Y-103635714D01*
X128133333Y-103673809D01*
X128057142Y-103711904D01*
X127866666Y-103711904D01*
X127790476Y-103673809D01*
X127752380Y-103635714D01*
X124402380Y-102911904D02*
X124897619Y-102911904D01*
X124630952Y-103216666D01*
X124745238Y-103216666D01*
X124821428Y-103254761D01*
X124859523Y-103292857D01*
X124897619Y-103369047D01*
X124897619Y-103559523D01*
X124859523Y-103635714D01*
X124821428Y-103673809D01*
X124745238Y-103711904D01*
X124516666Y-103711904D01*
X124440476Y-103673809D01*
X124402380Y-103635714D01*
X125164285Y-102911904D02*
X125697619Y-102911904D01*
X125354761Y-103711904D01*
X121609523Y-102911904D02*
X122066666Y-102911904D01*
X121838095Y-103711904D02*
X121838095Y-102911904D01*
X122257142Y-102911904D02*
X122790476Y-103711904D01*
X122790476Y-102911904D02*
X122257142Y-103711904D01*
X123247619Y-102911904D02*
X123323809Y-102911904D01*
X123400000Y-102950000D01*
X123438095Y-102988095D01*
X123476190Y-103064285D01*
X123514285Y-103216666D01*
X123514285Y-103407142D01*
X123476190Y-103559523D01*
X123438095Y-103635714D01*
X123400000Y-103673809D01*
X123323809Y-103711904D01*
X123247619Y-103711904D01*
X123171428Y-103673809D01*
X123133333Y-103635714D01*
X123095238Y-103559523D01*
X123057142Y-103407142D01*
X123057142Y-103216666D01*
X123095238Y-103064285D01*
X123133333Y-102988095D01*
X123171428Y-102950000D01*
X123247619Y-102911904D01*
X119435714Y-103711904D02*
X119169047Y-103330952D01*
X118978571Y-103711904D02*
X118978571Y-102911904D01*
X119283333Y-102911904D01*
X119359523Y-102950000D01*
X119397619Y-102988095D01*
X119435714Y-103064285D01*
X119435714Y-103178571D01*
X119397619Y-103254761D01*
X119359523Y-103292857D01*
X119283333Y-103330952D01*
X118978571Y-103330952D01*
X119702380Y-102911904D02*
X120235714Y-103711904D01*
X120235714Y-102911904D02*
X119702380Y-103711904D01*
X120692857Y-102911904D02*
X120769047Y-102911904D01*
X120845238Y-102950000D01*
X120883333Y-102988095D01*
X120921428Y-103064285D01*
X120959523Y-103216666D01*
X120959523Y-103407142D01*
X120921428Y-103559523D01*
X120883333Y-103635714D01*
X120845238Y-103673809D01*
X120769047Y-103711904D01*
X120692857Y-103711904D01*
X120616666Y-103673809D01*
X120578571Y-103635714D01*
X120540476Y-103559523D01*
X120502380Y-103407142D01*
X120502380Y-103216666D01*
X120540476Y-103064285D01*
X120578571Y-102988095D01*
X120616666Y-102950000D01*
X120692857Y-102911904D01*
X116859523Y-103292857D02*
X117126190Y-103292857D01*
X117240476Y-103711904D02*
X116859523Y-103711904D01*
X116859523Y-102911904D01*
X117240476Y-102911904D01*
X117583333Y-103711904D02*
X117583333Y-102911904D01*
X118040476Y-103711904D01*
X118040476Y-102911904D01*
X114861904Y-102911904D02*
X114938095Y-102911904D01*
X115014285Y-102950000D01*
X115052380Y-102988095D01*
X115090476Y-103064285D01*
X115128571Y-103216666D01*
X115128571Y-103407142D01*
X115090476Y-103559523D01*
X115052380Y-103635714D01*
X115014285Y-103673809D01*
X114938095Y-103711904D01*
X114861904Y-103711904D01*
X114785714Y-103673809D01*
X114747619Y-103635714D01*
X114709523Y-103559523D01*
X114671428Y-103407142D01*
X114671428Y-103216666D01*
X114709523Y-103064285D01*
X114747619Y-102988095D01*
X114785714Y-102950000D01*
X114861904Y-102911904D01*
X111740476Y-102950000D02*
X111664285Y-102911904D01*
X111550000Y-102911904D01*
X111435714Y-102950000D01*
X111359523Y-103026190D01*
X111321428Y-103102380D01*
X111283333Y-103254761D01*
X111283333Y-103369047D01*
X111321428Y-103521428D01*
X111359523Y-103597619D01*
X111435714Y-103673809D01*
X111550000Y-103711904D01*
X111626190Y-103711904D01*
X111740476Y-103673809D01*
X111778571Y-103635714D01*
X111778571Y-103369047D01*
X111626190Y-103369047D01*
X112121428Y-103711904D02*
X112121428Y-102911904D01*
X112578571Y-103711904D01*
X112578571Y-102911904D01*
X112959523Y-103711904D02*
X112959523Y-102911904D01*
X113150000Y-102911904D01*
X113264285Y-102950000D01*
X113340476Y-103026190D01*
X113378571Y-103102380D01*
X113416666Y-103254761D01*
X113416666Y-103369047D01*
X113378571Y-103521428D01*
X113340476Y-103597619D01*
X113264285Y-103673809D01*
X113150000Y-103711904D01*
X112959523Y-103711904D01*
X108809523Y-102911904D02*
X109304761Y-102911904D01*
X109038095Y-103216666D01*
X109152380Y-103216666D01*
X109228571Y-103254761D01*
X109266666Y-103292857D01*
X109304761Y-103369047D01*
X109304761Y-103559523D01*
X109266666Y-103635714D01*
X109228571Y-103673809D01*
X109152380Y-103711904D01*
X108923809Y-103711904D01*
X108847619Y-103673809D01*
X108809523Y-103635714D01*
X109533333Y-102911904D02*
X109800000Y-103711904D01*
X110066666Y-102911904D01*
X110257142Y-102911904D02*
X110752380Y-102911904D01*
X110485714Y-103216666D01*
X110600000Y-103216666D01*
X110676190Y-103254761D01*
X110714285Y-103292857D01*
X110752380Y-103369047D01*
X110752380Y-103559523D01*
X110714285Y-103635714D01*
X110676190Y-103673809D01*
X110600000Y-103711904D01*
X110371428Y-103711904D01*
X110295238Y-103673809D01*
X110257142Y-103635714D01*
X122347619Y-113461904D02*
X121890476Y-113461904D01*
X122119047Y-113461904D02*
X122119047Y-112661904D01*
X122042857Y-112776190D01*
X121966666Y-112852380D01*
X121890476Y-112890476D01*
X122728571Y-113461904D02*
X122880952Y-113461904D01*
X122957142Y-113423809D01*
X122995238Y-113385714D01*
X123071428Y-113271428D01*
X123109523Y-113119047D01*
X123109523Y-112814285D01*
X123071428Y-112738095D01*
X123033333Y-112700000D01*
X122957142Y-112661904D01*
X122804761Y-112661904D01*
X122728571Y-112700000D01*
X122690476Y-112738095D01*
X122652380Y-112814285D01*
X122652380Y-113004761D01*
X122690476Y-113080952D01*
X122728571Y-113119047D01*
X122804761Y-113157142D01*
X122957142Y-113157142D01*
X123033333Y-113119047D01*
X123071428Y-113080952D01*
X123109523Y-113004761D01*
X119340476Y-112738095D02*
X119378571Y-112700000D01*
X119454761Y-112661904D01*
X119645238Y-112661904D01*
X119721428Y-112700000D01*
X119759523Y-112738095D01*
X119797619Y-112814285D01*
X119797619Y-112890476D01*
X119759523Y-113004761D01*
X119302380Y-113461904D01*
X119797619Y-113461904D01*
X120064285Y-112661904D02*
X120559523Y-112661904D01*
X120292857Y-112966666D01*
X120407142Y-112966666D01*
X120483333Y-113004761D01*
X120521428Y-113042857D01*
X120559523Y-113119047D01*
X120559523Y-113309523D01*
X120521428Y-113385714D01*
X120483333Y-113423809D01*
X120407142Y-113461904D01*
X120178571Y-113461904D01*
X120102380Y-113423809D01*
X120064285Y-113385714D01*
X117297619Y-113461904D02*
X116840476Y-113461904D01*
X117069047Y-113461904D02*
X117069047Y-112661904D01*
X116992857Y-112776190D01*
X116916666Y-112852380D01*
X116840476Y-112890476D01*
X117754761Y-113004761D02*
X117678571Y-112966666D01*
X117640476Y-112928571D01*
X117602380Y-112852380D01*
X117602380Y-112814285D01*
X117640476Y-112738095D01*
X117678571Y-112700000D01*
X117754761Y-112661904D01*
X117907142Y-112661904D01*
X117983333Y-112700000D01*
X118021428Y-112738095D01*
X118059523Y-112814285D01*
X118059523Y-112852380D01*
X118021428Y-112928571D01*
X117983333Y-112966666D01*
X117907142Y-113004761D01*
X117754761Y-113004761D01*
X117678571Y-113042857D01*
X117640476Y-113080952D01*
X117602380Y-113157142D01*
X117602380Y-113309523D01*
X117640476Y-113385714D01*
X117678571Y-113423809D01*
X117754761Y-113461904D01*
X117907142Y-113461904D01*
X117983333Y-113423809D01*
X118021428Y-113385714D01*
X118059523Y-113309523D01*
X118059523Y-113157142D01*
X118021428Y-113080952D01*
X117983333Y-113042857D01*
X117907142Y-113004761D01*
X115090476Y-112661904D02*
X114709523Y-112661904D01*
X114671428Y-113042857D01*
X114709523Y-113004761D01*
X114785714Y-112966666D01*
X114976190Y-112966666D01*
X115052380Y-113004761D01*
X115090476Y-113042857D01*
X115128571Y-113119047D01*
X115128571Y-113309523D01*
X115090476Y-113385714D01*
X115052380Y-113423809D01*
X114976190Y-113461904D01*
X114785714Y-113461904D01*
X114709523Y-113423809D01*
X114671428Y-113385714D01*
X111702380Y-112661904D02*
X112197619Y-112661904D01*
X111930952Y-112966666D01*
X112045238Y-112966666D01*
X112121428Y-113004761D01*
X112159523Y-113042857D01*
X112197619Y-113119047D01*
X112197619Y-113309523D01*
X112159523Y-113385714D01*
X112121428Y-113423809D01*
X112045238Y-113461904D01*
X111816666Y-113461904D01*
X111740476Y-113423809D01*
X111702380Y-113385714D01*
X112464285Y-112661904D02*
X112959523Y-112661904D01*
X112692857Y-112966666D01*
X112807142Y-112966666D01*
X112883333Y-113004761D01*
X112921428Y-113042857D01*
X112959523Y-113119047D01*
X112959523Y-113309523D01*
X112921428Y-113385714D01*
X112883333Y-113423809D01*
X112807142Y-113461904D01*
X112578571Y-113461904D01*
X112502380Y-113423809D01*
X112464285Y-113385714D01*
X109152380Y-112661904D02*
X109647619Y-112661904D01*
X109380952Y-112966666D01*
X109495238Y-112966666D01*
X109571428Y-113004761D01*
X109609523Y-113042857D01*
X109647619Y-113119047D01*
X109647619Y-113309523D01*
X109609523Y-113385714D01*
X109571428Y-113423809D01*
X109495238Y-113461904D01*
X109266666Y-113461904D01*
X109190476Y-113423809D01*
X109152380Y-113385714D01*
X109952380Y-112738095D02*
X109990476Y-112700000D01*
X110066666Y-112661904D01*
X110257142Y-112661904D01*
X110333333Y-112700000D01*
X110371428Y-112738095D01*
X110409523Y-112814285D01*
X110409523Y-112890476D01*
X110371428Y-113004761D01*
X109914285Y-113461904D01*
X110409523Y-113461904D01*
X126966422Y-111840000D02*
X127483578Y-111840000D01*
X126966422Y-113260000D02*
X127483578Y-113260000D01*
X109991422Y-111935000D02*
X110508578Y-111935000D01*
X109991422Y-110515000D02*
X110508578Y-110515000D01*
X109991422Y-108540000D02*
X110508578Y-108540000D01*
X109991422Y-109960000D02*
X110508578Y-109960000D01*
X109991422Y-104490000D02*
X110508578Y-104490000D01*
X109991422Y-105910000D02*
X110508578Y-105910000D01*
X109991422Y-106465000D02*
X110508578Y-106465000D01*
X109991422Y-107885000D02*
X110508578Y-107885000D01*
X120735000Y-111710000D02*
X120260000Y-111710000D01*
X120735000Y-111235000D02*
X120735000Y-111710000D01*
X113515000Y-104965000D02*
X113515000Y-104490000D01*
X113515000Y-104490000D02*
X113990000Y-104490000D01*
X113515000Y-111235000D02*
X113515000Y-111710000D01*
X113515000Y-111710000D02*
X113990000Y-111710000D01*
X120735000Y-104965000D02*
X120735000Y-104490000D01*
X123260000Y-105216422D02*
X123260000Y-105733578D01*
X121840000Y-105216422D02*
X121840000Y-105733578D01*
X126850000Y-103875000D02*
X127950000Y-103875000D01*
X127950000Y-105325000D02*
X126850000Y-105325000D01*
M02*
