G04 #@! TF.GenerationSoftware,KiCad,Pcbnew,(5.1.4-0-10_14)*
G04 #@! TF.CreationDate,2020-03-29T23:46:54+03:00*
G04 #@! TF.ProjectId,esp32-pico-d4-module,65737033-322d-4706-9963-6f2d64342d6d,rev?*
G04 #@! TF.SameCoordinates,Original*
G04 #@! TF.FileFunction,Copper,L2,Bot*
G04 #@! TF.FilePolarity,Positive*
%FSLAX46Y46*%
G04 Gerber Fmt 4.6, Leading zero omitted, Abs format (unit mm)*
G04 Created by KiCad (PCBNEW (5.1.4-0-10_14)) date 2020-03-29 23:46:54*
%MOMM*%
%LPD*%
G04 APERTURE LIST*
%ADD10C,0.500000*%
%ADD11O,1.700000X1.700000*%
%ADD12C,0.600000*%
%ADD13C,0.250000*%
%ADD14C,0.254000*%
G04 APERTURE END LIST*
D10*
X117125000Y-108100000D03*
X114650000Y-108100000D03*
X119600000Y-108100000D03*
X117125000Y-110575000D03*
X117125000Y-105625000D03*
D11*
X117410000Y-101795000D03*
X125030000Y-101795000D03*
X122490000Y-101795000D03*
X127570000Y-101795000D03*
X114870000Y-101795000D03*
X119950000Y-101795000D03*
X112330000Y-101795000D03*
X109790000Y-101800000D03*
X109790000Y-114600000D03*
X112330000Y-114595000D03*
X119950000Y-114595000D03*
X114870000Y-114595000D03*
X127570000Y-114595000D03*
X122490000Y-114595000D03*
X125030000Y-114595000D03*
X117410000Y-114595000D03*
D12*
X112350000Y-112825000D03*
X112300000Y-107125000D03*
X127350000Y-112550000D03*
X118587500Y-103787500D03*
X112675000Y-108350000D03*
X121000000Y-104450000D03*
X120800000Y-111900000D03*
X122550000Y-103625000D03*
X123975000Y-112250000D03*
X115924990Y-103700010D03*
X109750000Y-112825000D03*
X113475000Y-112800000D03*
X113012500Y-111562500D03*
X122050000Y-109550000D03*
X122125000Y-108625000D03*
X112825000Y-105150000D03*
X114100000Y-103675000D03*
D13*
X118587500Y-103787500D02*
X118600000Y-103800000D01*
X121075000Y-111900000D02*
X120800000Y-111900000D01*
X122750001Y-110224999D02*
X121075000Y-111900000D01*
X122750001Y-106550001D02*
X122750001Y-110224999D01*
X121000000Y-104800000D02*
X122750001Y-106550001D01*
X121000000Y-104450000D02*
X121000000Y-104800000D01*
X112375000Y-108650000D02*
X112675000Y-108350000D01*
X112724997Y-112199999D02*
X112375000Y-111850002D01*
X120800000Y-111900000D02*
X113600002Y-111900000D01*
X113300003Y-112199999D02*
X112724997Y-112199999D01*
X113600002Y-111900000D02*
X113300003Y-112199999D01*
X112375000Y-111850002D02*
X112375000Y-108650000D01*
X120800000Y-111475736D02*
X120800000Y-111900000D01*
X121000000Y-111275736D02*
X120800000Y-111475736D01*
X121000000Y-107136410D02*
X121000000Y-111275736D01*
X119224990Y-105361400D02*
X121000000Y-107136410D01*
X119224990Y-104424990D02*
X119224990Y-105361400D01*
X118587500Y-103787500D02*
X119224990Y-104424990D01*
X122550000Y-103625000D02*
X122550000Y-104650000D01*
X122550000Y-104650000D02*
X123650021Y-105750021D01*
X123650021Y-105750021D02*
X123650021Y-111925021D01*
X123650021Y-111925021D02*
X123975000Y-112250000D01*
X112199999Y-104300001D02*
X115324999Y-104300001D01*
X109425010Y-107074990D02*
X112199999Y-104300001D01*
X115324999Y-104300001D02*
X115924990Y-103700010D01*
X109425010Y-112500010D02*
X109425010Y-107074990D01*
X109750000Y-112825000D02*
X109425010Y-112500010D01*
X121800000Y-103300000D02*
X122124999Y-102975001D01*
X126730001Y-102649999D02*
X127580000Y-101800000D01*
X126404999Y-102975001D02*
X126730001Y-102649999D01*
X123200011Y-106075011D02*
X121800000Y-104675000D01*
X123200011Y-110999989D02*
X123200011Y-106075011D01*
X121600000Y-112600000D02*
X123200011Y-110999989D01*
X122124999Y-102975001D02*
X126404999Y-102975001D01*
X121800000Y-104675000D02*
X121800000Y-103300000D01*
X113675000Y-112600000D02*
X121600000Y-112600000D01*
X113475000Y-112800000D02*
X113675000Y-112600000D01*
X119700000Y-111350000D02*
X113225000Y-111350000D01*
X113225000Y-111350000D02*
X113012500Y-111562500D01*
X120500000Y-107272820D02*
X120500000Y-110550000D01*
X114880000Y-101800000D02*
X115729999Y-102649999D01*
X115729999Y-102649999D02*
X116399999Y-102649999D01*
X117750000Y-104522820D02*
X120500000Y-107272820D01*
X120500000Y-110550000D02*
X119700000Y-111350000D01*
X117750000Y-104000000D02*
X117750000Y-104522820D01*
X116399999Y-102649999D02*
X117750000Y-104000000D01*
X119650000Y-102110000D02*
X119960000Y-101800000D01*
X122050000Y-109550000D02*
X122050000Y-109475002D01*
X119675000Y-105175000D02*
X119675000Y-102085000D01*
X121499999Y-106999999D02*
X119675000Y-105175000D01*
X119675000Y-102085000D02*
X119960000Y-101800000D01*
X121499999Y-108999999D02*
X121499999Y-106999999D01*
X122050000Y-109550000D02*
X121499999Y-108999999D01*
X121800000Y-101800000D02*
X122500000Y-101800000D01*
X120175000Y-104950000D02*
X120175000Y-103425000D01*
X120175000Y-103425000D02*
X121800000Y-101800000D01*
X122125000Y-106900000D02*
X120175000Y-104950000D01*
X122125000Y-108625000D02*
X122125000Y-106900000D01*
X112300000Y-114600000D02*
X112340000Y-114600000D01*
X110450000Y-107525000D02*
X110450000Y-112750000D01*
X110450000Y-112750000D02*
X112300000Y-114600000D01*
X112825000Y-105150000D02*
X110450000Y-107525000D01*
X108975000Y-113775000D02*
X109800000Y-114600000D01*
X108975000Y-106650000D02*
X108975000Y-113775000D01*
X111950000Y-103675000D02*
X108975000Y-106650000D01*
X114100000Y-103675000D02*
X111950000Y-103675000D01*
D14*
G36*
X117148000Y-104249356D02*
G01*
X117148000Y-104493264D01*
X117145089Y-104522820D01*
X117148000Y-104552376D01*
X117148000Y-104552386D01*
X117156711Y-104640832D01*
X117186769Y-104739919D01*
X117036672Y-104740116D01*
X116865736Y-104774351D01*
X116706826Y-104840173D01*
X116702784Y-105028836D01*
X117125000Y-105451052D01*
X117141971Y-105434081D01*
X117315919Y-105608029D01*
X117298948Y-105625000D01*
X117721164Y-106047216D01*
X117909827Y-106043174D01*
X117976328Y-105882026D01*
X118010113Y-105711002D01*
X118010012Y-105634188D01*
X119590835Y-107215012D01*
X119511672Y-107215116D01*
X119340736Y-107249351D01*
X119181826Y-107315173D01*
X119177784Y-107503836D01*
X119600000Y-107926052D01*
X119616971Y-107909081D01*
X119790919Y-108083029D01*
X119773948Y-108100000D01*
X119790919Y-108116971D01*
X119616971Y-108290919D01*
X119600000Y-108273948D01*
X119177784Y-108696164D01*
X119181826Y-108884827D01*
X119342974Y-108951328D01*
X119513998Y-108985113D01*
X119688328Y-108984884D01*
X119859264Y-108950649D01*
X119898001Y-108934604D01*
X119898001Y-110300643D01*
X119450645Y-110748000D01*
X117992927Y-110748000D01*
X118010113Y-110661002D01*
X118009884Y-110486672D01*
X117975649Y-110315736D01*
X117909827Y-110156826D01*
X117721164Y-110152784D01*
X117298948Y-110575000D01*
X117315919Y-110591971D01*
X117159890Y-110748000D01*
X117090110Y-110748000D01*
X116934081Y-110591971D01*
X116951052Y-110575000D01*
X116528836Y-110152784D01*
X116340173Y-110156826D01*
X116273672Y-110317974D01*
X116239887Y-110488998D01*
X116240116Y-110663328D01*
X116257074Y-110748000D01*
X113254556Y-110748000D01*
X113224999Y-110745089D01*
X113195443Y-110748000D01*
X113195434Y-110748000D01*
X113106988Y-110756711D01*
X113012083Y-110785500D01*
X112977000Y-110785500D01*
X112977000Y-109978836D01*
X116702784Y-109978836D01*
X117125000Y-110401052D01*
X117547216Y-109978836D01*
X117543174Y-109790173D01*
X117382026Y-109723672D01*
X117211002Y-109689887D01*
X117036672Y-109690116D01*
X116865736Y-109724351D01*
X116706826Y-109790173D01*
X116702784Y-109978836D01*
X112977000Y-109978836D01*
X112977000Y-109065927D01*
X113043048Y-109038569D01*
X113170309Y-108953536D01*
X113278536Y-108845309D01*
X113363569Y-108718048D01*
X113372633Y-108696164D01*
X114227784Y-108696164D01*
X114231826Y-108884827D01*
X114392974Y-108951328D01*
X114563998Y-108985113D01*
X114738328Y-108984884D01*
X114909264Y-108950649D01*
X115068174Y-108884827D01*
X115072216Y-108696164D01*
X116702784Y-108696164D01*
X116706826Y-108884827D01*
X116867974Y-108951328D01*
X117038998Y-108985113D01*
X117213328Y-108984884D01*
X117384264Y-108950649D01*
X117543174Y-108884827D01*
X117547216Y-108696164D01*
X117125000Y-108273948D01*
X116702784Y-108696164D01*
X115072216Y-108696164D01*
X114650000Y-108273948D01*
X114227784Y-108696164D01*
X113372633Y-108696164D01*
X113422141Y-108576643D01*
X113452000Y-108426528D01*
X113452000Y-108273472D01*
X113422141Y-108123357D01*
X113376843Y-108013998D01*
X113764887Y-108013998D01*
X113765116Y-108188328D01*
X113799351Y-108359264D01*
X113865173Y-108518174D01*
X114053836Y-108522216D01*
X114476052Y-108100000D01*
X114823948Y-108100000D01*
X115246164Y-108522216D01*
X115434827Y-108518174D01*
X115501328Y-108357026D01*
X115535113Y-108186002D01*
X115534888Y-108013998D01*
X116239887Y-108013998D01*
X116240116Y-108188328D01*
X116274351Y-108359264D01*
X116340173Y-108518174D01*
X116528836Y-108522216D01*
X116951052Y-108100000D01*
X117298948Y-108100000D01*
X117721164Y-108522216D01*
X117909827Y-108518174D01*
X117976328Y-108357026D01*
X118010113Y-108186002D01*
X118009888Y-108013998D01*
X118714887Y-108013998D01*
X118715116Y-108188328D01*
X118749351Y-108359264D01*
X118815173Y-108518174D01*
X119003836Y-108522216D01*
X119426052Y-108100000D01*
X119003836Y-107677784D01*
X118815173Y-107681826D01*
X118748672Y-107842974D01*
X118714887Y-108013998D01*
X118009888Y-108013998D01*
X118009884Y-108011672D01*
X117975649Y-107840736D01*
X117909827Y-107681826D01*
X117721164Y-107677784D01*
X117298948Y-108100000D01*
X116951052Y-108100000D01*
X116528836Y-107677784D01*
X116340173Y-107681826D01*
X116273672Y-107842974D01*
X116239887Y-108013998D01*
X115534888Y-108013998D01*
X115534884Y-108011672D01*
X115500649Y-107840736D01*
X115434827Y-107681826D01*
X115246164Y-107677784D01*
X114823948Y-108100000D01*
X114476052Y-108100000D01*
X114053836Y-107677784D01*
X113865173Y-107681826D01*
X113798672Y-107842974D01*
X113764887Y-108013998D01*
X113376843Y-108013998D01*
X113363569Y-107981952D01*
X113278536Y-107854691D01*
X113170309Y-107746464D01*
X113043048Y-107661431D01*
X112901643Y-107602859D01*
X112751528Y-107573000D01*
X112598472Y-107573000D01*
X112448357Y-107602859D01*
X112306952Y-107661431D01*
X112179691Y-107746464D01*
X112071464Y-107854691D01*
X111986431Y-107981952D01*
X111927859Y-108123357D01*
X111898000Y-108273472D01*
X111898000Y-108282291D01*
X111872035Y-108313929D01*
X111816134Y-108418511D01*
X111781712Y-108531988D01*
X111770089Y-108650000D01*
X111773001Y-108679566D01*
X111773000Y-111820446D01*
X111770089Y-111850002D01*
X111773000Y-111879558D01*
X111773000Y-111879567D01*
X111781711Y-111968013D01*
X111816134Y-112081491D01*
X111872034Y-112186072D01*
X111947263Y-112277739D01*
X111970234Y-112296591D01*
X112278408Y-112604765D01*
X112297260Y-112627736D01*
X112355655Y-112675660D01*
X112388925Y-112702965D01*
X112493507Y-112758865D01*
X112606984Y-112793288D01*
X112618179Y-112794390D01*
X112695431Y-112801999D01*
X112695438Y-112801999D01*
X112698000Y-112802251D01*
X112698000Y-112876528D01*
X112727859Y-113026643D01*
X112786431Y-113168048D01*
X112871464Y-113295309D01*
X112979691Y-113403536D01*
X113106952Y-113488569D01*
X113248357Y-113547141D01*
X113398472Y-113577000D01*
X113551528Y-113577000D01*
X113701643Y-113547141D01*
X113843048Y-113488569D01*
X113970309Y-113403536D01*
X114078536Y-113295309D01*
X114140883Y-113202000D01*
X121570444Y-113202000D01*
X121600000Y-113204911D01*
X121629556Y-113202000D01*
X121629566Y-113202000D01*
X121718012Y-113193289D01*
X121831490Y-113158866D01*
X121936071Y-113102966D01*
X122027737Y-113027737D01*
X122046589Y-113004766D01*
X123052393Y-111998964D01*
X123056733Y-112043033D01*
X123091155Y-112156510D01*
X123147056Y-112261092D01*
X123198000Y-112323167D01*
X123198000Y-112326528D01*
X123227859Y-112476643D01*
X123286431Y-112618048D01*
X123371464Y-112745309D01*
X123479691Y-112853536D01*
X123606952Y-112938569D01*
X123748357Y-112997141D01*
X123898472Y-113027000D01*
X124051528Y-113027000D01*
X124201643Y-112997141D01*
X124343048Y-112938569D01*
X124470309Y-112853536D01*
X124578536Y-112745309D01*
X124663569Y-112618048D01*
X124722141Y-112476643D01*
X124752000Y-112326528D01*
X124752000Y-112173472D01*
X124722141Y-112023357D01*
X124663569Y-111881952D01*
X124578536Y-111754691D01*
X124470309Y-111646464D01*
X124343048Y-111561431D01*
X124252021Y-111523726D01*
X124252021Y-111427000D01*
X128498000Y-111427000D01*
X128498000Y-113639927D01*
X128310808Y-113486302D01*
X128080278Y-113363081D01*
X127830137Y-113287201D01*
X127635184Y-113268000D01*
X127504816Y-113268000D01*
X127309863Y-113287201D01*
X127059722Y-113363081D01*
X126829192Y-113486302D01*
X126627130Y-113652130D01*
X126461302Y-113854192D01*
X126338081Y-114084722D01*
X126300000Y-114210257D01*
X126261919Y-114084722D01*
X126138698Y-113854192D01*
X125972870Y-113652130D01*
X125770808Y-113486302D01*
X125540278Y-113363081D01*
X125290137Y-113287201D01*
X125095184Y-113268000D01*
X124964816Y-113268000D01*
X124769863Y-113287201D01*
X124519722Y-113363081D01*
X124289192Y-113486302D01*
X124087130Y-113652130D01*
X123921302Y-113854192D01*
X123798081Y-114084722D01*
X123760000Y-114210257D01*
X123721919Y-114084722D01*
X123598698Y-113854192D01*
X123432870Y-113652130D01*
X123230808Y-113486302D01*
X123000278Y-113363081D01*
X122750137Y-113287201D01*
X122555184Y-113268000D01*
X122424816Y-113268000D01*
X122229863Y-113287201D01*
X121979722Y-113363081D01*
X121749192Y-113486302D01*
X121547130Y-113652130D01*
X121381302Y-113854192D01*
X121258081Y-114084722D01*
X121220000Y-114210257D01*
X121181919Y-114084722D01*
X121058698Y-113854192D01*
X120892870Y-113652130D01*
X120690808Y-113486302D01*
X120460278Y-113363081D01*
X120210137Y-113287201D01*
X120015184Y-113268000D01*
X119884816Y-113268000D01*
X119689863Y-113287201D01*
X119439722Y-113363081D01*
X119209192Y-113486302D01*
X119007130Y-113652130D01*
X118841302Y-113854192D01*
X118718081Y-114084722D01*
X118680000Y-114210257D01*
X118641919Y-114084722D01*
X118518698Y-113854192D01*
X118352870Y-113652130D01*
X118150808Y-113486302D01*
X117920278Y-113363081D01*
X117670137Y-113287201D01*
X117475184Y-113268000D01*
X117344816Y-113268000D01*
X117149863Y-113287201D01*
X116899722Y-113363081D01*
X116669192Y-113486302D01*
X116467130Y-113652130D01*
X116301302Y-113854192D01*
X116178081Y-114084722D01*
X116140000Y-114210257D01*
X116101919Y-114084722D01*
X115978698Y-113854192D01*
X115812870Y-113652130D01*
X115610808Y-113486302D01*
X115380278Y-113363081D01*
X115130137Y-113287201D01*
X114935184Y-113268000D01*
X114804816Y-113268000D01*
X114609863Y-113287201D01*
X114359722Y-113363081D01*
X114129192Y-113486302D01*
X113927130Y-113652130D01*
X113761302Y-113854192D01*
X113638081Y-114084722D01*
X113600000Y-114210257D01*
X113561919Y-114084722D01*
X113438698Y-113854192D01*
X113272870Y-113652130D01*
X113070808Y-113486302D01*
X112840278Y-113363081D01*
X112590137Y-113287201D01*
X112395184Y-113268000D01*
X112264816Y-113268000D01*
X112069863Y-113287201D01*
X111892393Y-113341036D01*
X111052000Y-112500645D01*
X111052000Y-107774355D01*
X111322519Y-107503836D01*
X114227784Y-107503836D01*
X114650000Y-107926052D01*
X115072216Y-107503836D01*
X116702784Y-107503836D01*
X117125000Y-107926052D01*
X117547216Y-107503836D01*
X117543174Y-107315173D01*
X117382026Y-107248672D01*
X117211002Y-107214887D01*
X117036672Y-107215116D01*
X116865736Y-107249351D01*
X116706826Y-107315173D01*
X116702784Y-107503836D01*
X115072216Y-107503836D01*
X115068174Y-107315173D01*
X114907026Y-107248672D01*
X114736002Y-107214887D01*
X114561672Y-107215116D01*
X114390736Y-107249351D01*
X114231826Y-107315173D01*
X114227784Y-107503836D01*
X111322519Y-107503836D01*
X112605192Y-106221164D01*
X116702784Y-106221164D01*
X116706826Y-106409827D01*
X116867974Y-106476328D01*
X117038998Y-106510113D01*
X117213328Y-106509884D01*
X117384264Y-106475649D01*
X117543174Y-106409827D01*
X117547216Y-106221164D01*
X117125000Y-105798948D01*
X116702784Y-106221164D01*
X112605192Y-106221164D01*
X112899357Y-105927000D01*
X112901528Y-105927000D01*
X113051643Y-105897141D01*
X113193048Y-105838569D01*
X113320309Y-105753536D01*
X113428536Y-105645309D01*
X113499570Y-105538998D01*
X116239887Y-105538998D01*
X116240116Y-105713328D01*
X116274351Y-105884264D01*
X116340173Y-106043174D01*
X116528836Y-106047216D01*
X116951052Y-105625000D01*
X116528836Y-105202784D01*
X116340173Y-105206826D01*
X116273672Y-105367974D01*
X116239887Y-105538998D01*
X113499570Y-105538998D01*
X113513569Y-105518048D01*
X113572141Y-105376643D01*
X113602000Y-105226528D01*
X113602000Y-105073472D01*
X113572141Y-104923357D01*
X113563295Y-104902001D01*
X115295443Y-104902001D01*
X115324999Y-104904912D01*
X115354555Y-104902001D01*
X115354565Y-104902001D01*
X115443011Y-104893290D01*
X115556489Y-104858867D01*
X115661070Y-104802967D01*
X115752736Y-104727738D01*
X115771587Y-104704768D01*
X115999346Y-104477010D01*
X116001518Y-104477010D01*
X116151633Y-104447151D01*
X116293038Y-104388579D01*
X116420299Y-104303546D01*
X116528526Y-104195319D01*
X116613559Y-104068058D01*
X116672131Y-103926653D01*
X116697542Y-103798898D01*
X117148000Y-104249356D01*
X117148000Y-104249356D01*
G37*
X117148000Y-104249356D02*
X117148000Y-104493264D01*
X117145089Y-104522820D01*
X117148000Y-104552376D01*
X117148000Y-104552386D01*
X117156711Y-104640832D01*
X117186769Y-104739919D01*
X117036672Y-104740116D01*
X116865736Y-104774351D01*
X116706826Y-104840173D01*
X116702784Y-105028836D01*
X117125000Y-105451052D01*
X117141971Y-105434081D01*
X117315919Y-105608029D01*
X117298948Y-105625000D01*
X117721164Y-106047216D01*
X117909827Y-106043174D01*
X117976328Y-105882026D01*
X118010113Y-105711002D01*
X118010012Y-105634188D01*
X119590835Y-107215012D01*
X119511672Y-107215116D01*
X119340736Y-107249351D01*
X119181826Y-107315173D01*
X119177784Y-107503836D01*
X119600000Y-107926052D01*
X119616971Y-107909081D01*
X119790919Y-108083029D01*
X119773948Y-108100000D01*
X119790919Y-108116971D01*
X119616971Y-108290919D01*
X119600000Y-108273948D01*
X119177784Y-108696164D01*
X119181826Y-108884827D01*
X119342974Y-108951328D01*
X119513998Y-108985113D01*
X119688328Y-108984884D01*
X119859264Y-108950649D01*
X119898001Y-108934604D01*
X119898001Y-110300643D01*
X119450645Y-110748000D01*
X117992927Y-110748000D01*
X118010113Y-110661002D01*
X118009884Y-110486672D01*
X117975649Y-110315736D01*
X117909827Y-110156826D01*
X117721164Y-110152784D01*
X117298948Y-110575000D01*
X117315919Y-110591971D01*
X117159890Y-110748000D01*
X117090110Y-110748000D01*
X116934081Y-110591971D01*
X116951052Y-110575000D01*
X116528836Y-110152784D01*
X116340173Y-110156826D01*
X116273672Y-110317974D01*
X116239887Y-110488998D01*
X116240116Y-110663328D01*
X116257074Y-110748000D01*
X113254556Y-110748000D01*
X113224999Y-110745089D01*
X113195443Y-110748000D01*
X113195434Y-110748000D01*
X113106988Y-110756711D01*
X113012083Y-110785500D01*
X112977000Y-110785500D01*
X112977000Y-109978836D01*
X116702784Y-109978836D01*
X117125000Y-110401052D01*
X117547216Y-109978836D01*
X117543174Y-109790173D01*
X117382026Y-109723672D01*
X117211002Y-109689887D01*
X117036672Y-109690116D01*
X116865736Y-109724351D01*
X116706826Y-109790173D01*
X116702784Y-109978836D01*
X112977000Y-109978836D01*
X112977000Y-109065927D01*
X113043048Y-109038569D01*
X113170309Y-108953536D01*
X113278536Y-108845309D01*
X113363569Y-108718048D01*
X113372633Y-108696164D01*
X114227784Y-108696164D01*
X114231826Y-108884827D01*
X114392974Y-108951328D01*
X114563998Y-108985113D01*
X114738328Y-108984884D01*
X114909264Y-108950649D01*
X115068174Y-108884827D01*
X115072216Y-108696164D01*
X116702784Y-108696164D01*
X116706826Y-108884827D01*
X116867974Y-108951328D01*
X117038998Y-108985113D01*
X117213328Y-108984884D01*
X117384264Y-108950649D01*
X117543174Y-108884827D01*
X117547216Y-108696164D01*
X117125000Y-108273948D01*
X116702784Y-108696164D01*
X115072216Y-108696164D01*
X114650000Y-108273948D01*
X114227784Y-108696164D01*
X113372633Y-108696164D01*
X113422141Y-108576643D01*
X113452000Y-108426528D01*
X113452000Y-108273472D01*
X113422141Y-108123357D01*
X113376843Y-108013998D01*
X113764887Y-108013998D01*
X113765116Y-108188328D01*
X113799351Y-108359264D01*
X113865173Y-108518174D01*
X114053836Y-108522216D01*
X114476052Y-108100000D01*
X114823948Y-108100000D01*
X115246164Y-108522216D01*
X115434827Y-108518174D01*
X115501328Y-108357026D01*
X115535113Y-108186002D01*
X115534888Y-108013998D01*
X116239887Y-108013998D01*
X116240116Y-108188328D01*
X116274351Y-108359264D01*
X116340173Y-108518174D01*
X116528836Y-108522216D01*
X116951052Y-108100000D01*
X117298948Y-108100000D01*
X117721164Y-108522216D01*
X117909827Y-108518174D01*
X117976328Y-108357026D01*
X118010113Y-108186002D01*
X118009888Y-108013998D01*
X118714887Y-108013998D01*
X118715116Y-108188328D01*
X118749351Y-108359264D01*
X118815173Y-108518174D01*
X119003836Y-108522216D01*
X119426052Y-108100000D01*
X119003836Y-107677784D01*
X118815173Y-107681826D01*
X118748672Y-107842974D01*
X118714887Y-108013998D01*
X118009888Y-108013998D01*
X118009884Y-108011672D01*
X117975649Y-107840736D01*
X117909827Y-107681826D01*
X117721164Y-107677784D01*
X117298948Y-108100000D01*
X116951052Y-108100000D01*
X116528836Y-107677784D01*
X116340173Y-107681826D01*
X116273672Y-107842974D01*
X116239887Y-108013998D01*
X115534888Y-108013998D01*
X115534884Y-108011672D01*
X115500649Y-107840736D01*
X115434827Y-107681826D01*
X115246164Y-107677784D01*
X114823948Y-108100000D01*
X114476052Y-108100000D01*
X114053836Y-107677784D01*
X113865173Y-107681826D01*
X113798672Y-107842974D01*
X113764887Y-108013998D01*
X113376843Y-108013998D01*
X113363569Y-107981952D01*
X113278536Y-107854691D01*
X113170309Y-107746464D01*
X113043048Y-107661431D01*
X112901643Y-107602859D01*
X112751528Y-107573000D01*
X112598472Y-107573000D01*
X112448357Y-107602859D01*
X112306952Y-107661431D01*
X112179691Y-107746464D01*
X112071464Y-107854691D01*
X111986431Y-107981952D01*
X111927859Y-108123357D01*
X111898000Y-108273472D01*
X111898000Y-108282291D01*
X111872035Y-108313929D01*
X111816134Y-108418511D01*
X111781712Y-108531988D01*
X111770089Y-108650000D01*
X111773001Y-108679566D01*
X111773000Y-111820446D01*
X111770089Y-111850002D01*
X111773000Y-111879558D01*
X111773000Y-111879567D01*
X111781711Y-111968013D01*
X111816134Y-112081491D01*
X111872034Y-112186072D01*
X111947263Y-112277739D01*
X111970234Y-112296591D01*
X112278408Y-112604765D01*
X112297260Y-112627736D01*
X112355655Y-112675660D01*
X112388925Y-112702965D01*
X112493507Y-112758865D01*
X112606984Y-112793288D01*
X112618179Y-112794390D01*
X112695431Y-112801999D01*
X112695438Y-112801999D01*
X112698000Y-112802251D01*
X112698000Y-112876528D01*
X112727859Y-113026643D01*
X112786431Y-113168048D01*
X112871464Y-113295309D01*
X112979691Y-113403536D01*
X113106952Y-113488569D01*
X113248357Y-113547141D01*
X113398472Y-113577000D01*
X113551528Y-113577000D01*
X113701643Y-113547141D01*
X113843048Y-113488569D01*
X113970309Y-113403536D01*
X114078536Y-113295309D01*
X114140883Y-113202000D01*
X121570444Y-113202000D01*
X121600000Y-113204911D01*
X121629556Y-113202000D01*
X121629566Y-113202000D01*
X121718012Y-113193289D01*
X121831490Y-113158866D01*
X121936071Y-113102966D01*
X122027737Y-113027737D01*
X122046589Y-113004766D01*
X123052393Y-111998964D01*
X123056733Y-112043033D01*
X123091155Y-112156510D01*
X123147056Y-112261092D01*
X123198000Y-112323167D01*
X123198000Y-112326528D01*
X123227859Y-112476643D01*
X123286431Y-112618048D01*
X123371464Y-112745309D01*
X123479691Y-112853536D01*
X123606952Y-112938569D01*
X123748357Y-112997141D01*
X123898472Y-113027000D01*
X124051528Y-113027000D01*
X124201643Y-112997141D01*
X124343048Y-112938569D01*
X124470309Y-112853536D01*
X124578536Y-112745309D01*
X124663569Y-112618048D01*
X124722141Y-112476643D01*
X124752000Y-112326528D01*
X124752000Y-112173472D01*
X124722141Y-112023357D01*
X124663569Y-111881952D01*
X124578536Y-111754691D01*
X124470309Y-111646464D01*
X124343048Y-111561431D01*
X124252021Y-111523726D01*
X124252021Y-111427000D01*
X128498000Y-111427000D01*
X128498000Y-113639927D01*
X128310808Y-113486302D01*
X128080278Y-113363081D01*
X127830137Y-113287201D01*
X127635184Y-113268000D01*
X127504816Y-113268000D01*
X127309863Y-113287201D01*
X127059722Y-113363081D01*
X126829192Y-113486302D01*
X126627130Y-113652130D01*
X126461302Y-113854192D01*
X126338081Y-114084722D01*
X126300000Y-114210257D01*
X126261919Y-114084722D01*
X126138698Y-113854192D01*
X125972870Y-113652130D01*
X125770808Y-113486302D01*
X125540278Y-113363081D01*
X125290137Y-113287201D01*
X125095184Y-113268000D01*
X124964816Y-113268000D01*
X124769863Y-113287201D01*
X124519722Y-113363081D01*
X124289192Y-113486302D01*
X124087130Y-113652130D01*
X123921302Y-113854192D01*
X123798081Y-114084722D01*
X123760000Y-114210257D01*
X123721919Y-114084722D01*
X123598698Y-113854192D01*
X123432870Y-113652130D01*
X123230808Y-113486302D01*
X123000278Y-113363081D01*
X122750137Y-113287201D01*
X122555184Y-113268000D01*
X122424816Y-113268000D01*
X122229863Y-113287201D01*
X121979722Y-113363081D01*
X121749192Y-113486302D01*
X121547130Y-113652130D01*
X121381302Y-113854192D01*
X121258081Y-114084722D01*
X121220000Y-114210257D01*
X121181919Y-114084722D01*
X121058698Y-113854192D01*
X120892870Y-113652130D01*
X120690808Y-113486302D01*
X120460278Y-113363081D01*
X120210137Y-113287201D01*
X120015184Y-113268000D01*
X119884816Y-113268000D01*
X119689863Y-113287201D01*
X119439722Y-113363081D01*
X119209192Y-113486302D01*
X119007130Y-113652130D01*
X118841302Y-113854192D01*
X118718081Y-114084722D01*
X118680000Y-114210257D01*
X118641919Y-114084722D01*
X118518698Y-113854192D01*
X118352870Y-113652130D01*
X118150808Y-113486302D01*
X117920278Y-113363081D01*
X117670137Y-113287201D01*
X117475184Y-113268000D01*
X117344816Y-113268000D01*
X117149863Y-113287201D01*
X116899722Y-113363081D01*
X116669192Y-113486302D01*
X116467130Y-113652130D01*
X116301302Y-113854192D01*
X116178081Y-114084722D01*
X116140000Y-114210257D01*
X116101919Y-114084722D01*
X115978698Y-113854192D01*
X115812870Y-113652130D01*
X115610808Y-113486302D01*
X115380278Y-113363081D01*
X115130137Y-113287201D01*
X114935184Y-113268000D01*
X114804816Y-113268000D01*
X114609863Y-113287201D01*
X114359722Y-113363081D01*
X114129192Y-113486302D01*
X113927130Y-113652130D01*
X113761302Y-113854192D01*
X113638081Y-114084722D01*
X113600000Y-114210257D01*
X113561919Y-114084722D01*
X113438698Y-113854192D01*
X113272870Y-113652130D01*
X113070808Y-113486302D01*
X112840278Y-113363081D01*
X112590137Y-113287201D01*
X112395184Y-113268000D01*
X112264816Y-113268000D01*
X112069863Y-113287201D01*
X111892393Y-113341036D01*
X111052000Y-112500645D01*
X111052000Y-107774355D01*
X111322519Y-107503836D01*
X114227784Y-107503836D01*
X114650000Y-107926052D01*
X115072216Y-107503836D01*
X116702784Y-107503836D01*
X117125000Y-107926052D01*
X117547216Y-107503836D01*
X117543174Y-107315173D01*
X117382026Y-107248672D01*
X117211002Y-107214887D01*
X117036672Y-107215116D01*
X116865736Y-107249351D01*
X116706826Y-107315173D01*
X116702784Y-107503836D01*
X115072216Y-107503836D01*
X115068174Y-107315173D01*
X114907026Y-107248672D01*
X114736002Y-107214887D01*
X114561672Y-107215116D01*
X114390736Y-107249351D01*
X114231826Y-107315173D01*
X114227784Y-107503836D01*
X111322519Y-107503836D01*
X112605192Y-106221164D01*
X116702784Y-106221164D01*
X116706826Y-106409827D01*
X116867974Y-106476328D01*
X117038998Y-106510113D01*
X117213328Y-106509884D01*
X117384264Y-106475649D01*
X117543174Y-106409827D01*
X117547216Y-106221164D01*
X117125000Y-105798948D01*
X116702784Y-106221164D01*
X112605192Y-106221164D01*
X112899357Y-105927000D01*
X112901528Y-105927000D01*
X113051643Y-105897141D01*
X113193048Y-105838569D01*
X113320309Y-105753536D01*
X113428536Y-105645309D01*
X113499570Y-105538998D01*
X116239887Y-105538998D01*
X116240116Y-105713328D01*
X116274351Y-105884264D01*
X116340173Y-106043174D01*
X116528836Y-106047216D01*
X116951052Y-105625000D01*
X116528836Y-105202784D01*
X116340173Y-105206826D01*
X116273672Y-105367974D01*
X116239887Y-105538998D01*
X113499570Y-105538998D01*
X113513569Y-105518048D01*
X113572141Y-105376643D01*
X113602000Y-105226528D01*
X113602000Y-105073472D01*
X113572141Y-104923357D01*
X113563295Y-104902001D01*
X115295443Y-104902001D01*
X115324999Y-104904912D01*
X115354555Y-104902001D01*
X115354565Y-104902001D01*
X115443011Y-104893290D01*
X115556489Y-104858867D01*
X115661070Y-104802967D01*
X115752736Y-104727738D01*
X115771587Y-104704768D01*
X115999346Y-104477010D01*
X116001518Y-104477010D01*
X116151633Y-104447151D01*
X116293038Y-104388579D01*
X116420299Y-104303546D01*
X116528526Y-104195319D01*
X116613559Y-104068058D01*
X116672131Y-103926653D01*
X116697542Y-103798898D01*
X117148000Y-104249356D01*
G36*
X112457000Y-101668000D02*
G01*
X112477000Y-101668000D01*
X112477000Y-101922000D01*
X112457000Y-101922000D01*
X112457000Y-101942000D01*
X112203000Y-101942000D01*
X112203000Y-101922000D01*
X112183000Y-101922000D01*
X112183000Y-101668000D01*
X112203000Y-101668000D01*
X112203000Y-101648000D01*
X112457000Y-101648000D01*
X112457000Y-101668000D01*
X112457000Y-101668000D01*
G37*
X112457000Y-101668000D02*
X112477000Y-101668000D01*
X112477000Y-101922000D01*
X112457000Y-101922000D01*
X112457000Y-101942000D01*
X112203000Y-101942000D01*
X112203000Y-101922000D01*
X112183000Y-101922000D01*
X112183000Y-101668000D01*
X112203000Y-101668000D01*
X112203000Y-101648000D01*
X112457000Y-101648000D01*
X112457000Y-101668000D01*
M02*
