G04 #@! TF.GenerationSoftware,KiCad,Pcbnew,(5.1.4-0-10_14)*
G04 #@! TF.CreationDate,2020-07-29T13:34:46+03:00*
G04 #@! TF.ProjectId,esp32-pico-module,65737033-322d-4706-9963-6f2d6d6f6475,rev?*
G04 #@! TF.SameCoordinates,Original*
G04 #@! TF.FileFunction,Legend,Bot*
G04 #@! TF.FilePolarity,Positive*
%FSLAX46Y46*%
G04 Gerber Fmt 4.6, Leading zero omitted, Abs format (unit mm)*
G04 Created by KiCad (PCBNEW (5.1.4-0-10_14)) date 2020-07-29 13:34:46*
%MOMM*%
%LPD*%
G04 APERTURE LIST*
%ADD10C,0.120000*%
%ADD11C,0.150000*%
%ADD12C,0.112000*%
G04 APERTURE END LIST*
D10*
X117342857Y-103368476D02*
X117342857Y-103635142D01*
X117761904Y-103749428D02*
X117761904Y-103368476D01*
X116961904Y-103368476D01*
X116961904Y-103749428D01*
X117761904Y-104092285D02*
X116961904Y-104092285D01*
X117761904Y-104549428D01*
X116961904Y-104549428D01*
D11*
X124017261Y-106867380D02*
X123445833Y-106867380D01*
X123731547Y-107867380D02*
X123731547Y-106867380D01*
X123112500Y-107867380D02*
X123112500Y-106867380D01*
X122683928Y-107867380D02*
X122683928Y-107343571D01*
X122731547Y-107248333D01*
X122826785Y-107200714D01*
X122969642Y-107200714D01*
X123064880Y-107248333D01*
X123112500Y-107295952D01*
X122207738Y-107867380D02*
X122207738Y-107200714D01*
X122207738Y-106867380D02*
X122255357Y-106915000D01*
X122207738Y-106962619D01*
X122160119Y-106915000D01*
X122207738Y-106867380D01*
X122207738Y-106962619D01*
X121731547Y-107200714D02*
X121731547Y-107867380D01*
X121731547Y-107295952D02*
X121683928Y-107248333D01*
X121588690Y-107200714D01*
X121445833Y-107200714D01*
X121350595Y-107248333D01*
X121302976Y-107343571D01*
X121302976Y-107867380D01*
X120398214Y-107200714D02*
X120398214Y-108010238D01*
X120445833Y-108105476D01*
X120493452Y-108153095D01*
X120588690Y-108200714D01*
X120731547Y-108200714D01*
X120826785Y-108153095D01*
X120398214Y-107819761D02*
X120493452Y-107867380D01*
X120683928Y-107867380D01*
X120779166Y-107819761D01*
X120826785Y-107772142D01*
X120874404Y-107676904D01*
X120874404Y-107391190D01*
X120826785Y-107295952D01*
X120779166Y-107248333D01*
X120683928Y-107200714D01*
X120493452Y-107200714D01*
X120398214Y-107248333D01*
X119779166Y-107867380D02*
X119874404Y-107819761D01*
X119922023Y-107724523D01*
X119922023Y-106867380D01*
X119017261Y-107819761D02*
X119112500Y-107867380D01*
X119302976Y-107867380D01*
X119398214Y-107819761D01*
X119445833Y-107724523D01*
X119445833Y-107343571D01*
X119398214Y-107248333D01*
X119302976Y-107200714D01*
X119112500Y-107200714D01*
X119017261Y-107248333D01*
X118969642Y-107343571D01*
X118969642Y-107438809D01*
X119445833Y-107534047D01*
X118541071Y-107867380D02*
X118541071Y-107200714D01*
X118541071Y-107391190D02*
X118493452Y-107295952D01*
X118445833Y-107248333D01*
X118350595Y-107200714D01*
X118255357Y-107200714D01*
X117160119Y-107343571D02*
X116826785Y-107343571D01*
X116683928Y-107867380D02*
X117160119Y-107867380D01*
X117160119Y-106867380D01*
X116683928Y-106867380D01*
X116302976Y-107819761D02*
X116160119Y-107867380D01*
X115922023Y-107867380D01*
X115826785Y-107819761D01*
X115779166Y-107772142D01*
X115731547Y-107676904D01*
X115731547Y-107581666D01*
X115779166Y-107486428D01*
X115826785Y-107438809D01*
X115922023Y-107391190D01*
X116112500Y-107343571D01*
X116207738Y-107295952D01*
X116255357Y-107248333D01*
X116302976Y-107153095D01*
X116302976Y-107057857D01*
X116255357Y-106962619D01*
X116207738Y-106915000D01*
X116112500Y-106867380D01*
X115874404Y-106867380D01*
X115731547Y-106915000D01*
X115302976Y-107867380D02*
X115302976Y-106867380D01*
X114922023Y-106867380D01*
X114826785Y-106915000D01*
X114779166Y-106962619D01*
X114731547Y-107057857D01*
X114731547Y-107200714D01*
X114779166Y-107295952D01*
X114826785Y-107343571D01*
X114922023Y-107391190D01*
X115302976Y-107391190D01*
X114398214Y-106867380D02*
X113779166Y-106867380D01*
X114112500Y-107248333D01*
X113969642Y-107248333D01*
X113874404Y-107295952D01*
X113826785Y-107343571D01*
X113779166Y-107438809D01*
X113779166Y-107676904D01*
X113826785Y-107772142D01*
X113874404Y-107819761D01*
X113969642Y-107867380D01*
X114255357Y-107867380D01*
X114350595Y-107819761D01*
X114398214Y-107772142D01*
X113398214Y-106962619D02*
X113350595Y-106915000D01*
X113255357Y-106867380D01*
X113017261Y-106867380D01*
X112922023Y-106915000D01*
X112874404Y-106962619D01*
X112826785Y-107057857D01*
X112826785Y-107153095D01*
X112874404Y-107295952D01*
X113445833Y-107867380D01*
X112826785Y-107867380D01*
X123874404Y-109517380D02*
X123874404Y-108517380D01*
X123541071Y-109231666D01*
X123207738Y-108517380D01*
X123207738Y-109517380D01*
X122588690Y-109517380D02*
X122683928Y-109469761D01*
X122731547Y-109422142D01*
X122779166Y-109326904D01*
X122779166Y-109041190D01*
X122731547Y-108945952D01*
X122683928Y-108898333D01*
X122588690Y-108850714D01*
X122445833Y-108850714D01*
X122350595Y-108898333D01*
X122302976Y-108945952D01*
X122255357Y-109041190D01*
X122255357Y-109326904D01*
X122302976Y-109422142D01*
X122350595Y-109469761D01*
X122445833Y-109517380D01*
X122588690Y-109517380D01*
X121398214Y-109517380D02*
X121398214Y-108517380D01*
X121398214Y-109469761D02*
X121493452Y-109517380D01*
X121683928Y-109517380D01*
X121779166Y-109469761D01*
X121826785Y-109422142D01*
X121874404Y-109326904D01*
X121874404Y-109041190D01*
X121826785Y-108945952D01*
X121779166Y-108898333D01*
X121683928Y-108850714D01*
X121493452Y-108850714D01*
X121398214Y-108898333D01*
X120493452Y-108850714D02*
X120493452Y-109517380D01*
X120922023Y-108850714D02*
X120922023Y-109374523D01*
X120874404Y-109469761D01*
X120779166Y-109517380D01*
X120636309Y-109517380D01*
X120541071Y-109469761D01*
X120493452Y-109422142D01*
X119874404Y-109517380D02*
X119969642Y-109469761D01*
X120017261Y-109374523D01*
X120017261Y-108517380D01*
X119112500Y-109469761D02*
X119207738Y-109517380D01*
X119398214Y-109517380D01*
X119493452Y-109469761D01*
X119541071Y-109374523D01*
X119541071Y-108993571D01*
X119493452Y-108898333D01*
X119398214Y-108850714D01*
X119207738Y-108850714D01*
X119112500Y-108898333D01*
X119064880Y-108993571D01*
X119064880Y-109088809D01*
X119541071Y-109184047D01*
X118017261Y-108517380D02*
X117683928Y-109517380D01*
X117350595Y-108517380D01*
X117064880Y-108612619D02*
X117017261Y-108565000D01*
X116922023Y-108517380D01*
X116683928Y-108517380D01*
X116588690Y-108565000D01*
X116541071Y-108612619D01*
X116493452Y-108707857D01*
X116493452Y-108803095D01*
X116541071Y-108945952D01*
X117112500Y-109517380D01*
X116493452Y-109517380D01*
X116064880Y-109422142D02*
X116017261Y-109469761D01*
X116064880Y-109517380D01*
X116112500Y-109469761D01*
X116064880Y-109422142D01*
X116064880Y-109517380D01*
X115398214Y-108517380D02*
X115302976Y-108517380D01*
X115207738Y-108565000D01*
X115160119Y-108612619D01*
X115112500Y-108707857D01*
X115064880Y-108898333D01*
X115064880Y-109136428D01*
X115112500Y-109326904D01*
X115160119Y-109422142D01*
X115207738Y-109469761D01*
X115302976Y-109517380D01*
X115398214Y-109517380D01*
X115493452Y-109469761D01*
X115541071Y-109422142D01*
X115588690Y-109326904D01*
X115636309Y-109136428D01*
X115636309Y-108898333D01*
X115588690Y-108707857D01*
X115541071Y-108612619D01*
X115493452Y-108565000D01*
X115398214Y-108517380D01*
D10*
X127911904Y-111431523D02*
X127111904Y-111431523D01*
X127111904Y-111964857D02*
X127111904Y-112117238D01*
X127150000Y-112193428D01*
X127226190Y-112269619D01*
X127378571Y-112307714D01*
X127645238Y-112307714D01*
X127797619Y-112269619D01*
X127873809Y-112193428D01*
X127911904Y-112117238D01*
X127911904Y-111964857D01*
X127873809Y-111888666D01*
X127797619Y-111812476D01*
X127645238Y-111774380D01*
X127378571Y-111774380D01*
X127226190Y-111812476D01*
X127150000Y-111888666D01*
X127111904Y-111964857D01*
X127111904Y-113031523D02*
X127111904Y-112650571D01*
X127492857Y-112612476D01*
X127454761Y-112650571D01*
X127416666Y-112726761D01*
X127416666Y-112917238D01*
X127454761Y-112993428D01*
X127492857Y-113031523D01*
X127569047Y-113069619D01*
X127759523Y-113069619D01*
X127835714Y-113031523D01*
X127873809Y-112993428D01*
X127911904Y-112917238D01*
X127911904Y-112726761D01*
X127873809Y-112650571D01*
X127835714Y-112612476D01*
D12*
X125361904Y-111436723D02*
X124561904Y-111436723D01*
X124561904Y-111970057D02*
X124561904Y-112122438D01*
X124600000Y-112198628D01*
X124676190Y-112274819D01*
X124828571Y-112312914D01*
X125095238Y-112312914D01*
X125247619Y-112274819D01*
X125323809Y-112198628D01*
X125361904Y-112122438D01*
X125361904Y-111970057D01*
X125323809Y-111893866D01*
X125247619Y-111817676D01*
X125095238Y-111779580D01*
X124828571Y-111779580D01*
X124676190Y-111817676D01*
X124600000Y-111893866D01*
X124561904Y-111970057D01*
X124904761Y-112770057D02*
X124866666Y-112693866D01*
X124828571Y-112655771D01*
X124752380Y-112617676D01*
X124714285Y-112617676D01*
X124638095Y-112655771D01*
X124600000Y-112693866D01*
X124561904Y-112770057D01*
X124561904Y-112922438D01*
X124600000Y-112998628D01*
X124638095Y-113036723D01*
X124714285Y-113074819D01*
X124752380Y-113074819D01*
X124828571Y-113036723D01*
X124866666Y-112998628D01*
X124904761Y-112922438D01*
X124904761Y-112770057D01*
X124942857Y-112693866D01*
X124980952Y-112655771D01*
X125057142Y-112617676D01*
X125209523Y-112617676D01*
X125285714Y-112655771D01*
X125323809Y-112693866D01*
X125361904Y-112770057D01*
X125361904Y-112922438D01*
X125323809Y-112998628D01*
X125285714Y-113036723D01*
X125209523Y-113074819D01*
X125057142Y-113074819D01*
X124980952Y-113036723D01*
X124942857Y-112998628D01*
X124904761Y-112922438D01*
D10*
X122861904Y-111431523D02*
X122061904Y-111431523D01*
X122061904Y-111964857D02*
X122061904Y-112117238D01*
X122100000Y-112193428D01*
X122176190Y-112269619D01*
X122328571Y-112307714D01*
X122595238Y-112307714D01*
X122747619Y-112269619D01*
X122823809Y-112193428D01*
X122861904Y-112117238D01*
X122861904Y-111964857D01*
X122823809Y-111888666D01*
X122747619Y-111812476D01*
X122595238Y-111774380D01*
X122328571Y-111774380D01*
X122176190Y-111812476D01*
X122100000Y-111888666D01*
X122061904Y-111964857D01*
X122061904Y-112574380D02*
X122061904Y-113107714D01*
X122861904Y-112764857D01*
X120311904Y-110669619D02*
X119511904Y-110669619D01*
X119511904Y-111202952D02*
X119511904Y-111355333D01*
X119550000Y-111431523D01*
X119626190Y-111507714D01*
X119778571Y-111545809D01*
X120045238Y-111545809D01*
X120197619Y-111507714D01*
X120273809Y-111431523D01*
X120311904Y-111355333D01*
X120311904Y-111202952D01*
X120273809Y-111126761D01*
X120197619Y-111050571D01*
X120045238Y-111012476D01*
X119778571Y-111012476D01*
X119626190Y-111050571D01*
X119550000Y-111126761D01*
X119511904Y-111202952D01*
X120311904Y-112307714D02*
X120311904Y-111850571D01*
X120311904Y-112079142D02*
X119511904Y-112079142D01*
X119626190Y-112002952D01*
X119702380Y-111926761D01*
X119740476Y-111850571D01*
X119511904Y-112802952D02*
X119511904Y-112879142D01*
X119550000Y-112955333D01*
X119588095Y-112993428D01*
X119664285Y-113031523D01*
X119816666Y-113069619D01*
X120007142Y-113069619D01*
X120159523Y-113031523D01*
X120235714Y-112993428D01*
X120273809Y-112955333D01*
X120311904Y-112879142D01*
X120311904Y-112802952D01*
X120273809Y-112726761D01*
X120235714Y-112688666D01*
X120159523Y-112650571D01*
X120007142Y-112612476D01*
X119816666Y-112612476D01*
X119664285Y-112650571D01*
X119588095Y-112688666D01*
X119550000Y-112726761D01*
X119511904Y-112802952D01*
X117761904Y-110669619D02*
X116961904Y-110669619D01*
X116961904Y-111202952D02*
X116961904Y-111355333D01*
X117000000Y-111431523D01*
X117076190Y-111507714D01*
X117228571Y-111545809D01*
X117495238Y-111545809D01*
X117647619Y-111507714D01*
X117723809Y-111431523D01*
X117761904Y-111355333D01*
X117761904Y-111202952D01*
X117723809Y-111126761D01*
X117647619Y-111050571D01*
X117495238Y-111012476D01*
X117228571Y-111012476D01*
X117076190Y-111050571D01*
X117000000Y-111126761D01*
X116961904Y-111202952D01*
X117038095Y-111850571D02*
X117000000Y-111888666D01*
X116961904Y-111964857D01*
X116961904Y-112155333D01*
X117000000Y-112231523D01*
X117038095Y-112269619D01*
X117114285Y-112307714D01*
X117190476Y-112307714D01*
X117304761Y-112269619D01*
X117761904Y-111812476D01*
X117761904Y-112307714D01*
X116961904Y-112802952D02*
X116961904Y-112879142D01*
X117000000Y-112955333D01*
X117038095Y-112993428D01*
X117114285Y-113031523D01*
X117266666Y-113069619D01*
X117457142Y-113069619D01*
X117609523Y-113031523D01*
X117685714Y-112993428D01*
X117723809Y-112955333D01*
X117761904Y-112879142D01*
X117761904Y-112802952D01*
X117723809Y-112726761D01*
X117685714Y-112688666D01*
X117609523Y-112650571D01*
X117457142Y-112612476D01*
X117266666Y-112612476D01*
X117114285Y-112650571D01*
X117038095Y-112688666D01*
X117000000Y-112726761D01*
X116961904Y-112802952D01*
X115211904Y-111507714D02*
X114411904Y-111507714D01*
X114411904Y-111812476D02*
X114411904Y-112307714D01*
X114716666Y-112041047D01*
X114716666Y-112155333D01*
X114754761Y-112231523D01*
X114792857Y-112269619D01*
X114869047Y-112307714D01*
X115059523Y-112307714D01*
X115135714Y-112269619D01*
X115173809Y-112231523D01*
X115211904Y-112155333D01*
X115211904Y-111926761D01*
X115173809Y-111850571D01*
X115135714Y-111812476D01*
X114411904Y-112574380D02*
X114411904Y-113107714D01*
X115211904Y-112764857D01*
X112661904Y-110669619D02*
X111861904Y-110669619D01*
X111861904Y-111202952D02*
X111861904Y-111355333D01*
X111900000Y-111431523D01*
X111976190Y-111507714D01*
X112128571Y-111545809D01*
X112395238Y-111545809D01*
X112547619Y-111507714D01*
X112623809Y-111431523D01*
X112661904Y-111355333D01*
X112661904Y-111202952D01*
X112623809Y-111126761D01*
X112547619Y-111050571D01*
X112395238Y-111012476D01*
X112128571Y-111012476D01*
X111976190Y-111050571D01*
X111900000Y-111126761D01*
X111861904Y-111202952D01*
X111938095Y-111850571D02*
X111900000Y-111888666D01*
X111861904Y-111964857D01*
X111861904Y-112155333D01*
X111900000Y-112231523D01*
X111938095Y-112269619D01*
X112014285Y-112307714D01*
X112090476Y-112307714D01*
X112204761Y-112269619D01*
X112661904Y-111812476D01*
X112661904Y-112307714D01*
X111861904Y-112993428D02*
X111861904Y-112841047D01*
X111900000Y-112764857D01*
X111938095Y-112726761D01*
X112052380Y-112650571D01*
X112204761Y-112612476D01*
X112509523Y-112612476D01*
X112585714Y-112650571D01*
X112623809Y-112688666D01*
X112661904Y-112764857D01*
X112661904Y-112917238D01*
X112623809Y-112993428D01*
X112585714Y-113031523D01*
X112509523Y-113069619D01*
X112319047Y-113069619D01*
X112242857Y-113031523D01*
X112204761Y-112993428D01*
X112166666Y-112917238D01*
X112166666Y-112764857D01*
X112204761Y-112688666D01*
X112242857Y-112650571D01*
X112319047Y-112612476D01*
X110161904Y-110669619D02*
X109361904Y-110669619D01*
X109361904Y-111202952D02*
X109361904Y-111355333D01*
X109400000Y-111431523D01*
X109476190Y-111507714D01*
X109628571Y-111545809D01*
X109895238Y-111545809D01*
X110047619Y-111507714D01*
X110123809Y-111431523D01*
X110161904Y-111355333D01*
X110161904Y-111202952D01*
X110123809Y-111126761D01*
X110047619Y-111050571D01*
X109895238Y-111012476D01*
X109628571Y-111012476D01*
X109476190Y-111050571D01*
X109400000Y-111126761D01*
X109361904Y-111202952D01*
X109438095Y-111850571D02*
X109400000Y-111888666D01*
X109361904Y-111964857D01*
X109361904Y-112155333D01*
X109400000Y-112231523D01*
X109438095Y-112269619D01*
X109514285Y-112307714D01*
X109590476Y-112307714D01*
X109704761Y-112269619D01*
X110161904Y-111812476D01*
X110161904Y-112307714D01*
X109361904Y-113031523D02*
X109361904Y-112650571D01*
X109742857Y-112612476D01*
X109704761Y-112650571D01*
X109666666Y-112726761D01*
X109666666Y-112917238D01*
X109704761Y-112993428D01*
X109742857Y-113031523D01*
X109819047Y-113069619D01*
X110009523Y-113069619D01*
X110085714Y-113031523D01*
X110123809Y-112993428D01*
X110161904Y-112917238D01*
X110161904Y-112726761D01*
X110123809Y-112650571D01*
X110085714Y-112612476D01*
X109311904Y-103292285D02*
X109311904Y-103787523D01*
X109616666Y-103520857D01*
X109616666Y-103635142D01*
X109654761Y-103711333D01*
X109692857Y-103749428D01*
X109769047Y-103787523D01*
X109959523Y-103787523D01*
X110035714Y-103749428D01*
X110073809Y-103711333D01*
X110111904Y-103635142D01*
X110111904Y-103406571D01*
X110073809Y-103330380D01*
X110035714Y-103292285D01*
X109311904Y-104016095D02*
X110111904Y-104282761D01*
X109311904Y-104549428D01*
X109311904Y-104739904D02*
X109311904Y-105235142D01*
X109616666Y-104968476D01*
X109616666Y-105082761D01*
X109654761Y-105158952D01*
X109692857Y-105197047D01*
X109769047Y-105235142D01*
X109959523Y-105235142D01*
X110035714Y-105197047D01*
X110073809Y-105158952D01*
X110111904Y-105082761D01*
X110111904Y-104854190D01*
X110073809Y-104778000D01*
X110035714Y-104739904D01*
X111900000Y-103787523D02*
X111861904Y-103711333D01*
X111861904Y-103597047D01*
X111900000Y-103482761D01*
X111976190Y-103406571D01*
X112052380Y-103368476D01*
X112204761Y-103330380D01*
X112319047Y-103330380D01*
X112471428Y-103368476D01*
X112547619Y-103406571D01*
X112623809Y-103482761D01*
X112661904Y-103597047D01*
X112661904Y-103673238D01*
X112623809Y-103787523D01*
X112585714Y-103825619D01*
X112319047Y-103825619D01*
X112319047Y-103673238D01*
X112661904Y-104168476D02*
X111861904Y-104168476D01*
X112661904Y-104625619D01*
X111861904Y-104625619D01*
X112661904Y-105006571D02*
X111861904Y-105006571D01*
X111861904Y-105197047D01*
X111900000Y-105311333D01*
X111976190Y-105387523D01*
X112052380Y-105425619D01*
X112204761Y-105463714D01*
X112319047Y-105463714D01*
X112471428Y-105425619D01*
X112547619Y-105387523D01*
X112623809Y-105311333D01*
X112661904Y-105197047D01*
X112661904Y-105006571D01*
X115211904Y-103368476D02*
X114411904Y-103368476D01*
X114411904Y-103901809D02*
X114411904Y-104054190D01*
X114450000Y-104130380D01*
X114526190Y-104206571D01*
X114678571Y-104244666D01*
X114945238Y-104244666D01*
X115097619Y-104206571D01*
X115173809Y-104130380D01*
X115211904Y-104054190D01*
X115211904Y-103901809D01*
X115173809Y-103825619D01*
X115097619Y-103749428D01*
X114945238Y-103711333D01*
X114678571Y-103711333D01*
X114526190Y-103749428D01*
X114450000Y-103825619D01*
X114411904Y-103901809D01*
X114411904Y-104739904D02*
X114411904Y-104816095D01*
X114450000Y-104892285D01*
X114488095Y-104930380D01*
X114564285Y-104968476D01*
X114716666Y-105006571D01*
X114907142Y-105006571D01*
X115059523Y-104968476D01*
X115135714Y-104930380D01*
X115173809Y-104892285D01*
X115211904Y-104816095D01*
X115211904Y-104739904D01*
X115173809Y-104663714D01*
X115135714Y-104625619D01*
X115059523Y-104587523D01*
X114907142Y-104549428D01*
X114716666Y-104549428D01*
X114564285Y-104587523D01*
X114488095Y-104625619D01*
X114450000Y-104663714D01*
X114411904Y-104739904D01*
X120311904Y-103825619D02*
X119930952Y-103558952D01*
X120311904Y-103368476D02*
X119511904Y-103368476D01*
X119511904Y-103673238D01*
X119550000Y-103749428D01*
X119588095Y-103787523D01*
X119664285Y-103825619D01*
X119778571Y-103825619D01*
X119854761Y-103787523D01*
X119892857Y-103749428D01*
X119930952Y-103673238D01*
X119930952Y-103368476D01*
X119511904Y-104092285D02*
X120311904Y-104625619D01*
X119511904Y-104625619D02*
X120311904Y-104092285D01*
X120311904Y-104930380D02*
X119511904Y-104930380D01*
X119511904Y-105120857D01*
X119550000Y-105235142D01*
X119626190Y-105311333D01*
X119702380Y-105349428D01*
X119854761Y-105387523D01*
X119969047Y-105387523D01*
X120121428Y-105349428D01*
X120197619Y-105311333D01*
X120273809Y-105235142D01*
X120311904Y-105120857D01*
X120311904Y-104930380D01*
X119511904Y-105882761D02*
X119511904Y-105958952D01*
X119550000Y-106035142D01*
X119588095Y-106073238D01*
X119664285Y-106111333D01*
X119816666Y-106149428D01*
X120007142Y-106149428D01*
X120159523Y-106111333D01*
X120235714Y-106073238D01*
X120273809Y-106035142D01*
X120311904Y-105958952D01*
X120311904Y-105882761D01*
X120273809Y-105806571D01*
X120235714Y-105768476D01*
X120159523Y-105730380D01*
X120007142Y-105692285D01*
X119816666Y-105692285D01*
X119664285Y-105730380D01*
X119588095Y-105768476D01*
X119550000Y-105806571D01*
X119511904Y-105882761D01*
X122011904Y-103254190D02*
X122011904Y-103711333D01*
X122811904Y-103482761D02*
X122011904Y-103482761D01*
X122011904Y-103901809D02*
X122811904Y-104435142D01*
X122011904Y-104435142D02*
X122811904Y-103901809D01*
X122811904Y-104739904D02*
X122011904Y-104739904D01*
X122011904Y-104930380D01*
X122050000Y-105044666D01*
X122126190Y-105120857D01*
X122202380Y-105158952D01*
X122354761Y-105197047D01*
X122469047Y-105197047D01*
X122621428Y-105158952D01*
X122697619Y-105120857D01*
X122773809Y-105044666D01*
X122811904Y-104930380D01*
X122811904Y-104739904D01*
X122011904Y-105692285D02*
X122011904Y-105768476D01*
X122050000Y-105844666D01*
X122088095Y-105882761D01*
X122164285Y-105920857D01*
X122316666Y-105958952D01*
X122507142Y-105958952D01*
X122659523Y-105920857D01*
X122735714Y-105882761D01*
X122773809Y-105844666D01*
X122811904Y-105768476D01*
X122811904Y-105692285D01*
X122773809Y-105616095D01*
X122735714Y-105578000D01*
X122659523Y-105539904D01*
X122507142Y-105501809D01*
X122316666Y-105501809D01*
X122164285Y-105539904D01*
X122088095Y-105578000D01*
X122050000Y-105616095D01*
X122011904Y-105692285D01*
X125361904Y-103368476D02*
X124561904Y-103368476D01*
X124561904Y-103901809D02*
X124561904Y-104054190D01*
X124600000Y-104130380D01*
X124676190Y-104206571D01*
X124828571Y-104244666D01*
X125095238Y-104244666D01*
X125247619Y-104206571D01*
X125323809Y-104130380D01*
X125361904Y-104054190D01*
X125361904Y-103901809D01*
X125323809Y-103825619D01*
X125247619Y-103749428D01*
X125095238Y-103711333D01*
X124828571Y-103711333D01*
X124676190Y-103749428D01*
X124600000Y-103825619D01*
X124561904Y-103901809D01*
X124561904Y-104511333D02*
X124561904Y-105006571D01*
X124866666Y-104739904D01*
X124866666Y-104854190D01*
X124904761Y-104930380D01*
X124942857Y-104968476D01*
X125019047Y-105006571D01*
X125209523Y-105006571D01*
X125285714Y-104968476D01*
X125323809Y-104930380D01*
X125361904Y-104854190D01*
X125361904Y-104625619D01*
X125323809Y-104549428D01*
X125285714Y-104511333D01*
X124561904Y-105273238D02*
X124561904Y-105768476D01*
X124866666Y-105501809D01*
X124866666Y-105616095D01*
X124904761Y-105692285D01*
X124942857Y-105730380D01*
X125019047Y-105768476D01*
X125209523Y-105768476D01*
X125285714Y-105730380D01*
X125323809Y-105692285D01*
X125361904Y-105616095D01*
X125361904Y-105387523D01*
X125323809Y-105311333D01*
X125285714Y-105273238D01*
X127911904Y-103368476D02*
X127111904Y-103368476D01*
X127111904Y-103901809D02*
X127111904Y-104054190D01*
X127150000Y-104130380D01*
X127226190Y-104206571D01*
X127378571Y-104244666D01*
X127645238Y-104244666D01*
X127797619Y-104206571D01*
X127873809Y-104130380D01*
X127911904Y-104054190D01*
X127911904Y-103901809D01*
X127873809Y-103825619D01*
X127797619Y-103749428D01*
X127645238Y-103711333D01*
X127378571Y-103711333D01*
X127226190Y-103749428D01*
X127150000Y-103825619D01*
X127111904Y-103901809D01*
X127111904Y-104511333D02*
X127111904Y-105006571D01*
X127416666Y-104739904D01*
X127416666Y-104854190D01*
X127454761Y-104930380D01*
X127492857Y-104968476D01*
X127569047Y-105006571D01*
X127759523Y-105006571D01*
X127835714Y-104968476D01*
X127873809Y-104930380D01*
X127911904Y-104854190D01*
X127911904Y-104625619D01*
X127873809Y-104549428D01*
X127835714Y-104511333D01*
X127188095Y-105311333D02*
X127150000Y-105349428D01*
X127111904Y-105425619D01*
X127111904Y-105616095D01*
X127150000Y-105692285D01*
X127188095Y-105730380D01*
X127264285Y-105768476D01*
X127340476Y-105768476D01*
X127454761Y-105730380D01*
X127911904Y-105273238D01*
X127911904Y-105768476D01*
M02*
