G04 #@! TF.GenerationSoftware,KiCad,Pcbnew,(5.1.4-0-10_14)*
G04 #@! TF.CreationDate,2020-07-29T13:34:46+03:00*
G04 #@! TF.ProjectId,esp32-pico-module,65737033-322d-4706-9963-6f2d6d6f6475,rev?*
G04 #@! TF.SameCoordinates,Original*
G04 #@! TF.FileFunction,Paste,Top*
G04 #@! TF.FilePolarity,Positive*
%FSLAX46Y46*%
G04 Gerber Fmt 4.6, Leading zero omitted, Abs format (unit mm)*
G04 Created by KiCad (PCBNEW (5.1.4-0-10_14)) date 2020-07-29 13:34:46*
%MOMM*%
%LPD*%
G04 APERTURE LIST*
%ADD10C,0.100000*%
%ADD11C,0.250000*%
%ADD12C,1.098483*%
%ADD13C,0.975000*%
%ADD14R,0.550000X0.800000*%
G04 APERTURE END LIST*
D10*
G36*
X120943626Y-105405301D02*
G01*
X120949693Y-105406201D01*
X120955643Y-105407691D01*
X120961418Y-105409758D01*
X120966962Y-105412380D01*
X120972223Y-105415533D01*
X120977150Y-105419187D01*
X120981694Y-105423306D01*
X120985813Y-105427850D01*
X120989467Y-105432777D01*
X120992620Y-105438038D01*
X120995242Y-105443582D01*
X120997309Y-105449357D01*
X120998799Y-105455307D01*
X120999699Y-105461374D01*
X121000000Y-105467500D01*
X121000000Y-105592500D01*
X120999699Y-105598626D01*
X120998799Y-105604693D01*
X120997309Y-105610643D01*
X120995242Y-105616418D01*
X120992620Y-105621962D01*
X120989467Y-105627223D01*
X120985813Y-105632150D01*
X120981694Y-105636694D01*
X120977150Y-105640813D01*
X120972223Y-105644467D01*
X120966962Y-105647620D01*
X120961418Y-105650242D01*
X120955643Y-105652309D01*
X120949693Y-105653799D01*
X120943626Y-105654699D01*
X120937500Y-105655000D01*
X120212500Y-105655000D01*
X120206374Y-105654699D01*
X120200307Y-105653799D01*
X120194357Y-105652309D01*
X120188582Y-105650242D01*
X120183038Y-105647620D01*
X120177777Y-105644467D01*
X120172850Y-105640813D01*
X120168306Y-105636694D01*
X120164187Y-105632150D01*
X120160533Y-105627223D01*
X120157380Y-105621962D01*
X120154758Y-105616418D01*
X120152691Y-105610643D01*
X120151201Y-105604693D01*
X120150301Y-105598626D01*
X120150000Y-105592500D01*
X120150000Y-105467500D01*
X120150301Y-105461374D01*
X120151201Y-105455307D01*
X120152691Y-105449357D01*
X120154758Y-105443582D01*
X120157380Y-105438038D01*
X120160533Y-105432777D01*
X120164187Y-105427850D01*
X120168306Y-105423306D01*
X120172850Y-105419187D01*
X120177777Y-105415533D01*
X120183038Y-105412380D01*
X120188582Y-105409758D01*
X120194357Y-105407691D01*
X120200307Y-105406201D01*
X120206374Y-105405301D01*
X120212500Y-105405000D01*
X120937500Y-105405000D01*
X120943626Y-105405301D01*
X120943626Y-105405301D01*
G37*
D11*
X120575000Y-105530000D03*
D10*
G36*
X120943626Y-105905301D02*
G01*
X120949693Y-105906201D01*
X120955643Y-105907691D01*
X120961418Y-105909758D01*
X120966962Y-105912380D01*
X120972223Y-105915533D01*
X120977150Y-105919187D01*
X120981694Y-105923306D01*
X120985813Y-105927850D01*
X120989467Y-105932777D01*
X120992620Y-105938038D01*
X120995242Y-105943582D01*
X120997309Y-105949357D01*
X120998799Y-105955307D01*
X120999699Y-105961374D01*
X121000000Y-105967500D01*
X121000000Y-106092500D01*
X120999699Y-106098626D01*
X120998799Y-106104693D01*
X120997309Y-106110643D01*
X120995242Y-106116418D01*
X120992620Y-106121962D01*
X120989467Y-106127223D01*
X120985813Y-106132150D01*
X120981694Y-106136694D01*
X120977150Y-106140813D01*
X120972223Y-106144467D01*
X120966962Y-106147620D01*
X120961418Y-106150242D01*
X120955643Y-106152309D01*
X120949693Y-106153799D01*
X120943626Y-106154699D01*
X120937500Y-106155000D01*
X120212500Y-106155000D01*
X120206374Y-106154699D01*
X120200307Y-106153799D01*
X120194357Y-106152309D01*
X120188582Y-106150242D01*
X120183038Y-106147620D01*
X120177777Y-106144467D01*
X120172850Y-106140813D01*
X120168306Y-106136694D01*
X120164187Y-106132150D01*
X120160533Y-106127223D01*
X120157380Y-106121962D01*
X120154758Y-106116418D01*
X120152691Y-106110643D01*
X120151201Y-106104693D01*
X120150301Y-106098626D01*
X120150000Y-106092500D01*
X120150000Y-105967500D01*
X120150301Y-105961374D01*
X120151201Y-105955307D01*
X120152691Y-105949357D01*
X120154758Y-105943582D01*
X120157380Y-105938038D01*
X120160533Y-105932777D01*
X120164187Y-105927850D01*
X120168306Y-105923306D01*
X120172850Y-105919187D01*
X120177777Y-105915533D01*
X120183038Y-105912380D01*
X120188582Y-105909758D01*
X120194357Y-105907691D01*
X120200307Y-105906201D01*
X120206374Y-105905301D01*
X120212500Y-105905000D01*
X120937500Y-105905000D01*
X120943626Y-105905301D01*
X120943626Y-105905301D01*
G37*
D11*
X120575000Y-106030000D03*
D10*
G36*
X120943626Y-106405301D02*
G01*
X120949693Y-106406201D01*
X120955643Y-106407691D01*
X120961418Y-106409758D01*
X120966962Y-106412380D01*
X120972223Y-106415533D01*
X120977150Y-106419187D01*
X120981694Y-106423306D01*
X120985813Y-106427850D01*
X120989467Y-106432777D01*
X120992620Y-106438038D01*
X120995242Y-106443582D01*
X120997309Y-106449357D01*
X120998799Y-106455307D01*
X120999699Y-106461374D01*
X121000000Y-106467500D01*
X121000000Y-106592500D01*
X120999699Y-106598626D01*
X120998799Y-106604693D01*
X120997309Y-106610643D01*
X120995242Y-106616418D01*
X120992620Y-106621962D01*
X120989467Y-106627223D01*
X120985813Y-106632150D01*
X120981694Y-106636694D01*
X120977150Y-106640813D01*
X120972223Y-106644467D01*
X120966962Y-106647620D01*
X120961418Y-106650242D01*
X120955643Y-106652309D01*
X120949693Y-106653799D01*
X120943626Y-106654699D01*
X120937500Y-106655000D01*
X120212500Y-106655000D01*
X120206374Y-106654699D01*
X120200307Y-106653799D01*
X120194357Y-106652309D01*
X120188582Y-106650242D01*
X120183038Y-106647620D01*
X120177777Y-106644467D01*
X120172850Y-106640813D01*
X120168306Y-106636694D01*
X120164187Y-106632150D01*
X120160533Y-106627223D01*
X120157380Y-106621962D01*
X120154758Y-106616418D01*
X120152691Y-106610643D01*
X120151201Y-106604693D01*
X120150301Y-106598626D01*
X120150000Y-106592500D01*
X120150000Y-106467500D01*
X120150301Y-106461374D01*
X120151201Y-106455307D01*
X120152691Y-106449357D01*
X120154758Y-106443582D01*
X120157380Y-106438038D01*
X120160533Y-106432777D01*
X120164187Y-106427850D01*
X120168306Y-106423306D01*
X120172850Y-106419187D01*
X120177777Y-106415533D01*
X120183038Y-106412380D01*
X120188582Y-106409758D01*
X120194357Y-106407691D01*
X120200307Y-106406201D01*
X120206374Y-106405301D01*
X120212500Y-106405000D01*
X120937500Y-106405000D01*
X120943626Y-106405301D01*
X120943626Y-106405301D01*
G37*
D11*
X120575000Y-106530000D03*
D10*
G36*
X120943626Y-106905301D02*
G01*
X120949693Y-106906201D01*
X120955643Y-106907691D01*
X120961418Y-106909758D01*
X120966962Y-106912380D01*
X120972223Y-106915533D01*
X120977150Y-106919187D01*
X120981694Y-106923306D01*
X120985813Y-106927850D01*
X120989467Y-106932777D01*
X120992620Y-106938038D01*
X120995242Y-106943582D01*
X120997309Y-106949357D01*
X120998799Y-106955307D01*
X120999699Y-106961374D01*
X121000000Y-106967500D01*
X121000000Y-107092500D01*
X120999699Y-107098626D01*
X120998799Y-107104693D01*
X120997309Y-107110643D01*
X120995242Y-107116418D01*
X120992620Y-107121962D01*
X120989467Y-107127223D01*
X120985813Y-107132150D01*
X120981694Y-107136694D01*
X120977150Y-107140813D01*
X120972223Y-107144467D01*
X120966962Y-107147620D01*
X120961418Y-107150242D01*
X120955643Y-107152309D01*
X120949693Y-107153799D01*
X120943626Y-107154699D01*
X120937500Y-107155000D01*
X120212500Y-107155000D01*
X120206374Y-107154699D01*
X120200307Y-107153799D01*
X120194357Y-107152309D01*
X120188582Y-107150242D01*
X120183038Y-107147620D01*
X120177777Y-107144467D01*
X120172850Y-107140813D01*
X120168306Y-107136694D01*
X120164187Y-107132150D01*
X120160533Y-107127223D01*
X120157380Y-107121962D01*
X120154758Y-107116418D01*
X120152691Y-107110643D01*
X120151201Y-107104693D01*
X120150301Y-107098626D01*
X120150000Y-107092500D01*
X120150000Y-106967500D01*
X120150301Y-106961374D01*
X120151201Y-106955307D01*
X120152691Y-106949357D01*
X120154758Y-106943582D01*
X120157380Y-106938038D01*
X120160533Y-106932777D01*
X120164187Y-106927850D01*
X120168306Y-106923306D01*
X120172850Y-106919187D01*
X120177777Y-106915533D01*
X120183038Y-106912380D01*
X120188582Y-106909758D01*
X120194357Y-106907691D01*
X120200307Y-106906201D01*
X120206374Y-106905301D01*
X120212500Y-106905000D01*
X120937500Y-106905000D01*
X120943626Y-106905301D01*
X120943626Y-106905301D01*
G37*
D11*
X120575000Y-107030000D03*
D10*
G36*
X120943626Y-107405301D02*
G01*
X120949693Y-107406201D01*
X120955643Y-107407691D01*
X120961418Y-107409758D01*
X120966962Y-107412380D01*
X120972223Y-107415533D01*
X120977150Y-107419187D01*
X120981694Y-107423306D01*
X120985813Y-107427850D01*
X120989467Y-107432777D01*
X120992620Y-107438038D01*
X120995242Y-107443582D01*
X120997309Y-107449357D01*
X120998799Y-107455307D01*
X120999699Y-107461374D01*
X121000000Y-107467500D01*
X121000000Y-107592500D01*
X120999699Y-107598626D01*
X120998799Y-107604693D01*
X120997309Y-107610643D01*
X120995242Y-107616418D01*
X120992620Y-107621962D01*
X120989467Y-107627223D01*
X120985813Y-107632150D01*
X120981694Y-107636694D01*
X120977150Y-107640813D01*
X120972223Y-107644467D01*
X120966962Y-107647620D01*
X120961418Y-107650242D01*
X120955643Y-107652309D01*
X120949693Y-107653799D01*
X120943626Y-107654699D01*
X120937500Y-107655000D01*
X120212500Y-107655000D01*
X120206374Y-107654699D01*
X120200307Y-107653799D01*
X120194357Y-107652309D01*
X120188582Y-107650242D01*
X120183038Y-107647620D01*
X120177777Y-107644467D01*
X120172850Y-107640813D01*
X120168306Y-107636694D01*
X120164187Y-107632150D01*
X120160533Y-107627223D01*
X120157380Y-107621962D01*
X120154758Y-107616418D01*
X120152691Y-107610643D01*
X120151201Y-107604693D01*
X120150301Y-107598626D01*
X120150000Y-107592500D01*
X120150000Y-107467500D01*
X120150301Y-107461374D01*
X120151201Y-107455307D01*
X120152691Y-107449357D01*
X120154758Y-107443582D01*
X120157380Y-107438038D01*
X120160533Y-107432777D01*
X120164187Y-107427850D01*
X120168306Y-107423306D01*
X120172850Y-107419187D01*
X120177777Y-107415533D01*
X120183038Y-107412380D01*
X120188582Y-107409758D01*
X120194357Y-107407691D01*
X120200307Y-107406201D01*
X120206374Y-107405301D01*
X120212500Y-107405000D01*
X120937500Y-107405000D01*
X120943626Y-107405301D01*
X120943626Y-107405301D01*
G37*
D11*
X120575000Y-107530000D03*
D10*
G36*
X120943626Y-107905301D02*
G01*
X120949693Y-107906201D01*
X120955643Y-107907691D01*
X120961418Y-107909758D01*
X120966962Y-107912380D01*
X120972223Y-107915533D01*
X120977150Y-107919187D01*
X120981694Y-107923306D01*
X120985813Y-107927850D01*
X120989467Y-107932777D01*
X120992620Y-107938038D01*
X120995242Y-107943582D01*
X120997309Y-107949357D01*
X120998799Y-107955307D01*
X120999699Y-107961374D01*
X121000000Y-107967500D01*
X121000000Y-108092500D01*
X120999699Y-108098626D01*
X120998799Y-108104693D01*
X120997309Y-108110643D01*
X120995242Y-108116418D01*
X120992620Y-108121962D01*
X120989467Y-108127223D01*
X120985813Y-108132150D01*
X120981694Y-108136694D01*
X120977150Y-108140813D01*
X120972223Y-108144467D01*
X120966962Y-108147620D01*
X120961418Y-108150242D01*
X120955643Y-108152309D01*
X120949693Y-108153799D01*
X120943626Y-108154699D01*
X120937500Y-108155000D01*
X120212500Y-108155000D01*
X120206374Y-108154699D01*
X120200307Y-108153799D01*
X120194357Y-108152309D01*
X120188582Y-108150242D01*
X120183038Y-108147620D01*
X120177777Y-108144467D01*
X120172850Y-108140813D01*
X120168306Y-108136694D01*
X120164187Y-108132150D01*
X120160533Y-108127223D01*
X120157380Y-108121962D01*
X120154758Y-108116418D01*
X120152691Y-108110643D01*
X120151201Y-108104693D01*
X120150301Y-108098626D01*
X120150000Y-108092500D01*
X120150000Y-107967500D01*
X120150301Y-107961374D01*
X120151201Y-107955307D01*
X120152691Y-107949357D01*
X120154758Y-107943582D01*
X120157380Y-107938038D01*
X120160533Y-107932777D01*
X120164187Y-107927850D01*
X120168306Y-107923306D01*
X120172850Y-107919187D01*
X120177777Y-107915533D01*
X120183038Y-107912380D01*
X120188582Y-107909758D01*
X120194357Y-107907691D01*
X120200307Y-107906201D01*
X120206374Y-107905301D01*
X120212500Y-107905000D01*
X120937500Y-107905000D01*
X120943626Y-107905301D01*
X120943626Y-107905301D01*
G37*
D11*
X120575000Y-108030000D03*
D10*
G36*
X120943626Y-108405301D02*
G01*
X120949693Y-108406201D01*
X120955643Y-108407691D01*
X120961418Y-108409758D01*
X120966962Y-108412380D01*
X120972223Y-108415533D01*
X120977150Y-108419187D01*
X120981694Y-108423306D01*
X120985813Y-108427850D01*
X120989467Y-108432777D01*
X120992620Y-108438038D01*
X120995242Y-108443582D01*
X120997309Y-108449357D01*
X120998799Y-108455307D01*
X120999699Y-108461374D01*
X121000000Y-108467500D01*
X121000000Y-108592500D01*
X120999699Y-108598626D01*
X120998799Y-108604693D01*
X120997309Y-108610643D01*
X120995242Y-108616418D01*
X120992620Y-108621962D01*
X120989467Y-108627223D01*
X120985813Y-108632150D01*
X120981694Y-108636694D01*
X120977150Y-108640813D01*
X120972223Y-108644467D01*
X120966962Y-108647620D01*
X120961418Y-108650242D01*
X120955643Y-108652309D01*
X120949693Y-108653799D01*
X120943626Y-108654699D01*
X120937500Y-108655000D01*
X120212500Y-108655000D01*
X120206374Y-108654699D01*
X120200307Y-108653799D01*
X120194357Y-108652309D01*
X120188582Y-108650242D01*
X120183038Y-108647620D01*
X120177777Y-108644467D01*
X120172850Y-108640813D01*
X120168306Y-108636694D01*
X120164187Y-108632150D01*
X120160533Y-108627223D01*
X120157380Y-108621962D01*
X120154758Y-108616418D01*
X120152691Y-108610643D01*
X120151201Y-108604693D01*
X120150301Y-108598626D01*
X120150000Y-108592500D01*
X120150000Y-108467500D01*
X120150301Y-108461374D01*
X120151201Y-108455307D01*
X120152691Y-108449357D01*
X120154758Y-108443582D01*
X120157380Y-108438038D01*
X120160533Y-108432777D01*
X120164187Y-108427850D01*
X120168306Y-108423306D01*
X120172850Y-108419187D01*
X120177777Y-108415533D01*
X120183038Y-108412380D01*
X120188582Y-108409758D01*
X120194357Y-108407691D01*
X120200307Y-108406201D01*
X120206374Y-108405301D01*
X120212500Y-108405000D01*
X120937500Y-108405000D01*
X120943626Y-108405301D01*
X120943626Y-108405301D01*
G37*
D11*
X120575000Y-108530000D03*
D10*
G36*
X120943626Y-108905301D02*
G01*
X120949693Y-108906201D01*
X120955643Y-108907691D01*
X120961418Y-108909758D01*
X120966962Y-108912380D01*
X120972223Y-108915533D01*
X120977150Y-108919187D01*
X120981694Y-108923306D01*
X120985813Y-108927850D01*
X120989467Y-108932777D01*
X120992620Y-108938038D01*
X120995242Y-108943582D01*
X120997309Y-108949357D01*
X120998799Y-108955307D01*
X120999699Y-108961374D01*
X121000000Y-108967500D01*
X121000000Y-109092500D01*
X120999699Y-109098626D01*
X120998799Y-109104693D01*
X120997309Y-109110643D01*
X120995242Y-109116418D01*
X120992620Y-109121962D01*
X120989467Y-109127223D01*
X120985813Y-109132150D01*
X120981694Y-109136694D01*
X120977150Y-109140813D01*
X120972223Y-109144467D01*
X120966962Y-109147620D01*
X120961418Y-109150242D01*
X120955643Y-109152309D01*
X120949693Y-109153799D01*
X120943626Y-109154699D01*
X120937500Y-109155000D01*
X120212500Y-109155000D01*
X120206374Y-109154699D01*
X120200307Y-109153799D01*
X120194357Y-109152309D01*
X120188582Y-109150242D01*
X120183038Y-109147620D01*
X120177777Y-109144467D01*
X120172850Y-109140813D01*
X120168306Y-109136694D01*
X120164187Y-109132150D01*
X120160533Y-109127223D01*
X120157380Y-109121962D01*
X120154758Y-109116418D01*
X120152691Y-109110643D01*
X120151201Y-109104693D01*
X120150301Y-109098626D01*
X120150000Y-109092500D01*
X120150000Y-108967500D01*
X120150301Y-108961374D01*
X120151201Y-108955307D01*
X120152691Y-108949357D01*
X120154758Y-108943582D01*
X120157380Y-108938038D01*
X120160533Y-108932777D01*
X120164187Y-108927850D01*
X120168306Y-108923306D01*
X120172850Y-108919187D01*
X120177777Y-108915533D01*
X120183038Y-108912380D01*
X120188582Y-108909758D01*
X120194357Y-108907691D01*
X120200307Y-108906201D01*
X120206374Y-108905301D01*
X120212500Y-108905000D01*
X120937500Y-108905000D01*
X120943626Y-108905301D01*
X120943626Y-108905301D01*
G37*
D11*
X120575000Y-109030000D03*
D10*
G36*
X120943626Y-109405301D02*
G01*
X120949693Y-109406201D01*
X120955643Y-109407691D01*
X120961418Y-109409758D01*
X120966962Y-109412380D01*
X120972223Y-109415533D01*
X120977150Y-109419187D01*
X120981694Y-109423306D01*
X120985813Y-109427850D01*
X120989467Y-109432777D01*
X120992620Y-109438038D01*
X120995242Y-109443582D01*
X120997309Y-109449357D01*
X120998799Y-109455307D01*
X120999699Y-109461374D01*
X121000000Y-109467500D01*
X121000000Y-109592500D01*
X120999699Y-109598626D01*
X120998799Y-109604693D01*
X120997309Y-109610643D01*
X120995242Y-109616418D01*
X120992620Y-109621962D01*
X120989467Y-109627223D01*
X120985813Y-109632150D01*
X120981694Y-109636694D01*
X120977150Y-109640813D01*
X120972223Y-109644467D01*
X120966962Y-109647620D01*
X120961418Y-109650242D01*
X120955643Y-109652309D01*
X120949693Y-109653799D01*
X120943626Y-109654699D01*
X120937500Y-109655000D01*
X120212500Y-109655000D01*
X120206374Y-109654699D01*
X120200307Y-109653799D01*
X120194357Y-109652309D01*
X120188582Y-109650242D01*
X120183038Y-109647620D01*
X120177777Y-109644467D01*
X120172850Y-109640813D01*
X120168306Y-109636694D01*
X120164187Y-109632150D01*
X120160533Y-109627223D01*
X120157380Y-109621962D01*
X120154758Y-109616418D01*
X120152691Y-109610643D01*
X120151201Y-109604693D01*
X120150301Y-109598626D01*
X120150000Y-109592500D01*
X120150000Y-109467500D01*
X120150301Y-109461374D01*
X120151201Y-109455307D01*
X120152691Y-109449357D01*
X120154758Y-109443582D01*
X120157380Y-109438038D01*
X120160533Y-109432777D01*
X120164187Y-109427850D01*
X120168306Y-109423306D01*
X120172850Y-109419187D01*
X120177777Y-109415533D01*
X120183038Y-109412380D01*
X120188582Y-109409758D01*
X120194357Y-109407691D01*
X120200307Y-109406201D01*
X120206374Y-109405301D01*
X120212500Y-109405000D01*
X120937500Y-109405000D01*
X120943626Y-109405301D01*
X120943626Y-109405301D01*
G37*
D11*
X120575000Y-109530000D03*
D10*
G36*
X120943626Y-109905301D02*
G01*
X120949693Y-109906201D01*
X120955643Y-109907691D01*
X120961418Y-109909758D01*
X120966962Y-109912380D01*
X120972223Y-109915533D01*
X120977150Y-109919187D01*
X120981694Y-109923306D01*
X120985813Y-109927850D01*
X120989467Y-109932777D01*
X120992620Y-109938038D01*
X120995242Y-109943582D01*
X120997309Y-109949357D01*
X120998799Y-109955307D01*
X120999699Y-109961374D01*
X121000000Y-109967500D01*
X121000000Y-110092500D01*
X120999699Y-110098626D01*
X120998799Y-110104693D01*
X120997309Y-110110643D01*
X120995242Y-110116418D01*
X120992620Y-110121962D01*
X120989467Y-110127223D01*
X120985813Y-110132150D01*
X120981694Y-110136694D01*
X120977150Y-110140813D01*
X120972223Y-110144467D01*
X120966962Y-110147620D01*
X120961418Y-110150242D01*
X120955643Y-110152309D01*
X120949693Y-110153799D01*
X120943626Y-110154699D01*
X120937500Y-110155000D01*
X120212500Y-110155000D01*
X120206374Y-110154699D01*
X120200307Y-110153799D01*
X120194357Y-110152309D01*
X120188582Y-110150242D01*
X120183038Y-110147620D01*
X120177777Y-110144467D01*
X120172850Y-110140813D01*
X120168306Y-110136694D01*
X120164187Y-110132150D01*
X120160533Y-110127223D01*
X120157380Y-110121962D01*
X120154758Y-110116418D01*
X120152691Y-110110643D01*
X120151201Y-110104693D01*
X120150301Y-110098626D01*
X120150000Y-110092500D01*
X120150000Y-109967500D01*
X120150301Y-109961374D01*
X120151201Y-109955307D01*
X120152691Y-109949357D01*
X120154758Y-109943582D01*
X120157380Y-109938038D01*
X120160533Y-109932777D01*
X120164187Y-109927850D01*
X120168306Y-109923306D01*
X120172850Y-109919187D01*
X120177777Y-109915533D01*
X120183038Y-109912380D01*
X120188582Y-109909758D01*
X120194357Y-109907691D01*
X120200307Y-109906201D01*
X120206374Y-109905301D01*
X120212500Y-109905000D01*
X120937500Y-109905000D01*
X120943626Y-109905301D01*
X120943626Y-109905301D01*
G37*
D11*
X120575000Y-110030000D03*
D10*
G36*
X120943626Y-110405301D02*
G01*
X120949693Y-110406201D01*
X120955643Y-110407691D01*
X120961418Y-110409758D01*
X120966962Y-110412380D01*
X120972223Y-110415533D01*
X120977150Y-110419187D01*
X120981694Y-110423306D01*
X120985813Y-110427850D01*
X120989467Y-110432777D01*
X120992620Y-110438038D01*
X120995242Y-110443582D01*
X120997309Y-110449357D01*
X120998799Y-110455307D01*
X120999699Y-110461374D01*
X121000000Y-110467500D01*
X121000000Y-110592500D01*
X120999699Y-110598626D01*
X120998799Y-110604693D01*
X120997309Y-110610643D01*
X120995242Y-110616418D01*
X120992620Y-110621962D01*
X120989467Y-110627223D01*
X120985813Y-110632150D01*
X120981694Y-110636694D01*
X120977150Y-110640813D01*
X120972223Y-110644467D01*
X120966962Y-110647620D01*
X120961418Y-110650242D01*
X120955643Y-110652309D01*
X120949693Y-110653799D01*
X120943626Y-110654699D01*
X120937500Y-110655000D01*
X120212500Y-110655000D01*
X120206374Y-110654699D01*
X120200307Y-110653799D01*
X120194357Y-110652309D01*
X120188582Y-110650242D01*
X120183038Y-110647620D01*
X120177777Y-110644467D01*
X120172850Y-110640813D01*
X120168306Y-110636694D01*
X120164187Y-110632150D01*
X120160533Y-110627223D01*
X120157380Y-110621962D01*
X120154758Y-110616418D01*
X120152691Y-110610643D01*
X120151201Y-110604693D01*
X120150301Y-110598626D01*
X120150000Y-110592500D01*
X120150000Y-110467500D01*
X120150301Y-110461374D01*
X120151201Y-110455307D01*
X120152691Y-110449357D01*
X120154758Y-110443582D01*
X120157380Y-110438038D01*
X120160533Y-110432777D01*
X120164187Y-110427850D01*
X120168306Y-110423306D01*
X120172850Y-110419187D01*
X120177777Y-110415533D01*
X120183038Y-110412380D01*
X120188582Y-110409758D01*
X120194357Y-110407691D01*
X120200307Y-110406201D01*
X120206374Y-110405301D01*
X120212500Y-110405000D01*
X120937500Y-110405000D01*
X120943626Y-110405301D01*
X120943626Y-110405301D01*
G37*
D11*
X120575000Y-110530000D03*
D10*
G36*
X120943626Y-110905301D02*
G01*
X120949693Y-110906201D01*
X120955643Y-110907691D01*
X120961418Y-110909758D01*
X120966962Y-110912380D01*
X120972223Y-110915533D01*
X120977150Y-110919187D01*
X120981694Y-110923306D01*
X120985813Y-110927850D01*
X120989467Y-110932777D01*
X120992620Y-110938038D01*
X120995242Y-110943582D01*
X120997309Y-110949357D01*
X120998799Y-110955307D01*
X120999699Y-110961374D01*
X121000000Y-110967500D01*
X121000000Y-111092500D01*
X120999699Y-111098626D01*
X120998799Y-111104693D01*
X120997309Y-111110643D01*
X120995242Y-111116418D01*
X120992620Y-111121962D01*
X120989467Y-111127223D01*
X120985813Y-111132150D01*
X120981694Y-111136694D01*
X120977150Y-111140813D01*
X120972223Y-111144467D01*
X120966962Y-111147620D01*
X120961418Y-111150242D01*
X120955643Y-111152309D01*
X120949693Y-111153799D01*
X120943626Y-111154699D01*
X120937500Y-111155000D01*
X120212500Y-111155000D01*
X120206374Y-111154699D01*
X120200307Y-111153799D01*
X120194357Y-111152309D01*
X120188582Y-111150242D01*
X120183038Y-111147620D01*
X120177777Y-111144467D01*
X120172850Y-111140813D01*
X120168306Y-111136694D01*
X120164187Y-111132150D01*
X120160533Y-111127223D01*
X120157380Y-111121962D01*
X120154758Y-111116418D01*
X120152691Y-111110643D01*
X120151201Y-111104693D01*
X120150301Y-111098626D01*
X120150000Y-111092500D01*
X120150000Y-110967500D01*
X120150301Y-110961374D01*
X120151201Y-110955307D01*
X120152691Y-110949357D01*
X120154758Y-110943582D01*
X120157380Y-110938038D01*
X120160533Y-110932777D01*
X120164187Y-110927850D01*
X120168306Y-110923306D01*
X120172850Y-110919187D01*
X120177777Y-110915533D01*
X120183038Y-110912380D01*
X120188582Y-110909758D01*
X120194357Y-110907691D01*
X120200307Y-110906201D01*
X120206374Y-110905301D01*
X120212500Y-110905000D01*
X120937500Y-110905000D01*
X120943626Y-110905301D01*
X120943626Y-110905301D01*
G37*
D11*
X120575000Y-111030000D03*
D10*
G36*
X119943626Y-111305301D02*
G01*
X119949693Y-111306201D01*
X119955643Y-111307691D01*
X119961418Y-111309758D01*
X119966962Y-111312380D01*
X119972223Y-111315533D01*
X119977150Y-111319187D01*
X119981694Y-111323306D01*
X119985813Y-111327850D01*
X119989467Y-111332777D01*
X119992620Y-111338038D01*
X119995242Y-111343582D01*
X119997309Y-111349357D01*
X119998799Y-111355307D01*
X119999699Y-111361374D01*
X120000000Y-111367500D01*
X120000000Y-112092500D01*
X119999699Y-112098626D01*
X119998799Y-112104693D01*
X119997309Y-112110643D01*
X119995242Y-112116418D01*
X119992620Y-112121962D01*
X119989467Y-112127223D01*
X119985813Y-112132150D01*
X119981694Y-112136694D01*
X119977150Y-112140813D01*
X119972223Y-112144467D01*
X119966962Y-112147620D01*
X119961418Y-112150242D01*
X119955643Y-112152309D01*
X119949693Y-112153799D01*
X119943626Y-112154699D01*
X119937500Y-112155000D01*
X119812500Y-112155000D01*
X119806374Y-112154699D01*
X119800307Y-112153799D01*
X119794357Y-112152309D01*
X119788582Y-112150242D01*
X119783038Y-112147620D01*
X119777777Y-112144467D01*
X119772850Y-112140813D01*
X119768306Y-112136694D01*
X119764187Y-112132150D01*
X119760533Y-112127223D01*
X119757380Y-112121962D01*
X119754758Y-112116418D01*
X119752691Y-112110643D01*
X119751201Y-112104693D01*
X119750301Y-112098626D01*
X119750000Y-112092500D01*
X119750000Y-111367500D01*
X119750301Y-111361374D01*
X119751201Y-111355307D01*
X119752691Y-111349357D01*
X119754758Y-111343582D01*
X119757380Y-111338038D01*
X119760533Y-111332777D01*
X119764187Y-111327850D01*
X119768306Y-111323306D01*
X119772850Y-111319187D01*
X119777777Y-111315533D01*
X119783038Y-111312380D01*
X119788582Y-111309758D01*
X119794357Y-111307691D01*
X119800307Y-111306201D01*
X119806374Y-111305301D01*
X119812500Y-111305000D01*
X119937500Y-111305000D01*
X119943626Y-111305301D01*
X119943626Y-111305301D01*
G37*
D11*
X119875000Y-111730000D03*
D10*
G36*
X119443626Y-111305301D02*
G01*
X119449693Y-111306201D01*
X119455643Y-111307691D01*
X119461418Y-111309758D01*
X119466962Y-111312380D01*
X119472223Y-111315533D01*
X119477150Y-111319187D01*
X119481694Y-111323306D01*
X119485813Y-111327850D01*
X119489467Y-111332777D01*
X119492620Y-111338038D01*
X119495242Y-111343582D01*
X119497309Y-111349357D01*
X119498799Y-111355307D01*
X119499699Y-111361374D01*
X119500000Y-111367500D01*
X119500000Y-112092500D01*
X119499699Y-112098626D01*
X119498799Y-112104693D01*
X119497309Y-112110643D01*
X119495242Y-112116418D01*
X119492620Y-112121962D01*
X119489467Y-112127223D01*
X119485813Y-112132150D01*
X119481694Y-112136694D01*
X119477150Y-112140813D01*
X119472223Y-112144467D01*
X119466962Y-112147620D01*
X119461418Y-112150242D01*
X119455643Y-112152309D01*
X119449693Y-112153799D01*
X119443626Y-112154699D01*
X119437500Y-112155000D01*
X119312500Y-112155000D01*
X119306374Y-112154699D01*
X119300307Y-112153799D01*
X119294357Y-112152309D01*
X119288582Y-112150242D01*
X119283038Y-112147620D01*
X119277777Y-112144467D01*
X119272850Y-112140813D01*
X119268306Y-112136694D01*
X119264187Y-112132150D01*
X119260533Y-112127223D01*
X119257380Y-112121962D01*
X119254758Y-112116418D01*
X119252691Y-112110643D01*
X119251201Y-112104693D01*
X119250301Y-112098626D01*
X119250000Y-112092500D01*
X119250000Y-111367500D01*
X119250301Y-111361374D01*
X119251201Y-111355307D01*
X119252691Y-111349357D01*
X119254758Y-111343582D01*
X119257380Y-111338038D01*
X119260533Y-111332777D01*
X119264187Y-111327850D01*
X119268306Y-111323306D01*
X119272850Y-111319187D01*
X119277777Y-111315533D01*
X119283038Y-111312380D01*
X119288582Y-111309758D01*
X119294357Y-111307691D01*
X119300307Y-111306201D01*
X119306374Y-111305301D01*
X119312500Y-111305000D01*
X119437500Y-111305000D01*
X119443626Y-111305301D01*
X119443626Y-111305301D01*
G37*
D11*
X119375000Y-111730000D03*
D10*
G36*
X118943626Y-111305301D02*
G01*
X118949693Y-111306201D01*
X118955643Y-111307691D01*
X118961418Y-111309758D01*
X118966962Y-111312380D01*
X118972223Y-111315533D01*
X118977150Y-111319187D01*
X118981694Y-111323306D01*
X118985813Y-111327850D01*
X118989467Y-111332777D01*
X118992620Y-111338038D01*
X118995242Y-111343582D01*
X118997309Y-111349357D01*
X118998799Y-111355307D01*
X118999699Y-111361374D01*
X119000000Y-111367500D01*
X119000000Y-112092500D01*
X118999699Y-112098626D01*
X118998799Y-112104693D01*
X118997309Y-112110643D01*
X118995242Y-112116418D01*
X118992620Y-112121962D01*
X118989467Y-112127223D01*
X118985813Y-112132150D01*
X118981694Y-112136694D01*
X118977150Y-112140813D01*
X118972223Y-112144467D01*
X118966962Y-112147620D01*
X118961418Y-112150242D01*
X118955643Y-112152309D01*
X118949693Y-112153799D01*
X118943626Y-112154699D01*
X118937500Y-112155000D01*
X118812500Y-112155000D01*
X118806374Y-112154699D01*
X118800307Y-112153799D01*
X118794357Y-112152309D01*
X118788582Y-112150242D01*
X118783038Y-112147620D01*
X118777777Y-112144467D01*
X118772850Y-112140813D01*
X118768306Y-112136694D01*
X118764187Y-112132150D01*
X118760533Y-112127223D01*
X118757380Y-112121962D01*
X118754758Y-112116418D01*
X118752691Y-112110643D01*
X118751201Y-112104693D01*
X118750301Y-112098626D01*
X118750000Y-112092500D01*
X118750000Y-111367500D01*
X118750301Y-111361374D01*
X118751201Y-111355307D01*
X118752691Y-111349357D01*
X118754758Y-111343582D01*
X118757380Y-111338038D01*
X118760533Y-111332777D01*
X118764187Y-111327850D01*
X118768306Y-111323306D01*
X118772850Y-111319187D01*
X118777777Y-111315533D01*
X118783038Y-111312380D01*
X118788582Y-111309758D01*
X118794357Y-111307691D01*
X118800307Y-111306201D01*
X118806374Y-111305301D01*
X118812500Y-111305000D01*
X118937500Y-111305000D01*
X118943626Y-111305301D01*
X118943626Y-111305301D01*
G37*
D11*
X118875000Y-111730000D03*
D10*
G36*
X118443626Y-111305301D02*
G01*
X118449693Y-111306201D01*
X118455643Y-111307691D01*
X118461418Y-111309758D01*
X118466962Y-111312380D01*
X118472223Y-111315533D01*
X118477150Y-111319187D01*
X118481694Y-111323306D01*
X118485813Y-111327850D01*
X118489467Y-111332777D01*
X118492620Y-111338038D01*
X118495242Y-111343582D01*
X118497309Y-111349357D01*
X118498799Y-111355307D01*
X118499699Y-111361374D01*
X118500000Y-111367500D01*
X118500000Y-112092500D01*
X118499699Y-112098626D01*
X118498799Y-112104693D01*
X118497309Y-112110643D01*
X118495242Y-112116418D01*
X118492620Y-112121962D01*
X118489467Y-112127223D01*
X118485813Y-112132150D01*
X118481694Y-112136694D01*
X118477150Y-112140813D01*
X118472223Y-112144467D01*
X118466962Y-112147620D01*
X118461418Y-112150242D01*
X118455643Y-112152309D01*
X118449693Y-112153799D01*
X118443626Y-112154699D01*
X118437500Y-112155000D01*
X118312500Y-112155000D01*
X118306374Y-112154699D01*
X118300307Y-112153799D01*
X118294357Y-112152309D01*
X118288582Y-112150242D01*
X118283038Y-112147620D01*
X118277777Y-112144467D01*
X118272850Y-112140813D01*
X118268306Y-112136694D01*
X118264187Y-112132150D01*
X118260533Y-112127223D01*
X118257380Y-112121962D01*
X118254758Y-112116418D01*
X118252691Y-112110643D01*
X118251201Y-112104693D01*
X118250301Y-112098626D01*
X118250000Y-112092500D01*
X118250000Y-111367500D01*
X118250301Y-111361374D01*
X118251201Y-111355307D01*
X118252691Y-111349357D01*
X118254758Y-111343582D01*
X118257380Y-111338038D01*
X118260533Y-111332777D01*
X118264187Y-111327850D01*
X118268306Y-111323306D01*
X118272850Y-111319187D01*
X118277777Y-111315533D01*
X118283038Y-111312380D01*
X118288582Y-111309758D01*
X118294357Y-111307691D01*
X118300307Y-111306201D01*
X118306374Y-111305301D01*
X118312500Y-111305000D01*
X118437500Y-111305000D01*
X118443626Y-111305301D01*
X118443626Y-111305301D01*
G37*
D11*
X118375000Y-111730000D03*
D10*
G36*
X117943626Y-111305301D02*
G01*
X117949693Y-111306201D01*
X117955643Y-111307691D01*
X117961418Y-111309758D01*
X117966962Y-111312380D01*
X117972223Y-111315533D01*
X117977150Y-111319187D01*
X117981694Y-111323306D01*
X117985813Y-111327850D01*
X117989467Y-111332777D01*
X117992620Y-111338038D01*
X117995242Y-111343582D01*
X117997309Y-111349357D01*
X117998799Y-111355307D01*
X117999699Y-111361374D01*
X118000000Y-111367500D01*
X118000000Y-112092500D01*
X117999699Y-112098626D01*
X117998799Y-112104693D01*
X117997309Y-112110643D01*
X117995242Y-112116418D01*
X117992620Y-112121962D01*
X117989467Y-112127223D01*
X117985813Y-112132150D01*
X117981694Y-112136694D01*
X117977150Y-112140813D01*
X117972223Y-112144467D01*
X117966962Y-112147620D01*
X117961418Y-112150242D01*
X117955643Y-112152309D01*
X117949693Y-112153799D01*
X117943626Y-112154699D01*
X117937500Y-112155000D01*
X117812500Y-112155000D01*
X117806374Y-112154699D01*
X117800307Y-112153799D01*
X117794357Y-112152309D01*
X117788582Y-112150242D01*
X117783038Y-112147620D01*
X117777777Y-112144467D01*
X117772850Y-112140813D01*
X117768306Y-112136694D01*
X117764187Y-112132150D01*
X117760533Y-112127223D01*
X117757380Y-112121962D01*
X117754758Y-112116418D01*
X117752691Y-112110643D01*
X117751201Y-112104693D01*
X117750301Y-112098626D01*
X117750000Y-112092500D01*
X117750000Y-111367500D01*
X117750301Y-111361374D01*
X117751201Y-111355307D01*
X117752691Y-111349357D01*
X117754758Y-111343582D01*
X117757380Y-111338038D01*
X117760533Y-111332777D01*
X117764187Y-111327850D01*
X117768306Y-111323306D01*
X117772850Y-111319187D01*
X117777777Y-111315533D01*
X117783038Y-111312380D01*
X117788582Y-111309758D01*
X117794357Y-111307691D01*
X117800307Y-111306201D01*
X117806374Y-111305301D01*
X117812500Y-111305000D01*
X117937500Y-111305000D01*
X117943626Y-111305301D01*
X117943626Y-111305301D01*
G37*
D11*
X117875000Y-111730000D03*
D10*
G36*
X117443626Y-111305301D02*
G01*
X117449693Y-111306201D01*
X117455643Y-111307691D01*
X117461418Y-111309758D01*
X117466962Y-111312380D01*
X117472223Y-111315533D01*
X117477150Y-111319187D01*
X117481694Y-111323306D01*
X117485813Y-111327850D01*
X117489467Y-111332777D01*
X117492620Y-111338038D01*
X117495242Y-111343582D01*
X117497309Y-111349357D01*
X117498799Y-111355307D01*
X117499699Y-111361374D01*
X117500000Y-111367500D01*
X117500000Y-112092500D01*
X117499699Y-112098626D01*
X117498799Y-112104693D01*
X117497309Y-112110643D01*
X117495242Y-112116418D01*
X117492620Y-112121962D01*
X117489467Y-112127223D01*
X117485813Y-112132150D01*
X117481694Y-112136694D01*
X117477150Y-112140813D01*
X117472223Y-112144467D01*
X117466962Y-112147620D01*
X117461418Y-112150242D01*
X117455643Y-112152309D01*
X117449693Y-112153799D01*
X117443626Y-112154699D01*
X117437500Y-112155000D01*
X117312500Y-112155000D01*
X117306374Y-112154699D01*
X117300307Y-112153799D01*
X117294357Y-112152309D01*
X117288582Y-112150242D01*
X117283038Y-112147620D01*
X117277777Y-112144467D01*
X117272850Y-112140813D01*
X117268306Y-112136694D01*
X117264187Y-112132150D01*
X117260533Y-112127223D01*
X117257380Y-112121962D01*
X117254758Y-112116418D01*
X117252691Y-112110643D01*
X117251201Y-112104693D01*
X117250301Y-112098626D01*
X117250000Y-112092500D01*
X117250000Y-111367500D01*
X117250301Y-111361374D01*
X117251201Y-111355307D01*
X117252691Y-111349357D01*
X117254758Y-111343582D01*
X117257380Y-111338038D01*
X117260533Y-111332777D01*
X117264187Y-111327850D01*
X117268306Y-111323306D01*
X117272850Y-111319187D01*
X117277777Y-111315533D01*
X117283038Y-111312380D01*
X117288582Y-111309758D01*
X117294357Y-111307691D01*
X117300307Y-111306201D01*
X117306374Y-111305301D01*
X117312500Y-111305000D01*
X117437500Y-111305000D01*
X117443626Y-111305301D01*
X117443626Y-111305301D01*
G37*
D11*
X117375000Y-111730000D03*
D10*
G36*
X116943626Y-111305301D02*
G01*
X116949693Y-111306201D01*
X116955643Y-111307691D01*
X116961418Y-111309758D01*
X116966962Y-111312380D01*
X116972223Y-111315533D01*
X116977150Y-111319187D01*
X116981694Y-111323306D01*
X116985813Y-111327850D01*
X116989467Y-111332777D01*
X116992620Y-111338038D01*
X116995242Y-111343582D01*
X116997309Y-111349357D01*
X116998799Y-111355307D01*
X116999699Y-111361374D01*
X117000000Y-111367500D01*
X117000000Y-112092500D01*
X116999699Y-112098626D01*
X116998799Y-112104693D01*
X116997309Y-112110643D01*
X116995242Y-112116418D01*
X116992620Y-112121962D01*
X116989467Y-112127223D01*
X116985813Y-112132150D01*
X116981694Y-112136694D01*
X116977150Y-112140813D01*
X116972223Y-112144467D01*
X116966962Y-112147620D01*
X116961418Y-112150242D01*
X116955643Y-112152309D01*
X116949693Y-112153799D01*
X116943626Y-112154699D01*
X116937500Y-112155000D01*
X116812500Y-112155000D01*
X116806374Y-112154699D01*
X116800307Y-112153799D01*
X116794357Y-112152309D01*
X116788582Y-112150242D01*
X116783038Y-112147620D01*
X116777777Y-112144467D01*
X116772850Y-112140813D01*
X116768306Y-112136694D01*
X116764187Y-112132150D01*
X116760533Y-112127223D01*
X116757380Y-112121962D01*
X116754758Y-112116418D01*
X116752691Y-112110643D01*
X116751201Y-112104693D01*
X116750301Y-112098626D01*
X116750000Y-112092500D01*
X116750000Y-111367500D01*
X116750301Y-111361374D01*
X116751201Y-111355307D01*
X116752691Y-111349357D01*
X116754758Y-111343582D01*
X116757380Y-111338038D01*
X116760533Y-111332777D01*
X116764187Y-111327850D01*
X116768306Y-111323306D01*
X116772850Y-111319187D01*
X116777777Y-111315533D01*
X116783038Y-111312380D01*
X116788582Y-111309758D01*
X116794357Y-111307691D01*
X116800307Y-111306201D01*
X116806374Y-111305301D01*
X116812500Y-111305000D01*
X116937500Y-111305000D01*
X116943626Y-111305301D01*
X116943626Y-111305301D01*
G37*
D11*
X116875000Y-111730000D03*
D10*
G36*
X116443626Y-111305301D02*
G01*
X116449693Y-111306201D01*
X116455643Y-111307691D01*
X116461418Y-111309758D01*
X116466962Y-111312380D01*
X116472223Y-111315533D01*
X116477150Y-111319187D01*
X116481694Y-111323306D01*
X116485813Y-111327850D01*
X116489467Y-111332777D01*
X116492620Y-111338038D01*
X116495242Y-111343582D01*
X116497309Y-111349357D01*
X116498799Y-111355307D01*
X116499699Y-111361374D01*
X116500000Y-111367500D01*
X116500000Y-112092500D01*
X116499699Y-112098626D01*
X116498799Y-112104693D01*
X116497309Y-112110643D01*
X116495242Y-112116418D01*
X116492620Y-112121962D01*
X116489467Y-112127223D01*
X116485813Y-112132150D01*
X116481694Y-112136694D01*
X116477150Y-112140813D01*
X116472223Y-112144467D01*
X116466962Y-112147620D01*
X116461418Y-112150242D01*
X116455643Y-112152309D01*
X116449693Y-112153799D01*
X116443626Y-112154699D01*
X116437500Y-112155000D01*
X116312500Y-112155000D01*
X116306374Y-112154699D01*
X116300307Y-112153799D01*
X116294357Y-112152309D01*
X116288582Y-112150242D01*
X116283038Y-112147620D01*
X116277777Y-112144467D01*
X116272850Y-112140813D01*
X116268306Y-112136694D01*
X116264187Y-112132150D01*
X116260533Y-112127223D01*
X116257380Y-112121962D01*
X116254758Y-112116418D01*
X116252691Y-112110643D01*
X116251201Y-112104693D01*
X116250301Y-112098626D01*
X116250000Y-112092500D01*
X116250000Y-111367500D01*
X116250301Y-111361374D01*
X116251201Y-111355307D01*
X116252691Y-111349357D01*
X116254758Y-111343582D01*
X116257380Y-111338038D01*
X116260533Y-111332777D01*
X116264187Y-111327850D01*
X116268306Y-111323306D01*
X116272850Y-111319187D01*
X116277777Y-111315533D01*
X116283038Y-111312380D01*
X116288582Y-111309758D01*
X116294357Y-111307691D01*
X116300307Y-111306201D01*
X116306374Y-111305301D01*
X116312500Y-111305000D01*
X116437500Y-111305000D01*
X116443626Y-111305301D01*
X116443626Y-111305301D01*
G37*
D11*
X116375000Y-111730000D03*
D10*
G36*
X115943626Y-111305301D02*
G01*
X115949693Y-111306201D01*
X115955643Y-111307691D01*
X115961418Y-111309758D01*
X115966962Y-111312380D01*
X115972223Y-111315533D01*
X115977150Y-111319187D01*
X115981694Y-111323306D01*
X115985813Y-111327850D01*
X115989467Y-111332777D01*
X115992620Y-111338038D01*
X115995242Y-111343582D01*
X115997309Y-111349357D01*
X115998799Y-111355307D01*
X115999699Y-111361374D01*
X116000000Y-111367500D01*
X116000000Y-112092500D01*
X115999699Y-112098626D01*
X115998799Y-112104693D01*
X115997309Y-112110643D01*
X115995242Y-112116418D01*
X115992620Y-112121962D01*
X115989467Y-112127223D01*
X115985813Y-112132150D01*
X115981694Y-112136694D01*
X115977150Y-112140813D01*
X115972223Y-112144467D01*
X115966962Y-112147620D01*
X115961418Y-112150242D01*
X115955643Y-112152309D01*
X115949693Y-112153799D01*
X115943626Y-112154699D01*
X115937500Y-112155000D01*
X115812500Y-112155000D01*
X115806374Y-112154699D01*
X115800307Y-112153799D01*
X115794357Y-112152309D01*
X115788582Y-112150242D01*
X115783038Y-112147620D01*
X115777777Y-112144467D01*
X115772850Y-112140813D01*
X115768306Y-112136694D01*
X115764187Y-112132150D01*
X115760533Y-112127223D01*
X115757380Y-112121962D01*
X115754758Y-112116418D01*
X115752691Y-112110643D01*
X115751201Y-112104693D01*
X115750301Y-112098626D01*
X115750000Y-112092500D01*
X115750000Y-111367500D01*
X115750301Y-111361374D01*
X115751201Y-111355307D01*
X115752691Y-111349357D01*
X115754758Y-111343582D01*
X115757380Y-111338038D01*
X115760533Y-111332777D01*
X115764187Y-111327850D01*
X115768306Y-111323306D01*
X115772850Y-111319187D01*
X115777777Y-111315533D01*
X115783038Y-111312380D01*
X115788582Y-111309758D01*
X115794357Y-111307691D01*
X115800307Y-111306201D01*
X115806374Y-111305301D01*
X115812500Y-111305000D01*
X115937500Y-111305000D01*
X115943626Y-111305301D01*
X115943626Y-111305301D01*
G37*
D11*
X115875000Y-111730000D03*
D10*
G36*
X115443626Y-111305301D02*
G01*
X115449693Y-111306201D01*
X115455643Y-111307691D01*
X115461418Y-111309758D01*
X115466962Y-111312380D01*
X115472223Y-111315533D01*
X115477150Y-111319187D01*
X115481694Y-111323306D01*
X115485813Y-111327850D01*
X115489467Y-111332777D01*
X115492620Y-111338038D01*
X115495242Y-111343582D01*
X115497309Y-111349357D01*
X115498799Y-111355307D01*
X115499699Y-111361374D01*
X115500000Y-111367500D01*
X115500000Y-112092500D01*
X115499699Y-112098626D01*
X115498799Y-112104693D01*
X115497309Y-112110643D01*
X115495242Y-112116418D01*
X115492620Y-112121962D01*
X115489467Y-112127223D01*
X115485813Y-112132150D01*
X115481694Y-112136694D01*
X115477150Y-112140813D01*
X115472223Y-112144467D01*
X115466962Y-112147620D01*
X115461418Y-112150242D01*
X115455643Y-112152309D01*
X115449693Y-112153799D01*
X115443626Y-112154699D01*
X115437500Y-112155000D01*
X115312500Y-112155000D01*
X115306374Y-112154699D01*
X115300307Y-112153799D01*
X115294357Y-112152309D01*
X115288582Y-112150242D01*
X115283038Y-112147620D01*
X115277777Y-112144467D01*
X115272850Y-112140813D01*
X115268306Y-112136694D01*
X115264187Y-112132150D01*
X115260533Y-112127223D01*
X115257380Y-112121962D01*
X115254758Y-112116418D01*
X115252691Y-112110643D01*
X115251201Y-112104693D01*
X115250301Y-112098626D01*
X115250000Y-112092500D01*
X115250000Y-111367500D01*
X115250301Y-111361374D01*
X115251201Y-111355307D01*
X115252691Y-111349357D01*
X115254758Y-111343582D01*
X115257380Y-111338038D01*
X115260533Y-111332777D01*
X115264187Y-111327850D01*
X115268306Y-111323306D01*
X115272850Y-111319187D01*
X115277777Y-111315533D01*
X115283038Y-111312380D01*
X115288582Y-111309758D01*
X115294357Y-111307691D01*
X115300307Y-111306201D01*
X115306374Y-111305301D01*
X115312500Y-111305000D01*
X115437500Y-111305000D01*
X115443626Y-111305301D01*
X115443626Y-111305301D01*
G37*
D11*
X115375000Y-111730000D03*
D10*
G36*
X114943626Y-111305301D02*
G01*
X114949693Y-111306201D01*
X114955643Y-111307691D01*
X114961418Y-111309758D01*
X114966962Y-111312380D01*
X114972223Y-111315533D01*
X114977150Y-111319187D01*
X114981694Y-111323306D01*
X114985813Y-111327850D01*
X114989467Y-111332777D01*
X114992620Y-111338038D01*
X114995242Y-111343582D01*
X114997309Y-111349357D01*
X114998799Y-111355307D01*
X114999699Y-111361374D01*
X115000000Y-111367500D01*
X115000000Y-112092500D01*
X114999699Y-112098626D01*
X114998799Y-112104693D01*
X114997309Y-112110643D01*
X114995242Y-112116418D01*
X114992620Y-112121962D01*
X114989467Y-112127223D01*
X114985813Y-112132150D01*
X114981694Y-112136694D01*
X114977150Y-112140813D01*
X114972223Y-112144467D01*
X114966962Y-112147620D01*
X114961418Y-112150242D01*
X114955643Y-112152309D01*
X114949693Y-112153799D01*
X114943626Y-112154699D01*
X114937500Y-112155000D01*
X114812500Y-112155000D01*
X114806374Y-112154699D01*
X114800307Y-112153799D01*
X114794357Y-112152309D01*
X114788582Y-112150242D01*
X114783038Y-112147620D01*
X114777777Y-112144467D01*
X114772850Y-112140813D01*
X114768306Y-112136694D01*
X114764187Y-112132150D01*
X114760533Y-112127223D01*
X114757380Y-112121962D01*
X114754758Y-112116418D01*
X114752691Y-112110643D01*
X114751201Y-112104693D01*
X114750301Y-112098626D01*
X114750000Y-112092500D01*
X114750000Y-111367500D01*
X114750301Y-111361374D01*
X114751201Y-111355307D01*
X114752691Y-111349357D01*
X114754758Y-111343582D01*
X114757380Y-111338038D01*
X114760533Y-111332777D01*
X114764187Y-111327850D01*
X114768306Y-111323306D01*
X114772850Y-111319187D01*
X114777777Y-111315533D01*
X114783038Y-111312380D01*
X114788582Y-111309758D01*
X114794357Y-111307691D01*
X114800307Y-111306201D01*
X114806374Y-111305301D01*
X114812500Y-111305000D01*
X114937500Y-111305000D01*
X114943626Y-111305301D01*
X114943626Y-111305301D01*
G37*
D11*
X114875000Y-111730000D03*
D10*
G36*
X114443626Y-111305301D02*
G01*
X114449693Y-111306201D01*
X114455643Y-111307691D01*
X114461418Y-111309758D01*
X114466962Y-111312380D01*
X114472223Y-111315533D01*
X114477150Y-111319187D01*
X114481694Y-111323306D01*
X114485813Y-111327850D01*
X114489467Y-111332777D01*
X114492620Y-111338038D01*
X114495242Y-111343582D01*
X114497309Y-111349357D01*
X114498799Y-111355307D01*
X114499699Y-111361374D01*
X114500000Y-111367500D01*
X114500000Y-112092500D01*
X114499699Y-112098626D01*
X114498799Y-112104693D01*
X114497309Y-112110643D01*
X114495242Y-112116418D01*
X114492620Y-112121962D01*
X114489467Y-112127223D01*
X114485813Y-112132150D01*
X114481694Y-112136694D01*
X114477150Y-112140813D01*
X114472223Y-112144467D01*
X114466962Y-112147620D01*
X114461418Y-112150242D01*
X114455643Y-112152309D01*
X114449693Y-112153799D01*
X114443626Y-112154699D01*
X114437500Y-112155000D01*
X114312500Y-112155000D01*
X114306374Y-112154699D01*
X114300307Y-112153799D01*
X114294357Y-112152309D01*
X114288582Y-112150242D01*
X114283038Y-112147620D01*
X114277777Y-112144467D01*
X114272850Y-112140813D01*
X114268306Y-112136694D01*
X114264187Y-112132150D01*
X114260533Y-112127223D01*
X114257380Y-112121962D01*
X114254758Y-112116418D01*
X114252691Y-112110643D01*
X114251201Y-112104693D01*
X114250301Y-112098626D01*
X114250000Y-112092500D01*
X114250000Y-111367500D01*
X114250301Y-111361374D01*
X114251201Y-111355307D01*
X114252691Y-111349357D01*
X114254758Y-111343582D01*
X114257380Y-111338038D01*
X114260533Y-111332777D01*
X114264187Y-111327850D01*
X114268306Y-111323306D01*
X114272850Y-111319187D01*
X114277777Y-111315533D01*
X114283038Y-111312380D01*
X114288582Y-111309758D01*
X114294357Y-111307691D01*
X114300307Y-111306201D01*
X114306374Y-111305301D01*
X114312500Y-111305000D01*
X114437500Y-111305000D01*
X114443626Y-111305301D01*
X114443626Y-111305301D01*
G37*
D11*
X114375000Y-111730000D03*
D10*
G36*
X114043626Y-110905301D02*
G01*
X114049693Y-110906201D01*
X114055643Y-110907691D01*
X114061418Y-110909758D01*
X114066962Y-110912380D01*
X114072223Y-110915533D01*
X114077150Y-110919187D01*
X114081694Y-110923306D01*
X114085813Y-110927850D01*
X114089467Y-110932777D01*
X114092620Y-110938038D01*
X114095242Y-110943582D01*
X114097309Y-110949357D01*
X114098799Y-110955307D01*
X114099699Y-110961374D01*
X114100000Y-110967500D01*
X114100000Y-111092500D01*
X114099699Y-111098626D01*
X114098799Y-111104693D01*
X114097309Y-111110643D01*
X114095242Y-111116418D01*
X114092620Y-111121962D01*
X114089467Y-111127223D01*
X114085813Y-111132150D01*
X114081694Y-111136694D01*
X114077150Y-111140813D01*
X114072223Y-111144467D01*
X114066962Y-111147620D01*
X114061418Y-111150242D01*
X114055643Y-111152309D01*
X114049693Y-111153799D01*
X114043626Y-111154699D01*
X114037500Y-111155000D01*
X113312500Y-111155000D01*
X113306374Y-111154699D01*
X113300307Y-111153799D01*
X113294357Y-111152309D01*
X113288582Y-111150242D01*
X113283038Y-111147620D01*
X113277777Y-111144467D01*
X113272850Y-111140813D01*
X113268306Y-111136694D01*
X113264187Y-111132150D01*
X113260533Y-111127223D01*
X113257380Y-111121962D01*
X113254758Y-111116418D01*
X113252691Y-111110643D01*
X113251201Y-111104693D01*
X113250301Y-111098626D01*
X113250000Y-111092500D01*
X113250000Y-110967500D01*
X113250301Y-110961374D01*
X113251201Y-110955307D01*
X113252691Y-110949357D01*
X113254758Y-110943582D01*
X113257380Y-110938038D01*
X113260533Y-110932777D01*
X113264187Y-110927850D01*
X113268306Y-110923306D01*
X113272850Y-110919187D01*
X113277777Y-110915533D01*
X113283038Y-110912380D01*
X113288582Y-110909758D01*
X113294357Y-110907691D01*
X113300307Y-110906201D01*
X113306374Y-110905301D01*
X113312500Y-110905000D01*
X114037500Y-110905000D01*
X114043626Y-110905301D01*
X114043626Y-110905301D01*
G37*
D11*
X113675000Y-111030000D03*
D10*
G36*
X114043626Y-110405301D02*
G01*
X114049693Y-110406201D01*
X114055643Y-110407691D01*
X114061418Y-110409758D01*
X114066962Y-110412380D01*
X114072223Y-110415533D01*
X114077150Y-110419187D01*
X114081694Y-110423306D01*
X114085813Y-110427850D01*
X114089467Y-110432777D01*
X114092620Y-110438038D01*
X114095242Y-110443582D01*
X114097309Y-110449357D01*
X114098799Y-110455307D01*
X114099699Y-110461374D01*
X114100000Y-110467500D01*
X114100000Y-110592500D01*
X114099699Y-110598626D01*
X114098799Y-110604693D01*
X114097309Y-110610643D01*
X114095242Y-110616418D01*
X114092620Y-110621962D01*
X114089467Y-110627223D01*
X114085813Y-110632150D01*
X114081694Y-110636694D01*
X114077150Y-110640813D01*
X114072223Y-110644467D01*
X114066962Y-110647620D01*
X114061418Y-110650242D01*
X114055643Y-110652309D01*
X114049693Y-110653799D01*
X114043626Y-110654699D01*
X114037500Y-110655000D01*
X113312500Y-110655000D01*
X113306374Y-110654699D01*
X113300307Y-110653799D01*
X113294357Y-110652309D01*
X113288582Y-110650242D01*
X113283038Y-110647620D01*
X113277777Y-110644467D01*
X113272850Y-110640813D01*
X113268306Y-110636694D01*
X113264187Y-110632150D01*
X113260533Y-110627223D01*
X113257380Y-110621962D01*
X113254758Y-110616418D01*
X113252691Y-110610643D01*
X113251201Y-110604693D01*
X113250301Y-110598626D01*
X113250000Y-110592500D01*
X113250000Y-110467500D01*
X113250301Y-110461374D01*
X113251201Y-110455307D01*
X113252691Y-110449357D01*
X113254758Y-110443582D01*
X113257380Y-110438038D01*
X113260533Y-110432777D01*
X113264187Y-110427850D01*
X113268306Y-110423306D01*
X113272850Y-110419187D01*
X113277777Y-110415533D01*
X113283038Y-110412380D01*
X113288582Y-110409758D01*
X113294357Y-110407691D01*
X113300307Y-110406201D01*
X113306374Y-110405301D01*
X113312500Y-110405000D01*
X114037500Y-110405000D01*
X114043626Y-110405301D01*
X114043626Y-110405301D01*
G37*
D11*
X113675000Y-110530000D03*
D10*
G36*
X114043626Y-109905301D02*
G01*
X114049693Y-109906201D01*
X114055643Y-109907691D01*
X114061418Y-109909758D01*
X114066962Y-109912380D01*
X114072223Y-109915533D01*
X114077150Y-109919187D01*
X114081694Y-109923306D01*
X114085813Y-109927850D01*
X114089467Y-109932777D01*
X114092620Y-109938038D01*
X114095242Y-109943582D01*
X114097309Y-109949357D01*
X114098799Y-109955307D01*
X114099699Y-109961374D01*
X114100000Y-109967500D01*
X114100000Y-110092500D01*
X114099699Y-110098626D01*
X114098799Y-110104693D01*
X114097309Y-110110643D01*
X114095242Y-110116418D01*
X114092620Y-110121962D01*
X114089467Y-110127223D01*
X114085813Y-110132150D01*
X114081694Y-110136694D01*
X114077150Y-110140813D01*
X114072223Y-110144467D01*
X114066962Y-110147620D01*
X114061418Y-110150242D01*
X114055643Y-110152309D01*
X114049693Y-110153799D01*
X114043626Y-110154699D01*
X114037500Y-110155000D01*
X113312500Y-110155000D01*
X113306374Y-110154699D01*
X113300307Y-110153799D01*
X113294357Y-110152309D01*
X113288582Y-110150242D01*
X113283038Y-110147620D01*
X113277777Y-110144467D01*
X113272850Y-110140813D01*
X113268306Y-110136694D01*
X113264187Y-110132150D01*
X113260533Y-110127223D01*
X113257380Y-110121962D01*
X113254758Y-110116418D01*
X113252691Y-110110643D01*
X113251201Y-110104693D01*
X113250301Y-110098626D01*
X113250000Y-110092500D01*
X113250000Y-109967500D01*
X113250301Y-109961374D01*
X113251201Y-109955307D01*
X113252691Y-109949357D01*
X113254758Y-109943582D01*
X113257380Y-109938038D01*
X113260533Y-109932777D01*
X113264187Y-109927850D01*
X113268306Y-109923306D01*
X113272850Y-109919187D01*
X113277777Y-109915533D01*
X113283038Y-109912380D01*
X113288582Y-109909758D01*
X113294357Y-109907691D01*
X113300307Y-109906201D01*
X113306374Y-109905301D01*
X113312500Y-109905000D01*
X114037500Y-109905000D01*
X114043626Y-109905301D01*
X114043626Y-109905301D01*
G37*
D11*
X113675000Y-110030000D03*
D10*
G36*
X114043626Y-109405301D02*
G01*
X114049693Y-109406201D01*
X114055643Y-109407691D01*
X114061418Y-109409758D01*
X114066962Y-109412380D01*
X114072223Y-109415533D01*
X114077150Y-109419187D01*
X114081694Y-109423306D01*
X114085813Y-109427850D01*
X114089467Y-109432777D01*
X114092620Y-109438038D01*
X114095242Y-109443582D01*
X114097309Y-109449357D01*
X114098799Y-109455307D01*
X114099699Y-109461374D01*
X114100000Y-109467500D01*
X114100000Y-109592500D01*
X114099699Y-109598626D01*
X114098799Y-109604693D01*
X114097309Y-109610643D01*
X114095242Y-109616418D01*
X114092620Y-109621962D01*
X114089467Y-109627223D01*
X114085813Y-109632150D01*
X114081694Y-109636694D01*
X114077150Y-109640813D01*
X114072223Y-109644467D01*
X114066962Y-109647620D01*
X114061418Y-109650242D01*
X114055643Y-109652309D01*
X114049693Y-109653799D01*
X114043626Y-109654699D01*
X114037500Y-109655000D01*
X113312500Y-109655000D01*
X113306374Y-109654699D01*
X113300307Y-109653799D01*
X113294357Y-109652309D01*
X113288582Y-109650242D01*
X113283038Y-109647620D01*
X113277777Y-109644467D01*
X113272850Y-109640813D01*
X113268306Y-109636694D01*
X113264187Y-109632150D01*
X113260533Y-109627223D01*
X113257380Y-109621962D01*
X113254758Y-109616418D01*
X113252691Y-109610643D01*
X113251201Y-109604693D01*
X113250301Y-109598626D01*
X113250000Y-109592500D01*
X113250000Y-109467500D01*
X113250301Y-109461374D01*
X113251201Y-109455307D01*
X113252691Y-109449357D01*
X113254758Y-109443582D01*
X113257380Y-109438038D01*
X113260533Y-109432777D01*
X113264187Y-109427850D01*
X113268306Y-109423306D01*
X113272850Y-109419187D01*
X113277777Y-109415533D01*
X113283038Y-109412380D01*
X113288582Y-109409758D01*
X113294357Y-109407691D01*
X113300307Y-109406201D01*
X113306374Y-109405301D01*
X113312500Y-109405000D01*
X114037500Y-109405000D01*
X114043626Y-109405301D01*
X114043626Y-109405301D01*
G37*
D11*
X113675000Y-109530000D03*
D10*
G36*
X114043626Y-108905301D02*
G01*
X114049693Y-108906201D01*
X114055643Y-108907691D01*
X114061418Y-108909758D01*
X114066962Y-108912380D01*
X114072223Y-108915533D01*
X114077150Y-108919187D01*
X114081694Y-108923306D01*
X114085813Y-108927850D01*
X114089467Y-108932777D01*
X114092620Y-108938038D01*
X114095242Y-108943582D01*
X114097309Y-108949357D01*
X114098799Y-108955307D01*
X114099699Y-108961374D01*
X114100000Y-108967500D01*
X114100000Y-109092500D01*
X114099699Y-109098626D01*
X114098799Y-109104693D01*
X114097309Y-109110643D01*
X114095242Y-109116418D01*
X114092620Y-109121962D01*
X114089467Y-109127223D01*
X114085813Y-109132150D01*
X114081694Y-109136694D01*
X114077150Y-109140813D01*
X114072223Y-109144467D01*
X114066962Y-109147620D01*
X114061418Y-109150242D01*
X114055643Y-109152309D01*
X114049693Y-109153799D01*
X114043626Y-109154699D01*
X114037500Y-109155000D01*
X113312500Y-109155000D01*
X113306374Y-109154699D01*
X113300307Y-109153799D01*
X113294357Y-109152309D01*
X113288582Y-109150242D01*
X113283038Y-109147620D01*
X113277777Y-109144467D01*
X113272850Y-109140813D01*
X113268306Y-109136694D01*
X113264187Y-109132150D01*
X113260533Y-109127223D01*
X113257380Y-109121962D01*
X113254758Y-109116418D01*
X113252691Y-109110643D01*
X113251201Y-109104693D01*
X113250301Y-109098626D01*
X113250000Y-109092500D01*
X113250000Y-108967500D01*
X113250301Y-108961374D01*
X113251201Y-108955307D01*
X113252691Y-108949357D01*
X113254758Y-108943582D01*
X113257380Y-108938038D01*
X113260533Y-108932777D01*
X113264187Y-108927850D01*
X113268306Y-108923306D01*
X113272850Y-108919187D01*
X113277777Y-108915533D01*
X113283038Y-108912380D01*
X113288582Y-108909758D01*
X113294357Y-108907691D01*
X113300307Y-108906201D01*
X113306374Y-108905301D01*
X113312500Y-108905000D01*
X114037500Y-108905000D01*
X114043626Y-108905301D01*
X114043626Y-108905301D01*
G37*
D11*
X113675000Y-109030000D03*
D10*
G36*
X114043626Y-108405301D02*
G01*
X114049693Y-108406201D01*
X114055643Y-108407691D01*
X114061418Y-108409758D01*
X114066962Y-108412380D01*
X114072223Y-108415533D01*
X114077150Y-108419187D01*
X114081694Y-108423306D01*
X114085813Y-108427850D01*
X114089467Y-108432777D01*
X114092620Y-108438038D01*
X114095242Y-108443582D01*
X114097309Y-108449357D01*
X114098799Y-108455307D01*
X114099699Y-108461374D01*
X114100000Y-108467500D01*
X114100000Y-108592500D01*
X114099699Y-108598626D01*
X114098799Y-108604693D01*
X114097309Y-108610643D01*
X114095242Y-108616418D01*
X114092620Y-108621962D01*
X114089467Y-108627223D01*
X114085813Y-108632150D01*
X114081694Y-108636694D01*
X114077150Y-108640813D01*
X114072223Y-108644467D01*
X114066962Y-108647620D01*
X114061418Y-108650242D01*
X114055643Y-108652309D01*
X114049693Y-108653799D01*
X114043626Y-108654699D01*
X114037500Y-108655000D01*
X113312500Y-108655000D01*
X113306374Y-108654699D01*
X113300307Y-108653799D01*
X113294357Y-108652309D01*
X113288582Y-108650242D01*
X113283038Y-108647620D01*
X113277777Y-108644467D01*
X113272850Y-108640813D01*
X113268306Y-108636694D01*
X113264187Y-108632150D01*
X113260533Y-108627223D01*
X113257380Y-108621962D01*
X113254758Y-108616418D01*
X113252691Y-108610643D01*
X113251201Y-108604693D01*
X113250301Y-108598626D01*
X113250000Y-108592500D01*
X113250000Y-108467500D01*
X113250301Y-108461374D01*
X113251201Y-108455307D01*
X113252691Y-108449357D01*
X113254758Y-108443582D01*
X113257380Y-108438038D01*
X113260533Y-108432777D01*
X113264187Y-108427850D01*
X113268306Y-108423306D01*
X113272850Y-108419187D01*
X113277777Y-108415533D01*
X113283038Y-108412380D01*
X113288582Y-108409758D01*
X113294357Y-108407691D01*
X113300307Y-108406201D01*
X113306374Y-108405301D01*
X113312500Y-108405000D01*
X114037500Y-108405000D01*
X114043626Y-108405301D01*
X114043626Y-108405301D01*
G37*
D11*
X113675000Y-108530000D03*
D10*
G36*
X114043626Y-107905301D02*
G01*
X114049693Y-107906201D01*
X114055643Y-107907691D01*
X114061418Y-107909758D01*
X114066962Y-107912380D01*
X114072223Y-107915533D01*
X114077150Y-107919187D01*
X114081694Y-107923306D01*
X114085813Y-107927850D01*
X114089467Y-107932777D01*
X114092620Y-107938038D01*
X114095242Y-107943582D01*
X114097309Y-107949357D01*
X114098799Y-107955307D01*
X114099699Y-107961374D01*
X114100000Y-107967500D01*
X114100000Y-108092500D01*
X114099699Y-108098626D01*
X114098799Y-108104693D01*
X114097309Y-108110643D01*
X114095242Y-108116418D01*
X114092620Y-108121962D01*
X114089467Y-108127223D01*
X114085813Y-108132150D01*
X114081694Y-108136694D01*
X114077150Y-108140813D01*
X114072223Y-108144467D01*
X114066962Y-108147620D01*
X114061418Y-108150242D01*
X114055643Y-108152309D01*
X114049693Y-108153799D01*
X114043626Y-108154699D01*
X114037500Y-108155000D01*
X113312500Y-108155000D01*
X113306374Y-108154699D01*
X113300307Y-108153799D01*
X113294357Y-108152309D01*
X113288582Y-108150242D01*
X113283038Y-108147620D01*
X113277777Y-108144467D01*
X113272850Y-108140813D01*
X113268306Y-108136694D01*
X113264187Y-108132150D01*
X113260533Y-108127223D01*
X113257380Y-108121962D01*
X113254758Y-108116418D01*
X113252691Y-108110643D01*
X113251201Y-108104693D01*
X113250301Y-108098626D01*
X113250000Y-108092500D01*
X113250000Y-107967500D01*
X113250301Y-107961374D01*
X113251201Y-107955307D01*
X113252691Y-107949357D01*
X113254758Y-107943582D01*
X113257380Y-107938038D01*
X113260533Y-107932777D01*
X113264187Y-107927850D01*
X113268306Y-107923306D01*
X113272850Y-107919187D01*
X113277777Y-107915533D01*
X113283038Y-107912380D01*
X113288582Y-107909758D01*
X113294357Y-107907691D01*
X113300307Y-107906201D01*
X113306374Y-107905301D01*
X113312500Y-107905000D01*
X114037500Y-107905000D01*
X114043626Y-107905301D01*
X114043626Y-107905301D01*
G37*
D11*
X113675000Y-108030000D03*
D10*
G36*
X114043626Y-107405301D02*
G01*
X114049693Y-107406201D01*
X114055643Y-107407691D01*
X114061418Y-107409758D01*
X114066962Y-107412380D01*
X114072223Y-107415533D01*
X114077150Y-107419187D01*
X114081694Y-107423306D01*
X114085813Y-107427850D01*
X114089467Y-107432777D01*
X114092620Y-107438038D01*
X114095242Y-107443582D01*
X114097309Y-107449357D01*
X114098799Y-107455307D01*
X114099699Y-107461374D01*
X114100000Y-107467500D01*
X114100000Y-107592500D01*
X114099699Y-107598626D01*
X114098799Y-107604693D01*
X114097309Y-107610643D01*
X114095242Y-107616418D01*
X114092620Y-107621962D01*
X114089467Y-107627223D01*
X114085813Y-107632150D01*
X114081694Y-107636694D01*
X114077150Y-107640813D01*
X114072223Y-107644467D01*
X114066962Y-107647620D01*
X114061418Y-107650242D01*
X114055643Y-107652309D01*
X114049693Y-107653799D01*
X114043626Y-107654699D01*
X114037500Y-107655000D01*
X113312500Y-107655000D01*
X113306374Y-107654699D01*
X113300307Y-107653799D01*
X113294357Y-107652309D01*
X113288582Y-107650242D01*
X113283038Y-107647620D01*
X113277777Y-107644467D01*
X113272850Y-107640813D01*
X113268306Y-107636694D01*
X113264187Y-107632150D01*
X113260533Y-107627223D01*
X113257380Y-107621962D01*
X113254758Y-107616418D01*
X113252691Y-107610643D01*
X113251201Y-107604693D01*
X113250301Y-107598626D01*
X113250000Y-107592500D01*
X113250000Y-107467500D01*
X113250301Y-107461374D01*
X113251201Y-107455307D01*
X113252691Y-107449357D01*
X113254758Y-107443582D01*
X113257380Y-107438038D01*
X113260533Y-107432777D01*
X113264187Y-107427850D01*
X113268306Y-107423306D01*
X113272850Y-107419187D01*
X113277777Y-107415533D01*
X113283038Y-107412380D01*
X113288582Y-107409758D01*
X113294357Y-107407691D01*
X113300307Y-107406201D01*
X113306374Y-107405301D01*
X113312500Y-107405000D01*
X114037500Y-107405000D01*
X114043626Y-107405301D01*
X114043626Y-107405301D01*
G37*
D11*
X113675000Y-107530000D03*
D10*
G36*
X114043626Y-106905301D02*
G01*
X114049693Y-106906201D01*
X114055643Y-106907691D01*
X114061418Y-106909758D01*
X114066962Y-106912380D01*
X114072223Y-106915533D01*
X114077150Y-106919187D01*
X114081694Y-106923306D01*
X114085813Y-106927850D01*
X114089467Y-106932777D01*
X114092620Y-106938038D01*
X114095242Y-106943582D01*
X114097309Y-106949357D01*
X114098799Y-106955307D01*
X114099699Y-106961374D01*
X114100000Y-106967500D01*
X114100000Y-107092500D01*
X114099699Y-107098626D01*
X114098799Y-107104693D01*
X114097309Y-107110643D01*
X114095242Y-107116418D01*
X114092620Y-107121962D01*
X114089467Y-107127223D01*
X114085813Y-107132150D01*
X114081694Y-107136694D01*
X114077150Y-107140813D01*
X114072223Y-107144467D01*
X114066962Y-107147620D01*
X114061418Y-107150242D01*
X114055643Y-107152309D01*
X114049693Y-107153799D01*
X114043626Y-107154699D01*
X114037500Y-107155000D01*
X113312500Y-107155000D01*
X113306374Y-107154699D01*
X113300307Y-107153799D01*
X113294357Y-107152309D01*
X113288582Y-107150242D01*
X113283038Y-107147620D01*
X113277777Y-107144467D01*
X113272850Y-107140813D01*
X113268306Y-107136694D01*
X113264187Y-107132150D01*
X113260533Y-107127223D01*
X113257380Y-107121962D01*
X113254758Y-107116418D01*
X113252691Y-107110643D01*
X113251201Y-107104693D01*
X113250301Y-107098626D01*
X113250000Y-107092500D01*
X113250000Y-106967500D01*
X113250301Y-106961374D01*
X113251201Y-106955307D01*
X113252691Y-106949357D01*
X113254758Y-106943582D01*
X113257380Y-106938038D01*
X113260533Y-106932777D01*
X113264187Y-106927850D01*
X113268306Y-106923306D01*
X113272850Y-106919187D01*
X113277777Y-106915533D01*
X113283038Y-106912380D01*
X113288582Y-106909758D01*
X113294357Y-106907691D01*
X113300307Y-106906201D01*
X113306374Y-106905301D01*
X113312500Y-106905000D01*
X114037500Y-106905000D01*
X114043626Y-106905301D01*
X114043626Y-106905301D01*
G37*
D11*
X113675000Y-107030000D03*
D10*
G36*
X114043626Y-106405301D02*
G01*
X114049693Y-106406201D01*
X114055643Y-106407691D01*
X114061418Y-106409758D01*
X114066962Y-106412380D01*
X114072223Y-106415533D01*
X114077150Y-106419187D01*
X114081694Y-106423306D01*
X114085813Y-106427850D01*
X114089467Y-106432777D01*
X114092620Y-106438038D01*
X114095242Y-106443582D01*
X114097309Y-106449357D01*
X114098799Y-106455307D01*
X114099699Y-106461374D01*
X114100000Y-106467500D01*
X114100000Y-106592500D01*
X114099699Y-106598626D01*
X114098799Y-106604693D01*
X114097309Y-106610643D01*
X114095242Y-106616418D01*
X114092620Y-106621962D01*
X114089467Y-106627223D01*
X114085813Y-106632150D01*
X114081694Y-106636694D01*
X114077150Y-106640813D01*
X114072223Y-106644467D01*
X114066962Y-106647620D01*
X114061418Y-106650242D01*
X114055643Y-106652309D01*
X114049693Y-106653799D01*
X114043626Y-106654699D01*
X114037500Y-106655000D01*
X113312500Y-106655000D01*
X113306374Y-106654699D01*
X113300307Y-106653799D01*
X113294357Y-106652309D01*
X113288582Y-106650242D01*
X113283038Y-106647620D01*
X113277777Y-106644467D01*
X113272850Y-106640813D01*
X113268306Y-106636694D01*
X113264187Y-106632150D01*
X113260533Y-106627223D01*
X113257380Y-106621962D01*
X113254758Y-106616418D01*
X113252691Y-106610643D01*
X113251201Y-106604693D01*
X113250301Y-106598626D01*
X113250000Y-106592500D01*
X113250000Y-106467500D01*
X113250301Y-106461374D01*
X113251201Y-106455307D01*
X113252691Y-106449357D01*
X113254758Y-106443582D01*
X113257380Y-106438038D01*
X113260533Y-106432777D01*
X113264187Y-106427850D01*
X113268306Y-106423306D01*
X113272850Y-106419187D01*
X113277777Y-106415533D01*
X113283038Y-106412380D01*
X113288582Y-106409758D01*
X113294357Y-106407691D01*
X113300307Y-106406201D01*
X113306374Y-106405301D01*
X113312500Y-106405000D01*
X114037500Y-106405000D01*
X114043626Y-106405301D01*
X114043626Y-106405301D01*
G37*
D11*
X113675000Y-106530000D03*
D10*
G36*
X114043626Y-105905301D02*
G01*
X114049693Y-105906201D01*
X114055643Y-105907691D01*
X114061418Y-105909758D01*
X114066962Y-105912380D01*
X114072223Y-105915533D01*
X114077150Y-105919187D01*
X114081694Y-105923306D01*
X114085813Y-105927850D01*
X114089467Y-105932777D01*
X114092620Y-105938038D01*
X114095242Y-105943582D01*
X114097309Y-105949357D01*
X114098799Y-105955307D01*
X114099699Y-105961374D01*
X114100000Y-105967500D01*
X114100000Y-106092500D01*
X114099699Y-106098626D01*
X114098799Y-106104693D01*
X114097309Y-106110643D01*
X114095242Y-106116418D01*
X114092620Y-106121962D01*
X114089467Y-106127223D01*
X114085813Y-106132150D01*
X114081694Y-106136694D01*
X114077150Y-106140813D01*
X114072223Y-106144467D01*
X114066962Y-106147620D01*
X114061418Y-106150242D01*
X114055643Y-106152309D01*
X114049693Y-106153799D01*
X114043626Y-106154699D01*
X114037500Y-106155000D01*
X113312500Y-106155000D01*
X113306374Y-106154699D01*
X113300307Y-106153799D01*
X113294357Y-106152309D01*
X113288582Y-106150242D01*
X113283038Y-106147620D01*
X113277777Y-106144467D01*
X113272850Y-106140813D01*
X113268306Y-106136694D01*
X113264187Y-106132150D01*
X113260533Y-106127223D01*
X113257380Y-106121962D01*
X113254758Y-106116418D01*
X113252691Y-106110643D01*
X113251201Y-106104693D01*
X113250301Y-106098626D01*
X113250000Y-106092500D01*
X113250000Y-105967500D01*
X113250301Y-105961374D01*
X113251201Y-105955307D01*
X113252691Y-105949357D01*
X113254758Y-105943582D01*
X113257380Y-105938038D01*
X113260533Y-105932777D01*
X113264187Y-105927850D01*
X113268306Y-105923306D01*
X113272850Y-105919187D01*
X113277777Y-105915533D01*
X113283038Y-105912380D01*
X113288582Y-105909758D01*
X113294357Y-105907691D01*
X113300307Y-105906201D01*
X113306374Y-105905301D01*
X113312500Y-105905000D01*
X114037500Y-105905000D01*
X114043626Y-105905301D01*
X114043626Y-105905301D01*
G37*
D11*
X113675000Y-106030000D03*
D10*
G36*
X114043626Y-105405301D02*
G01*
X114049693Y-105406201D01*
X114055643Y-105407691D01*
X114061418Y-105409758D01*
X114066962Y-105412380D01*
X114072223Y-105415533D01*
X114077150Y-105419187D01*
X114081694Y-105423306D01*
X114085813Y-105427850D01*
X114089467Y-105432777D01*
X114092620Y-105438038D01*
X114095242Y-105443582D01*
X114097309Y-105449357D01*
X114098799Y-105455307D01*
X114099699Y-105461374D01*
X114100000Y-105467500D01*
X114100000Y-105592500D01*
X114099699Y-105598626D01*
X114098799Y-105604693D01*
X114097309Y-105610643D01*
X114095242Y-105616418D01*
X114092620Y-105621962D01*
X114089467Y-105627223D01*
X114085813Y-105632150D01*
X114081694Y-105636694D01*
X114077150Y-105640813D01*
X114072223Y-105644467D01*
X114066962Y-105647620D01*
X114061418Y-105650242D01*
X114055643Y-105652309D01*
X114049693Y-105653799D01*
X114043626Y-105654699D01*
X114037500Y-105655000D01*
X113312500Y-105655000D01*
X113306374Y-105654699D01*
X113300307Y-105653799D01*
X113294357Y-105652309D01*
X113288582Y-105650242D01*
X113283038Y-105647620D01*
X113277777Y-105644467D01*
X113272850Y-105640813D01*
X113268306Y-105636694D01*
X113264187Y-105632150D01*
X113260533Y-105627223D01*
X113257380Y-105621962D01*
X113254758Y-105616418D01*
X113252691Y-105610643D01*
X113251201Y-105604693D01*
X113250301Y-105598626D01*
X113250000Y-105592500D01*
X113250000Y-105467500D01*
X113250301Y-105461374D01*
X113251201Y-105455307D01*
X113252691Y-105449357D01*
X113254758Y-105443582D01*
X113257380Y-105438038D01*
X113260533Y-105432777D01*
X113264187Y-105427850D01*
X113268306Y-105423306D01*
X113272850Y-105419187D01*
X113277777Y-105415533D01*
X113283038Y-105412380D01*
X113288582Y-105409758D01*
X113294357Y-105407691D01*
X113300307Y-105406201D01*
X113306374Y-105405301D01*
X113312500Y-105405000D01*
X114037500Y-105405000D01*
X114043626Y-105405301D01*
X114043626Y-105405301D01*
G37*
D11*
X113675000Y-105530000D03*
D10*
G36*
X114443626Y-104405301D02*
G01*
X114449693Y-104406201D01*
X114455643Y-104407691D01*
X114461418Y-104409758D01*
X114466962Y-104412380D01*
X114472223Y-104415533D01*
X114477150Y-104419187D01*
X114481694Y-104423306D01*
X114485813Y-104427850D01*
X114489467Y-104432777D01*
X114492620Y-104438038D01*
X114495242Y-104443582D01*
X114497309Y-104449357D01*
X114498799Y-104455307D01*
X114499699Y-104461374D01*
X114500000Y-104467500D01*
X114500000Y-105192500D01*
X114499699Y-105198626D01*
X114498799Y-105204693D01*
X114497309Y-105210643D01*
X114495242Y-105216418D01*
X114492620Y-105221962D01*
X114489467Y-105227223D01*
X114485813Y-105232150D01*
X114481694Y-105236694D01*
X114477150Y-105240813D01*
X114472223Y-105244467D01*
X114466962Y-105247620D01*
X114461418Y-105250242D01*
X114455643Y-105252309D01*
X114449693Y-105253799D01*
X114443626Y-105254699D01*
X114437500Y-105255000D01*
X114312500Y-105255000D01*
X114306374Y-105254699D01*
X114300307Y-105253799D01*
X114294357Y-105252309D01*
X114288582Y-105250242D01*
X114283038Y-105247620D01*
X114277777Y-105244467D01*
X114272850Y-105240813D01*
X114268306Y-105236694D01*
X114264187Y-105232150D01*
X114260533Y-105227223D01*
X114257380Y-105221962D01*
X114254758Y-105216418D01*
X114252691Y-105210643D01*
X114251201Y-105204693D01*
X114250301Y-105198626D01*
X114250000Y-105192500D01*
X114250000Y-104467500D01*
X114250301Y-104461374D01*
X114251201Y-104455307D01*
X114252691Y-104449357D01*
X114254758Y-104443582D01*
X114257380Y-104438038D01*
X114260533Y-104432777D01*
X114264187Y-104427850D01*
X114268306Y-104423306D01*
X114272850Y-104419187D01*
X114277777Y-104415533D01*
X114283038Y-104412380D01*
X114288582Y-104409758D01*
X114294357Y-104407691D01*
X114300307Y-104406201D01*
X114306374Y-104405301D01*
X114312500Y-104405000D01*
X114437500Y-104405000D01*
X114443626Y-104405301D01*
X114443626Y-104405301D01*
G37*
D11*
X114375000Y-104830000D03*
D10*
G36*
X114943626Y-104405301D02*
G01*
X114949693Y-104406201D01*
X114955643Y-104407691D01*
X114961418Y-104409758D01*
X114966962Y-104412380D01*
X114972223Y-104415533D01*
X114977150Y-104419187D01*
X114981694Y-104423306D01*
X114985813Y-104427850D01*
X114989467Y-104432777D01*
X114992620Y-104438038D01*
X114995242Y-104443582D01*
X114997309Y-104449357D01*
X114998799Y-104455307D01*
X114999699Y-104461374D01*
X115000000Y-104467500D01*
X115000000Y-105192500D01*
X114999699Y-105198626D01*
X114998799Y-105204693D01*
X114997309Y-105210643D01*
X114995242Y-105216418D01*
X114992620Y-105221962D01*
X114989467Y-105227223D01*
X114985813Y-105232150D01*
X114981694Y-105236694D01*
X114977150Y-105240813D01*
X114972223Y-105244467D01*
X114966962Y-105247620D01*
X114961418Y-105250242D01*
X114955643Y-105252309D01*
X114949693Y-105253799D01*
X114943626Y-105254699D01*
X114937500Y-105255000D01*
X114812500Y-105255000D01*
X114806374Y-105254699D01*
X114800307Y-105253799D01*
X114794357Y-105252309D01*
X114788582Y-105250242D01*
X114783038Y-105247620D01*
X114777777Y-105244467D01*
X114772850Y-105240813D01*
X114768306Y-105236694D01*
X114764187Y-105232150D01*
X114760533Y-105227223D01*
X114757380Y-105221962D01*
X114754758Y-105216418D01*
X114752691Y-105210643D01*
X114751201Y-105204693D01*
X114750301Y-105198626D01*
X114750000Y-105192500D01*
X114750000Y-104467500D01*
X114750301Y-104461374D01*
X114751201Y-104455307D01*
X114752691Y-104449357D01*
X114754758Y-104443582D01*
X114757380Y-104438038D01*
X114760533Y-104432777D01*
X114764187Y-104427850D01*
X114768306Y-104423306D01*
X114772850Y-104419187D01*
X114777777Y-104415533D01*
X114783038Y-104412380D01*
X114788582Y-104409758D01*
X114794357Y-104407691D01*
X114800307Y-104406201D01*
X114806374Y-104405301D01*
X114812500Y-104405000D01*
X114937500Y-104405000D01*
X114943626Y-104405301D01*
X114943626Y-104405301D01*
G37*
D11*
X114875000Y-104830000D03*
D10*
G36*
X115443626Y-104405301D02*
G01*
X115449693Y-104406201D01*
X115455643Y-104407691D01*
X115461418Y-104409758D01*
X115466962Y-104412380D01*
X115472223Y-104415533D01*
X115477150Y-104419187D01*
X115481694Y-104423306D01*
X115485813Y-104427850D01*
X115489467Y-104432777D01*
X115492620Y-104438038D01*
X115495242Y-104443582D01*
X115497309Y-104449357D01*
X115498799Y-104455307D01*
X115499699Y-104461374D01*
X115500000Y-104467500D01*
X115500000Y-105192500D01*
X115499699Y-105198626D01*
X115498799Y-105204693D01*
X115497309Y-105210643D01*
X115495242Y-105216418D01*
X115492620Y-105221962D01*
X115489467Y-105227223D01*
X115485813Y-105232150D01*
X115481694Y-105236694D01*
X115477150Y-105240813D01*
X115472223Y-105244467D01*
X115466962Y-105247620D01*
X115461418Y-105250242D01*
X115455643Y-105252309D01*
X115449693Y-105253799D01*
X115443626Y-105254699D01*
X115437500Y-105255000D01*
X115312500Y-105255000D01*
X115306374Y-105254699D01*
X115300307Y-105253799D01*
X115294357Y-105252309D01*
X115288582Y-105250242D01*
X115283038Y-105247620D01*
X115277777Y-105244467D01*
X115272850Y-105240813D01*
X115268306Y-105236694D01*
X115264187Y-105232150D01*
X115260533Y-105227223D01*
X115257380Y-105221962D01*
X115254758Y-105216418D01*
X115252691Y-105210643D01*
X115251201Y-105204693D01*
X115250301Y-105198626D01*
X115250000Y-105192500D01*
X115250000Y-104467500D01*
X115250301Y-104461374D01*
X115251201Y-104455307D01*
X115252691Y-104449357D01*
X115254758Y-104443582D01*
X115257380Y-104438038D01*
X115260533Y-104432777D01*
X115264187Y-104427850D01*
X115268306Y-104423306D01*
X115272850Y-104419187D01*
X115277777Y-104415533D01*
X115283038Y-104412380D01*
X115288582Y-104409758D01*
X115294357Y-104407691D01*
X115300307Y-104406201D01*
X115306374Y-104405301D01*
X115312500Y-104405000D01*
X115437500Y-104405000D01*
X115443626Y-104405301D01*
X115443626Y-104405301D01*
G37*
D11*
X115375000Y-104830000D03*
D10*
G36*
X115943626Y-104405301D02*
G01*
X115949693Y-104406201D01*
X115955643Y-104407691D01*
X115961418Y-104409758D01*
X115966962Y-104412380D01*
X115972223Y-104415533D01*
X115977150Y-104419187D01*
X115981694Y-104423306D01*
X115985813Y-104427850D01*
X115989467Y-104432777D01*
X115992620Y-104438038D01*
X115995242Y-104443582D01*
X115997309Y-104449357D01*
X115998799Y-104455307D01*
X115999699Y-104461374D01*
X116000000Y-104467500D01*
X116000000Y-105192500D01*
X115999699Y-105198626D01*
X115998799Y-105204693D01*
X115997309Y-105210643D01*
X115995242Y-105216418D01*
X115992620Y-105221962D01*
X115989467Y-105227223D01*
X115985813Y-105232150D01*
X115981694Y-105236694D01*
X115977150Y-105240813D01*
X115972223Y-105244467D01*
X115966962Y-105247620D01*
X115961418Y-105250242D01*
X115955643Y-105252309D01*
X115949693Y-105253799D01*
X115943626Y-105254699D01*
X115937500Y-105255000D01*
X115812500Y-105255000D01*
X115806374Y-105254699D01*
X115800307Y-105253799D01*
X115794357Y-105252309D01*
X115788582Y-105250242D01*
X115783038Y-105247620D01*
X115777777Y-105244467D01*
X115772850Y-105240813D01*
X115768306Y-105236694D01*
X115764187Y-105232150D01*
X115760533Y-105227223D01*
X115757380Y-105221962D01*
X115754758Y-105216418D01*
X115752691Y-105210643D01*
X115751201Y-105204693D01*
X115750301Y-105198626D01*
X115750000Y-105192500D01*
X115750000Y-104467500D01*
X115750301Y-104461374D01*
X115751201Y-104455307D01*
X115752691Y-104449357D01*
X115754758Y-104443582D01*
X115757380Y-104438038D01*
X115760533Y-104432777D01*
X115764187Y-104427850D01*
X115768306Y-104423306D01*
X115772850Y-104419187D01*
X115777777Y-104415533D01*
X115783038Y-104412380D01*
X115788582Y-104409758D01*
X115794357Y-104407691D01*
X115800307Y-104406201D01*
X115806374Y-104405301D01*
X115812500Y-104405000D01*
X115937500Y-104405000D01*
X115943626Y-104405301D01*
X115943626Y-104405301D01*
G37*
D11*
X115875000Y-104830000D03*
D10*
G36*
X116443626Y-104405301D02*
G01*
X116449693Y-104406201D01*
X116455643Y-104407691D01*
X116461418Y-104409758D01*
X116466962Y-104412380D01*
X116472223Y-104415533D01*
X116477150Y-104419187D01*
X116481694Y-104423306D01*
X116485813Y-104427850D01*
X116489467Y-104432777D01*
X116492620Y-104438038D01*
X116495242Y-104443582D01*
X116497309Y-104449357D01*
X116498799Y-104455307D01*
X116499699Y-104461374D01*
X116500000Y-104467500D01*
X116500000Y-105192500D01*
X116499699Y-105198626D01*
X116498799Y-105204693D01*
X116497309Y-105210643D01*
X116495242Y-105216418D01*
X116492620Y-105221962D01*
X116489467Y-105227223D01*
X116485813Y-105232150D01*
X116481694Y-105236694D01*
X116477150Y-105240813D01*
X116472223Y-105244467D01*
X116466962Y-105247620D01*
X116461418Y-105250242D01*
X116455643Y-105252309D01*
X116449693Y-105253799D01*
X116443626Y-105254699D01*
X116437500Y-105255000D01*
X116312500Y-105255000D01*
X116306374Y-105254699D01*
X116300307Y-105253799D01*
X116294357Y-105252309D01*
X116288582Y-105250242D01*
X116283038Y-105247620D01*
X116277777Y-105244467D01*
X116272850Y-105240813D01*
X116268306Y-105236694D01*
X116264187Y-105232150D01*
X116260533Y-105227223D01*
X116257380Y-105221962D01*
X116254758Y-105216418D01*
X116252691Y-105210643D01*
X116251201Y-105204693D01*
X116250301Y-105198626D01*
X116250000Y-105192500D01*
X116250000Y-104467500D01*
X116250301Y-104461374D01*
X116251201Y-104455307D01*
X116252691Y-104449357D01*
X116254758Y-104443582D01*
X116257380Y-104438038D01*
X116260533Y-104432777D01*
X116264187Y-104427850D01*
X116268306Y-104423306D01*
X116272850Y-104419187D01*
X116277777Y-104415533D01*
X116283038Y-104412380D01*
X116288582Y-104409758D01*
X116294357Y-104407691D01*
X116300307Y-104406201D01*
X116306374Y-104405301D01*
X116312500Y-104405000D01*
X116437500Y-104405000D01*
X116443626Y-104405301D01*
X116443626Y-104405301D01*
G37*
D11*
X116375000Y-104830000D03*
D10*
G36*
X116943626Y-104405301D02*
G01*
X116949693Y-104406201D01*
X116955643Y-104407691D01*
X116961418Y-104409758D01*
X116966962Y-104412380D01*
X116972223Y-104415533D01*
X116977150Y-104419187D01*
X116981694Y-104423306D01*
X116985813Y-104427850D01*
X116989467Y-104432777D01*
X116992620Y-104438038D01*
X116995242Y-104443582D01*
X116997309Y-104449357D01*
X116998799Y-104455307D01*
X116999699Y-104461374D01*
X117000000Y-104467500D01*
X117000000Y-105192500D01*
X116999699Y-105198626D01*
X116998799Y-105204693D01*
X116997309Y-105210643D01*
X116995242Y-105216418D01*
X116992620Y-105221962D01*
X116989467Y-105227223D01*
X116985813Y-105232150D01*
X116981694Y-105236694D01*
X116977150Y-105240813D01*
X116972223Y-105244467D01*
X116966962Y-105247620D01*
X116961418Y-105250242D01*
X116955643Y-105252309D01*
X116949693Y-105253799D01*
X116943626Y-105254699D01*
X116937500Y-105255000D01*
X116812500Y-105255000D01*
X116806374Y-105254699D01*
X116800307Y-105253799D01*
X116794357Y-105252309D01*
X116788582Y-105250242D01*
X116783038Y-105247620D01*
X116777777Y-105244467D01*
X116772850Y-105240813D01*
X116768306Y-105236694D01*
X116764187Y-105232150D01*
X116760533Y-105227223D01*
X116757380Y-105221962D01*
X116754758Y-105216418D01*
X116752691Y-105210643D01*
X116751201Y-105204693D01*
X116750301Y-105198626D01*
X116750000Y-105192500D01*
X116750000Y-104467500D01*
X116750301Y-104461374D01*
X116751201Y-104455307D01*
X116752691Y-104449357D01*
X116754758Y-104443582D01*
X116757380Y-104438038D01*
X116760533Y-104432777D01*
X116764187Y-104427850D01*
X116768306Y-104423306D01*
X116772850Y-104419187D01*
X116777777Y-104415533D01*
X116783038Y-104412380D01*
X116788582Y-104409758D01*
X116794357Y-104407691D01*
X116800307Y-104406201D01*
X116806374Y-104405301D01*
X116812500Y-104405000D01*
X116937500Y-104405000D01*
X116943626Y-104405301D01*
X116943626Y-104405301D01*
G37*
D11*
X116875000Y-104830000D03*
D10*
G36*
X117443626Y-104405301D02*
G01*
X117449693Y-104406201D01*
X117455643Y-104407691D01*
X117461418Y-104409758D01*
X117466962Y-104412380D01*
X117472223Y-104415533D01*
X117477150Y-104419187D01*
X117481694Y-104423306D01*
X117485813Y-104427850D01*
X117489467Y-104432777D01*
X117492620Y-104438038D01*
X117495242Y-104443582D01*
X117497309Y-104449357D01*
X117498799Y-104455307D01*
X117499699Y-104461374D01*
X117500000Y-104467500D01*
X117500000Y-105192500D01*
X117499699Y-105198626D01*
X117498799Y-105204693D01*
X117497309Y-105210643D01*
X117495242Y-105216418D01*
X117492620Y-105221962D01*
X117489467Y-105227223D01*
X117485813Y-105232150D01*
X117481694Y-105236694D01*
X117477150Y-105240813D01*
X117472223Y-105244467D01*
X117466962Y-105247620D01*
X117461418Y-105250242D01*
X117455643Y-105252309D01*
X117449693Y-105253799D01*
X117443626Y-105254699D01*
X117437500Y-105255000D01*
X117312500Y-105255000D01*
X117306374Y-105254699D01*
X117300307Y-105253799D01*
X117294357Y-105252309D01*
X117288582Y-105250242D01*
X117283038Y-105247620D01*
X117277777Y-105244467D01*
X117272850Y-105240813D01*
X117268306Y-105236694D01*
X117264187Y-105232150D01*
X117260533Y-105227223D01*
X117257380Y-105221962D01*
X117254758Y-105216418D01*
X117252691Y-105210643D01*
X117251201Y-105204693D01*
X117250301Y-105198626D01*
X117250000Y-105192500D01*
X117250000Y-104467500D01*
X117250301Y-104461374D01*
X117251201Y-104455307D01*
X117252691Y-104449357D01*
X117254758Y-104443582D01*
X117257380Y-104438038D01*
X117260533Y-104432777D01*
X117264187Y-104427850D01*
X117268306Y-104423306D01*
X117272850Y-104419187D01*
X117277777Y-104415533D01*
X117283038Y-104412380D01*
X117288582Y-104409758D01*
X117294357Y-104407691D01*
X117300307Y-104406201D01*
X117306374Y-104405301D01*
X117312500Y-104405000D01*
X117437500Y-104405000D01*
X117443626Y-104405301D01*
X117443626Y-104405301D01*
G37*
D11*
X117375000Y-104830000D03*
D10*
G36*
X117943626Y-104405301D02*
G01*
X117949693Y-104406201D01*
X117955643Y-104407691D01*
X117961418Y-104409758D01*
X117966962Y-104412380D01*
X117972223Y-104415533D01*
X117977150Y-104419187D01*
X117981694Y-104423306D01*
X117985813Y-104427850D01*
X117989467Y-104432777D01*
X117992620Y-104438038D01*
X117995242Y-104443582D01*
X117997309Y-104449357D01*
X117998799Y-104455307D01*
X117999699Y-104461374D01*
X118000000Y-104467500D01*
X118000000Y-105192500D01*
X117999699Y-105198626D01*
X117998799Y-105204693D01*
X117997309Y-105210643D01*
X117995242Y-105216418D01*
X117992620Y-105221962D01*
X117989467Y-105227223D01*
X117985813Y-105232150D01*
X117981694Y-105236694D01*
X117977150Y-105240813D01*
X117972223Y-105244467D01*
X117966962Y-105247620D01*
X117961418Y-105250242D01*
X117955643Y-105252309D01*
X117949693Y-105253799D01*
X117943626Y-105254699D01*
X117937500Y-105255000D01*
X117812500Y-105255000D01*
X117806374Y-105254699D01*
X117800307Y-105253799D01*
X117794357Y-105252309D01*
X117788582Y-105250242D01*
X117783038Y-105247620D01*
X117777777Y-105244467D01*
X117772850Y-105240813D01*
X117768306Y-105236694D01*
X117764187Y-105232150D01*
X117760533Y-105227223D01*
X117757380Y-105221962D01*
X117754758Y-105216418D01*
X117752691Y-105210643D01*
X117751201Y-105204693D01*
X117750301Y-105198626D01*
X117750000Y-105192500D01*
X117750000Y-104467500D01*
X117750301Y-104461374D01*
X117751201Y-104455307D01*
X117752691Y-104449357D01*
X117754758Y-104443582D01*
X117757380Y-104438038D01*
X117760533Y-104432777D01*
X117764187Y-104427850D01*
X117768306Y-104423306D01*
X117772850Y-104419187D01*
X117777777Y-104415533D01*
X117783038Y-104412380D01*
X117788582Y-104409758D01*
X117794357Y-104407691D01*
X117800307Y-104406201D01*
X117806374Y-104405301D01*
X117812500Y-104405000D01*
X117937500Y-104405000D01*
X117943626Y-104405301D01*
X117943626Y-104405301D01*
G37*
D11*
X117875000Y-104830000D03*
D10*
G36*
X118443626Y-104405301D02*
G01*
X118449693Y-104406201D01*
X118455643Y-104407691D01*
X118461418Y-104409758D01*
X118466962Y-104412380D01*
X118472223Y-104415533D01*
X118477150Y-104419187D01*
X118481694Y-104423306D01*
X118485813Y-104427850D01*
X118489467Y-104432777D01*
X118492620Y-104438038D01*
X118495242Y-104443582D01*
X118497309Y-104449357D01*
X118498799Y-104455307D01*
X118499699Y-104461374D01*
X118500000Y-104467500D01*
X118500000Y-105192500D01*
X118499699Y-105198626D01*
X118498799Y-105204693D01*
X118497309Y-105210643D01*
X118495242Y-105216418D01*
X118492620Y-105221962D01*
X118489467Y-105227223D01*
X118485813Y-105232150D01*
X118481694Y-105236694D01*
X118477150Y-105240813D01*
X118472223Y-105244467D01*
X118466962Y-105247620D01*
X118461418Y-105250242D01*
X118455643Y-105252309D01*
X118449693Y-105253799D01*
X118443626Y-105254699D01*
X118437500Y-105255000D01*
X118312500Y-105255000D01*
X118306374Y-105254699D01*
X118300307Y-105253799D01*
X118294357Y-105252309D01*
X118288582Y-105250242D01*
X118283038Y-105247620D01*
X118277777Y-105244467D01*
X118272850Y-105240813D01*
X118268306Y-105236694D01*
X118264187Y-105232150D01*
X118260533Y-105227223D01*
X118257380Y-105221962D01*
X118254758Y-105216418D01*
X118252691Y-105210643D01*
X118251201Y-105204693D01*
X118250301Y-105198626D01*
X118250000Y-105192500D01*
X118250000Y-104467500D01*
X118250301Y-104461374D01*
X118251201Y-104455307D01*
X118252691Y-104449357D01*
X118254758Y-104443582D01*
X118257380Y-104438038D01*
X118260533Y-104432777D01*
X118264187Y-104427850D01*
X118268306Y-104423306D01*
X118272850Y-104419187D01*
X118277777Y-104415533D01*
X118283038Y-104412380D01*
X118288582Y-104409758D01*
X118294357Y-104407691D01*
X118300307Y-104406201D01*
X118306374Y-104405301D01*
X118312500Y-104405000D01*
X118437500Y-104405000D01*
X118443626Y-104405301D01*
X118443626Y-104405301D01*
G37*
D11*
X118375000Y-104830000D03*
D10*
G36*
X118943626Y-104405301D02*
G01*
X118949693Y-104406201D01*
X118955643Y-104407691D01*
X118961418Y-104409758D01*
X118966962Y-104412380D01*
X118972223Y-104415533D01*
X118977150Y-104419187D01*
X118981694Y-104423306D01*
X118985813Y-104427850D01*
X118989467Y-104432777D01*
X118992620Y-104438038D01*
X118995242Y-104443582D01*
X118997309Y-104449357D01*
X118998799Y-104455307D01*
X118999699Y-104461374D01*
X119000000Y-104467500D01*
X119000000Y-105192500D01*
X118999699Y-105198626D01*
X118998799Y-105204693D01*
X118997309Y-105210643D01*
X118995242Y-105216418D01*
X118992620Y-105221962D01*
X118989467Y-105227223D01*
X118985813Y-105232150D01*
X118981694Y-105236694D01*
X118977150Y-105240813D01*
X118972223Y-105244467D01*
X118966962Y-105247620D01*
X118961418Y-105250242D01*
X118955643Y-105252309D01*
X118949693Y-105253799D01*
X118943626Y-105254699D01*
X118937500Y-105255000D01*
X118812500Y-105255000D01*
X118806374Y-105254699D01*
X118800307Y-105253799D01*
X118794357Y-105252309D01*
X118788582Y-105250242D01*
X118783038Y-105247620D01*
X118777777Y-105244467D01*
X118772850Y-105240813D01*
X118768306Y-105236694D01*
X118764187Y-105232150D01*
X118760533Y-105227223D01*
X118757380Y-105221962D01*
X118754758Y-105216418D01*
X118752691Y-105210643D01*
X118751201Y-105204693D01*
X118750301Y-105198626D01*
X118750000Y-105192500D01*
X118750000Y-104467500D01*
X118750301Y-104461374D01*
X118751201Y-104455307D01*
X118752691Y-104449357D01*
X118754758Y-104443582D01*
X118757380Y-104438038D01*
X118760533Y-104432777D01*
X118764187Y-104427850D01*
X118768306Y-104423306D01*
X118772850Y-104419187D01*
X118777777Y-104415533D01*
X118783038Y-104412380D01*
X118788582Y-104409758D01*
X118794357Y-104407691D01*
X118800307Y-104406201D01*
X118806374Y-104405301D01*
X118812500Y-104405000D01*
X118937500Y-104405000D01*
X118943626Y-104405301D01*
X118943626Y-104405301D01*
G37*
D11*
X118875000Y-104830000D03*
D10*
G36*
X119443626Y-104405301D02*
G01*
X119449693Y-104406201D01*
X119455643Y-104407691D01*
X119461418Y-104409758D01*
X119466962Y-104412380D01*
X119472223Y-104415533D01*
X119477150Y-104419187D01*
X119481694Y-104423306D01*
X119485813Y-104427850D01*
X119489467Y-104432777D01*
X119492620Y-104438038D01*
X119495242Y-104443582D01*
X119497309Y-104449357D01*
X119498799Y-104455307D01*
X119499699Y-104461374D01*
X119500000Y-104467500D01*
X119500000Y-105192500D01*
X119499699Y-105198626D01*
X119498799Y-105204693D01*
X119497309Y-105210643D01*
X119495242Y-105216418D01*
X119492620Y-105221962D01*
X119489467Y-105227223D01*
X119485813Y-105232150D01*
X119481694Y-105236694D01*
X119477150Y-105240813D01*
X119472223Y-105244467D01*
X119466962Y-105247620D01*
X119461418Y-105250242D01*
X119455643Y-105252309D01*
X119449693Y-105253799D01*
X119443626Y-105254699D01*
X119437500Y-105255000D01*
X119312500Y-105255000D01*
X119306374Y-105254699D01*
X119300307Y-105253799D01*
X119294357Y-105252309D01*
X119288582Y-105250242D01*
X119283038Y-105247620D01*
X119277777Y-105244467D01*
X119272850Y-105240813D01*
X119268306Y-105236694D01*
X119264187Y-105232150D01*
X119260533Y-105227223D01*
X119257380Y-105221962D01*
X119254758Y-105216418D01*
X119252691Y-105210643D01*
X119251201Y-105204693D01*
X119250301Y-105198626D01*
X119250000Y-105192500D01*
X119250000Y-104467500D01*
X119250301Y-104461374D01*
X119251201Y-104455307D01*
X119252691Y-104449357D01*
X119254758Y-104443582D01*
X119257380Y-104438038D01*
X119260533Y-104432777D01*
X119264187Y-104427850D01*
X119268306Y-104423306D01*
X119272850Y-104419187D01*
X119277777Y-104415533D01*
X119283038Y-104412380D01*
X119288582Y-104409758D01*
X119294357Y-104407691D01*
X119300307Y-104406201D01*
X119306374Y-104405301D01*
X119312500Y-104405000D01*
X119437500Y-104405000D01*
X119443626Y-104405301D01*
X119443626Y-104405301D01*
G37*
D11*
X119375000Y-104830000D03*
D10*
G36*
X119943626Y-104405301D02*
G01*
X119949693Y-104406201D01*
X119955643Y-104407691D01*
X119961418Y-104409758D01*
X119966962Y-104412380D01*
X119972223Y-104415533D01*
X119977150Y-104419187D01*
X119981694Y-104423306D01*
X119985813Y-104427850D01*
X119989467Y-104432777D01*
X119992620Y-104438038D01*
X119995242Y-104443582D01*
X119997309Y-104449357D01*
X119998799Y-104455307D01*
X119999699Y-104461374D01*
X120000000Y-104467500D01*
X120000000Y-105192500D01*
X119999699Y-105198626D01*
X119998799Y-105204693D01*
X119997309Y-105210643D01*
X119995242Y-105216418D01*
X119992620Y-105221962D01*
X119989467Y-105227223D01*
X119985813Y-105232150D01*
X119981694Y-105236694D01*
X119977150Y-105240813D01*
X119972223Y-105244467D01*
X119966962Y-105247620D01*
X119961418Y-105250242D01*
X119955643Y-105252309D01*
X119949693Y-105253799D01*
X119943626Y-105254699D01*
X119937500Y-105255000D01*
X119812500Y-105255000D01*
X119806374Y-105254699D01*
X119800307Y-105253799D01*
X119794357Y-105252309D01*
X119788582Y-105250242D01*
X119783038Y-105247620D01*
X119777777Y-105244467D01*
X119772850Y-105240813D01*
X119768306Y-105236694D01*
X119764187Y-105232150D01*
X119760533Y-105227223D01*
X119757380Y-105221962D01*
X119754758Y-105216418D01*
X119752691Y-105210643D01*
X119751201Y-105204693D01*
X119750301Y-105198626D01*
X119750000Y-105192500D01*
X119750000Y-104467500D01*
X119750301Y-104461374D01*
X119751201Y-104455307D01*
X119752691Y-104449357D01*
X119754758Y-104443582D01*
X119757380Y-104438038D01*
X119760533Y-104432777D01*
X119764187Y-104427850D01*
X119768306Y-104423306D01*
X119772850Y-104419187D01*
X119777777Y-104415533D01*
X119783038Y-104412380D01*
X119788582Y-104409758D01*
X119794357Y-104407691D01*
X119800307Y-104406201D01*
X119806374Y-104405301D01*
X119812500Y-104405000D01*
X119937500Y-104405000D01*
X119943626Y-104405301D01*
X119943626Y-104405301D01*
G37*
D11*
X119875000Y-104830000D03*
D10*
G36*
X115592495Y-109588213D02*
G01*
X115616764Y-109591813D01*
X115640562Y-109597774D01*
X115663662Y-109606039D01*
X115685840Y-109616529D01*
X115706884Y-109629142D01*
X115726589Y-109643756D01*
X115744768Y-109660232D01*
X115761244Y-109678411D01*
X115775858Y-109698116D01*
X115788471Y-109719160D01*
X115798961Y-109741338D01*
X115807226Y-109764438D01*
X115813187Y-109788236D01*
X115816787Y-109812505D01*
X115817991Y-109837009D01*
X115817991Y-110435491D01*
X115816787Y-110459995D01*
X115813187Y-110484264D01*
X115807226Y-110508062D01*
X115798961Y-110531162D01*
X115788471Y-110553340D01*
X115775858Y-110574384D01*
X115761244Y-110594089D01*
X115744768Y-110612268D01*
X115726589Y-110628744D01*
X115706884Y-110643358D01*
X115685840Y-110655971D01*
X115663662Y-110666461D01*
X115640562Y-110674726D01*
X115616764Y-110680687D01*
X115592495Y-110684287D01*
X115567991Y-110685491D01*
X114969509Y-110685491D01*
X114945005Y-110684287D01*
X114920736Y-110680687D01*
X114896938Y-110674726D01*
X114873838Y-110666461D01*
X114851660Y-110655971D01*
X114830616Y-110643358D01*
X114810911Y-110628744D01*
X114792732Y-110612268D01*
X114776256Y-110594089D01*
X114761642Y-110574384D01*
X114749029Y-110553340D01*
X114738539Y-110531162D01*
X114730274Y-110508062D01*
X114724313Y-110484264D01*
X114720713Y-110459995D01*
X114719509Y-110435491D01*
X114719509Y-109837009D01*
X114720713Y-109812505D01*
X114724313Y-109788236D01*
X114730274Y-109764438D01*
X114738539Y-109741338D01*
X114749029Y-109719160D01*
X114761642Y-109698116D01*
X114776256Y-109678411D01*
X114792732Y-109660232D01*
X114810911Y-109643756D01*
X114830616Y-109629142D01*
X114851660Y-109616529D01*
X114873838Y-109606039D01*
X114896938Y-109597774D01*
X114920736Y-109591813D01*
X114945005Y-109588213D01*
X114969509Y-109587009D01*
X115567991Y-109587009D01*
X115592495Y-109588213D01*
X115592495Y-109588213D01*
G37*
D12*
X115268750Y-110136250D03*
D10*
G36*
X116829995Y-109588213D02*
G01*
X116854264Y-109591813D01*
X116878062Y-109597774D01*
X116901162Y-109606039D01*
X116923340Y-109616529D01*
X116944384Y-109629142D01*
X116964089Y-109643756D01*
X116982268Y-109660232D01*
X116998744Y-109678411D01*
X117013358Y-109698116D01*
X117025971Y-109719160D01*
X117036461Y-109741338D01*
X117044726Y-109764438D01*
X117050687Y-109788236D01*
X117054287Y-109812505D01*
X117055491Y-109837009D01*
X117055491Y-110435491D01*
X117054287Y-110459995D01*
X117050687Y-110484264D01*
X117044726Y-110508062D01*
X117036461Y-110531162D01*
X117025971Y-110553340D01*
X117013358Y-110574384D01*
X116998744Y-110594089D01*
X116982268Y-110612268D01*
X116964089Y-110628744D01*
X116944384Y-110643358D01*
X116923340Y-110655971D01*
X116901162Y-110666461D01*
X116878062Y-110674726D01*
X116854264Y-110680687D01*
X116829995Y-110684287D01*
X116805491Y-110685491D01*
X116207009Y-110685491D01*
X116182505Y-110684287D01*
X116158236Y-110680687D01*
X116134438Y-110674726D01*
X116111338Y-110666461D01*
X116089160Y-110655971D01*
X116068116Y-110643358D01*
X116048411Y-110628744D01*
X116030232Y-110612268D01*
X116013756Y-110594089D01*
X115999142Y-110574384D01*
X115986529Y-110553340D01*
X115976039Y-110531162D01*
X115967774Y-110508062D01*
X115961813Y-110484264D01*
X115958213Y-110459995D01*
X115957009Y-110435491D01*
X115957009Y-109837009D01*
X115958213Y-109812505D01*
X115961813Y-109788236D01*
X115967774Y-109764438D01*
X115976039Y-109741338D01*
X115986529Y-109719160D01*
X115999142Y-109698116D01*
X116013756Y-109678411D01*
X116030232Y-109660232D01*
X116048411Y-109643756D01*
X116068116Y-109629142D01*
X116089160Y-109616529D01*
X116111338Y-109606039D01*
X116134438Y-109597774D01*
X116158236Y-109591813D01*
X116182505Y-109588213D01*
X116207009Y-109587009D01*
X116805491Y-109587009D01*
X116829995Y-109588213D01*
X116829995Y-109588213D01*
G37*
D12*
X116506250Y-110136250D03*
D10*
G36*
X118067495Y-109588213D02*
G01*
X118091764Y-109591813D01*
X118115562Y-109597774D01*
X118138662Y-109606039D01*
X118160840Y-109616529D01*
X118181884Y-109629142D01*
X118201589Y-109643756D01*
X118219768Y-109660232D01*
X118236244Y-109678411D01*
X118250858Y-109698116D01*
X118263471Y-109719160D01*
X118273961Y-109741338D01*
X118282226Y-109764438D01*
X118288187Y-109788236D01*
X118291787Y-109812505D01*
X118292991Y-109837009D01*
X118292991Y-110435491D01*
X118291787Y-110459995D01*
X118288187Y-110484264D01*
X118282226Y-110508062D01*
X118273961Y-110531162D01*
X118263471Y-110553340D01*
X118250858Y-110574384D01*
X118236244Y-110594089D01*
X118219768Y-110612268D01*
X118201589Y-110628744D01*
X118181884Y-110643358D01*
X118160840Y-110655971D01*
X118138662Y-110666461D01*
X118115562Y-110674726D01*
X118091764Y-110680687D01*
X118067495Y-110684287D01*
X118042991Y-110685491D01*
X117444509Y-110685491D01*
X117420005Y-110684287D01*
X117395736Y-110680687D01*
X117371938Y-110674726D01*
X117348838Y-110666461D01*
X117326660Y-110655971D01*
X117305616Y-110643358D01*
X117285911Y-110628744D01*
X117267732Y-110612268D01*
X117251256Y-110594089D01*
X117236642Y-110574384D01*
X117224029Y-110553340D01*
X117213539Y-110531162D01*
X117205274Y-110508062D01*
X117199313Y-110484264D01*
X117195713Y-110459995D01*
X117194509Y-110435491D01*
X117194509Y-109837009D01*
X117195713Y-109812505D01*
X117199313Y-109788236D01*
X117205274Y-109764438D01*
X117213539Y-109741338D01*
X117224029Y-109719160D01*
X117236642Y-109698116D01*
X117251256Y-109678411D01*
X117267732Y-109660232D01*
X117285911Y-109643756D01*
X117305616Y-109629142D01*
X117326660Y-109616529D01*
X117348838Y-109606039D01*
X117371938Y-109597774D01*
X117395736Y-109591813D01*
X117420005Y-109588213D01*
X117444509Y-109587009D01*
X118042991Y-109587009D01*
X118067495Y-109588213D01*
X118067495Y-109588213D01*
G37*
D12*
X117743750Y-110136250D03*
D10*
G36*
X119304995Y-109588213D02*
G01*
X119329264Y-109591813D01*
X119353062Y-109597774D01*
X119376162Y-109606039D01*
X119398340Y-109616529D01*
X119419384Y-109629142D01*
X119439089Y-109643756D01*
X119457268Y-109660232D01*
X119473744Y-109678411D01*
X119488358Y-109698116D01*
X119500971Y-109719160D01*
X119511461Y-109741338D01*
X119519726Y-109764438D01*
X119525687Y-109788236D01*
X119529287Y-109812505D01*
X119530491Y-109837009D01*
X119530491Y-110435491D01*
X119529287Y-110459995D01*
X119525687Y-110484264D01*
X119519726Y-110508062D01*
X119511461Y-110531162D01*
X119500971Y-110553340D01*
X119488358Y-110574384D01*
X119473744Y-110594089D01*
X119457268Y-110612268D01*
X119439089Y-110628744D01*
X119419384Y-110643358D01*
X119398340Y-110655971D01*
X119376162Y-110666461D01*
X119353062Y-110674726D01*
X119329264Y-110680687D01*
X119304995Y-110684287D01*
X119280491Y-110685491D01*
X118682009Y-110685491D01*
X118657505Y-110684287D01*
X118633236Y-110680687D01*
X118609438Y-110674726D01*
X118586338Y-110666461D01*
X118564160Y-110655971D01*
X118543116Y-110643358D01*
X118523411Y-110628744D01*
X118505232Y-110612268D01*
X118488756Y-110594089D01*
X118474142Y-110574384D01*
X118461529Y-110553340D01*
X118451039Y-110531162D01*
X118442774Y-110508062D01*
X118436813Y-110484264D01*
X118433213Y-110459995D01*
X118432009Y-110435491D01*
X118432009Y-109837009D01*
X118433213Y-109812505D01*
X118436813Y-109788236D01*
X118442774Y-109764438D01*
X118451039Y-109741338D01*
X118461529Y-109719160D01*
X118474142Y-109698116D01*
X118488756Y-109678411D01*
X118505232Y-109660232D01*
X118523411Y-109643756D01*
X118543116Y-109629142D01*
X118564160Y-109616529D01*
X118586338Y-109606039D01*
X118609438Y-109597774D01*
X118633236Y-109591813D01*
X118657505Y-109588213D01*
X118682009Y-109587009D01*
X119280491Y-109587009D01*
X119304995Y-109588213D01*
X119304995Y-109588213D01*
G37*
D12*
X118981250Y-110136250D03*
D10*
G36*
X115592495Y-108350713D02*
G01*
X115616764Y-108354313D01*
X115640562Y-108360274D01*
X115663662Y-108368539D01*
X115685840Y-108379029D01*
X115706884Y-108391642D01*
X115726589Y-108406256D01*
X115744768Y-108422732D01*
X115761244Y-108440911D01*
X115775858Y-108460616D01*
X115788471Y-108481660D01*
X115798961Y-108503838D01*
X115807226Y-108526938D01*
X115813187Y-108550736D01*
X115816787Y-108575005D01*
X115817991Y-108599509D01*
X115817991Y-109197991D01*
X115816787Y-109222495D01*
X115813187Y-109246764D01*
X115807226Y-109270562D01*
X115798961Y-109293662D01*
X115788471Y-109315840D01*
X115775858Y-109336884D01*
X115761244Y-109356589D01*
X115744768Y-109374768D01*
X115726589Y-109391244D01*
X115706884Y-109405858D01*
X115685840Y-109418471D01*
X115663662Y-109428961D01*
X115640562Y-109437226D01*
X115616764Y-109443187D01*
X115592495Y-109446787D01*
X115567991Y-109447991D01*
X114969509Y-109447991D01*
X114945005Y-109446787D01*
X114920736Y-109443187D01*
X114896938Y-109437226D01*
X114873838Y-109428961D01*
X114851660Y-109418471D01*
X114830616Y-109405858D01*
X114810911Y-109391244D01*
X114792732Y-109374768D01*
X114776256Y-109356589D01*
X114761642Y-109336884D01*
X114749029Y-109315840D01*
X114738539Y-109293662D01*
X114730274Y-109270562D01*
X114724313Y-109246764D01*
X114720713Y-109222495D01*
X114719509Y-109197991D01*
X114719509Y-108599509D01*
X114720713Y-108575005D01*
X114724313Y-108550736D01*
X114730274Y-108526938D01*
X114738539Y-108503838D01*
X114749029Y-108481660D01*
X114761642Y-108460616D01*
X114776256Y-108440911D01*
X114792732Y-108422732D01*
X114810911Y-108406256D01*
X114830616Y-108391642D01*
X114851660Y-108379029D01*
X114873838Y-108368539D01*
X114896938Y-108360274D01*
X114920736Y-108354313D01*
X114945005Y-108350713D01*
X114969509Y-108349509D01*
X115567991Y-108349509D01*
X115592495Y-108350713D01*
X115592495Y-108350713D01*
G37*
D12*
X115268750Y-108898750D03*
D10*
G36*
X116829995Y-108350713D02*
G01*
X116854264Y-108354313D01*
X116878062Y-108360274D01*
X116901162Y-108368539D01*
X116923340Y-108379029D01*
X116944384Y-108391642D01*
X116964089Y-108406256D01*
X116982268Y-108422732D01*
X116998744Y-108440911D01*
X117013358Y-108460616D01*
X117025971Y-108481660D01*
X117036461Y-108503838D01*
X117044726Y-108526938D01*
X117050687Y-108550736D01*
X117054287Y-108575005D01*
X117055491Y-108599509D01*
X117055491Y-109197991D01*
X117054287Y-109222495D01*
X117050687Y-109246764D01*
X117044726Y-109270562D01*
X117036461Y-109293662D01*
X117025971Y-109315840D01*
X117013358Y-109336884D01*
X116998744Y-109356589D01*
X116982268Y-109374768D01*
X116964089Y-109391244D01*
X116944384Y-109405858D01*
X116923340Y-109418471D01*
X116901162Y-109428961D01*
X116878062Y-109437226D01*
X116854264Y-109443187D01*
X116829995Y-109446787D01*
X116805491Y-109447991D01*
X116207009Y-109447991D01*
X116182505Y-109446787D01*
X116158236Y-109443187D01*
X116134438Y-109437226D01*
X116111338Y-109428961D01*
X116089160Y-109418471D01*
X116068116Y-109405858D01*
X116048411Y-109391244D01*
X116030232Y-109374768D01*
X116013756Y-109356589D01*
X115999142Y-109336884D01*
X115986529Y-109315840D01*
X115976039Y-109293662D01*
X115967774Y-109270562D01*
X115961813Y-109246764D01*
X115958213Y-109222495D01*
X115957009Y-109197991D01*
X115957009Y-108599509D01*
X115958213Y-108575005D01*
X115961813Y-108550736D01*
X115967774Y-108526938D01*
X115976039Y-108503838D01*
X115986529Y-108481660D01*
X115999142Y-108460616D01*
X116013756Y-108440911D01*
X116030232Y-108422732D01*
X116048411Y-108406256D01*
X116068116Y-108391642D01*
X116089160Y-108379029D01*
X116111338Y-108368539D01*
X116134438Y-108360274D01*
X116158236Y-108354313D01*
X116182505Y-108350713D01*
X116207009Y-108349509D01*
X116805491Y-108349509D01*
X116829995Y-108350713D01*
X116829995Y-108350713D01*
G37*
D12*
X116506250Y-108898750D03*
D10*
G36*
X118067495Y-108350713D02*
G01*
X118091764Y-108354313D01*
X118115562Y-108360274D01*
X118138662Y-108368539D01*
X118160840Y-108379029D01*
X118181884Y-108391642D01*
X118201589Y-108406256D01*
X118219768Y-108422732D01*
X118236244Y-108440911D01*
X118250858Y-108460616D01*
X118263471Y-108481660D01*
X118273961Y-108503838D01*
X118282226Y-108526938D01*
X118288187Y-108550736D01*
X118291787Y-108575005D01*
X118292991Y-108599509D01*
X118292991Y-109197991D01*
X118291787Y-109222495D01*
X118288187Y-109246764D01*
X118282226Y-109270562D01*
X118273961Y-109293662D01*
X118263471Y-109315840D01*
X118250858Y-109336884D01*
X118236244Y-109356589D01*
X118219768Y-109374768D01*
X118201589Y-109391244D01*
X118181884Y-109405858D01*
X118160840Y-109418471D01*
X118138662Y-109428961D01*
X118115562Y-109437226D01*
X118091764Y-109443187D01*
X118067495Y-109446787D01*
X118042991Y-109447991D01*
X117444509Y-109447991D01*
X117420005Y-109446787D01*
X117395736Y-109443187D01*
X117371938Y-109437226D01*
X117348838Y-109428961D01*
X117326660Y-109418471D01*
X117305616Y-109405858D01*
X117285911Y-109391244D01*
X117267732Y-109374768D01*
X117251256Y-109356589D01*
X117236642Y-109336884D01*
X117224029Y-109315840D01*
X117213539Y-109293662D01*
X117205274Y-109270562D01*
X117199313Y-109246764D01*
X117195713Y-109222495D01*
X117194509Y-109197991D01*
X117194509Y-108599509D01*
X117195713Y-108575005D01*
X117199313Y-108550736D01*
X117205274Y-108526938D01*
X117213539Y-108503838D01*
X117224029Y-108481660D01*
X117236642Y-108460616D01*
X117251256Y-108440911D01*
X117267732Y-108422732D01*
X117285911Y-108406256D01*
X117305616Y-108391642D01*
X117326660Y-108379029D01*
X117348838Y-108368539D01*
X117371938Y-108360274D01*
X117395736Y-108354313D01*
X117420005Y-108350713D01*
X117444509Y-108349509D01*
X118042991Y-108349509D01*
X118067495Y-108350713D01*
X118067495Y-108350713D01*
G37*
D12*
X117743750Y-108898750D03*
D10*
G36*
X119304995Y-108350713D02*
G01*
X119329264Y-108354313D01*
X119353062Y-108360274D01*
X119376162Y-108368539D01*
X119398340Y-108379029D01*
X119419384Y-108391642D01*
X119439089Y-108406256D01*
X119457268Y-108422732D01*
X119473744Y-108440911D01*
X119488358Y-108460616D01*
X119500971Y-108481660D01*
X119511461Y-108503838D01*
X119519726Y-108526938D01*
X119525687Y-108550736D01*
X119529287Y-108575005D01*
X119530491Y-108599509D01*
X119530491Y-109197991D01*
X119529287Y-109222495D01*
X119525687Y-109246764D01*
X119519726Y-109270562D01*
X119511461Y-109293662D01*
X119500971Y-109315840D01*
X119488358Y-109336884D01*
X119473744Y-109356589D01*
X119457268Y-109374768D01*
X119439089Y-109391244D01*
X119419384Y-109405858D01*
X119398340Y-109418471D01*
X119376162Y-109428961D01*
X119353062Y-109437226D01*
X119329264Y-109443187D01*
X119304995Y-109446787D01*
X119280491Y-109447991D01*
X118682009Y-109447991D01*
X118657505Y-109446787D01*
X118633236Y-109443187D01*
X118609438Y-109437226D01*
X118586338Y-109428961D01*
X118564160Y-109418471D01*
X118543116Y-109405858D01*
X118523411Y-109391244D01*
X118505232Y-109374768D01*
X118488756Y-109356589D01*
X118474142Y-109336884D01*
X118461529Y-109315840D01*
X118451039Y-109293662D01*
X118442774Y-109270562D01*
X118436813Y-109246764D01*
X118433213Y-109222495D01*
X118432009Y-109197991D01*
X118432009Y-108599509D01*
X118433213Y-108575005D01*
X118436813Y-108550736D01*
X118442774Y-108526938D01*
X118451039Y-108503838D01*
X118461529Y-108481660D01*
X118474142Y-108460616D01*
X118488756Y-108440911D01*
X118505232Y-108422732D01*
X118523411Y-108406256D01*
X118543116Y-108391642D01*
X118564160Y-108379029D01*
X118586338Y-108368539D01*
X118609438Y-108360274D01*
X118633236Y-108354313D01*
X118657505Y-108350713D01*
X118682009Y-108349509D01*
X119280491Y-108349509D01*
X119304995Y-108350713D01*
X119304995Y-108350713D01*
G37*
D12*
X118981250Y-108898750D03*
D10*
G36*
X115592495Y-107113213D02*
G01*
X115616764Y-107116813D01*
X115640562Y-107122774D01*
X115663662Y-107131039D01*
X115685840Y-107141529D01*
X115706884Y-107154142D01*
X115726589Y-107168756D01*
X115744768Y-107185232D01*
X115761244Y-107203411D01*
X115775858Y-107223116D01*
X115788471Y-107244160D01*
X115798961Y-107266338D01*
X115807226Y-107289438D01*
X115813187Y-107313236D01*
X115816787Y-107337505D01*
X115817991Y-107362009D01*
X115817991Y-107960491D01*
X115816787Y-107984995D01*
X115813187Y-108009264D01*
X115807226Y-108033062D01*
X115798961Y-108056162D01*
X115788471Y-108078340D01*
X115775858Y-108099384D01*
X115761244Y-108119089D01*
X115744768Y-108137268D01*
X115726589Y-108153744D01*
X115706884Y-108168358D01*
X115685840Y-108180971D01*
X115663662Y-108191461D01*
X115640562Y-108199726D01*
X115616764Y-108205687D01*
X115592495Y-108209287D01*
X115567991Y-108210491D01*
X114969509Y-108210491D01*
X114945005Y-108209287D01*
X114920736Y-108205687D01*
X114896938Y-108199726D01*
X114873838Y-108191461D01*
X114851660Y-108180971D01*
X114830616Y-108168358D01*
X114810911Y-108153744D01*
X114792732Y-108137268D01*
X114776256Y-108119089D01*
X114761642Y-108099384D01*
X114749029Y-108078340D01*
X114738539Y-108056162D01*
X114730274Y-108033062D01*
X114724313Y-108009264D01*
X114720713Y-107984995D01*
X114719509Y-107960491D01*
X114719509Y-107362009D01*
X114720713Y-107337505D01*
X114724313Y-107313236D01*
X114730274Y-107289438D01*
X114738539Y-107266338D01*
X114749029Y-107244160D01*
X114761642Y-107223116D01*
X114776256Y-107203411D01*
X114792732Y-107185232D01*
X114810911Y-107168756D01*
X114830616Y-107154142D01*
X114851660Y-107141529D01*
X114873838Y-107131039D01*
X114896938Y-107122774D01*
X114920736Y-107116813D01*
X114945005Y-107113213D01*
X114969509Y-107112009D01*
X115567991Y-107112009D01*
X115592495Y-107113213D01*
X115592495Y-107113213D01*
G37*
D12*
X115268750Y-107661250D03*
D10*
G36*
X116829995Y-107113213D02*
G01*
X116854264Y-107116813D01*
X116878062Y-107122774D01*
X116901162Y-107131039D01*
X116923340Y-107141529D01*
X116944384Y-107154142D01*
X116964089Y-107168756D01*
X116982268Y-107185232D01*
X116998744Y-107203411D01*
X117013358Y-107223116D01*
X117025971Y-107244160D01*
X117036461Y-107266338D01*
X117044726Y-107289438D01*
X117050687Y-107313236D01*
X117054287Y-107337505D01*
X117055491Y-107362009D01*
X117055491Y-107960491D01*
X117054287Y-107984995D01*
X117050687Y-108009264D01*
X117044726Y-108033062D01*
X117036461Y-108056162D01*
X117025971Y-108078340D01*
X117013358Y-108099384D01*
X116998744Y-108119089D01*
X116982268Y-108137268D01*
X116964089Y-108153744D01*
X116944384Y-108168358D01*
X116923340Y-108180971D01*
X116901162Y-108191461D01*
X116878062Y-108199726D01*
X116854264Y-108205687D01*
X116829995Y-108209287D01*
X116805491Y-108210491D01*
X116207009Y-108210491D01*
X116182505Y-108209287D01*
X116158236Y-108205687D01*
X116134438Y-108199726D01*
X116111338Y-108191461D01*
X116089160Y-108180971D01*
X116068116Y-108168358D01*
X116048411Y-108153744D01*
X116030232Y-108137268D01*
X116013756Y-108119089D01*
X115999142Y-108099384D01*
X115986529Y-108078340D01*
X115976039Y-108056162D01*
X115967774Y-108033062D01*
X115961813Y-108009264D01*
X115958213Y-107984995D01*
X115957009Y-107960491D01*
X115957009Y-107362009D01*
X115958213Y-107337505D01*
X115961813Y-107313236D01*
X115967774Y-107289438D01*
X115976039Y-107266338D01*
X115986529Y-107244160D01*
X115999142Y-107223116D01*
X116013756Y-107203411D01*
X116030232Y-107185232D01*
X116048411Y-107168756D01*
X116068116Y-107154142D01*
X116089160Y-107141529D01*
X116111338Y-107131039D01*
X116134438Y-107122774D01*
X116158236Y-107116813D01*
X116182505Y-107113213D01*
X116207009Y-107112009D01*
X116805491Y-107112009D01*
X116829995Y-107113213D01*
X116829995Y-107113213D01*
G37*
D12*
X116506250Y-107661250D03*
D10*
G36*
X118067495Y-107113213D02*
G01*
X118091764Y-107116813D01*
X118115562Y-107122774D01*
X118138662Y-107131039D01*
X118160840Y-107141529D01*
X118181884Y-107154142D01*
X118201589Y-107168756D01*
X118219768Y-107185232D01*
X118236244Y-107203411D01*
X118250858Y-107223116D01*
X118263471Y-107244160D01*
X118273961Y-107266338D01*
X118282226Y-107289438D01*
X118288187Y-107313236D01*
X118291787Y-107337505D01*
X118292991Y-107362009D01*
X118292991Y-107960491D01*
X118291787Y-107984995D01*
X118288187Y-108009264D01*
X118282226Y-108033062D01*
X118273961Y-108056162D01*
X118263471Y-108078340D01*
X118250858Y-108099384D01*
X118236244Y-108119089D01*
X118219768Y-108137268D01*
X118201589Y-108153744D01*
X118181884Y-108168358D01*
X118160840Y-108180971D01*
X118138662Y-108191461D01*
X118115562Y-108199726D01*
X118091764Y-108205687D01*
X118067495Y-108209287D01*
X118042991Y-108210491D01*
X117444509Y-108210491D01*
X117420005Y-108209287D01*
X117395736Y-108205687D01*
X117371938Y-108199726D01*
X117348838Y-108191461D01*
X117326660Y-108180971D01*
X117305616Y-108168358D01*
X117285911Y-108153744D01*
X117267732Y-108137268D01*
X117251256Y-108119089D01*
X117236642Y-108099384D01*
X117224029Y-108078340D01*
X117213539Y-108056162D01*
X117205274Y-108033062D01*
X117199313Y-108009264D01*
X117195713Y-107984995D01*
X117194509Y-107960491D01*
X117194509Y-107362009D01*
X117195713Y-107337505D01*
X117199313Y-107313236D01*
X117205274Y-107289438D01*
X117213539Y-107266338D01*
X117224029Y-107244160D01*
X117236642Y-107223116D01*
X117251256Y-107203411D01*
X117267732Y-107185232D01*
X117285911Y-107168756D01*
X117305616Y-107154142D01*
X117326660Y-107141529D01*
X117348838Y-107131039D01*
X117371938Y-107122774D01*
X117395736Y-107116813D01*
X117420005Y-107113213D01*
X117444509Y-107112009D01*
X118042991Y-107112009D01*
X118067495Y-107113213D01*
X118067495Y-107113213D01*
G37*
D12*
X117743750Y-107661250D03*
D10*
G36*
X119304995Y-107113213D02*
G01*
X119329264Y-107116813D01*
X119353062Y-107122774D01*
X119376162Y-107131039D01*
X119398340Y-107141529D01*
X119419384Y-107154142D01*
X119439089Y-107168756D01*
X119457268Y-107185232D01*
X119473744Y-107203411D01*
X119488358Y-107223116D01*
X119500971Y-107244160D01*
X119511461Y-107266338D01*
X119519726Y-107289438D01*
X119525687Y-107313236D01*
X119529287Y-107337505D01*
X119530491Y-107362009D01*
X119530491Y-107960491D01*
X119529287Y-107984995D01*
X119525687Y-108009264D01*
X119519726Y-108033062D01*
X119511461Y-108056162D01*
X119500971Y-108078340D01*
X119488358Y-108099384D01*
X119473744Y-108119089D01*
X119457268Y-108137268D01*
X119439089Y-108153744D01*
X119419384Y-108168358D01*
X119398340Y-108180971D01*
X119376162Y-108191461D01*
X119353062Y-108199726D01*
X119329264Y-108205687D01*
X119304995Y-108209287D01*
X119280491Y-108210491D01*
X118682009Y-108210491D01*
X118657505Y-108209287D01*
X118633236Y-108205687D01*
X118609438Y-108199726D01*
X118586338Y-108191461D01*
X118564160Y-108180971D01*
X118543116Y-108168358D01*
X118523411Y-108153744D01*
X118505232Y-108137268D01*
X118488756Y-108119089D01*
X118474142Y-108099384D01*
X118461529Y-108078340D01*
X118451039Y-108056162D01*
X118442774Y-108033062D01*
X118436813Y-108009264D01*
X118433213Y-107984995D01*
X118432009Y-107960491D01*
X118432009Y-107362009D01*
X118433213Y-107337505D01*
X118436813Y-107313236D01*
X118442774Y-107289438D01*
X118451039Y-107266338D01*
X118461529Y-107244160D01*
X118474142Y-107223116D01*
X118488756Y-107203411D01*
X118505232Y-107185232D01*
X118523411Y-107168756D01*
X118543116Y-107154142D01*
X118564160Y-107141529D01*
X118586338Y-107131039D01*
X118609438Y-107122774D01*
X118633236Y-107116813D01*
X118657505Y-107113213D01*
X118682009Y-107112009D01*
X119280491Y-107112009D01*
X119304995Y-107113213D01*
X119304995Y-107113213D01*
G37*
D12*
X118981250Y-107661250D03*
D10*
G36*
X115592495Y-105875713D02*
G01*
X115616764Y-105879313D01*
X115640562Y-105885274D01*
X115663662Y-105893539D01*
X115685840Y-105904029D01*
X115706884Y-105916642D01*
X115726589Y-105931256D01*
X115744768Y-105947732D01*
X115761244Y-105965911D01*
X115775858Y-105985616D01*
X115788471Y-106006660D01*
X115798961Y-106028838D01*
X115807226Y-106051938D01*
X115813187Y-106075736D01*
X115816787Y-106100005D01*
X115817991Y-106124509D01*
X115817991Y-106722991D01*
X115816787Y-106747495D01*
X115813187Y-106771764D01*
X115807226Y-106795562D01*
X115798961Y-106818662D01*
X115788471Y-106840840D01*
X115775858Y-106861884D01*
X115761244Y-106881589D01*
X115744768Y-106899768D01*
X115726589Y-106916244D01*
X115706884Y-106930858D01*
X115685840Y-106943471D01*
X115663662Y-106953961D01*
X115640562Y-106962226D01*
X115616764Y-106968187D01*
X115592495Y-106971787D01*
X115567991Y-106972991D01*
X114969509Y-106972991D01*
X114945005Y-106971787D01*
X114920736Y-106968187D01*
X114896938Y-106962226D01*
X114873838Y-106953961D01*
X114851660Y-106943471D01*
X114830616Y-106930858D01*
X114810911Y-106916244D01*
X114792732Y-106899768D01*
X114776256Y-106881589D01*
X114761642Y-106861884D01*
X114749029Y-106840840D01*
X114738539Y-106818662D01*
X114730274Y-106795562D01*
X114724313Y-106771764D01*
X114720713Y-106747495D01*
X114719509Y-106722991D01*
X114719509Y-106124509D01*
X114720713Y-106100005D01*
X114724313Y-106075736D01*
X114730274Y-106051938D01*
X114738539Y-106028838D01*
X114749029Y-106006660D01*
X114761642Y-105985616D01*
X114776256Y-105965911D01*
X114792732Y-105947732D01*
X114810911Y-105931256D01*
X114830616Y-105916642D01*
X114851660Y-105904029D01*
X114873838Y-105893539D01*
X114896938Y-105885274D01*
X114920736Y-105879313D01*
X114945005Y-105875713D01*
X114969509Y-105874509D01*
X115567991Y-105874509D01*
X115592495Y-105875713D01*
X115592495Y-105875713D01*
G37*
D12*
X115268750Y-106423750D03*
D10*
G36*
X116829995Y-105875713D02*
G01*
X116854264Y-105879313D01*
X116878062Y-105885274D01*
X116901162Y-105893539D01*
X116923340Y-105904029D01*
X116944384Y-105916642D01*
X116964089Y-105931256D01*
X116982268Y-105947732D01*
X116998744Y-105965911D01*
X117013358Y-105985616D01*
X117025971Y-106006660D01*
X117036461Y-106028838D01*
X117044726Y-106051938D01*
X117050687Y-106075736D01*
X117054287Y-106100005D01*
X117055491Y-106124509D01*
X117055491Y-106722991D01*
X117054287Y-106747495D01*
X117050687Y-106771764D01*
X117044726Y-106795562D01*
X117036461Y-106818662D01*
X117025971Y-106840840D01*
X117013358Y-106861884D01*
X116998744Y-106881589D01*
X116982268Y-106899768D01*
X116964089Y-106916244D01*
X116944384Y-106930858D01*
X116923340Y-106943471D01*
X116901162Y-106953961D01*
X116878062Y-106962226D01*
X116854264Y-106968187D01*
X116829995Y-106971787D01*
X116805491Y-106972991D01*
X116207009Y-106972991D01*
X116182505Y-106971787D01*
X116158236Y-106968187D01*
X116134438Y-106962226D01*
X116111338Y-106953961D01*
X116089160Y-106943471D01*
X116068116Y-106930858D01*
X116048411Y-106916244D01*
X116030232Y-106899768D01*
X116013756Y-106881589D01*
X115999142Y-106861884D01*
X115986529Y-106840840D01*
X115976039Y-106818662D01*
X115967774Y-106795562D01*
X115961813Y-106771764D01*
X115958213Y-106747495D01*
X115957009Y-106722991D01*
X115957009Y-106124509D01*
X115958213Y-106100005D01*
X115961813Y-106075736D01*
X115967774Y-106051938D01*
X115976039Y-106028838D01*
X115986529Y-106006660D01*
X115999142Y-105985616D01*
X116013756Y-105965911D01*
X116030232Y-105947732D01*
X116048411Y-105931256D01*
X116068116Y-105916642D01*
X116089160Y-105904029D01*
X116111338Y-105893539D01*
X116134438Y-105885274D01*
X116158236Y-105879313D01*
X116182505Y-105875713D01*
X116207009Y-105874509D01*
X116805491Y-105874509D01*
X116829995Y-105875713D01*
X116829995Y-105875713D01*
G37*
D12*
X116506250Y-106423750D03*
D10*
G36*
X118067495Y-105875713D02*
G01*
X118091764Y-105879313D01*
X118115562Y-105885274D01*
X118138662Y-105893539D01*
X118160840Y-105904029D01*
X118181884Y-105916642D01*
X118201589Y-105931256D01*
X118219768Y-105947732D01*
X118236244Y-105965911D01*
X118250858Y-105985616D01*
X118263471Y-106006660D01*
X118273961Y-106028838D01*
X118282226Y-106051938D01*
X118288187Y-106075736D01*
X118291787Y-106100005D01*
X118292991Y-106124509D01*
X118292991Y-106722991D01*
X118291787Y-106747495D01*
X118288187Y-106771764D01*
X118282226Y-106795562D01*
X118273961Y-106818662D01*
X118263471Y-106840840D01*
X118250858Y-106861884D01*
X118236244Y-106881589D01*
X118219768Y-106899768D01*
X118201589Y-106916244D01*
X118181884Y-106930858D01*
X118160840Y-106943471D01*
X118138662Y-106953961D01*
X118115562Y-106962226D01*
X118091764Y-106968187D01*
X118067495Y-106971787D01*
X118042991Y-106972991D01*
X117444509Y-106972991D01*
X117420005Y-106971787D01*
X117395736Y-106968187D01*
X117371938Y-106962226D01*
X117348838Y-106953961D01*
X117326660Y-106943471D01*
X117305616Y-106930858D01*
X117285911Y-106916244D01*
X117267732Y-106899768D01*
X117251256Y-106881589D01*
X117236642Y-106861884D01*
X117224029Y-106840840D01*
X117213539Y-106818662D01*
X117205274Y-106795562D01*
X117199313Y-106771764D01*
X117195713Y-106747495D01*
X117194509Y-106722991D01*
X117194509Y-106124509D01*
X117195713Y-106100005D01*
X117199313Y-106075736D01*
X117205274Y-106051938D01*
X117213539Y-106028838D01*
X117224029Y-106006660D01*
X117236642Y-105985616D01*
X117251256Y-105965911D01*
X117267732Y-105947732D01*
X117285911Y-105931256D01*
X117305616Y-105916642D01*
X117326660Y-105904029D01*
X117348838Y-105893539D01*
X117371938Y-105885274D01*
X117395736Y-105879313D01*
X117420005Y-105875713D01*
X117444509Y-105874509D01*
X118042991Y-105874509D01*
X118067495Y-105875713D01*
X118067495Y-105875713D01*
G37*
D12*
X117743750Y-106423750D03*
D10*
G36*
X119304995Y-105875713D02*
G01*
X119329264Y-105879313D01*
X119353062Y-105885274D01*
X119376162Y-105893539D01*
X119398340Y-105904029D01*
X119419384Y-105916642D01*
X119439089Y-105931256D01*
X119457268Y-105947732D01*
X119473744Y-105965911D01*
X119488358Y-105985616D01*
X119500971Y-106006660D01*
X119511461Y-106028838D01*
X119519726Y-106051938D01*
X119525687Y-106075736D01*
X119529287Y-106100005D01*
X119530491Y-106124509D01*
X119530491Y-106722991D01*
X119529287Y-106747495D01*
X119525687Y-106771764D01*
X119519726Y-106795562D01*
X119511461Y-106818662D01*
X119500971Y-106840840D01*
X119488358Y-106861884D01*
X119473744Y-106881589D01*
X119457268Y-106899768D01*
X119439089Y-106916244D01*
X119419384Y-106930858D01*
X119398340Y-106943471D01*
X119376162Y-106953961D01*
X119353062Y-106962226D01*
X119329264Y-106968187D01*
X119304995Y-106971787D01*
X119280491Y-106972991D01*
X118682009Y-106972991D01*
X118657505Y-106971787D01*
X118633236Y-106968187D01*
X118609438Y-106962226D01*
X118586338Y-106953961D01*
X118564160Y-106943471D01*
X118543116Y-106930858D01*
X118523411Y-106916244D01*
X118505232Y-106899768D01*
X118488756Y-106881589D01*
X118474142Y-106861884D01*
X118461529Y-106840840D01*
X118451039Y-106818662D01*
X118442774Y-106795562D01*
X118436813Y-106771764D01*
X118433213Y-106747495D01*
X118432009Y-106722991D01*
X118432009Y-106124509D01*
X118433213Y-106100005D01*
X118436813Y-106075736D01*
X118442774Y-106051938D01*
X118451039Y-106028838D01*
X118461529Y-106006660D01*
X118474142Y-105985616D01*
X118488756Y-105965911D01*
X118505232Y-105947732D01*
X118523411Y-105931256D01*
X118543116Y-105916642D01*
X118564160Y-105904029D01*
X118586338Y-105893539D01*
X118609438Y-105885274D01*
X118633236Y-105879313D01*
X118657505Y-105875713D01*
X118682009Y-105874509D01*
X119280491Y-105874509D01*
X119304995Y-105875713D01*
X119304995Y-105875713D01*
G37*
D12*
X118981250Y-106423750D03*
D10*
G36*
X123330142Y-104413674D02*
G01*
X123353803Y-104417184D01*
X123377007Y-104422996D01*
X123399529Y-104431054D01*
X123421153Y-104441282D01*
X123441670Y-104453579D01*
X123460883Y-104467829D01*
X123478607Y-104483893D01*
X123494671Y-104501617D01*
X123508921Y-104520830D01*
X123521218Y-104541347D01*
X123531446Y-104562971D01*
X123539504Y-104585493D01*
X123545316Y-104608697D01*
X123548826Y-104632358D01*
X123550000Y-104656250D01*
X123550000Y-105143750D01*
X123548826Y-105167642D01*
X123545316Y-105191303D01*
X123539504Y-105214507D01*
X123531446Y-105237029D01*
X123521218Y-105258653D01*
X123508921Y-105279170D01*
X123494671Y-105298383D01*
X123478607Y-105316107D01*
X123460883Y-105332171D01*
X123441670Y-105346421D01*
X123421153Y-105358718D01*
X123399529Y-105368946D01*
X123377007Y-105377004D01*
X123353803Y-105382816D01*
X123330142Y-105386326D01*
X123306250Y-105387500D01*
X122393750Y-105387500D01*
X122369858Y-105386326D01*
X122346197Y-105382816D01*
X122322993Y-105377004D01*
X122300471Y-105368946D01*
X122278847Y-105358718D01*
X122258330Y-105346421D01*
X122239117Y-105332171D01*
X122221393Y-105316107D01*
X122205329Y-105298383D01*
X122191079Y-105279170D01*
X122178782Y-105258653D01*
X122168554Y-105237029D01*
X122160496Y-105214507D01*
X122154684Y-105191303D01*
X122151174Y-105167642D01*
X122150000Y-105143750D01*
X122150000Y-104656250D01*
X122151174Y-104632358D01*
X122154684Y-104608697D01*
X122160496Y-104585493D01*
X122168554Y-104562971D01*
X122178782Y-104541347D01*
X122191079Y-104520830D01*
X122205329Y-104501617D01*
X122221393Y-104483893D01*
X122239117Y-104467829D01*
X122258330Y-104453579D01*
X122278847Y-104441282D01*
X122300471Y-104431054D01*
X122322993Y-104422996D01*
X122346197Y-104417184D01*
X122369858Y-104413674D01*
X122393750Y-104412500D01*
X123306250Y-104412500D01*
X123330142Y-104413674D01*
X123330142Y-104413674D01*
G37*
D13*
X122850000Y-104900000D03*
D10*
G36*
X123330142Y-106288674D02*
G01*
X123353803Y-106292184D01*
X123377007Y-106297996D01*
X123399529Y-106306054D01*
X123421153Y-106316282D01*
X123441670Y-106328579D01*
X123460883Y-106342829D01*
X123478607Y-106358893D01*
X123494671Y-106376617D01*
X123508921Y-106395830D01*
X123521218Y-106416347D01*
X123531446Y-106437971D01*
X123539504Y-106460493D01*
X123545316Y-106483697D01*
X123548826Y-106507358D01*
X123550000Y-106531250D01*
X123550000Y-107018750D01*
X123548826Y-107042642D01*
X123545316Y-107066303D01*
X123539504Y-107089507D01*
X123531446Y-107112029D01*
X123521218Y-107133653D01*
X123508921Y-107154170D01*
X123494671Y-107173383D01*
X123478607Y-107191107D01*
X123460883Y-107207171D01*
X123441670Y-107221421D01*
X123421153Y-107233718D01*
X123399529Y-107243946D01*
X123377007Y-107252004D01*
X123353803Y-107257816D01*
X123330142Y-107261326D01*
X123306250Y-107262500D01*
X122393750Y-107262500D01*
X122369858Y-107261326D01*
X122346197Y-107257816D01*
X122322993Y-107252004D01*
X122300471Y-107243946D01*
X122278847Y-107233718D01*
X122258330Y-107221421D01*
X122239117Y-107207171D01*
X122221393Y-107191107D01*
X122205329Y-107173383D01*
X122191079Y-107154170D01*
X122178782Y-107133653D01*
X122168554Y-107112029D01*
X122160496Y-107089507D01*
X122154684Y-107066303D01*
X122151174Y-107042642D01*
X122150000Y-107018750D01*
X122150000Y-106531250D01*
X122151174Y-106507358D01*
X122154684Y-106483697D01*
X122160496Y-106460493D01*
X122168554Y-106437971D01*
X122178782Y-106416347D01*
X122191079Y-106395830D01*
X122205329Y-106376617D01*
X122221393Y-106358893D01*
X122239117Y-106342829D01*
X122258330Y-106328579D01*
X122278847Y-106316282D01*
X122300471Y-106306054D01*
X122322993Y-106297996D01*
X122346197Y-106292184D01*
X122369858Y-106288674D01*
X122393750Y-106287500D01*
X123306250Y-106287500D01*
X123330142Y-106288674D01*
X123330142Y-106288674D01*
G37*
D13*
X122850000Y-106775000D03*
D10*
G36*
X123330142Y-109296174D02*
G01*
X123353803Y-109299684D01*
X123377007Y-109305496D01*
X123399529Y-109313554D01*
X123421153Y-109323782D01*
X123441670Y-109336079D01*
X123460883Y-109350329D01*
X123478607Y-109366393D01*
X123494671Y-109384117D01*
X123508921Y-109403330D01*
X123521218Y-109423847D01*
X123531446Y-109445471D01*
X123539504Y-109467993D01*
X123545316Y-109491197D01*
X123548826Y-109514858D01*
X123550000Y-109538750D01*
X123550000Y-110026250D01*
X123548826Y-110050142D01*
X123545316Y-110073803D01*
X123539504Y-110097007D01*
X123531446Y-110119529D01*
X123521218Y-110141153D01*
X123508921Y-110161670D01*
X123494671Y-110180883D01*
X123478607Y-110198607D01*
X123460883Y-110214671D01*
X123441670Y-110228921D01*
X123421153Y-110241218D01*
X123399529Y-110251446D01*
X123377007Y-110259504D01*
X123353803Y-110265316D01*
X123330142Y-110268826D01*
X123306250Y-110270000D01*
X122393750Y-110270000D01*
X122369858Y-110268826D01*
X122346197Y-110265316D01*
X122322993Y-110259504D01*
X122300471Y-110251446D01*
X122278847Y-110241218D01*
X122258330Y-110228921D01*
X122239117Y-110214671D01*
X122221393Y-110198607D01*
X122205329Y-110180883D01*
X122191079Y-110161670D01*
X122178782Y-110141153D01*
X122168554Y-110119529D01*
X122160496Y-110097007D01*
X122154684Y-110073803D01*
X122151174Y-110050142D01*
X122150000Y-110026250D01*
X122150000Y-109538750D01*
X122151174Y-109514858D01*
X122154684Y-109491197D01*
X122160496Y-109467993D01*
X122168554Y-109445471D01*
X122178782Y-109423847D01*
X122191079Y-109403330D01*
X122205329Y-109384117D01*
X122221393Y-109366393D01*
X122239117Y-109350329D01*
X122258330Y-109336079D01*
X122278847Y-109323782D01*
X122300471Y-109313554D01*
X122322993Y-109305496D01*
X122346197Y-109299684D01*
X122369858Y-109296174D01*
X122393750Y-109295000D01*
X123306250Y-109295000D01*
X123330142Y-109296174D01*
X123330142Y-109296174D01*
G37*
D13*
X122850000Y-109782500D03*
D10*
G36*
X123330142Y-111171174D02*
G01*
X123353803Y-111174684D01*
X123377007Y-111180496D01*
X123399529Y-111188554D01*
X123421153Y-111198782D01*
X123441670Y-111211079D01*
X123460883Y-111225329D01*
X123478607Y-111241393D01*
X123494671Y-111259117D01*
X123508921Y-111278330D01*
X123521218Y-111298847D01*
X123531446Y-111320471D01*
X123539504Y-111342993D01*
X123545316Y-111366197D01*
X123548826Y-111389858D01*
X123550000Y-111413750D01*
X123550000Y-111901250D01*
X123548826Y-111925142D01*
X123545316Y-111948803D01*
X123539504Y-111972007D01*
X123531446Y-111994529D01*
X123521218Y-112016153D01*
X123508921Y-112036670D01*
X123494671Y-112055883D01*
X123478607Y-112073607D01*
X123460883Y-112089671D01*
X123441670Y-112103921D01*
X123421153Y-112116218D01*
X123399529Y-112126446D01*
X123377007Y-112134504D01*
X123353803Y-112140316D01*
X123330142Y-112143826D01*
X123306250Y-112145000D01*
X122393750Y-112145000D01*
X122369858Y-112143826D01*
X122346197Y-112140316D01*
X122322993Y-112134504D01*
X122300471Y-112126446D01*
X122278847Y-112116218D01*
X122258330Y-112103921D01*
X122239117Y-112089671D01*
X122221393Y-112073607D01*
X122205329Y-112055883D01*
X122191079Y-112036670D01*
X122178782Y-112016153D01*
X122168554Y-111994529D01*
X122160496Y-111972007D01*
X122154684Y-111948803D01*
X122151174Y-111925142D01*
X122150000Y-111901250D01*
X122150000Y-111413750D01*
X122151174Y-111389858D01*
X122154684Y-111366197D01*
X122160496Y-111342993D01*
X122168554Y-111320471D01*
X122178782Y-111298847D01*
X122191079Y-111278330D01*
X122205329Y-111259117D01*
X122221393Y-111241393D01*
X122239117Y-111225329D01*
X122258330Y-111211079D01*
X122278847Y-111198782D01*
X122300471Y-111188554D01*
X122322993Y-111180496D01*
X122346197Y-111174684D01*
X122369858Y-111171174D01*
X122393750Y-111170000D01*
X123306250Y-111170000D01*
X123330142Y-111171174D01*
X123330142Y-111171174D01*
G37*
D13*
X122850000Y-111657500D03*
D10*
G36*
X111455142Y-110526174D02*
G01*
X111478803Y-110529684D01*
X111502007Y-110535496D01*
X111524529Y-110543554D01*
X111546153Y-110553782D01*
X111566670Y-110566079D01*
X111585883Y-110580329D01*
X111603607Y-110596393D01*
X111619671Y-110614117D01*
X111633921Y-110633330D01*
X111646218Y-110653847D01*
X111656446Y-110675471D01*
X111664504Y-110697993D01*
X111670316Y-110721197D01*
X111673826Y-110744858D01*
X111675000Y-110768750D01*
X111675000Y-111681250D01*
X111673826Y-111705142D01*
X111670316Y-111728803D01*
X111664504Y-111752007D01*
X111656446Y-111774529D01*
X111646218Y-111796153D01*
X111633921Y-111816670D01*
X111619671Y-111835883D01*
X111603607Y-111853607D01*
X111585883Y-111869671D01*
X111566670Y-111883921D01*
X111546153Y-111896218D01*
X111524529Y-111906446D01*
X111502007Y-111914504D01*
X111478803Y-111920316D01*
X111455142Y-111923826D01*
X111431250Y-111925000D01*
X110943750Y-111925000D01*
X110919858Y-111923826D01*
X110896197Y-111920316D01*
X110872993Y-111914504D01*
X110850471Y-111906446D01*
X110828847Y-111896218D01*
X110808330Y-111883921D01*
X110789117Y-111869671D01*
X110771393Y-111853607D01*
X110755329Y-111835883D01*
X110741079Y-111816670D01*
X110728782Y-111796153D01*
X110718554Y-111774529D01*
X110710496Y-111752007D01*
X110704684Y-111728803D01*
X110701174Y-111705142D01*
X110700000Y-111681250D01*
X110700000Y-110768750D01*
X110701174Y-110744858D01*
X110704684Y-110721197D01*
X110710496Y-110697993D01*
X110718554Y-110675471D01*
X110728782Y-110653847D01*
X110741079Y-110633330D01*
X110755329Y-110614117D01*
X110771393Y-110596393D01*
X110789117Y-110580329D01*
X110808330Y-110566079D01*
X110828847Y-110553782D01*
X110850471Y-110543554D01*
X110872993Y-110535496D01*
X110896197Y-110529684D01*
X110919858Y-110526174D01*
X110943750Y-110525000D01*
X111431250Y-110525000D01*
X111455142Y-110526174D01*
X111455142Y-110526174D01*
G37*
D13*
X111187500Y-111225000D03*
D10*
G36*
X109580142Y-110526174D02*
G01*
X109603803Y-110529684D01*
X109627007Y-110535496D01*
X109649529Y-110543554D01*
X109671153Y-110553782D01*
X109691670Y-110566079D01*
X109710883Y-110580329D01*
X109728607Y-110596393D01*
X109744671Y-110614117D01*
X109758921Y-110633330D01*
X109771218Y-110653847D01*
X109781446Y-110675471D01*
X109789504Y-110697993D01*
X109795316Y-110721197D01*
X109798826Y-110744858D01*
X109800000Y-110768750D01*
X109800000Y-111681250D01*
X109798826Y-111705142D01*
X109795316Y-111728803D01*
X109789504Y-111752007D01*
X109781446Y-111774529D01*
X109771218Y-111796153D01*
X109758921Y-111816670D01*
X109744671Y-111835883D01*
X109728607Y-111853607D01*
X109710883Y-111869671D01*
X109691670Y-111883921D01*
X109671153Y-111896218D01*
X109649529Y-111906446D01*
X109627007Y-111914504D01*
X109603803Y-111920316D01*
X109580142Y-111923826D01*
X109556250Y-111925000D01*
X109068750Y-111925000D01*
X109044858Y-111923826D01*
X109021197Y-111920316D01*
X108997993Y-111914504D01*
X108975471Y-111906446D01*
X108953847Y-111896218D01*
X108933330Y-111883921D01*
X108914117Y-111869671D01*
X108896393Y-111853607D01*
X108880329Y-111835883D01*
X108866079Y-111816670D01*
X108853782Y-111796153D01*
X108843554Y-111774529D01*
X108835496Y-111752007D01*
X108829684Y-111728803D01*
X108826174Y-111705142D01*
X108825000Y-111681250D01*
X108825000Y-110768750D01*
X108826174Y-110744858D01*
X108829684Y-110721197D01*
X108835496Y-110697993D01*
X108843554Y-110675471D01*
X108853782Y-110653847D01*
X108866079Y-110633330D01*
X108880329Y-110614117D01*
X108896393Y-110596393D01*
X108914117Y-110580329D01*
X108933330Y-110566079D01*
X108953847Y-110553782D01*
X108975471Y-110543554D01*
X108997993Y-110535496D01*
X109021197Y-110529684D01*
X109044858Y-110526174D01*
X109068750Y-110525000D01*
X109556250Y-110525000D01*
X109580142Y-110526174D01*
X109580142Y-110526174D01*
G37*
D13*
X109312500Y-111225000D03*
D10*
G36*
X109580142Y-108551174D02*
G01*
X109603803Y-108554684D01*
X109627007Y-108560496D01*
X109649529Y-108568554D01*
X109671153Y-108578782D01*
X109691670Y-108591079D01*
X109710883Y-108605329D01*
X109728607Y-108621393D01*
X109744671Y-108639117D01*
X109758921Y-108658330D01*
X109771218Y-108678847D01*
X109781446Y-108700471D01*
X109789504Y-108722993D01*
X109795316Y-108746197D01*
X109798826Y-108769858D01*
X109800000Y-108793750D01*
X109800000Y-109706250D01*
X109798826Y-109730142D01*
X109795316Y-109753803D01*
X109789504Y-109777007D01*
X109781446Y-109799529D01*
X109771218Y-109821153D01*
X109758921Y-109841670D01*
X109744671Y-109860883D01*
X109728607Y-109878607D01*
X109710883Y-109894671D01*
X109691670Y-109908921D01*
X109671153Y-109921218D01*
X109649529Y-109931446D01*
X109627007Y-109939504D01*
X109603803Y-109945316D01*
X109580142Y-109948826D01*
X109556250Y-109950000D01*
X109068750Y-109950000D01*
X109044858Y-109948826D01*
X109021197Y-109945316D01*
X108997993Y-109939504D01*
X108975471Y-109931446D01*
X108953847Y-109921218D01*
X108933330Y-109908921D01*
X108914117Y-109894671D01*
X108896393Y-109878607D01*
X108880329Y-109860883D01*
X108866079Y-109841670D01*
X108853782Y-109821153D01*
X108843554Y-109799529D01*
X108835496Y-109777007D01*
X108829684Y-109753803D01*
X108826174Y-109730142D01*
X108825000Y-109706250D01*
X108825000Y-108793750D01*
X108826174Y-108769858D01*
X108829684Y-108746197D01*
X108835496Y-108722993D01*
X108843554Y-108700471D01*
X108853782Y-108678847D01*
X108866079Y-108658330D01*
X108880329Y-108639117D01*
X108896393Y-108621393D01*
X108914117Y-108605329D01*
X108933330Y-108591079D01*
X108953847Y-108578782D01*
X108975471Y-108568554D01*
X108997993Y-108560496D01*
X109021197Y-108554684D01*
X109044858Y-108551174D01*
X109068750Y-108550000D01*
X109556250Y-108550000D01*
X109580142Y-108551174D01*
X109580142Y-108551174D01*
G37*
D13*
X109312500Y-109250000D03*
D10*
G36*
X111455142Y-108551174D02*
G01*
X111478803Y-108554684D01*
X111502007Y-108560496D01*
X111524529Y-108568554D01*
X111546153Y-108578782D01*
X111566670Y-108591079D01*
X111585883Y-108605329D01*
X111603607Y-108621393D01*
X111619671Y-108639117D01*
X111633921Y-108658330D01*
X111646218Y-108678847D01*
X111656446Y-108700471D01*
X111664504Y-108722993D01*
X111670316Y-108746197D01*
X111673826Y-108769858D01*
X111675000Y-108793750D01*
X111675000Y-109706250D01*
X111673826Y-109730142D01*
X111670316Y-109753803D01*
X111664504Y-109777007D01*
X111656446Y-109799529D01*
X111646218Y-109821153D01*
X111633921Y-109841670D01*
X111619671Y-109860883D01*
X111603607Y-109878607D01*
X111585883Y-109894671D01*
X111566670Y-109908921D01*
X111546153Y-109921218D01*
X111524529Y-109931446D01*
X111502007Y-109939504D01*
X111478803Y-109945316D01*
X111455142Y-109948826D01*
X111431250Y-109950000D01*
X110943750Y-109950000D01*
X110919858Y-109948826D01*
X110896197Y-109945316D01*
X110872993Y-109939504D01*
X110850471Y-109931446D01*
X110828847Y-109921218D01*
X110808330Y-109908921D01*
X110789117Y-109894671D01*
X110771393Y-109878607D01*
X110755329Y-109860883D01*
X110741079Y-109841670D01*
X110728782Y-109821153D01*
X110718554Y-109799529D01*
X110710496Y-109777007D01*
X110704684Y-109753803D01*
X110701174Y-109730142D01*
X110700000Y-109706250D01*
X110700000Y-108793750D01*
X110701174Y-108769858D01*
X110704684Y-108746197D01*
X110710496Y-108722993D01*
X110718554Y-108700471D01*
X110728782Y-108678847D01*
X110741079Y-108658330D01*
X110755329Y-108639117D01*
X110771393Y-108621393D01*
X110789117Y-108605329D01*
X110808330Y-108591079D01*
X110828847Y-108578782D01*
X110850471Y-108568554D01*
X110872993Y-108560496D01*
X110896197Y-108554684D01*
X110919858Y-108551174D01*
X110943750Y-108550000D01*
X111431250Y-108550000D01*
X111455142Y-108551174D01*
X111455142Y-108551174D01*
G37*
D13*
X111187500Y-109250000D03*
D10*
G36*
X109580142Y-104501174D02*
G01*
X109603803Y-104504684D01*
X109627007Y-104510496D01*
X109649529Y-104518554D01*
X109671153Y-104528782D01*
X109691670Y-104541079D01*
X109710883Y-104555329D01*
X109728607Y-104571393D01*
X109744671Y-104589117D01*
X109758921Y-104608330D01*
X109771218Y-104628847D01*
X109781446Y-104650471D01*
X109789504Y-104672993D01*
X109795316Y-104696197D01*
X109798826Y-104719858D01*
X109800000Y-104743750D01*
X109800000Y-105656250D01*
X109798826Y-105680142D01*
X109795316Y-105703803D01*
X109789504Y-105727007D01*
X109781446Y-105749529D01*
X109771218Y-105771153D01*
X109758921Y-105791670D01*
X109744671Y-105810883D01*
X109728607Y-105828607D01*
X109710883Y-105844671D01*
X109691670Y-105858921D01*
X109671153Y-105871218D01*
X109649529Y-105881446D01*
X109627007Y-105889504D01*
X109603803Y-105895316D01*
X109580142Y-105898826D01*
X109556250Y-105900000D01*
X109068750Y-105900000D01*
X109044858Y-105898826D01*
X109021197Y-105895316D01*
X108997993Y-105889504D01*
X108975471Y-105881446D01*
X108953847Y-105871218D01*
X108933330Y-105858921D01*
X108914117Y-105844671D01*
X108896393Y-105828607D01*
X108880329Y-105810883D01*
X108866079Y-105791670D01*
X108853782Y-105771153D01*
X108843554Y-105749529D01*
X108835496Y-105727007D01*
X108829684Y-105703803D01*
X108826174Y-105680142D01*
X108825000Y-105656250D01*
X108825000Y-104743750D01*
X108826174Y-104719858D01*
X108829684Y-104696197D01*
X108835496Y-104672993D01*
X108843554Y-104650471D01*
X108853782Y-104628847D01*
X108866079Y-104608330D01*
X108880329Y-104589117D01*
X108896393Y-104571393D01*
X108914117Y-104555329D01*
X108933330Y-104541079D01*
X108953847Y-104528782D01*
X108975471Y-104518554D01*
X108997993Y-104510496D01*
X109021197Y-104504684D01*
X109044858Y-104501174D01*
X109068750Y-104500000D01*
X109556250Y-104500000D01*
X109580142Y-104501174D01*
X109580142Y-104501174D01*
G37*
D13*
X109312500Y-105200000D03*
D10*
G36*
X111455142Y-104501174D02*
G01*
X111478803Y-104504684D01*
X111502007Y-104510496D01*
X111524529Y-104518554D01*
X111546153Y-104528782D01*
X111566670Y-104541079D01*
X111585883Y-104555329D01*
X111603607Y-104571393D01*
X111619671Y-104589117D01*
X111633921Y-104608330D01*
X111646218Y-104628847D01*
X111656446Y-104650471D01*
X111664504Y-104672993D01*
X111670316Y-104696197D01*
X111673826Y-104719858D01*
X111675000Y-104743750D01*
X111675000Y-105656250D01*
X111673826Y-105680142D01*
X111670316Y-105703803D01*
X111664504Y-105727007D01*
X111656446Y-105749529D01*
X111646218Y-105771153D01*
X111633921Y-105791670D01*
X111619671Y-105810883D01*
X111603607Y-105828607D01*
X111585883Y-105844671D01*
X111566670Y-105858921D01*
X111546153Y-105871218D01*
X111524529Y-105881446D01*
X111502007Y-105889504D01*
X111478803Y-105895316D01*
X111455142Y-105898826D01*
X111431250Y-105900000D01*
X110943750Y-105900000D01*
X110919858Y-105898826D01*
X110896197Y-105895316D01*
X110872993Y-105889504D01*
X110850471Y-105881446D01*
X110828847Y-105871218D01*
X110808330Y-105858921D01*
X110789117Y-105844671D01*
X110771393Y-105828607D01*
X110755329Y-105810883D01*
X110741079Y-105791670D01*
X110728782Y-105771153D01*
X110718554Y-105749529D01*
X110710496Y-105727007D01*
X110704684Y-105703803D01*
X110701174Y-105680142D01*
X110700000Y-105656250D01*
X110700000Y-104743750D01*
X110701174Y-104719858D01*
X110704684Y-104696197D01*
X110710496Y-104672993D01*
X110718554Y-104650471D01*
X110728782Y-104628847D01*
X110741079Y-104608330D01*
X110755329Y-104589117D01*
X110771393Y-104571393D01*
X110789117Y-104555329D01*
X110808330Y-104541079D01*
X110828847Y-104528782D01*
X110850471Y-104518554D01*
X110872993Y-104510496D01*
X110896197Y-104504684D01*
X110919858Y-104501174D01*
X110943750Y-104500000D01*
X111431250Y-104500000D01*
X111455142Y-104501174D01*
X111455142Y-104501174D01*
G37*
D13*
X111187500Y-105200000D03*
D10*
G36*
X109580142Y-106476174D02*
G01*
X109603803Y-106479684D01*
X109627007Y-106485496D01*
X109649529Y-106493554D01*
X109671153Y-106503782D01*
X109691670Y-106516079D01*
X109710883Y-106530329D01*
X109728607Y-106546393D01*
X109744671Y-106564117D01*
X109758921Y-106583330D01*
X109771218Y-106603847D01*
X109781446Y-106625471D01*
X109789504Y-106647993D01*
X109795316Y-106671197D01*
X109798826Y-106694858D01*
X109800000Y-106718750D01*
X109800000Y-107631250D01*
X109798826Y-107655142D01*
X109795316Y-107678803D01*
X109789504Y-107702007D01*
X109781446Y-107724529D01*
X109771218Y-107746153D01*
X109758921Y-107766670D01*
X109744671Y-107785883D01*
X109728607Y-107803607D01*
X109710883Y-107819671D01*
X109691670Y-107833921D01*
X109671153Y-107846218D01*
X109649529Y-107856446D01*
X109627007Y-107864504D01*
X109603803Y-107870316D01*
X109580142Y-107873826D01*
X109556250Y-107875000D01*
X109068750Y-107875000D01*
X109044858Y-107873826D01*
X109021197Y-107870316D01*
X108997993Y-107864504D01*
X108975471Y-107856446D01*
X108953847Y-107846218D01*
X108933330Y-107833921D01*
X108914117Y-107819671D01*
X108896393Y-107803607D01*
X108880329Y-107785883D01*
X108866079Y-107766670D01*
X108853782Y-107746153D01*
X108843554Y-107724529D01*
X108835496Y-107702007D01*
X108829684Y-107678803D01*
X108826174Y-107655142D01*
X108825000Y-107631250D01*
X108825000Y-106718750D01*
X108826174Y-106694858D01*
X108829684Y-106671197D01*
X108835496Y-106647993D01*
X108843554Y-106625471D01*
X108853782Y-106603847D01*
X108866079Y-106583330D01*
X108880329Y-106564117D01*
X108896393Y-106546393D01*
X108914117Y-106530329D01*
X108933330Y-106516079D01*
X108953847Y-106503782D01*
X108975471Y-106493554D01*
X108997993Y-106485496D01*
X109021197Y-106479684D01*
X109044858Y-106476174D01*
X109068750Y-106475000D01*
X109556250Y-106475000D01*
X109580142Y-106476174D01*
X109580142Y-106476174D01*
G37*
D13*
X109312500Y-107175000D03*
D10*
G36*
X111455142Y-106476174D02*
G01*
X111478803Y-106479684D01*
X111502007Y-106485496D01*
X111524529Y-106493554D01*
X111546153Y-106503782D01*
X111566670Y-106516079D01*
X111585883Y-106530329D01*
X111603607Y-106546393D01*
X111619671Y-106564117D01*
X111633921Y-106583330D01*
X111646218Y-106603847D01*
X111656446Y-106625471D01*
X111664504Y-106647993D01*
X111670316Y-106671197D01*
X111673826Y-106694858D01*
X111675000Y-106718750D01*
X111675000Y-107631250D01*
X111673826Y-107655142D01*
X111670316Y-107678803D01*
X111664504Y-107702007D01*
X111656446Y-107724529D01*
X111646218Y-107746153D01*
X111633921Y-107766670D01*
X111619671Y-107785883D01*
X111603607Y-107803607D01*
X111585883Y-107819671D01*
X111566670Y-107833921D01*
X111546153Y-107846218D01*
X111524529Y-107856446D01*
X111502007Y-107864504D01*
X111478803Y-107870316D01*
X111455142Y-107873826D01*
X111431250Y-107875000D01*
X110943750Y-107875000D01*
X110919858Y-107873826D01*
X110896197Y-107870316D01*
X110872993Y-107864504D01*
X110850471Y-107856446D01*
X110828847Y-107846218D01*
X110808330Y-107833921D01*
X110789117Y-107819671D01*
X110771393Y-107803607D01*
X110755329Y-107785883D01*
X110741079Y-107766670D01*
X110728782Y-107746153D01*
X110718554Y-107724529D01*
X110710496Y-107702007D01*
X110704684Y-107678803D01*
X110701174Y-107655142D01*
X110700000Y-107631250D01*
X110700000Y-106718750D01*
X110701174Y-106694858D01*
X110704684Y-106671197D01*
X110710496Y-106647993D01*
X110718554Y-106625471D01*
X110728782Y-106603847D01*
X110741079Y-106583330D01*
X110755329Y-106564117D01*
X110771393Y-106546393D01*
X110789117Y-106530329D01*
X110808330Y-106516079D01*
X110828847Y-106503782D01*
X110850471Y-106493554D01*
X110872993Y-106485496D01*
X110896197Y-106479684D01*
X110919858Y-106476174D01*
X110943750Y-106475000D01*
X111431250Y-106475000D01*
X111455142Y-106476174D01*
X111455142Y-106476174D01*
G37*
D13*
X111187500Y-107175000D03*
D14*
X128225000Y-105150000D03*
X126575000Y-105150000D03*
M02*
