G04 #@! TF.GenerationSoftware,KiCad,Pcbnew,(5.1.4-0-10_14)*
G04 #@! TF.CreationDate,2020-07-29T13:34:46+03:00*
G04 #@! TF.ProjectId,esp32-pico-module,65737033-322d-4706-9963-6f2d6d6f6475,rev?*
G04 #@! TF.SameCoordinates,Original*
G04 #@! TF.FileFunction,Soldermask,Bot*
G04 #@! TF.FilePolarity,Negative*
%FSLAX46Y46*%
G04 Gerber Fmt 4.6, Leading zero omitted, Abs format (unit mm)*
G04 Created by KiCad (PCBNEW (5.1.4-0-10_14)) date 2020-07-29 13:34:46*
%MOMM*%
%LPD*%
G04 APERTURE LIST*
%ADD10C,0.100000*%
G04 APERTURE END LIST*
D10*
G36*
X109900443Y-113705519D02*
G01*
X109966627Y-113712037D01*
X110136466Y-113763557D01*
X110292991Y-113847222D01*
X110328729Y-113876552D01*
X110430186Y-113959814D01*
X110513448Y-114061271D01*
X110542778Y-114097009D01*
X110626443Y-114253534D01*
X110677963Y-114423373D01*
X110695359Y-114600000D01*
X110677963Y-114776627D01*
X110626443Y-114946466D01*
X110542778Y-115102991D01*
X110513448Y-115138729D01*
X110430186Y-115240186D01*
X110328729Y-115323448D01*
X110292991Y-115352778D01*
X110136466Y-115436443D01*
X109966627Y-115487963D01*
X109900443Y-115494481D01*
X109834260Y-115501000D01*
X109745740Y-115501000D01*
X109679557Y-115494481D01*
X109613373Y-115487963D01*
X109443534Y-115436443D01*
X109287009Y-115352778D01*
X109251271Y-115323448D01*
X109149814Y-115240186D01*
X109066552Y-115138729D01*
X109037222Y-115102991D01*
X108953557Y-114946466D01*
X108902037Y-114776627D01*
X108884641Y-114600000D01*
X108902037Y-114423373D01*
X108953557Y-114253534D01*
X109037222Y-114097009D01*
X109066552Y-114061271D01*
X109149814Y-113959814D01*
X109251271Y-113876552D01*
X109287009Y-113847222D01*
X109443534Y-113763557D01*
X109613373Y-113712037D01*
X109679557Y-113705519D01*
X109745740Y-113699000D01*
X109834260Y-113699000D01*
X109900443Y-113705519D01*
X109900443Y-113705519D01*
G37*
G36*
X125125025Y-113699000D02*
G01*
X125206627Y-113707037D01*
X125376466Y-113758557D01*
X125532991Y-113842222D01*
X125539082Y-113847221D01*
X125670186Y-113954814D01*
X125753448Y-114056271D01*
X125782778Y-114092009D01*
X125866443Y-114248534D01*
X125917963Y-114418373D01*
X125935359Y-114595000D01*
X125917963Y-114771627D01*
X125866443Y-114941466D01*
X125782778Y-115097991D01*
X125753448Y-115133729D01*
X125670186Y-115235186D01*
X125568729Y-115318448D01*
X125532991Y-115347778D01*
X125376466Y-115431443D01*
X125206627Y-115482963D01*
X125155860Y-115487963D01*
X125074260Y-115496000D01*
X124985740Y-115496000D01*
X124904140Y-115487963D01*
X124853373Y-115482963D01*
X124683534Y-115431443D01*
X124527009Y-115347778D01*
X124491271Y-115318448D01*
X124389814Y-115235186D01*
X124306552Y-115133729D01*
X124277222Y-115097991D01*
X124193557Y-114941466D01*
X124142037Y-114771627D01*
X124124641Y-114595000D01*
X124142037Y-114418373D01*
X124193557Y-114248534D01*
X124277222Y-114092009D01*
X124306552Y-114056271D01*
X124389814Y-113954814D01*
X124520918Y-113847221D01*
X124527009Y-113842222D01*
X124683534Y-113758557D01*
X124853373Y-113707037D01*
X124934975Y-113699000D01*
X124985740Y-113694000D01*
X125074260Y-113694000D01*
X125125025Y-113699000D01*
X125125025Y-113699000D01*
G37*
G36*
X122585025Y-113699000D02*
G01*
X122666627Y-113707037D01*
X122836466Y-113758557D01*
X122992991Y-113842222D01*
X122999082Y-113847221D01*
X123130186Y-113954814D01*
X123213448Y-114056271D01*
X123242778Y-114092009D01*
X123326443Y-114248534D01*
X123377963Y-114418373D01*
X123395359Y-114595000D01*
X123377963Y-114771627D01*
X123326443Y-114941466D01*
X123242778Y-115097991D01*
X123213448Y-115133729D01*
X123130186Y-115235186D01*
X123028729Y-115318448D01*
X122992991Y-115347778D01*
X122836466Y-115431443D01*
X122666627Y-115482963D01*
X122615860Y-115487963D01*
X122534260Y-115496000D01*
X122445740Y-115496000D01*
X122364140Y-115487963D01*
X122313373Y-115482963D01*
X122143534Y-115431443D01*
X121987009Y-115347778D01*
X121951271Y-115318448D01*
X121849814Y-115235186D01*
X121766552Y-115133729D01*
X121737222Y-115097991D01*
X121653557Y-114941466D01*
X121602037Y-114771627D01*
X121584641Y-114595000D01*
X121602037Y-114418373D01*
X121653557Y-114248534D01*
X121737222Y-114092009D01*
X121766552Y-114056271D01*
X121849814Y-113954814D01*
X121980918Y-113847221D01*
X121987009Y-113842222D01*
X122143534Y-113758557D01*
X122313373Y-113707037D01*
X122394975Y-113699000D01*
X122445740Y-113694000D01*
X122534260Y-113694000D01*
X122585025Y-113699000D01*
X122585025Y-113699000D01*
G37*
G36*
X120045025Y-113699000D02*
G01*
X120126627Y-113707037D01*
X120296466Y-113758557D01*
X120452991Y-113842222D01*
X120459082Y-113847221D01*
X120590186Y-113954814D01*
X120673448Y-114056271D01*
X120702778Y-114092009D01*
X120786443Y-114248534D01*
X120837963Y-114418373D01*
X120855359Y-114595000D01*
X120837963Y-114771627D01*
X120786443Y-114941466D01*
X120702778Y-115097991D01*
X120673448Y-115133729D01*
X120590186Y-115235186D01*
X120488729Y-115318448D01*
X120452991Y-115347778D01*
X120296466Y-115431443D01*
X120126627Y-115482963D01*
X120075860Y-115487963D01*
X119994260Y-115496000D01*
X119905740Y-115496000D01*
X119824140Y-115487963D01*
X119773373Y-115482963D01*
X119603534Y-115431443D01*
X119447009Y-115347778D01*
X119411271Y-115318448D01*
X119309814Y-115235186D01*
X119226552Y-115133729D01*
X119197222Y-115097991D01*
X119113557Y-114941466D01*
X119062037Y-114771627D01*
X119044641Y-114595000D01*
X119062037Y-114418373D01*
X119113557Y-114248534D01*
X119197222Y-114092009D01*
X119226552Y-114056271D01*
X119309814Y-113954814D01*
X119440918Y-113847221D01*
X119447009Y-113842222D01*
X119603534Y-113758557D01*
X119773373Y-113707037D01*
X119854975Y-113699000D01*
X119905740Y-113694000D01*
X119994260Y-113694000D01*
X120045025Y-113699000D01*
X120045025Y-113699000D01*
G37*
G36*
X117505025Y-113699000D02*
G01*
X117586627Y-113707037D01*
X117756466Y-113758557D01*
X117912991Y-113842222D01*
X117919082Y-113847221D01*
X118050186Y-113954814D01*
X118133448Y-114056271D01*
X118162778Y-114092009D01*
X118246443Y-114248534D01*
X118297963Y-114418373D01*
X118315359Y-114595000D01*
X118297963Y-114771627D01*
X118246443Y-114941466D01*
X118162778Y-115097991D01*
X118133448Y-115133729D01*
X118050186Y-115235186D01*
X117948729Y-115318448D01*
X117912991Y-115347778D01*
X117756466Y-115431443D01*
X117586627Y-115482963D01*
X117535860Y-115487963D01*
X117454260Y-115496000D01*
X117365740Y-115496000D01*
X117284140Y-115487963D01*
X117233373Y-115482963D01*
X117063534Y-115431443D01*
X116907009Y-115347778D01*
X116871271Y-115318448D01*
X116769814Y-115235186D01*
X116686552Y-115133729D01*
X116657222Y-115097991D01*
X116573557Y-114941466D01*
X116522037Y-114771627D01*
X116504641Y-114595000D01*
X116522037Y-114418373D01*
X116573557Y-114248534D01*
X116657222Y-114092009D01*
X116686552Y-114056271D01*
X116769814Y-113954814D01*
X116900918Y-113847221D01*
X116907009Y-113842222D01*
X117063534Y-113758557D01*
X117233373Y-113707037D01*
X117314975Y-113699000D01*
X117365740Y-113694000D01*
X117454260Y-113694000D01*
X117505025Y-113699000D01*
X117505025Y-113699000D01*
G37*
G36*
X114965025Y-113699000D02*
G01*
X115046627Y-113707037D01*
X115216466Y-113758557D01*
X115372991Y-113842222D01*
X115379082Y-113847221D01*
X115510186Y-113954814D01*
X115593448Y-114056271D01*
X115622778Y-114092009D01*
X115706443Y-114248534D01*
X115757963Y-114418373D01*
X115775359Y-114595000D01*
X115757963Y-114771627D01*
X115706443Y-114941466D01*
X115622778Y-115097991D01*
X115593448Y-115133729D01*
X115510186Y-115235186D01*
X115408729Y-115318448D01*
X115372991Y-115347778D01*
X115216466Y-115431443D01*
X115046627Y-115482963D01*
X114995860Y-115487963D01*
X114914260Y-115496000D01*
X114825740Y-115496000D01*
X114744140Y-115487963D01*
X114693373Y-115482963D01*
X114523534Y-115431443D01*
X114367009Y-115347778D01*
X114331271Y-115318448D01*
X114229814Y-115235186D01*
X114146552Y-115133729D01*
X114117222Y-115097991D01*
X114033557Y-114941466D01*
X113982037Y-114771627D01*
X113964641Y-114595000D01*
X113982037Y-114418373D01*
X114033557Y-114248534D01*
X114117222Y-114092009D01*
X114146552Y-114056271D01*
X114229814Y-113954814D01*
X114360918Y-113847221D01*
X114367009Y-113842222D01*
X114523534Y-113758557D01*
X114693373Y-113707037D01*
X114774975Y-113699000D01*
X114825740Y-113694000D01*
X114914260Y-113694000D01*
X114965025Y-113699000D01*
X114965025Y-113699000D01*
G37*
G36*
X112425025Y-113699000D02*
G01*
X112506627Y-113707037D01*
X112676466Y-113758557D01*
X112832991Y-113842222D01*
X112839082Y-113847221D01*
X112970186Y-113954814D01*
X113053448Y-114056271D01*
X113082778Y-114092009D01*
X113166443Y-114248534D01*
X113217963Y-114418373D01*
X113235359Y-114595000D01*
X113217963Y-114771627D01*
X113166443Y-114941466D01*
X113082778Y-115097991D01*
X113053448Y-115133729D01*
X112970186Y-115235186D01*
X112868729Y-115318448D01*
X112832991Y-115347778D01*
X112676466Y-115431443D01*
X112506627Y-115482963D01*
X112455860Y-115487963D01*
X112374260Y-115496000D01*
X112285740Y-115496000D01*
X112204140Y-115487963D01*
X112153373Y-115482963D01*
X111983534Y-115431443D01*
X111827009Y-115347778D01*
X111791271Y-115318448D01*
X111689814Y-115235186D01*
X111606552Y-115133729D01*
X111577222Y-115097991D01*
X111493557Y-114941466D01*
X111442037Y-114771627D01*
X111424641Y-114595000D01*
X111442037Y-114418373D01*
X111493557Y-114248534D01*
X111577222Y-114092009D01*
X111606552Y-114056271D01*
X111689814Y-113954814D01*
X111820918Y-113847221D01*
X111827009Y-113842222D01*
X111983534Y-113758557D01*
X112153373Y-113707037D01*
X112234975Y-113699000D01*
X112285740Y-113694000D01*
X112374260Y-113694000D01*
X112425025Y-113699000D01*
X112425025Y-113699000D01*
G37*
G36*
X127665025Y-113699000D02*
G01*
X127746627Y-113707037D01*
X127916466Y-113758557D01*
X128072991Y-113842222D01*
X128079082Y-113847221D01*
X128210186Y-113954814D01*
X128293448Y-114056271D01*
X128322778Y-114092009D01*
X128406443Y-114248534D01*
X128457963Y-114418373D01*
X128475359Y-114595000D01*
X128457963Y-114771627D01*
X128406443Y-114941466D01*
X128322778Y-115097991D01*
X128293448Y-115133729D01*
X128210186Y-115235186D01*
X128108729Y-115318448D01*
X128072991Y-115347778D01*
X127916466Y-115431443D01*
X127746627Y-115482963D01*
X127695860Y-115487963D01*
X127614260Y-115496000D01*
X127525740Y-115496000D01*
X127444140Y-115487963D01*
X127393373Y-115482963D01*
X127223534Y-115431443D01*
X127067009Y-115347778D01*
X127031271Y-115318448D01*
X126929814Y-115235186D01*
X126846552Y-115133729D01*
X126817222Y-115097991D01*
X126733557Y-114941466D01*
X126682037Y-114771627D01*
X126664641Y-114595000D01*
X126682037Y-114418373D01*
X126733557Y-114248534D01*
X126817222Y-114092009D01*
X126846552Y-114056271D01*
X126929814Y-113954814D01*
X127060918Y-113847221D01*
X127067009Y-113842222D01*
X127223534Y-113758557D01*
X127393373Y-113707037D01*
X127474975Y-113699000D01*
X127525740Y-113694000D01*
X127614260Y-113694000D01*
X127665025Y-113699000D01*
X127665025Y-113699000D01*
G37*
G36*
X109900442Y-100905518D02*
G01*
X109966627Y-100912037D01*
X110136466Y-100963557D01*
X110292991Y-101047222D01*
X110328729Y-101076552D01*
X110430186Y-101159814D01*
X110513448Y-101261271D01*
X110542778Y-101297009D01*
X110626443Y-101453534D01*
X110677963Y-101623373D01*
X110695359Y-101800000D01*
X110677963Y-101976627D01*
X110626443Y-102146466D01*
X110542778Y-102302991D01*
X110513448Y-102338729D01*
X110430186Y-102440186D01*
X110328729Y-102523448D01*
X110292991Y-102552778D01*
X110136466Y-102636443D01*
X109966627Y-102687963D01*
X109900443Y-102694481D01*
X109834260Y-102701000D01*
X109745740Y-102701000D01*
X109679557Y-102694481D01*
X109613373Y-102687963D01*
X109443534Y-102636443D01*
X109287009Y-102552778D01*
X109251271Y-102523448D01*
X109149814Y-102440186D01*
X109066552Y-102338729D01*
X109037222Y-102302991D01*
X108953557Y-102146466D01*
X108902037Y-101976627D01*
X108884641Y-101800000D01*
X108902037Y-101623373D01*
X108953557Y-101453534D01*
X109037222Y-101297009D01*
X109066552Y-101261271D01*
X109149814Y-101159814D01*
X109251271Y-101076552D01*
X109287009Y-101047222D01*
X109443534Y-100963557D01*
X109613373Y-100912037D01*
X109679557Y-100905519D01*
X109745740Y-100899000D01*
X109834260Y-100899000D01*
X109900442Y-100905518D01*
X109900442Y-100905518D01*
G37*
G36*
X127665025Y-100899000D02*
G01*
X127746627Y-100907037D01*
X127916466Y-100958557D01*
X128072991Y-101042222D01*
X128079082Y-101047221D01*
X128210186Y-101154814D01*
X128293448Y-101256271D01*
X128322778Y-101292009D01*
X128406443Y-101448534D01*
X128457963Y-101618373D01*
X128475359Y-101795000D01*
X128457963Y-101971627D01*
X128406443Y-102141466D01*
X128322778Y-102297991D01*
X128293448Y-102333729D01*
X128210186Y-102435186D01*
X128108729Y-102518448D01*
X128072991Y-102547778D01*
X127916466Y-102631443D01*
X127746627Y-102682963D01*
X127695860Y-102687963D01*
X127614260Y-102696000D01*
X127525740Y-102696000D01*
X127444140Y-102687963D01*
X127393373Y-102682963D01*
X127223534Y-102631443D01*
X127067009Y-102547778D01*
X127031271Y-102518448D01*
X126929814Y-102435186D01*
X126846552Y-102333729D01*
X126817222Y-102297991D01*
X126733557Y-102141466D01*
X126682037Y-101971627D01*
X126664641Y-101795000D01*
X126682037Y-101618373D01*
X126733557Y-101448534D01*
X126817222Y-101292009D01*
X126846552Y-101256271D01*
X126929814Y-101154814D01*
X127060918Y-101047221D01*
X127067009Y-101042222D01*
X127223534Y-100958557D01*
X127393373Y-100907037D01*
X127474975Y-100899000D01*
X127525740Y-100894000D01*
X127614260Y-100894000D01*
X127665025Y-100899000D01*
X127665025Y-100899000D01*
G37*
G36*
X125125025Y-100899000D02*
G01*
X125206627Y-100907037D01*
X125376466Y-100958557D01*
X125532991Y-101042222D01*
X125539082Y-101047221D01*
X125670186Y-101154814D01*
X125753448Y-101256271D01*
X125782778Y-101292009D01*
X125866443Y-101448534D01*
X125917963Y-101618373D01*
X125935359Y-101795000D01*
X125917963Y-101971627D01*
X125866443Y-102141466D01*
X125782778Y-102297991D01*
X125753448Y-102333729D01*
X125670186Y-102435186D01*
X125568729Y-102518448D01*
X125532991Y-102547778D01*
X125376466Y-102631443D01*
X125206627Y-102682963D01*
X125155860Y-102687963D01*
X125074260Y-102696000D01*
X124985740Y-102696000D01*
X124904140Y-102687963D01*
X124853373Y-102682963D01*
X124683534Y-102631443D01*
X124527009Y-102547778D01*
X124491271Y-102518448D01*
X124389814Y-102435186D01*
X124306552Y-102333729D01*
X124277222Y-102297991D01*
X124193557Y-102141466D01*
X124142037Y-101971627D01*
X124124641Y-101795000D01*
X124142037Y-101618373D01*
X124193557Y-101448534D01*
X124277222Y-101292009D01*
X124306552Y-101256271D01*
X124389814Y-101154814D01*
X124520918Y-101047221D01*
X124527009Y-101042222D01*
X124683534Y-100958557D01*
X124853373Y-100907037D01*
X124934975Y-100899000D01*
X124985740Y-100894000D01*
X125074260Y-100894000D01*
X125125025Y-100899000D01*
X125125025Y-100899000D01*
G37*
G36*
X122585025Y-100899000D02*
G01*
X122666627Y-100907037D01*
X122836466Y-100958557D01*
X122992991Y-101042222D01*
X122999082Y-101047221D01*
X123130186Y-101154814D01*
X123213448Y-101256271D01*
X123242778Y-101292009D01*
X123326443Y-101448534D01*
X123377963Y-101618373D01*
X123395359Y-101795000D01*
X123377963Y-101971627D01*
X123326443Y-102141466D01*
X123242778Y-102297991D01*
X123213448Y-102333729D01*
X123130186Y-102435186D01*
X123028729Y-102518448D01*
X122992991Y-102547778D01*
X122836466Y-102631443D01*
X122666627Y-102682963D01*
X122615860Y-102687963D01*
X122534260Y-102696000D01*
X122445740Y-102696000D01*
X122364140Y-102687963D01*
X122313373Y-102682963D01*
X122143534Y-102631443D01*
X121987009Y-102547778D01*
X121951271Y-102518448D01*
X121849814Y-102435186D01*
X121766552Y-102333729D01*
X121737222Y-102297991D01*
X121653557Y-102141466D01*
X121602037Y-101971627D01*
X121584641Y-101795000D01*
X121602037Y-101618373D01*
X121653557Y-101448534D01*
X121737222Y-101292009D01*
X121766552Y-101256271D01*
X121849814Y-101154814D01*
X121980918Y-101047221D01*
X121987009Y-101042222D01*
X122143534Y-100958557D01*
X122313373Y-100907037D01*
X122394975Y-100899000D01*
X122445740Y-100894000D01*
X122534260Y-100894000D01*
X122585025Y-100899000D01*
X122585025Y-100899000D01*
G37*
G36*
X120045025Y-100899000D02*
G01*
X120126627Y-100907037D01*
X120296466Y-100958557D01*
X120452991Y-101042222D01*
X120459082Y-101047221D01*
X120590186Y-101154814D01*
X120673448Y-101256271D01*
X120702778Y-101292009D01*
X120786443Y-101448534D01*
X120837963Y-101618373D01*
X120855359Y-101795000D01*
X120837963Y-101971627D01*
X120786443Y-102141466D01*
X120702778Y-102297991D01*
X120673448Y-102333729D01*
X120590186Y-102435186D01*
X120488729Y-102518448D01*
X120452991Y-102547778D01*
X120296466Y-102631443D01*
X120126627Y-102682963D01*
X120075860Y-102687963D01*
X119994260Y-102696000D01*
X119905740Y-102696000D01*
X119824140Y-102687963D01*
X119773373Y-102682963D01*
X119603534Y-102631443D01*
X119447009Y-102547778D01*
X119411271Y-102518448D01*
X119309814Y-102435186D01*
X119226552Y-102333729D01*
X119197222Y-102297991D01*
X119113557Y-102141466D01*
X119062037Y-101971627D01*
X119044641Y-101795000D01*
X119062037Y-101618373D01*
X119113557Y-101448534D01*
X119197222Y-101292009D01*
X119226552Y-101256271D01*
X119309814Y-101154814D01*
X119440918Y-101047221D01*
X119447009Y-101042222D01*
X119603534Y-100958557D01*
X119773373Y-100907037D01*
X119854975Y-100899000D01*
X119905740Y-100894000D01*
X119994260Y-100894000D01*
X120045025Y-100899000D01*
X120045025Y-100899000D01*
G37*
G36*
X117505025Y-100899000D02*
G01*
X117586627Y-100907037D01*
X117756466Y-100958557D01*
X117912991Y-101042222D01*
X117919082Y-101047221D01*
X118050186Y-101154814D01*
X118133448Y-101256271D01*
X118162778Y-101292009D01*
X118246443Y-101448534D01*
X118297963Y-101618373D01*
X118315359Y-101795000D01*
X118297963Y-101971627D01*
X118246443Y-102141466D01*
X118162778Y-102297991D01*
X118133448Y-102333729D01*
X118050186Y-102435186D01*
X117948729Y-102518448D01*
X117912991Y-102547778D01*
X117756466Y-102631443D01*
X117586627Y-102682963D01*
X117535860Y-102687963D01*
X117454260Y-102696000D01*
X117365740Y-102696000D01*
X117284140Y-102687963D01*
X117233373Y-102682963D01*
X117063534Y-102631443D01*
X116907009Y-102547778D01*
X116871271Y-102518448D01*
X116769814Y-102435186D01*
X116686552Y-102333729D01*
X116657222Y-102297991D01*
X116573557Y-102141466D01*
X116522037Y-101971627D01*
X116504641Y-101795000D01*
X116522037Y-101618373D01*
X116573557Y-101448534D01*
X116657222Y-101292009D01*
X116686552Y-101256271D01*
X116769814Y-101154814D01*
X116900918Y-101047221D01*
X116907009Y-101042222D01*
X117063534Y-100958557D01*
X117233373Y-100907037D01*
X117314975Y-100899000D01*
X117365740Y-100894000D01*
X117454260Y-100894000D01*
X117505025Y-100899000D01*
X117505025Y-100899000D01*
G37*
G36*
X114965025Y-100899000D02*
G01*
X115046627Y-100907037D01*
X115216466Y-100958557D01*
X115372991Y-101042222D01*
X115379082Y-101047221D01*
X115510186Y-101154814D01*
X115593448Y-101256271D01*
X115622778Y-101292009D01*
X115706443Y-101448534D01*
X115757963Y-101618373D01*
X115775359Y-101795000D01*
X115757963Y-101971627D01*
X115706443Y-102141466D01*
X115622778Y-102297991D01*
X115593448Y-102333729D01*
X115510186Y-102435186D01*
X115408729Y-102518448D01*
X115372991Y-102547778D01*
X115216466Y-102631443D01*
X115046627Y-102682963D01*
X114995860Y-102687963D01*
X114914260Y-102696000D01*
X114825740Y-102696000D01*
X114744140Y-102687963D01*
X114693373Y-102682963D01*
X114523534Y-102631443D01*
X114367009Y-102547778D01*
X114331271Y-102518448D01*
X114229814Y-102435186D01*
X114146552Y-102333729D01*
X114117222Y-102297991D01*
X114033557Y-102141466D01*
X113982037Y-101971627D01*
X113964641Y-101795000D01*
X113982037Y-101618373D01*
X114033557Y-101448534D01*
X114117222Y-101292009D01*
X114146552Y-101256271D01*
X114229814Y-101154814D01*
X114360918Y-101047221D01*
X114367009Y-101042222D01*
X114523534Y-100958557D01*
X114693373Y-100907037D01*
X114774975Y-100899000D01*
X114825740Y-100894000D01*
X114914260Y-100894000D01*
X114965025Y-100899000D01*
X114965025Y-100899000D01*
G37*
G36*
X112425025Y-100899000D02*
G01*
X112506627Y-100907037D01*
X112676466Y-100958557D01*
X112832991Y-101042222D01*
X112839082Y-101047221D01*
X112970186Y-101154814D01*
X113053448Y-101256271D01*
X113082778Y-101292009D01*
X113166443Y-101448534D01*
X113217963Y-101618373D01*
X113235359Y-101795000D01*
X113217963Y-101971627D01*
X113166443Y-102141466D01*
X113082778Y-102297991D01*
X113053448Y-102333729D01*
X112970186Y-102435186D01*
X112868729Y-102518448D01*
X112832991Y-102547778D01*
X112676466Y-102631443D01*
X112506627Y-102682963D01*
X112455860Y-102687963D01*
X112374260Y-102696000D01*
X112285740Y-102696000D01*
X112204140Y-102687963D01*
X112153373Y-102682963D01*
X111983534Y-102631443D01*
X111827009Y-102547778D01*
X111791271Y-102518448D01*
X111689814Y-102435186D01*
X111606552Y-102333729D01*
X111577222Y-102297991D01*
X111493557Y-102141466D01*
X111442037Y-101971627D01*
X111424641Y-101795000D01*
X111442037Y-101618373D01*
X111493557Y-101448534D01*
X111577222Y-101292009D01*
X111606552Y-101256271D01*
X111689814Y-101154814D01*
X111820918Y-101047221D01*
X111827009Y-101042222D01*
X111983534Y-100958557D01*
X112153373Y-100907037D01*
X112234975Y-100899000D01*
X112285740Y-100894000D01*
X112374260Y-100894000D01*
X112425025Y-100899000D01*
X112425025Y-100899000D01*
G37*
M02*
